<svg fill="none" stroke-linecap="square" stroke-miterlimit="10" viewBox="0 0 576.12073491 301.96587927" xmlns="http://www.w3.org/2000/svg" xmlns:xlink="http://www.w3.org/1999/xlink"><clipPath id="a"><path d="m0 0h576.1207v301.96588h-576.1207z"/></clipPath><g clip-path="url(#a)"><path d="m0 0h576.1207v301.96588h-576.1207z" fill="none"/><path d="m325.99213 144.49606 97.03937-37.480316" fill="none"/><path d="m325.99213 144.49606 97.03937-37.480316" fill-rule="evenodd" stroke="#999" stroke-linecap="butt" stroke-linejoin="round" stroke-width="2"/><path d="m262.49606 123-128.97638-63.968502" fill="none"/><path d="m251.74567 117.66812-118.22598-58.636623" fill-rule="evenodd" stroke="#4a86e8" stroke-linecap="butt" stroke-linejoin="round" stroke-width="2"/><path d="m250.27786 120.62758 9.598877 1.0733032-6.663269-6.9922256z" fill="#4a86e8" fill-rule="evenodd" stroke="#4a86e8" stroke-linecap="butt" stroke-width="2"/><path d="m172.02362 260.91077 90.48819-94.92914" fill="none"/><g fill-rule="evenodd"><path d="m172.02362 260.91077 82.20853-86.24312" stroke="#6aa84f" stroke-linecap="butt" stroke-linejoin="round" stroke-width="2"/><path d="m256.6233 176.94695 3.8711853-8.8489685-8.653503 4.2903748z" fill="#6aa84f" stroke="#6aa84f" stroke-linecap="butt" stroke-width="2"/><path d="m199 123h126.99213v42.992126h-126.99213z" fill="#fff2cc"/><path d="m199 123h126.99213v42.992126h-126.99213z" stroke="#000" stroke-linecap="butt" stroke-linejoin="round"/></g><path d="m214.48904 151.41606v-9.859375h1.5v1.5q.578125-1.046875 1.0625-1.375.484375-.34375 1.078125-.34375.84375 0 1.71875.546875l-.578125 1.546875q-.609375-.359375-1.234375-.359375-.546875 0-.984375.328125-.421875.328125-.609375.90625-.28125.890625-.28125 1.953125v5.15625zm12.978302-3.171875 1.71875.21875q-.40625 1.5-1.515625 2.34375-1.09375.828125-2.8125.828125-2.15625 0-3.421875-1.328125-1.265625-1.328125-1.265625-3.734375 0-2.484375 1.265625-3.859375 1.28125-1.375 3.328125-1.375 1.984375 0 3.234375 1.34375 1.25 1.34375 1.25 3.796875 0 .140625-.015625.4375h-7.34375q.09375 1.625.921875 2.484375.828125.859375 2.0625.859375.90625 0 1.546875-.46875.65625-.484375 1.046875-1.546875zm-5.484375-2.703125h5.5q-.109375-1.234375-.625-1.859375-.796875-.96875-2.078125-.96875-1.140625 0-1.9375.78125-.78125.765625-.859375 2.046875zm15.500732 5.875v-1.25q-.9375 1.46875-2.75 1.46875-1.171875 0-2.171875-.640625-.984375-.65625-1.53125-1.8125-.53125-1.171875-.53125-2.6875 0-1.46875.484375-2.671875.5-1.203125 1.46875-1.84375.984375-.640625 2.203125-.640625.890625 0 1.578125.375.703125.375 1.140625.984375v-4.875h1.65625v13.59375zm-5.28125-4.921875q0 1.890625.796875 2.828125.8125.9375 1.890625.9375 1.09375 0 1.859375-.890625.765625-.890625.765625-2.734375 0-2.015625-.78125-2.953125-.78125-.953125-1.921875-.953125-1.109375 0-1.859375.90625-.75.90625-.75 2.859375zm9.281952-6.765625v-1.90625h1.671875v1.90625zm0 11.6875v-9.859375h1.671875v9.859375zm3.4573364-2.9375 1.65625-.265625q.140625 1 .765625 1.53125.640625.515625 1.78125.515625 1.15625 0 1.703125-.46875.5625-.46875.5625-1.09375 0-.5625-.484375-.890625-.34375-.21875-1.703125-.5625-1.84375-.46875-2.5625-.796875-.703125-.34375-1.078125-.9375-.359375-.609375-.359375-1.328125 0-.65625.296875-1.21875.3125-.5625.828125-.9375.390625-.28125 1.0625-.484375.671875-.203125 1.4375-.203125 1.171875 0 2.046875.34375.875.328125 1.28125.90625.421875.5625.578125 1.515625l-1.625.21875q-.109375-.75-.65625-1.171875-.53125-.4375-1.5-.4375-1.15625 0-1.640625.390625-.484375.375-.484375.875 0 .328125.203125.59375.203125.265625.640625.4375.25.09375 1.46875.4375 1.765625.46875 2.46875.765625.703125.296875 1.09375.875.40625.578125.40625 1.4375 0 .828125-.484375 1.578125-.484375.734375-1.40625 1.140625-.921875.390625-2.078125.390625-1.921875 0-2.9375-.796875-1-.796875-1.28125-2.359375zm9.359375-1.140625v-1.6875h5.125v1.6875zm6.181427 1.140625 1.65625-.265625q.140625 1 .765625 1.53125.640625.515625 1.78125.515625 1.15625 0 1.703125-.46875.5625-.46875.5625-1.09375 0-.5625-.484375-.890625-.34375-.21875-1.703125-.5625-1.84375-.46875-2.5625-.796875-.703125-.34375-1.078125-.9375-.359375-.609375-.359375-1.328125 0-.65625.296875-1.21875.3125-.5625.828125-.9375.390625-.28125 1.0625-.484375.671875-.203125 1.4375-.203125 1.171875 0 2.046875.34375.875.328125 1.28125.90625.421875.5625.578125 1.515625l-1.625.21875q-.109375-.75-.65625-1.171875-.53125-.4375-1.5-.4375-1.15625 0-1.640625.390625-.484375.375-.484375.875 0 .328125.203125.59375.203125.265625.640625.4375.25.09375 1.46875.4375 1.765625.46875 2.46875.765625.703125.296875 1.09375.875.40625.578125.40625 1.4375 0 .828125-.484375 1.578125-.484375.734375-1.40625 1.140625-.921875.390625-2.078125.390625-1.921875 0-2.9375-.796875-1-.796875-1.28125-2.359375zm16.75-.234375 1.71875.21875q-.40625 1.5-1.515625 2.34375-1.09375.828125-2.8125.828125-2.15625 0-3.421875-1.328125-1.265625-1.328125-1.265625-3.734375 0-2.484375 1.265625-3.859375 1.28125-1.375 3.328125-1.375 1.984375 0 3.234375 1.34375 1.25 1.34375 1.25 3.796875 0 .140625-.015625.4375h-7.34375q.09375 1.625.921875 2.484375.828125.859375 2.0625.859375.90625 0 1.546875-.46875.65625-.484375 1.046875-1.546875zm-5.484375-2.703125h5.5q-.109375-1.234375-.625-1.859375-.796875-.96875-2.078125-.96875-1.140625 0-1.9375.78125-.78125.765625-.859375 2.046875zm9.094452 5.875v-9.859375h1.5v1.5q.578125-1.046875 1.0625-1.375.484375-.34375 1.078125-.34375.84375 0 1.71875.546875l-.578125 1.546875q-.609375-.359375-1.234375-.359375-.546875 0-.984375.328125-.421875.328125-.609375.90625-.28125.890625-.28125 1.953125v5.15625zm8.962677 0-3.75-9.859375h1.765625l2.125 5.90625q.34375.953125.625 1.984375.21875-.78125.625-1.875l2.1875-6.015625h1.71875l-3.734375 9.859375zm13.34375-3.171875 1.71875.21875q-.40625 1.5-1.515625 2.34375-1.09375.828125-2.8125.828125-2.15625 0-3.421875-1.328125-1.265625-1.328125-1.265625-3.734375 0-2.484375 1.265625-3.859375 1.28125-1.375 3.328125-1.375 1.984375 0 3.234375 1.34375 1.25 1.34375 1.25 3.796875 0 .140625-.015625.4375h-7.34375q.09375 1.625.921875 2.484375.828125.859375 2.0625.859375.90625 0 1.546875-.46875.65625-.484375 1.046875-1.546875zm-5.484375-2.703125h5.5q-.109375-1.234375-.625-1.859375-.796875-.96875-2.078125-.96875-1.140625 0-1.9375.78125-.78125.765625-.859375 2.046875zm9.094482 5.875v-9.859375h1.5v1.5q.578125-1.046875 1.0625-1.375.484375-.34375 1.078125-.34375.84375 0 1.71875.546875l-.578125 1.546875q-.609375-.359375-1.234375-.359375-.546875 0-.984375.328125-.421875.328125-.609375.90625-.28125.890625-.28125 1.953125v5.15625z" fill="#000"/><path d="m95.04724 244.91077h76.97638v32h-76.97638z" fill="#c9daf8" fill-rule="evenodd"/><path d="m95.04724 244.91077h76.97638v32h-76.97638z" fill-rule="evenodd" stroke="#000" stroke-linecap="butt" stroke-linejoin="round"/><path d="m117.47435 262.44513 1.234375.3125q-.390625 1.515625-1.40625 2.3125-1 .796875-2.453125.796875-1.5 0-2.453125-.609375-.9375-.609375-1.4375-1.765625-.484375-1.171875-.484375-2.5 0-1.453125.5625-2.53125.5625-1.09375 1.578125-1.65625 1.03125-.5625 2.265625-.5625 1.390625 0 2.34375.71875.953125.703125 1.328125 2l-1.21875.28125q-.328125-1.015625-.9375-1.46875-.609375-.46875-1.546875-.46875-1.078125 0-1.796875.515625-.71875.515625-1.015625 1.375-.28125.859375-.28125 1.78125 0 1.1875.34375 2.078125.34375.890625 1.0625 1.328125.734375.4375 1.59375.4375 1.03125 0 1.75-.59375.71875-.609375.96875-1.78125zm2.8126526 3.265625v-9.3125h1.140625v9.3125zm2.99234-7.984375v-1.328125h1.140625v1.328125zm0 7.984375v-6.734375h1.140625v6.734375zm7.570465-2.171875 1.1875.140625q-.28125 1.046875-1.046875 1.625-.75.5625-1.921875.5625-1.484375 0-2.359375-.90625-.859375-.921875-.859375-2.5625 0-1.703125.875-2.640625.890625-.9375 2.28125-.9375 1.359375 0 2.203125.921875.859375.921875.859375 2.578125 0 .109375 0 .3125h-5.03125q.0625 1.109375.625 1.703125.5625.59375 1.40625.59375.640625 0 1.078125-.328125.453125-.34375.703125-1.0625zm-3.75-1.84375h3.765625q-.078125-.859375-.4375-1.28125-.546875-.65625-1.40625-.65625-.796875 0-1.328125.53125-.53125.515625-.59375 1.40625zm6.5531006 4.015625v-6.734375h1.03125v.953125q.734375-1.109375 2.140625-1.109375.609375 0 1.109375.21875.515625.21875.765625.578125.265625.34375.359375.84375.0625.3125.0625 1.109375v4.140625h-1.140625v-4.09375q0-.703125-.140625-1.046875-.125-.34375-.46875-.546875-.328125-.21875-.78125-.21875-.734375 0-1.265625.46875-.53125.453125-.53125 1.75v3.6875zm9.912476-1.015625.15625 1q-.484375.109375-.859375.109375-.625 0-.96875-.203125-.34375-.203125-.484375-.515625-.140625-.328125-.140625-1.34375v-3.890625h-.828125v-.875h.828125v-1.671875l1.140625-.6875v2.359375h1.15625v.875h-1.15625v3.953125q0 .484375.0625.625.0625.140625.1875.21875.140625.078125.390625.078125.203125 0 .515625-.03125zm11.687225-2.25 1.234375.3125q-.390625 1.515625-1.40625 2.3125-1 .796875-2.453125.796875-1.5 0-2.453125-.609375-.9375-.609375-1.4375-1.765625-.484375-1.171875-.484375-2.5 0-1.453125.5625-2.53125.5625-1.09375 1.578125-1.65625 1.03125-.5625 2.265625-.5625 1.390625 0 2.34375.71875.953125.703125 1.328125 2l-1.21875.28125q-.328125-1.015625-.9375-1.46875-.609375-.46875-1.546875-.46875-1.078125 0-1.796875.515625-.71875.515625-1.015625 1.375-.28125.859375-.28125 1.78125 0 1.1875.34375 2.078125.34375.890625 1.0625 1.328125.734375.4375 1.59375.4375 1.03125 0 1.75-.59375.71875-.609375.96875-1.78125z" fill="#000"/><path d="m423.0315 91h76.97638v32h-76.97638z" fill="#c9daf8" fill-rule="evenodd"/><path d="m423.0315 91h76.97638v32h-76.97638z" fill-rule="evenodd" stroke="#000" stroke-linecap="butt" stroke-linejoin="round"/><path d="m445.8263 108.53438 1.234375.3125q-.390625 1.515625-1.40625 2.3125-1 .796875-2.453125.796875-1.5 0-2.453125-.609375-.9375-.609375-1.4375-1.765625-.484375-1.171875-.484375-2.5 0-1.453125.5625-2.53125.5625-1.09375 1.578125-1.65625 1.03125-.5625 2.265625-.5625 1.390625 0 2.34375.71875.953125.703125 1.328125 2l-1.21875.28125q-.328125-1.015625-.9375-1.46875-.609375-.46875-1.546875-.46875-1.078125 0-1.796875.515625-.71875.515625-1.015625 1.375-.28125.859375-.28125 1.78125 0 1.1875.34375 2.078125.34375.890625 1.0625 1.328125.734375.4375 1.59375.4375 1.03125 0 1.75-.59375.71875-.609375.96875-1.78125zm2.8126526 3.265625v-9.3125h1.140625v9.3125zm2.99234-7.984375v-1.328125h1.140625v1.328125zm0 7.984375v-6.734375h1.140625v6.734375zm7.570465-2.171875 1.1875.140625q-.28125 1.046875-1.046875 1.625-.75.5625-1.921875.5625-1.484375 0-2.359375-.90625-.859375-.921875-.859375-2.5625 0-1.703125.875-2.640625.890625-.9375 2.28125-.9375 1.359375 0 2.203125.921875.859375.921875.859375 2.578125 0 .109375 0 .3125h-5.03125q.0625 1.109375.625 1.703125.5625.59375 1.40625.59375.640625 0 1.078125-.328125.453125-.34375.703125-1.0625zm-3.75-1.84375h3.765625q-.078125-.859375-.4375-1.28125-.546875-.65625-1.40625-.65625-.796875 0-1.328125.53125-.53125.515625-.59375 1.40625zm6.5531006 4.015625v-6.734375h1.03125v.953125q.734375-1.109375 2.140625-1.109375.609375 0 1.109375.21875.515625.21875.765625.578125.265625.34375.359375.84375.0625.3125.0625 1.109375v4.140625h-1.140625v-4.09375q0-.703125-.140625-1.046875-.125-.34375-.46875-.546875-.328125-.21875-.78125-.21875-.734375 0-1.265625.46875-.53125.453125-.53125 1.75v3.6875zm9.912476-1.015625.15625 1q-.484375.109375-.859375.109375-.625 0-.96875-.203125-.34375-.203125-.484375-.515625-.140625-.328125-.140625-1.34375v-3.890625h-.828125v-.875h.828125v-1.671875l1.140625-.6875v2.359375h1.15625v.875h-1.15625v3.953125q0 .484375.0625.625.0625.140625.1875.21875.140625.078125.390625.078125.203125 0 .515625-.03125zm4.9997253 1.015625v-9.3125h3.484375q1.078125 0 1.71875.296875.640625.28125 1 .875.375.578125.375 1.21875 0 .59375-.328125 1.125-.328125.515625-.96875.84375.84375.25 1.296875.84375.453125.59375.453125 1.40625 0 .65625-.28125 1.21875-.28125.5625-.6875.875-.40625.296875-1.015625.453125-.609375.15625-1.5.15625zm1.234375-5.390625h2.015625q.8125 0 1.171875-.109375.46875-.140625.703125-.46875.234375-.328125.234375-.8125 0-.46875-.21875-.8125-.21875-.359375-.640625-.484375-.40625-.125-1.40625-.125h-1.859375zm0 4.296875h2.3125q.59375 0 .84375-.046875.421875-.078125.703125-.25.28125-.1875.46875-.515625.1875-.34375.1875-.796875 0-.515625-.265625-.890625-.265625-.390625-.75-.546875-.46875-.15625-1.359375-.15625h-2.140625z" fill="#000"/><path d="m95.04724 27.015749h76.97638v31.999998h-76.97638z" fill="#c9daf8" fill-rule="evenodd"/><path d="m95.04724 27.015749h76.97638v31.999998h-76.97638z" fill-rule="evenodd" stroke="#000" stroke-linecap="butt" stroke-linejoin="round"/><path d="m117.84205 44.55012 1.234375.3125q-.390625 1.515625-1.40625 2.3125-1 .796875-2.453125.796875-1.5 0-2.453125-.609375-.9375-.609375-1.4375-1.765625-.484375-1.171875-.484375-2.5 0-1.453125.5625-2.53125.5625-1.09375 1.578125-1.65625 1.03125-.5625 2.265625-.5625 1.390625 0 2.34375.71875.953125.703125 1.328125 2l-1.21875.28125q-.328125-1.015625-.9375-1.46875-.609375-.46875-1.546875-.46875-1.078125 0-1.796875.515625-.71875.515625-1.015625 1.375-.28125.859375-.28125 1.78125 0 1.1875.34375 2.078125.34375.890625 1.0625 1.328125.734375.4375 1.59375.4375 1.03125 0 1.75-.59375.71875-.609375.96875-1.78125zm2.8126526 3.265625v-9.3125h1.140625v9.3125zm2.99234-7.984375v-1.328125h1.140625v1.328125zm0 7.984375v-6.734375h1.140625v6.734375zm7.5704727-2.171875 1.1875.140625q-.28125 1.046875-1.046875 1.625-.75.5625-1.921875.5625-1.4843826 0-2.3593826-.90625-.859375-.921875-.859375-2.5625 0-1.703125.875-2.640625.890625-.9375 2.2812576-.9375 1.359375 0 2.203125.921875.859375.921875.859375 2.578125 0 .109375 0 .3125h-5.0312576q.0625 1.109375.6250076 1.703125.5625.59375 1.40625.59375.640625 0 1.078125-.328125.453125-.34375.703125-1.0625zm-3.7500076-1.84375h3.7656326q-.078125-.859375-.4375-1.28125-.546875-.65625-1.40625-.65625-.796875 0-1.328125.53125-.5312576.515625-.5937576 1.40625zm6.553108 4.015625v-6.734375h1.03125v.953125q.734375-1.109375 2.140625-1.109375.609375 0 1.109375.21875.515625.21875.765625.578125.265625.34375.359375.84375.0625.3125.0625 1.109375v4.140625h-1.140625v-4.09375q0-.703125-.140625-1.046875-.125-.34375-.46875-.546875-.328125-.21875-.78125-.21875-.734375 0-1.265625.46875-.53125.453125-.53125 1.75v3.6875zm9.912476-1.015625.15625 1q-.484375.109375-.859375.109375-.625 0-.96875-.203125-.34375-.203125-.484375-.515625-.140625-.328125-.140625-1.34375v-3.890625h-.828125v-.875h.828125v-1.671875l1.140625-.6875v2.359375h1.15625v.875h-1.15625v3.953125q0 .484375.0625.625.0625.140625.1875.21875.140625.078125.390625.078125.203125 0 .515625-.03125zm4.0309753 1.015625 3.578125-9.3125h1.3125l3.8125 9.3125h-1.40625l-1.078125-2.8125h-3.890625l-1.03125 2.8125zm2.6875-3.828125h3.15625l-.984375-2.578125q-.4375-1.171875-.65625-1.921875-.171875.890625-.5 1.78125z" fill="#000"/><path d="m312 158.37401c0 1.8634186 6.042389 3.3740234 13.496063 3.3740234 7.4536743 0 13.496063-1.5106049 13.496063-3.3740234v25.251984c0 1.8634033-6.042389 3.3740082-13.496063 3.3740082-7.4536743 0-13.496063-1.5106049-13.496063-3.3740082z" fill="#f6b26b" fill-rule="evenodd"/><path d="m312 158.37401c0-1.8634033 6.042389-3.3740082 13.496063-3.3740082 7.4536743 0 13.496063 1.5106049 13.496063 3.3740082 0 1.8634186-6.042389 3.3740234-13.496063 3.3740234-7.4536743 0-13.496063-1.5106049-13.496063-3.3740234z" fill="#f9d0a6" fill-rule="evenodd"/><path d="m338.99213 158.37401c0 1.8634186-6.042389 3.3740234-13.496063 3.3740234-7.4536743 0-13.496063-1.5106049-13.496063-3.3740234 0-1.8634033 6.042389-3.3740082 13.496063-3.3740082 7.4536743 0 13.496063 1.5106049 13.496063 3.3740082v25.251984c0 1.8634033-6.042389 3.3740082-13.496063 3.3740082-7.4536743 0-13.496063-1.5106049-13.496063-3.3740082v-25.251984" fill="none"/><path d="m338.99213 158.37401c0 1.8634186-6.042389 3.3740234-13.496063 3.3740234-7.4536743 0-13.496063-1.5106049-13.496063-3.3740234 0-1.8634033 6.042389-3.3740082 13.496063-3.3740082 7.4536743 0 13.496063 1.5106049 13.496063 3.3740082v25.251984c0 1.8634033-6.042389 3.3740082-13.496063 3.3740082-7.4536743 0-13.496063-1.5106049-13.496063-3.3740082v-25.251984" fill-rule="evenodd" stroke="#000" stroke-linecap="butt" stroke-linejoin="round"/><path d="m174.0237 48.98425 99.622055 44.818897-13.133881 29.196854-99.62204-44.8189z" fill="none"/><path d="m179.40497 72.67126q.10255432-.22799683.10679627-.46595764.01849365-.2315445-.08982849-.485878-.10832214-.2543335-.35769653-.5378647-.23513794-.2771225-.6255951-.5898514-.48521423-.40676117-.8813782-.85912323-.39616394-.4523697-.6398773-.9389496-.24371338-.48657227-.2794037-1.0166321-.03569031-.5300598.20788574-1.0715485.23718262-.52723694.6574707-.8521576.42669678-.33916473.96029663-.45890808.5399933-.13399506 1.1584015-.06138611.61839294.07260895 1.259613.36108398.6554718.29489136 1.1072083.73799133.47239685.43525696.6968689.96458435.2451477.521492.24736023 1.0878906.01644898.5728073-.23994446 1.1427917l-1.5816803-.71157837q.11395264-.29140472.11676025-.56427765.02348328-.2807083-.07058716-.5286255-.09408569-.2479248-.3199463-.4694748-.21162415-.2151413-.56785583-.37540436-.32772827-.14744568-.62268066-.17733765-.274292-.03773499-.52363586.02142334-.23509216.06556702-.4103241.22660065-.16882324.14678192-.27139282.37477875-.10896301.2422409-.0847168.4930191.03067017.23653412.18815613.4958496.1638794.24506378.41967773.51434326.27005005.2756958.6320038.5755997.493042.42742157.8685608.88762665.38975525.46661377.5778961.9624634.20880127.4880066.20173645.9988327.01361084.5029907-.22355652 1.0302277-.25.5557327-.6702881.8806534-.40603638.33132935-.93963623.4510727-.5335846.11974335-1.1455841.03289032-.61198425-.08686066-1.2532043-.37534332-.39898682-.17949677-.7659149-.43023682-.3669281-.25074768-.66690063-.574173-.28572083-.31700897-.503067-.6717911-.19667053-.3626175-.30429077-.7708359-.0869751-.41606903-.04855347-.84425354.04481506-.44243622.25634766-.91267395l1.595932.7179947q-.15882874.39115143-.16661072.71318054.00645447.3284378.13685608.6098404.15107727.2735672.41184998.4936905.2671814.20587158.6376648.37254333.32774353.14744568.60202026.18518066.2885437.04414368.5172272-.00717926.23509216-.06556702.4039154-.21234894.18948364-.15461731.28564453-.36836243zm8.779282 2.1506958-3.4626007-1.557785-1.0704651 2.3796844 4.046814 1.8206253-.5897217 1.3109665-5.6712494-2.5514374 3.7947388-8.435783 5.6569977 2.545021-.60253906 1.3394699-4.0325775-1.814209-.9550934 2.1231918 3.4626007 1.557785-.5769043 1.2824707zm9.837723.33099365-2.5933838-1.1667404-3.1921997 7.096321-1.6386719-.73722076 3.1921997-7.096321-2.5648956-1.1539154.60253906-1.3394699 6.7969513 3.0578766-.60253906 1.3394699zm6.8217926 11.601501 2.2819672-5.0728683-1.6529236-.7436371.5384369-1.1969681 1.6529388.7436371.15383911-.34199524q.27563477-.61273193.6723938-.9996338.4174347-.39473724.9146881-.547966.5179138-.16106415 1.1156616-.08061218.60414124.06619263 1.2453613.3546753.19949341.08974457.37832642.18733978.17883301.09758759.33700562.20301056.17883301.09758759.35125732.20942688.17240906.11183929.35908508.23008728l-.6702423 1.2233429q-.2087555-.1453247-.4809265-.30203247-.25151062-.16455078-.621994-.33123016-.75520325-.33975983-1.2446289-.1658783-.4830017.15963745-.7458191.7438736l-.15383911.34199524 2.2514038 1.0128784-.5384369 1.1969681-2.2514038-1.0128784-2.2819672 5.0728683-1.6101837-.7244034zm6.9487-.7117462q.30767822-.68398285.74931335-1.1706314.4623108-.49448395 1.0393372-.7488861.5834503-.26865387 1.233902-.2672882.6504364.00135803 1.362915.32189178.7124634.32053375 1.1449738.8063812.44674683.49225616.618515 1.1006699.19244385.6005783.12911987 1.274559-.05691528.65973663-.3645935 1.3437195l-.05769348.12825012q-.30767822.6839752-.769989 1.1784668-.46229553.49448395-1.0393219.7488861-.5627899.26081085-1.2274933.25304413-.6504364-.00136566-1.3486633-.3154831-.7124634-.32053375-1.1592255-.8127899-.43249512-.48584747-.6249237-1.0864258-.19244385-.6005783-.12911987-1.274559.07757568-.667572.3852539-1.3515549l.05769348-.12825012zm1.5524902.8526535q-.17308044.3847351-.26208496.77303314-.08259583.3740387-.04122925.7010498.05561829.33342743.2415924.6055603.19238281.2578888.5628662.42456818.3562317.16026306.6625824.12674713.32699585-.04135132.5991211-.22733307.28637695-.17956543.51145935-.48950195.23149109-.32418823.40457153-.70893097l.05767822-.1282425q.17308044-.38474274.25567627-.75878906.08259583-.3740387.02697754-.7074585-.04136658-.3270111-.23374939-.5848999-.17173767-.2657318-.54222107-.43240356-.3562317-.16027069-.68322754-.11891174-.32058716.02710724-.6069641.20667267-.27212524.18597412-.49720764.49591064-.2250824.30993652-.39816284.69467926l-.05767822.12825012zm5.741516 2.4288483q.30769348-.68398285.7493286-1.1706314.4623108-.49448395 1.0393372-.7488861.5834503-.26865387 1.2338867-.2672882.65045166.00135803 1.362915.32189178.71247864.32052612 1.1449738.8063812.44676208.49225616.6185303 1.1006699.19242859.6005783.12911987 1.274559-.05691528.65973663-.3645935 1.3437195l-.05769348.1282425q-.30767822.68398285-.769989 1.1784744-.46229553.49448395-1.0393372.7488861-.56277466.26081085-1.227478.25304413-.6504364-.00136566-1.3486633-.3154831-.7124634-.32053375-1.1592255-.8127899-.43249512-.48584747-.62493896-1.0864258-.19242859-.6005783-.12910461-1.274559.07756043-.667572.3852539-1.3515549l.05767822-.12825012zm1.5524902.8526459q-.17306519.38474274-.2620697.7730408-.08259583.3740387-.04122925.7010498.05560303.3334198.2415924.6055603.19238281.2578888.5628662.42456818.3562317.16026306.66256714.12674713.3270111-.04135132.59913635-.22733307.2863617-.17956543.51145935-.48950195.23149109-.32418823.40455627-.70893097l.05769348-.1282425q.17308044-.38474274.255661-.75878906.08259583-.3740387.0269928-.7074661-.04136658-.32700348-.23374939-.5848923-.17173767-.2657318-.54222107-.43240356-.3562317-.16027069-.68322754-.11891174-.32058716.02709961-.6069641.20666504-.27212524.18598175-.49720764.49591827-.22509766.30993652-.39816284.69467926l-.05769348.1282425zm18.83435 8.473373q-.3140869.69823456-.7336426 1.2119522-.40530396.52012634-.91108704.8065872-.48513794.27861023-1.0500793.3157196-.558548.02285004-1.1712646-.25280762-.5557251-.25001526-.864975-.62900543-.30282593-.39324188-.42115784-.8919449l-.38676453.63126373-1.4391785-.64746857 3.9998474-8.891777 1.6101837.7244034-1.435852 3.1919174q.4181671-.20594025.86557007-.21025848.46806335-.01216126.9810486.21862793.6127167.27565765.95973206.7230377.36125183.4537964.46820068 1.0159073.127594.5542755.00726318 1.2026138-.10606384.65475464-.42015076 1.3529892l-.05769348.1282425zm-1.5524902-.8526459q.17308044-.38474274.26991272-.75237274.09684753-.36763763.06973267-.6882324-.02711487-.32060242-.20524597-.5720825-.17173767-.26572418-.52796936-.42598724-.44172668-.19873047-.81004333-.14170074-.35406494.06344605-.6439972.32707977l-1.1217499 2.4936829q-.00494385.39185333.1824646.6988983.20166016.31345367.65763855.51860046.3562317.16026306.6483307.12033844.30633545-.03351593.564209-.22590637.25787354-.19238281.46870422-.50873566.21084595-.3163452.39031982-.71533966l.05769348-.1282425zm5.7441864 6.4221344q-.00572205-.13964081.015625-.3013687.027771-.17597961.07618713-.35979462-.19233704.08480072-.43527222.12970734-.22868347.05132294-.4873047.05490875-.23794556-.00424957-.5200653-.06264496-.282135-.05839539-.5813751-.19301605-.4702301-.21154785-.82577515-.52570343-.33486938-.3219986-.5251465-.69886017-.16960144-.38471222-.17250061-.7972183.00350952-.4267578.1829834-.8257446.44869995-.9974747 1.4190063-1.2120209.98454285-.20812988 2.4522247.4521637l.89772034.40386963.1666565-.37049103q.19871521-.44174194.0148468-.8328552-.16319275-.3989563-.71891785-.64897156-.49871826-.22437286-.8228607-.11319733-.31773376.09692383-.47798157.45316315l-1.6101837-.7244034q.17948914-.39898682.5107269-.67829895.3454895-.27290344.80926514-.3897934.46377563-.11688232 1.0187683-.05567169.56140137.04696655 1.2026215.33544922.5699768.25642395.9903412.6168823.42037964.36045837.65483093.79146576.24868774.43741608.26228333.9404068.01361084.5029907-.22998047 1.0444717l-1.2114868 2.693184q-.22434998.49874115-.31478882.85211945-.07618713.35979462-.07115173.65332794l-.0448761.0997467-1.6244202-.7308121zm-1.032547-1.8180695q.24223328.10897827.48162842.14813995.23937988.03916168.4345703.02417755.21586609-.02281952.3811493-.08552551.18592834-.07055664.3148651-.16674805l.48075867-1.0687256-.8264618-.3718109q-.3704834-.16667938-.6732788-.21723175-.2885437-.04414368-.5172272.00717163-.22866821.05132294-.3975067.19810486-.15457153.15319061-.25071716.36693573-.14743042.32774353-.01559448.6440582.13183594.3163147.58781433.52145386zm11.782471-1.021431q.3704834.16667938.64408875.35829926.2942505.18378448.45385742.32411957l-.95233154 1.507637q-.2956848-.21868896-.604187-.40888214-.3085022-.1902008-.6077423-.32482147-.68395996-.30770874-1.2189941-.2228775-.5143585.07699585-.9317932.4717331l-1.6922455 3.7619095-1.6101837-.7244034 2.8204193-6.269844 1.4961853.6731186-.39027405 1.0580292q.62190247-.35414886 1.2837372-.41619873.6824951-.06988525 1.3094635.21218109z" fill="#000"/><path d="m166.41734 224.38318 61.76378-66.39371 23.46457 21.795273-61.76378 66.39371z" fill="none"/><path d="m192.62561 226.63367q.03175354.26408386-.01017761.6303253-.04193115.36624146-.20333862.792099-.1507721.41441345-.42184448.8663788-.26042175.44052124-.65419006.8638153-.53211975.5720062-1.17453.8496399-.6424103.27764893-1.3288269.25849915-.6872406-.04122925-1.4184723-.37924194-.73124695-.3380127-1.44104-.9972992l-.9273071-.8613434q-.7097931-.65930176-1.1004791-1.3634033-.38005066-.7155304-.46066284-1.4088593-.08059692-.6933136.12838745-1.3308868.21961975-.64901733.70918274-1.1752777.53211975-.5720062 1.0747223-.85705566.5425873-.28504944 1.0834045-.31584167.5400238-.0528717 1.0782623.1485138.5488739.18995667 1.0837097.6014404l-1.1813049 1.269867q-.59046936-.42051697-1.076477-.402771-.48680115-.0043335-.96569824.5104828-.23414612.25167847-.31040955.5860138-.07627869.33433533.02658081.72843933.10206604.3720398.37261963.81529236.28121948.4317932.7620392.87841797l.9273071.8613434q.96084595.8711548 1.7519226 1.0301666.7910614.15899658 1.3870392-.48165894.14900208-.16015625.26445007-.33015442.11546326-.16998291.19818115-.32772827.0712738-.16838074.1212616-.3138733.0385437-.15612793.01242065-.2657013l-1.214325-1.1492615-1.0429535 1.1211548-.97309875-.9038849 2.2455597-2.4138794 2.6780853 2.4662323zm2.8148956-7.3845673-2.5861053 2.7799835 1.91185 1.7758484 3.022461-3.2490234 1.0532379.978302-4.2357025 4.5532227-6.777359-6.295227 4.225052-4.5417633 1.0761261.99957275-3.0118103 3.2375793 1.7057953 1.5844421 2.5861206-2.7799683 1.0303345.95703125zm3.4671783-9.209793-1.9369202 2.0821075 5.701233 5.2956543-1.223877 1.315628-5.701233-5.2956543-1.9156494 2.0592499-1.0761414-.999588 5.076462-5.4569855 1.0761261.999588zm13.180405-2.7441864-4.075577-3.7856445-1.2345276 1.3270721-.96165466-.8932495 1.2345276-1.3270569-.274765-.2552185q-.4922638-.45724487-.7317047-.9568939-.24024963-.52171326-.22605896-1.0416565.01339722-.5420227.28123474-1.0822906.25639343-.55088806.7353058-1.0657043.14900208-.16015625.2987976-.2982483.14979553-.13809204.30039978-.2541046.14981079-.13809204.31105042-.2655487.16125488-.12745667.33314514-.26634216l.944397 1.0264893q-.20462036.1511383-.44036865.3586731-.236557.18547058-.5132599.48291016-.56404114.6063385-.55615234 1.125473-.0035553.5085144.4658203.9445038l.27474976.25520325 1.6815186-1.8075562.96165466.8932495-1.6815186 1.8075562 4.075592 3.7856445-1.2026062 1.2927399zm1.5529785-6.808014q-.5495148-.51042175-.86909485-1.0845032-.32037354-.59614563-.3764801-1.2240448-.06755066-.63853455.14224243-1.2540436.20979309-.61550903.74191284-1.1875153.53211975-.5720062 1.1311646-.82595825.6096649-.26539612 1.241272-.23320007.63079834.01013184 1.2491608.2859497.6069336.26519775 1.1564484.7756195l.10302734.09570313q.5495148.51042175.86990356 1.1065674.3203888.5961609.37649536 1.22406.06674194.6164551-.15370178 1.2434082-.20979309.6154938-.7312622 1.1760712-.532135.5720062-1.1417999.83740234-.5990448.25395203-1.2298279.24382019-.63079834-.01011658-1.249176-.2859497-.60772705-.28726196-1.1572418-.7976837l-.1030426-.09570313zm1.3056335-1.1970367q.30911255.28710938.64852905.49575806.3279724.19799805.6511078.26356506.33377075.05413818.65127563-.03482056.30604553-.09959412.5827484-.3970337.26605225-.28601074.332489-.5868225.06564331-.3229065-.02336121-.640152-.07835388-.32868958-.2999115-.641098-.23298645-.32305908-.542099-.61016846l-.10302734-.09570313q-.3090973-.28710938-.6370697-.48512268-.3279724-.1980133-.6617584-.25213623-.32313538-.06556702-.6291809.0340271-.30685425.07749939-.5835571.37495422-.26605225.28599548-.33169556.608902-.07707214.31225586.00128174.64094543.08900452.31726074.31054688.6296692.22154236.31240845.5306549.5995331l.10302734.09570313zm4.1420746-4.659027q-.5495148-.51042175-.86909485-1.0845032-.3203888-.59614563-.37649536-1.2240448-.06755066-.63853455.14224243-1.2540436.20979309-.61550903.7419281-1.1875153.53211975-.5720062 1.1311493-.8259735.6096802-.26538086 1.241272-.23318481.63079834.01013184 1.249176.2859497.60691833.26519775 1.1564331.7756195l.1030426.09570313q.5495148.51042175.86990356 1.1065674.32037354.59614563.3764801 1.22406.06674194.6164551-.15368652 1.243393-.20979309.61550903-.73127747 1.1760864-.53211975.5720062-1.1417999.83740234-.59902954.25395203-1.2298279.24382019-.63079834-.01013184-1.2491608-.2859497-.6077423-.28726196-1.1572571-.7976837l-.10302734-.09570313zm1.3056335-1.197052q.3090973.28712463.6485138.49575806.3279724.1980133.6511078.26358032.333786.05412293.65127563-.03482056.30604553-.09959412.5827484-.3970337.2660675-.28601074.33250427-.58683777.06562805-.32289124-.02337647-.6401367-.07835388-.32868958-.29989624-.6411133-.23300171-.32304382-.542099-.6101532l-.1030426-.09570313q-.3090973-.28710938-.6370697-.48512268-.3279724-.1980133-.66174316-.25213623-.32313538-.06556702-.6291809.03401184-.30685425.07751465-.5835571.37496948-.2660675.28599548-.33169556.608902-.0770874.31225586.00128174.64094543.08898926.31724548.31054688.6296692.22154236.31240845.53063965.5995178l.1030426.09570313z" fill="#000"/></g></svg>