<svg fill="none" stroke-linecap="square" stroke-miterlimit="10" viewBox="0 0 576.12073491 301.96587927" xmlns="http://www.w3.org/2000/svg" xmlns:xlink="http://www.w3.org/1999/xlink"><clipPath id="a"><path d="m0 0h576.1207v301.96588h-576.1207z"/></clipPath><g clip-path="url(#a)"><path d="m0 0h576.1207v301.96588h-576.1207z" fill="none"/><path d="m325.99213 144.49606 97.03937-37.480316" fill="none"/><path d="m325.99213 144.49606 85.84531-33.156746" fill-rule="evenodd" stroke="#6aa84f" stroke-linecap="butt" stroke-linejoin="round" stroke-width="2"/><path d="m413.02768 114.42091 7.276367-6.3517227-9.65683.18852997z" fill="#6aa84f" fill-rule="evenodd" stroke="#6aa84f" stroke-linecap="butt" stroke-width="2"/><path d="m133.53543 59.015747 128.97638 64" fill="none"/><path d="m133.53543 59.015747 118.227036 58.666008" fill-rule="evenodd" stroke="#6d9eeb" stroke-linecap="butt" stroke-linejoin="round" stroke-width="2"/><path d="m250.29407 120.64094 9.598663 1.07518-6.6618805-6.9935303z" fill="#6d9eeb" fill-rule="evenodd" stroke="#6d9eeb" stroke-linecap="butt" stroke-width="2"/><path d="m172.02362 260.91077 90.48819-94.92914" fill="none"/><g fill-rule="evenodd"><path d="m172.02362 260.91077 90.48819-94.92914" stroke="#999" stroke-linecap="butt" stroke-linejoin="round" stroke-width="2"/><path d="m199 123h126.99213v42.992126h-126.99213z" fill="#fff2cc"/><path d="m199 123h126.99213v42.992126h-126.99213z" stroke="#000" stroke-linecap="butt" stroke-linejoin="round"/></g><path d="m214.48904 151.41606v-9.859375h1.5v1.5q.578125-1.046875 1.0625-1.375.484375-.34375 1.078125-.34375.84375 0 1.71875.546875l-.578125 1.546875q-.609375-.359375-1.234375-.359375-.546875 0-.984375.328125-.421875.328125-.609375.90625-.28125.890625-.28125 1.953125v5.15625zm12.978302-3.171875 1.71875.21875q-.40625 1.5-1.515625 2.34375-1.09375.828125-2.8125.828125-2.15625 0-3.421875-1.328125-1.265625-1.328125-1.265625-3.734375 0-2.484375 1.265625-3.859375 1.28125-1.375 3.328125-1.375 1.984375 0 3.234375 1.34375 1.25 1.34375 1.25 3.796875 0 .140625-.015625.4375h-7.34375q.09375 1.625.921875 2.484375.828125.859375 2.0625.859375.90625 0 1.546875-.46875.65625-.484375 1.046875-1.546875zm-5.484375-2.703125h5.5q-.109375-1.234375-.625-1.859375-.796875-.96875-2.078125-.96875-1.140625 0-1.9375.78125-.78125.765625-.859375 2.046875zm15.500732 5.875v-1.25q-.9375 1.46875-2.75 1.46875-1.171875 0-2.171875-.640625-.984375-.65625-1.53125-1.8125-.53125-1.171875-.53125-2.6875 0-1.46875.484375-2.671875.5-1.203125 1.46875-1.84375.984375-.640625 2.203125-.640625.890625 0 1.578125.375.703125.375 1.140625.984375v-4.875h1.65625v13.59375zm-5.28125-4.921875q0 1.890625.796875 2.828125.8125.9375 1.890625.9375 1.09375 0 1.859375-.890625.765625-.890625.765625-2.734375 0-2.015625-.78125-2.953125-.78125-.953125-1.921875-.953125-1.109375 0-1.859375.90625-.75.90625-.75 2.859375zm9.281952-6.765625v-1.90625h1.671875v1.90625zm0 11.6875v-9.859375h1.671875v9.859375zm3.4573364-2.9375 1.65625-.265625q.140625 1 .765625 1.53125.640625.515625 1.78125.515625 1.15625 0 1.703125-.46875.5625-.46875.5625-1.09375 0-.5625-.484375-.890625-.34375-.21875-1.703125-.5625-1.84375-.46875-2.5625-.796875-.703125-.34375-1.078125-.9375-.359375-.609375-.359375-1.328125 0-.65625.296875-1.21875.3125-.5625.828125-.9375.390625-.28125 1.0625-.484375.671875-.203125 1.4375-.203125 1.171875 0 2.046875.34375.875.328125 1.28125.90625.421875.5625.578125 1.515625l-1.625.21875q-.109375-.75-.65625-1.171875-.53125-.4375-1.5-.4375-1.15625 0-1.640625.390625-.484375.375-.484375.875 0 .328125.203125.59375.203125.265625.640625.4375.25.09375 1.46875.4375 1.765625.46875 2.46875.765625.703125.296875 1.09375.875.40625.578125.40625 1.4375 0 .828125-.484375 1.578125-.484375.734375-1.40625 1.140625-.921875.390625-2.078125.390625-1.921875 0-2.9375-.796875-1-.796875-1.28125-2.359375zm9.359375-1.140625v-1.6875h5.125v1.6875zm6.181427 1.140625 1.65625-.265625q.140625 1 .765625 1.53125.640625.515625 1.78125.515625 1.15625 0 1.703125-.46875.5625-.46875.5625-1.09375 0-.5625-.484375-.890625-.34375-.21875-1.703125-.5625-1.84375-.46875-2.5625-.796875-.703125-.34375-1.078125-.9375-.359375-.609375-.359375-1.328125 0-.65625.296875-1.21875.3125-.5625.828125-.9375.390625-.28125 1.0625-.484375.671875-.203125 1.4375-.203125 1.171875 0 2.046875.34375.875.328125 1.28125.90625.421875.5625.578125 1.515625l-1.625.21875q-.109375-.75-.65625-1.171875-.53125-.4375-1.5-.4375-1.15625 0-1.640625.390625-.484375.375-.484375.875 0 .328125.203125.59375.203125.265625.640625.4375.25.09375 1.46875.4375 1.765625.46875 2.46875.765625.703125.296875 1.09375.875.40625.578125.40625 1.4375 0 .828125-.484375 1.578125-.484375.734375-1.40625 1.140625-.921875.390625-2.078125.390625-1.921875 0-2.9375-.796875-1-.796875-1.28125-2.359375zm16.75-.234375 1.71875.21875q-.40625 1.5-1.515625 2.34375-1.09375.828125-2.8125.828125-2.15625 0-3.421875-1.328125-1.265625-1.328125-1.265625-3.734375 0-2.484375 1.265625-3.859375 1.28125-1.375 3.328125-1.375 1.984375 0 3.234375 1.34375 1.25 1.34375 1.25 3.796875 0 .140625-.015625.4375h-7.34375q.09375 1.625.921875 2.484375.828125.859375 2.0625.859375.90625 0 1.546875-.46875.65625-.484375 1.046875-1.546875zm-5.484375-2.703125h5.5q-.109375-1.234375-.625-1.859375-.796875-.96875-2.078125-.96875-1.140625 0-1.9375.78125-.78125.765625-.859375 2.046875zm9.094452 5.875v-9.859375h1.5v1.5q.578125-1.046875 1.0625-1.375.484375-.34375 1.078125-.34375.84375 0 1.71875.546875l-.578125 1.546875q-.609375-.359375-1.234375-.359375-.546875 0-.984375.328125-.421875.328125-.609375.90625-.28125.890625-.28125 1.953125v5.15625zm8.962677 0-3.75-9.859375h1.765625l2.125 5.90625q.34375.953125.625 1.984375.21875-.78125.625-1.875l2.1875-6.015625h1.71875l-3.734375 9.859375zm13.34375-3.171875 1.71875.21875q-.40625 1.5-1.515625 2.34375-1.09375.828125-2.8125.828125-2.15625 0-3.421875-1.328125-1.265625-1.328125-1.265625-3.734375 0-2.484375 1.265625-3.859375 1.28125-1.375 3.328125-1.375 1.984375 0 3.234375 1.34375 1.25 1.34375 1.25 3.796875 0 .140625-.015625.4375h-7.34375q.09375 1.625.921875 2.484375.828125.859375 2.0625.859375.90625 0 1.546875-.46875.65625-.484375 1.046875-1.546875zm-5.484375-2.703125h5.5q-.109375-1.234375-.625-1.859375-.796875-.96875-2.078125-.96875-1.140625 0-1.9375.78125-.78125.765625-.859375 2.046875zm9.094482 5.875v-9.859375h1.5v1.5q.578125-1.046875 1.0625-1.375.484375-.34375 1.078125-.34375.84375 0 1.71875.546875l-.578125 1.546875q-.609375-.359375-1.234375-.359375-.546875 0-.984375.328125-.421875.328125-.609375.90625-.28125.890625-.28125 1.953125v5.15625z" fill="#000"/><path d="m95.04724 244.91077h76.97638v32h-76.97638z" fill="#c9daf8" fill-rule="evenodd"/><path d="m95.04724 244.91077h76.97638v32h-76.97638z" fill-rule="evenodd" stroke="#000" stroke-linecap="butt" stroke-linejoin="round"/><path d="m117.47435 262.44513 1.234375.3125q-.390625 1.515625-1.40625 2.3125-1 .796875-2.453125.796875-1.5 0-2.453125-.609375-.9375-.609375-1.4375-1.765625-.484375-1.171875-.484375-2.5 0-1.453125.5625-2.53125.5625-1.09375 1.578125-1.65625 1.03125-.5625 2.265625-.5625 1.390625 0 2.34375.71875.953125.703125 1.328125 2l-1.21875.28125q-.328125-1.015625-.9375-1.46875-.609375-.46875-1.546875-.46875-1.078125 0-1.796875.515625-.71875.515625-1.015625 1.375-.28125.859375-.28125 1.78125 0 1.1875.34375 2.078125.34375.890625 1.0625 1.328125.734375.4375 1.59375.4375 1.03125 0 1.75-.59375.71875-.609375.96875-1.78125zm2.8126526 3.265625v-9.3125h1.140625v9.3125zm2.99234-7.984375v-1.328125h1.140625v1.328125zm0 7.984375v-6.734375h1.140625v6.734375zm7.570465-2.171875 1.1875.140625q-.28125 1.046875-1.046875 1.625-.75.5625-1.921875.5625-1.484375 0-2.359375-.90625-.859375-.921875-.859375-2.5625 0-1.703125.875-2.640625.890625-.9375 2.28125-.9375 1.359375 0 2.203125.921875.859375.921875.859375 2.578125 0 .109375 0 .3125h-5.03125q.0625 1.109375.625 1.703125.5625.59375 1.40625.59375.640625 0 1.078125-.328125.453125-.34375.703125-1.0625zm-3.75-1.84375h3.765625q-.078125-.859375-.4375-1.28125-.546875-.65625-1.40625-.65625-.796875 0-1.328125.53125-.53125.515625-.59375 1.40625zm6.5531006 4.015625v-6.734375h1.03125v.953125q.734375-1.109375 2.140625-1.109375.609375 0 1.109375.21875.515625.21875.765625.578125.265625.34375.359375.84375.0625.3125.0625 1.109375v4.140625h-1.140625v-4.09375q0-.703125-.140625-1.046875-.125-.34375-.46875-.546875-.328125-.21875-.78125-.21875-.734375 0-1.265625.46875-.53125.453125-.53125 1.75v3.6875zm9.912476-1.015625.15625 1q-.484375.109375-.859375.109375-.625 0-.96875-.203125-.34375-.203125-.484375-.515625-.140625-.328125-.140625-1.34375v-3.890625h-.828125v-.875h.828125v-1.671875l1.140625-.6875v2.359375h1.15625v.875h-1.15625v3.953125q0 .484375.0625.625.0625.140625.1875.21875.140625.078125.390625.078125.203125 0 .515625-.03125zm11.687225-2.25 1.234375.3125q-.390625 1.515625-1.40625 2.3125-1 .796875-2.453125.796875-1.5 0-2.453125-.609375-.9375-.609375-1.4375-1.765625-.484375-1.171875-.484375-2.5 0-1.453125.5625-2.53125.5625-1.09375 1.578125-1.65625 1.03125-.5625 2.265625-.5625 1.390625 0 2.34375.71875.953125.703125 1.328125 2l-1.21875.28125q-.328125-1.015625-.9375-1.46875-.609375-.46875-1.546875-.46875-1.078125 0-1.796875.515625-.71875.515625-1.015625 1.375-.28125.859375-.28125 1.78125 0 1.1875.34375 2.078125.34375.890625 1.0625 1.328125.734375.4375 1.59375.4375 1.03125 0 1.75-.59375.71875-.609375.96875-1.78125z" fill="#000"/><path d="m423.0315 91h76.97638v32h-76.97638z" fill="#c9daf8" fill-rule="evenodd"/><path d="m423.0315 91h76.97638v32h-76.97638z" fill-rule="evenodd" stroke="#000" stroke-linecap="butt" stroke-linejoin="round"/><path d="m445.8263 108.53438 1.234375.3125q-.390625 1.515625-1.40625 2.3125-1 .796875-2.453125.796875-1.5 0-2.453125-.609375-.9375-.609375-1.4375-1.765625-.484375-1.171875-.484375-2.5 0-1.453125.5625-2.53125.5625-1.09375 1.578125-1.65625 1.03125-.5625 2.265625-.5625 1.390625 0 2.34375.71875.953125.703125 1.328125 2l-1.21875.28125q-.328125-1.015625-.9375-1.46875-.609375-.46875-1.546875-.46875-1.078125 0-1.796875.515625-.71875.515625-1.015625 1.375-.28125.859375-.28125 1.78125 0 1.1875.34375 2.078125.34375.890625 1.0625 1.328125.734375.4375 1.59375.4375 1.03125 0 1.75-.59375.71875-.609375.96875-1.78125zm2.8126526 3.265625v-9.3125h1.140625v9.3125zm2.99234-7.984375v-1.328125h1.140625v1.328125zm0 7.984375v-6.734375h1.140625v6.734375zm7.570465-2.171875 1.1875.140625q-.28125 1.046875-1.046875 1.625-.75.5625-1.921875.5625-1.484375 0-2.359375-.90625-.859375-.921875-.859375-2.5625 0-1.703125.875-2.640625.890625-.9375 2.28125-.9375 1.359375 0 2.203125.921875.859375.921875.859375 2.578125 0 .109375 0 .3125h-5.03125q.0625 1.109375.625 1.703125.5625.59375 1.40625.59375.640625 0 1.078125-.328125.453125-.34375.703125-1.0625zm-3.75-1.84375h3.765625q-.078125-.859375-.4375-1.28125-.546875-.65625-1.40625-.65625-.796875 0-1.328125.53125-.53125.515625-.59375 1.40625zm6.5531006 4.015625v-6.734375h1.03125v.953125q.734375-1.109375 2.140625-1.109375.609375 0 1.109375.21875.515625.21875.765625.578125.265625.34375.359375.84375.0625.3125.0625 1.109375v4.140625h-1.140625v-4.09375q0-.703125-.140625-1.046875-.125-.34375-.46875-.546875-.328125-.21875-.78125-.21875-.734375 0-1.265625.46875-.53125.453125-.53125 1.75v3.6875zm9.912476-1.015625.15625 1q-.484375.109375-.859375.109375-.625 0-.96875-.203125-.34375-.203125-.484375-.515625-.140625-.328125-.140625-1.34375v-3.890625h-.828125v-.875h.828125v-1.671875l1.140625-.6875v2.359375h1.15625v.875h-1.15625v3.953125q0 .484375.0625.625.0625.140625.1875.21875.140625.078125.390625.078125.203125 0 .515625-.03125zm4.9997253 1.015625v-9.3125h3.484375q1.078125 0 1.71875.296875.640625.28125 1 .875.375.578125.375 1.21875 0 .59375-.328125 1.125-.328125.515625-.96875.84375.84375.25 1.296875.84375.453125.59375.453125 1.40625 0 .65625-.28125 1.21875-.28125.5625-.6875.875-.40625.296875-1.015625.453125-.609375.15625-1.5.15625zm1.234375-5.390625h2.015625q.8125 0 1.171875-.109375.46875-.140625.703125-.46875.234375-.328125.234375-.8125 0-.46875-.21875-.8125-.21875-.359375-.640625-.484375-.40625-.125-1.40625-.125h-1.859375zm0 4.296875h2.3125q.59375 0 .84375-.046875.421875-.078125.703125-.25.28125-.1875.46875-.515625.1875-.34375.1875-.796875 0-.515625-.265625-.890625-.265625-.390625-.75-.546875-.46875-.15625-1.359375-.15625h-2.140625z" fill="#000"/><path d="m95.04724 27.015749h76.97638v31.999998h-76.97638z" fill="#c9daf8" fill-rule="evenodd"/><path d="m95.04724 27.015749h76.97638v31.999998h-76.97638z" fill-rule="evenodd" stroke="#000" stroke-linecap="butt" stroke-linejoin="round"/><path d="m117.84205 44.55012 1.234375.3125q-.390625 1.515625-1.40625 2.3125-1 .796875-2.453125.796875-1.5 0-2.453125-.609375-.9375-.609375-1.4375-1.765625-.484375-1.171875-.484375-2.5 0-1.453125.5625-2.53125.5625-1.09375 1.578125-1.65625 1.03125-.5625 2.265625-.5625 1.390625 0 2.34375.71875.953125.703125 1.328125 2l-1.21875.28125q-.328125-1.015625-.9375-1.46875-.609375-.46875-1.546875-.46875-1.078125 0-1.796875.515625-.71875.515625-1.015625 1.375-.28125.859375-.28125 1.78125 0 1.1875.34375 2.078125.34375.890625 1.0625 1.328125.734375.4375 1.59375.4375 1.03125 0 1.75-.59375.71875-.609375.96875-1.78125zm2.8126526 3.265625v-9.3125h1.140625v9.3125zm2.99234-7.984375v-1.328125h1.140625v1.328125zm0 7.984375v-6.734375h1.140625v6.734375zm7.5704727-2.171875 1.1875.140625q-.28125 1.046875-1.046875 1.625-.75.5625-1.921875.5625-1.4843826 0-2.3593826-.90625-.859375-.921875-.859375-2.5625 0-1.703125.875-2.640625.890625-.9375 2.2812576-.9375 1.359375 0 2.203125.921875.859375.921875.859375 2.578125 0 .109375 0 .3125h-5.0312576q.0625 1.109375.6250076 1.703125.5625.59375 1.40625.59375.640625 0 1.078125-.328125.453125-.34375.703125-1.0625zm-3.7500076-1.84375h3.7656326q-.078125-.859375-.4375-1.28125-.546875-.65625-1.40625-.65625-.796875 0-1.328125.53125-.5312576.515625-.5937576 1.40625zm6.553108 4.015625v-6.734375h1.03125v.953125q.734375-1.109375 2.140625-1.109375.609375 0 1.109375.21875.515625.21875.765625.578125.265625.34375.359375.84375.0625.3125.0625 1.109375v4.140625h-1.140625v-4.09375q0-.703125-.140625-1.046875-.125-.34375-.46875-.546875-.328125-.21875-.78125-.21875-.734375 0-1.265625.46875-.53125.453125-.53125 1.75v3.6875zm9.912476-1.015625.15625 1q-.484375.109375-.859375.109375-.625 0-.96875-.203125-.34375-.203125-.484375-.515625-.140625-.328125-.140625-1.34375v-3.890625h-.828125v-.875h.828125v-1.671875l1.140625-.6875v2.359375h1.15625v.875h-1.15625v3.953125q0 .484375.0625.625.0625.140625.1875.21875.140625.078125.390625.078125.203125 0 .515625-.03125zm4.0309753 1.015625 3.578125-9.3125h1.3125l3.8125 9.3125h-1.40625l-1.078125-2.8125h-3.890625l-1.03125 2.8125zm2.6875-3.828125h3.15625l-.984375-2.578125q-.4375-1.171875-.65625-1.921875-.171875.890625-.5 1.78125z" fill="#000"/><path d="m185.15773 53.45486 70.20473 31.622051-13.13385 29.196846-70.20473-31.622047z" fill="none"/><path d="m186.50522 74.14966q.32051086-.71247864.74002075-1.2261276.44018555-.5214844.9394989-.7935486.50572205-.28631592 1.0641785-.3089676.56484985-.03689575 1.1489563.22619629.4986267.22459412.78570557.57668304.29348755.33783722.4309845.7939224l1.435852-3.1919174 1.6240997.73153687-3.9998627 8.891769-1.4531403-.6545334.2093811-.693985q-.46583557.23573303-.9544678.2555542-.48864746.01982117-1.0157776-.21761322-.56985474-.25667572-.9167633-.7042618-.34692383-.4475937-.4744568-1.0020065-.12112427-.5686569-.02926636-1.2298965.10609436-.6548233.41377258-1.3388062l.05128479-.11399841zm1.5443268.83270264q-.17947388.39898682-.26208496.77306366-.08261108.37407684-.05552673.6947403.04774475.31282806.21159363.55799866.17808533.2515869.5200043.40559387.41314697.18609619.7607422.13702393.36827087-.05690765.66600037-.29981232l1.140976-2.536438q-.01568604-.38407898-.20944214-.6769943-.18736267-.30717468-.60050964-.49326324-.34191895-.15400696-.6546173-.10635376-.30628967.03340912-.5783844.21931458-.25784302.19232178-.48291016.5022278-.2250824.30991364-.40455627.70890045l-.05128479.11399841zm5.697647 2.41214q.30769348-.68398285.7492981-1.1705475.46224976-.49440002 1.0392151-.7486267.58335876-.26848602 1.2337036-.26688385.6503296.00160217 1.3626556.32245636.71232605.32084656 1.1447296.8069382.44664.49250793.6183319 1.1010895.19236755.60074615.1289978 1.2748184-.0569458.65982056-.36462402 1.3438034l-.05769348.12825012q-.30767822.68398285-.76994324 1.1783829-.462265.4943924-1.0392151.7486267-.5627136.260643-1.2272949.2526245-.65034485-.00160217-1.3484192-.3160324-.71232605-.3208542-1.1589661-.8133621-.43240356-.48608398-.62475586-1.0868378-.1923523-.60074615-.1289978-1.2748184.0776062-.66765594.38529968-1.3516388l.05767822-.1282425zm1.5521698.85336304q-.17306519.38474274-.26208496.77306366-.08261108.37407684-.04127502.7011566.05557251.33350372.24150085.60575104.19233704.25800323.56274414.42484283.3561554.16043091.66244507.12702179.32695007-.04124451.5990448-.22714996.28634644-.17948914.5114136-.48939514.23147583-.3241577.40455627-.7088928l.05769348-.12825012q.17306519-.3847351.25567627-.75881195.08261108-.37407684.02702332-.70757294-.0413208-.3270874-.23365784-.585083-.1716919-.26583862-.542099-.43267822-.3561554-.16042328-.68310547-.1191864-.32054138.0269928-.60687256.20648193-.27209473.18590546-.49716187.49581146-.2250824.309906-.39814758.69464874l-.05769348.1282425zm8.806046.110672-.29129028.9141464q.5391998-.3226471 1.1389618-.3609619.59976196-.03831482 1.1838684.22478485.47013855.21176147.7906952.5275116.3347931.32217407.48512268.74975586.15031433.4275818.08908081.9826584-.04057312.5472412-.34825134 1.2312241l-1.7371216 3.8616562-1.609848-.72512054 1.724289-3.8331528q.16667175-.37049103.19015503-.6512375.02349854-.28074646-.07553101-.47958374-.09260559-.21308136-.29490662-.37274933-.18806458-.15325928-.45874023-.275177-.41314697-.18609619-.7892456-.14985657-.35543823.02840424-.66101074.2506485l-1.999939 4.4458847-1.6240997-.73153687 2.8204193-6.269844 1.467392.6609497zm7.4054413 9.813347q-.5392151.3226471-1.1168823.38804626-.5634308.07181549-1.0905609-.16561127-.484375-.2181778-.8270111-.5610199-.32839966-.33641815-.48014832-.7989197-.13749695-.45607758-.06985474-1.0254059.0740509-.5835724.3945465-1.296051l1.6666107-3.7049103 1.6098633.72512054-1.6730194 3.7191544q-.17308044.38474274-.23788452.68115234-.05839539.28216553-.0149231.490242.05770874.21450043.2108612.36917114.16740417.16108704.45233154.2894287.484375.2181778.8668823.16768646.38250732-.05049133.6802368-.293396l1.9806976-4.403137 1.6098633.72512054-2.8204193 6.269844-1.4531403-.6545334.31195068-.9219818zm9.347168-4.1011734-.6858673 1.5247116 2.3506622 1.0587997-.5384369 1.1969757-2.3506775-1.0588074-1.2114868 2.693184q-.15383911.3419876-.1851654.60206604-.01708984.26649475.0612793.47316742.09901428.19882965.27282715.34566498.18806458.15325928.43025208.26234436.18519592.0834198.3910675.15901184.21226501.06134033.38963318.1240921.18377686.04850006.35331726.09059143.16952515.04208374.29631042.06492615l-.33685303 1.1678085q-.21583557.02274323-.47583008-.00868225-.2599945-.03142548-.5356598-.10417938-.28207397-.05850983-.5655823-.15193176-.28349304-.09342194-.55418396-.21534729-.51286316-.23101044-.87615967-.56601715-.34906006-.3285904-.5200348-.7483368-.17097473-.41975403-.12896729-.9320755.04199219-.5123291.31762695-1.125061l1.2820129-2.8499298-1.4389038-.64811707.5384369-1.1969681 1.4389038.64811707.6858673-1.5247116 1.5956116.7187042zm5.6588593 9.849213q.06410217-.14250183.03773499-.27433014-.00570679-.1396637-.13179016-.3164215-.12608337-.17675018-.3789673-.37633514-.24647522-.21383667-.64964294-.4982605-.49650574-.3435974-.875473-.71993256-.3789673-.37634277-.6040802-.75193024-.21868896-.38983154-.2692871-.7724991-.02993774-.3904953.14953613-.7894821.17308044-.38474274.51213074-.64331055.34544373-.27281952.8091583-.38955688.47795105-.11031342 1.0328369-.04888153.5691376.06784821 1.1959839.35019684.65534973.29518127 1.097702.6829376.45661926.39417267.690979.8253403.24862671.43758392.26716614.89149475.03279114.46033478-.15950012.8878174l-1.6098633-.72512054q.1666565-.37049103-.02354431-.7474899-.17596436-.37058258-.78855896-.6465149-.5556183-.2502594-.9302826-.17910767-.3746643.07115936-.50927734.37039948-.06410217.1424942-.06480408.2964096.00570679.1396637.103302.30358124.11824036.15608978.3219757.3506775.2243805.18675232.597641.42342377.5314026.34217834.945282.71710205.42027283.360672.6738739.7490921.25360107.3884201.30563354.80599976.05201721.41757965-.146698.8593216-.19230652.42749023-.55200195.69389343-.35328674.2521515-.8390808.3418045-.48579407.08964539-1.0770111-.00528717-.5769806-.08850861-1.2180634-.37727356-.71232605-.3208542-1.1703644-.7499466-.45803833-.4290924-.6938324-.8951721-.22155762-.45967102-.23368835-.9278259-.01213074-.46816254.15452576-.83865356l1.5243835.686615q-.10113525.26290894-.05625916.5059128.05130005.2287445.18522644.42616272.13392639.19741821.35047913.36351013.23719788.1582489.49363708.27375793.59835815.269516.9951172.22544098.40315247-.05831909.5377655-.3575592z" fill="#000"/><path d="m332.82736 109.81893 71.968506-27.370079 11.40155 29.921265-71.968475 27.370071z" fill="none"/><path d="m348.43314 123.479385q-.27819824-.7300415-.3456421-1.3897705-.05844116-.6798935.10153198-1.2255096.15438843-.5602188.53271484-.97156525.3727417-.4259491.9715271-.65367126.51116943-.19439697.9631958-.14899445.4465027.03079987.86654663.25553894l-1.2462769-3.2705994 1.664917-.6331787 3.4717712 9.110954-1.489685.5665283-.34353638-.6383133q-.16204834.4962616-.4930725.8561859-.3310547.35993195-.8713989.5654373-.584198.22216797-1.1461182.15168762-.56192017-.07048035-1.0445862-.37171936-.4881897-.31583405-.89157104-.84781647-.38876343-.53754425-.65582275-1.2383804l-.04449463-.11681366zm1.6802063-.50525665q.15579224.4088211.3623352.73147583.20654297.3226471.4527588.5299225.2552185.18711853.54452515.2442627.30392456.05158234.65441895-.08171845.42355347-.16107178.6342468-.4418106.2197876-.3008957.25802612-.6832123l-.9903259-2.5989532q-.28308105-.2601242-.62731934-.32980347-.349823-.08428192-.77334595.07678986-.35049438.13330078-.53756714.38832855-.19265747.24043274-.2531433.5643387-.04589844.31835938.0145874.6965561.06051636.3781891.2163086.7870178l.04449463.11680603zm5.7316284-2.330223q-.26705933-.7008438-.29974365-1.3570786-.02365112-.67639923.20373535-1.264389.2218628-.60259247.682251-1.0618668.46038818-.4592743 1.1906128-.73698425.7302246-.27770233 1.3797913-.24054718.66415405.03160095 1.2163391.33982086.56121826.28806305.99380493.8089371.42700195.506279.6940613 1.2071228l.05007935.13140869q.26705933.7008362.29071045 1.3772354.02365112.6763916-.20376587 1.2643814-.21279907.5824356-.6878052 1.0472641-.46038818.4592743-1.1759949.73143005-.7302246.27770996-1.3943787.24610901-.64956665-.03715515-1.2107849-.3252182-.5612488-.28806305-.99380493-.8089447-.41799927-.5264282-.6850281-1.227272l-.05007935-.13140869zm1.7003784-.49621582q.15020752.39422607.3623352.73147583.20654297.3226471.4673462.5243683.27539062.19616699.5994873.25680542.31851196.04602814.6982422-.09838104.3651123-.13885498.55773926-.3792801.20169067-.2605896.2621765-.58449554.07510376-.32946777.01461792-.7076645-.06607056-.39279175-.2163086-.7870178l-.05007935-.13140106q-.15020752-.39422607-.3567505-.7168808-.20657349-.3226471-.4819641-.5188141-.26080322-.20172119-.5793152-.24774933-.30947876-.06619263-.68917847.07821655-.3651123.13885498-.566803.39943695-.20724487.24598694-.28234863.5754547-.06051636.32391357 0 .70210266.06051636.37819672.21072388.77241516l.05007935.13140869zm6.296997-6.156067.44161987.8517761q.15228271-.609581.54870605-1.0612335.39639282-.45166016.9951782-.6793823.4819641-.18328857.9319153-.1872406.4645691-.00951386.87350464.18602753.40890503.19553375.758728.630867.3588562.4151764.6259155 1.1160202l1.507782 3.9568405-1.6503296.6276245-1.4966431-3.9276428q-.14465332-.3796234-.32684326-.59451294-.18222046-.21488953-.39294434-.28520203-.21627808-.08490753-.4721985-.05444336-.24133301.02490997-.51882935.13043976-.42352295.16106415-.66345215.452919-.230896.27169037-.28930664.6449585l1.7358704 4.555481-1.664917.6331711-2.4480286-6.424385 1.5042725-.5720825zm12.178497 1.6873932q-.15231323.60957336-.51394653 1.0647278-.34701538.4495926-.88739014.65509796-.4965515.18884277-.9812927.18930054-.4701233-.00508881-.90478516-.22427368-.42004395-.22473145-.77542114-.67466736-.3609619-.46453857-.63912964-1.1945801l-1.4465637-3.7962341 1.6502991-.6276245 1.4521179 3.8108368q.15023804.39421844.31436157.6494217.15856934.24060059.3366089.35677338.19262695.11062622.41030884.11142731.2322998-.00476074.52438354-.11584473.4965515-.18883514.730896-.49528503.234375-.3064499.27264404-.6887665l-1.7192078-4.511673 1.6503296-.6276245 2.4480286 6.424385-1.489685.5665283-.43255615-.87192535zm3.6966858-9.513519.5953064 1.562294 2.409729-.9164429.4673767 1.2264786-2.4097595.91643524 1.0515442 2.7595673q.1335144.35042572.29556274.5562668.17666626.20028687.37832642.29075623.21072388.0703125.43743896.05095673.24133301-.02490997.48962402-.11933136.18984985-.07220459.3887329-.16455841.19335938-.10696411.3630371-.18821716.16412354-.09584808.31365967-.1861496.14950562-.09029388.2552185-.1639328l.5890503 1.0631714q-.1362915.16886139-.3421631.33073425-.20584106.16186523-.45202637.3056488-.2406311.1583786-.5069885.29310608-.26635742.1347351-.54385376.2402649-.52575684.19995117-1.0195312.2205658-.4791565.01506043-.89712524-.16031647-.41796875-.17538452-.75109863-.5669098-.33312988-.3915329-.5723572-1.019371l-1.1127625-2.9201813-1.4750366.5609741-.4673462-1.226471 1.4750366-.5609741-.5953064-1.562294 1.6357117-.6220703zm10.9704895 2.9492035q-.05563355-.14600372-.16760254-.22044373-.10293579-.09458923-.31713867-.13014221-.21420288-.03556061-.53411865.0025177-.32546997.02348328-.8115845.10805512-.5939026.1088562-1.1280212.1113739-.53411865.00252533-.9590454-.10334015-.43048096-.12046814-.7371826-.3548813-.29763794-.25457-.45343018-.66339874-.15020752-.39421844-.09390259-.81684875.05078125-.43722534.29559326-.84794617.2593994-.4162674.69473267-.76571655.44995117-.355011 1.0925598-.59939575.67181396-.25549316 1.2587585-.29483032.601593-.04489899 1.0724182.09366608.4854126.13301086.8199158.4404297.3491211.301857.51605225.73989105l-1.6503296.6276169q-.14465332-.3796234-.54592896-.51119995-.3866577-.13713074-1.0146484.10169983-.5695801.21661377-.78378296.5321121-.21420288.31549835-.09735107.6221161.05563355.14600372.16412354.25519562.10293579.09458923.28790283.14125824.19403076.02650452.475708.01969147.29067993-.02696991.7218628-.12408447.6175842-.13455963 1.1753235-.16279602.55218506-.04283142 1.0063171.05192566.45413208.09476471.78656006.35282135.33242798.25806427.50491333.71069336.16690063.43802643.10153198.88080597-.07092285.42817688-.35049438.83540344-.27957153.40722656-.76431274.75873566-.4701233.34596252-1.1273193.5959015-.7302246.27770996-1.3575134.29895782-.62731934.02124786-1.1238708-.1409607-.4819336-.16777039-.8220215-.48978424-.3400879-.32202148-.4847412-.7016449l1.5626831-.5942993q.11474609.25726318.31851196.3970871.19821167.12522125.43258667.1698227.234375.04460907.5048828.0085907.27960205-.05617523.54248047-.15615082.6133728-.23327637.8623352-.54528046.2434082-.32660675.12658691-.6332245z" fill="#000"/></g></svg>