<svg fill="none" stroke-linecap="square" stroke-miterlimit="10" viewBox="0 0 878.64041995 589.70341207" xmlns="http://www.w3.org/2000/svg" xmlns:xlink="http://www.w3.org/1999/xlink"><clipPath id="a"><path d="m0 0h878.64044v589.7034h-878.64044z"/></clipPath><g clip-path="url(#a)"><path d="m0 0h878.64044v589.7034h-878.64044z" fill="none"/><path d="m136.48819 53h598.51965v429.00787h-598.51965z" fill="#fff2cc" fill-rule="evenodd"/><path d="m136.48819 53h598.51965v429.00787h-598.51965z" fill-rule="evenodd" stroke="#000" stroke-linecap="butt" stroke-linejoin="round"/><path d="m146.95694 79.92v-13.59375h5.125q1.359375 0 2.078125.125 1 .171875 1.671875.640625.671875.46875 1.078125 1.3125.421875.84375.421875 1.84375 0 1.734375-1.109375 2.9375-1.09375 1.203125-3.984375 1.203125h-3.484375v5.53125zm1.796875-7.140625h3.515625q1.75 0 2.46875-.640625.734375-.65625.734375-1.828125 0-.859375-.4375-1.46875-.421875-.609375-1.125-.796875-.453125-.125-1.671875-.125h-3.484375zm10.412323 7.140625v-9.859375h1.5v1.5q.578125-1.046875 1.0625-1.375.484375-.34375 1.078125-.34375.84375 0 1.71875.546875l-.578125 1.546875q-.609375-.359375-1.234375-.359375-.546875 0-.984375.328125-.421875.328125-.609375.90625-.28125.890625-.28125 1.953125v5.15625zm5.603302-4.921875q0-2.734375 1.53125-4.0625 1.265625-1.09375 3.09375-1.09375 2.03125 0 3.3125 1.34375 1.296875 1.328125 1.296875 3.671875 0 1.90625-.578125 3-.5625 1.078125-1.65625 1.6875-1.078125.59375-2.375.59375-2.0625 0-3.34375-1.328125-1.28125-1.328125-1.28125-3.8125zm1.71875 0q0 1.890625.828125 2.828125.828125.9375 2.078125.9375 1.25 0 2.0625-.9375.828125-.953125.828125-2.890625 0-1.828125-.828125-2.765625-.828125-.9375-2.0625-.9375-1.25 0-2.078125.9375-.828125.9375-.828125 2.828125zm15.719467 1.3125 1.640625.21875q-.265625 1.6875-1.375 2.65625-1.109375.953125-2.734375.953125-2.015625 0-3.25-1.3125-1.21875-1.328125-1.21875-3.796875 0-1.59375.515625-2.78125.53125-1.203125 1.609375-1.796875 1.09375-.609375 2.359375-.609375 1.609375 0 2.625.8125 1.015625.8125 1.3125 2.3125l-1.625.25q-.234375-1-.828125-1.5-.59375-.5-1.421875-.5-1.265625 0-2.0625.90625-.78125.90625-.78125 2.859375 0 1.984375.765625 2.890625.765625.890625 1.984375.890625.984375 0 1.640625-.59375.65625-.609375.84375-1.859375zm9.640625.4375 1.71875.21875q-.40625 1.5-1.515625 2.34375-1.09375.828125-2.8125.828125-2.15625 0-3.421875-1.328125-1.265625-1.328125-1.265625-3.734375 0-2.484375 1.265625-3.859375 1.28125-1.375 3.328125-1.375 1.984375 0 3.234375 1.34375 1.25 1.34375 1.25 3.796875 0 .140625-.015625.4375h-7.34375q.09375 1.625.921875 2.484375.828125.859375 2.0625.859375.90625 0 1.546875-.46875.65625-.484375 1.046875-1.546875zm-5.484375-2.703125h5.5q-.109375-1.234375-.625-1.859375-.796875-.96875-2.078125-.96875-1.140625 0-1.9375.78125-.78125.765625-.859375 2.046875zm8.438217 2.9375 1.65625-.265625q.140625 1 .765625 1.53125.640625.515625 1.78125.515625 1.15625 0 1.703125-.46875.5625-.46875.5625-1.09375 0-.5625-.484375-.890625-.34375-.21875-1.703125-.5625-1.84375-.46875-2.5625-.796875-.703125-.34375-1.078125-.9375-.359375-.609375-.359375-1.328125 0-.65625.296875-1.21875.3125-.5625.828125-.9375.390625-.28125 1.0625-.484375.671875-.203125 1.4375-.203125 1.171875 0 2.046875.34375.875.328125 1.28125.90625.421875.5625.578125 1.515625l-1.625.21875q-.109375-.75-.65625-1.171875-.53125-.4375-1.5-.4375-1.15625 0-1.640625.390625-.484375.375-.484375.875 0 .328125.203125.59375.203125.265625.640625.4375.25.09375 1.46875.4375 1.765625.46875 2.46875.765625.703125.296875 1.09375.875.40625.578125.40625 1.4375 0 .828125-.484375 1.578125-.484375.734375-1.40625 1.140625-.921875.390625-2.078125.390625-1.921875 0-2.9375-.796875-1-.796875-1.28125-2.359375zm9.328125 0 1.65625-.265625q.140625 1 .765625 1.53125.640625.515625 1.78125.515625 1.15625 0 1.703125-.46875.5625-.46875.5625-1.09375 0-.5625-.484375-.890625-.34375-.21875-1.703125-.5625-1.84375-.46875-2.5625-.796875-.703125-.34375-1.078125-.9375-.359375-.609375-.359375-1.328125 0-.65625.296875-1.21875.3125-.5625.828125-.9375.390625-.28125 1.0625-.484375.671875-.203125 1.4375-.203125 1.171875 0 2.046875.34375.875.328125 1.28125.90625.421875.5625.578125 1.515625l-1.625.21875q-.109375-.75-.65625-1.171875-.53125-.4375-1.5-.4375-1.15625 0-1.640625.390625-.484375.375-.484375.875 0 .328125.203125.59375.203125.265625.640625.4375.25.09375 1.46875.4375 1.765625.46875 2.46875.765625.703125.296875 1.09375.875.40625.578125.40625 1.4375 0 .828125-.484375 1.578125-.484375.734375-1.40625 1.140625-.921875.390625-2.078125.390625-1.921875 0-2.9375-.796875-1-.796875-1.28125-2.359375zm10.46875-5.015625v-1.90625h1.90625v1.90625zm0 7.953125v-1.90625h1.90625v1.90625zm9.882233 0v-9.859375h1.5v1.5q.578125-1.046875 1.0625-1.375.484375-.34375 1.078125-.34375.84375 0 1.71875.546875l-.578125 1.546875q-.609375-.359375-1.234375-.359375-.546875 0-.984375.328125-.421875.328125-.609375.90625-.28125.890625-.28125 1.953125v5.15625zm12.978302-3.171875 1.71875.21875q-.40625 1.5-1.515625 2.34375-1.09375.828125-2.8125.828125-2.15625 0-3.421875-1.328125-1.265625-1.328125-1.265625-3.734375 0-2.484375 1.265625-3.859375 1.28125-1.375 3.328125-1.375 1.984375 0 3.234375 1.34375 1.25 1.34375 1.25 3.796875 0 .140625-.015625.4375h-7.34375q.09375 1.625.921875 2.484375.828125.859375 2.0625.859375.90625 0 1.546875-.46875.65625-.484375 1.046875-1.546875zm-5.484375-2.703125h5.5q-.109375-1.234375-.625-1.859375-.796875-.96875-2.078125-.96875-1.140625 0-1.9375.78125-.78125.765625-.859375 2.046875zm15.500717 5.875v-1.25q-.9375 1.46875-2.75 1.46875-1.171875 0-2.171875-.640625-.984375-.65625-1.53125-1.8125-.53125-1.171875-.53125-2.6875 0-1.46875.484375-2.671875.5-1.203125 1.46875-1.84375.984375-.640625 2.203125-.640625.890625 0 1.578125.375.703125.375 1.140625.984375v-4.875h1.65625v13.59375zm-5.28125-4.921875q0 1.890625.796875 2.828125.8125.9375 1.890625.9375 1.09375 0 1.859375-.890625.765625-.890625.765625-2.734375 0-2.015625-.78125-2.953125-.78125-.953125-1.921875-.953125-1.109375 0-1.859375.90625-.75.90625-.75 2.859375zm9.281967-6.765625v-1.90625h1.671875v1.90625zm0 11.6875v-9.859375h1.671875v9.859375zm3.4573212-2.9375 1.6562347-.265625q.140625 1 .765625 1.53125.640625.515625 1.78125.515625 1.15625 0 1.703125-.46875.5625-.46875.5625-1.09375 0-.5625-.484375-.890625-.34375-.21875-1.703125-.5625-1.84375-.46875-2.5625-.796875-.70310974-.34375-1.0781097-.9375-.359375-.609375-.359375-1.328125 0-.65625.296875-1.21875.3125-.5625.82810974-.9375.390625-.28125 1.0625-.484375.671875-.203125 1.4375-.203125 1.171875 0 2.046875.34375.875.328125 1.28125.90625.421875.5625.578125 1.515625l-1.625.21875q-.109375-.75-.65625-1.171875-.53125-.4375-1.5-.4375-1.15625 0-1.640625.390625-.484375.375-.484375.875 0 .328125.203125.59375.203125.265625.640625.4375.25.09375 1.46875.4375 1.765625.46875 2.46875.765625.703125.296875 1.09375.875.40625.578125.40625 1.4375 0 .828125-.484375 1.578125-.484375.734375-1.40625 1.140625-.921875.390625-2.078125.390625-1.921875 0-2.9375-.796875-.99998474-.796875-1.2812347-2.359375zm9.35936-1.140625v-1.6875h5.125v1.6875zm6.181427 1.140625 1.65625-.265625q.140625 1 .765625 1.53125.640625.515625 1.78125.515625 1.15625 0 1.703125-.46875.5625-.46875.5625-1.09375 0-.5625-.484375-.890625-.34375-.21875-1.703125-.5625-1.84375-.46875-2.5625-.796875-.703125-.34375-1.078125-.9375-.359375-.609375-.359375-1.328125 0-.65625.296875-1.21875.3125-.5625.828125-.9375.390625-.28125 1.0625-.484375.671875-.203125 1.4375-.203125 1.171875 0 2.046875.34375.875.328125 1.28125.90625.421875.5625.578125 1.515625l-1.625.21875q-.109375-.75-.65625-1.171875-.53125-.4375-1.5-.4375-1.15625 0-1.640625.390625-.484375.375-.484375.875 0 .328125.203125.59375.203125.265625.640625.4375.25.09375 1.46875.4375 1.765625.46875 2.46875.765625.703125.296875 1.09375.875.40625.578125.40625 1.4375 0 .828125-.484375 1.578125-.484375.734375-1.40625 1.140625-.921875.390625-2.078125.390625-1.921875 0-2.9375-.796875-1-.796875-1.28125-2.359375zm16.75-.234375 1.71875.21875q-.40625 1.5-1.515625 2.34375-1.09375.828125-2.8125.828125-2.15625 0-3.421875-1.328125-1.265625-1.328125-1.265625-3.734375 0-2.484375 1.265625-3.859375 1.28125-1.375 3.328125-1.375 1.984375 0 3.234375 1.34375 1.25 1.34375 1.25 3.796875 0 .140625-.015625.4375h-7.34375q.09375 1.625.921875 2.484375.828125.859375 2.0625.859375.90625 0 1.546875-.46875.65625-.484375 1.046875-1.546875zm-5.484375-2.703125h5.5q-.109375-1.234375-.625-1.859375-.796875-.96875-2.078125-.96875-1.140625 0-1.9375.78125-.78125.765625-.859375 2.046875zm9.094482 5.875v-9.859375h1.5v1.5q.578125-1.046875 1.0625-1.375.484375-.34375 1.078125-.34375.84375 0 1.71875.546875l-.578125 1.546875q-.609375-.359375-1.234375-.359375-.546875 0-.984375.328125-.421875.328125-.609375.90625-.28125.890625-.28125 1.953125v5.15625zm8.962677 0-3.75-9.859375h1.765625l2.125 5.90625q.34375.953125.625 1.984375.21875-.78125.625-1.875l2.1875-6.015625h1.71875l-3.734375 9.859375zm13.34375-3.171875 1.71875.21875q-.40625 1.5-1.515625 2.34375-1.09375.828125-2.8125.828125-2.15625 0-3.421875-1.328125-1.265625-1.328125-1.265625-3.734375 0-2.484375 1.265625-3.859375 1.28125-1.375 3.328125-1.375 1.984375 0 3.234375 1.34375 1.25 1.34375 1.25 3.796875 0 .140625-.015625.4375h-7.34375q.09375 1.625.921875 2.484375.828125.859375 2.0625.859375.90625 0 1.546875-.46875.65625-.484375 1.046875-1.546875zm-5.484375-2.703125h5.5q-.109375-1.234375-.625-1.859375-.796875-.96875-2.078125-.96875-1.140625 0-1.9375.78125-.78125.765625-.859375 2.046875zm9.094452 5.875v-9.859375h1.5v1.5q.578125-1.046875 1.0625-1.375.484375-.34375 1.078125-.34375.84375 0 1.71875.546875l-.578125 1.546875q-.609375-.359375-1.234375-.359375-.546875 0-.984375.328125-.421875.328125-.609375.90625-.28125.890625-.28125 1.953125v5.15625z" fill="#000"/><path d="m176 410h90.99213v40h-90.99213z" fill="#d9d2e9" fill-rule="evenodd"/><path d="m176 410h90.99213v40h-90.99213z" fill-rule="evenodd" stroke="#000" stroke-linecap="butt" stroke-linejoin="round"/><path d="m200.00583 432.15436 1.796875.453125q-.5625 2.21875-2.03125 3.390625-1.46875 1.15625-3.59375 1.15625-2.203125 0-3.578125-.890625-1.375-.90625-2.09375-2.59375-.71875-1.703125-.71875-3.65625 0-2.125.796875-3.703125.8125-1.578125 2.3125-2.390625 1.5-.828125 3.296875-.828125 2.046875 0 3.4375 1.046875 1.390625 1.03125 1.9375 2.90625l-1.765625.421875q-.46875-1.484375-1.375-2.15625-.90625-.6875-2.265625-.6875-1.5625 0-2.625.75-1.046875.75-1.484375 2.03125-.421875 1.265625-.421875 2.609375 0 1.734375.5 3.03125.515625 1.28125 1.578125 1.921875 1.078125.640625 2.3125.640625 1.515625 0 2.5625-.859375 1.046875-.875 1.421875-2.59375zm3.5198364 4.765625v-13.59375h1.671875v13.59375zm4.191681-11.6875v-1.90625h1.671875v1.90625zm0 11.6875v-9.859375h1.671875v9.859375zm10.879211-3.171875 1.71875.21875q-.40625 1.5-1.515625 2.34375-1.09375.828125-2.8125.828125-2.15625 0-3.421875-1.328125-1.265625-1.328125-1.265625-3.734375 0-2.484375 1.265625-3.859375 1.28125-1.375 3.328125-1.375 1.984375 0 3.234375 1.34375 1.25 1.34375 1.25 3.796875 0 .140625-.015625.4375h-7.34375q.09375 1.625.921875 2.484375.828125.859375 2.0625.859375.90625 0 1.546875-.46875.65625-.484375 1.046875-1.546875zm-5.484375-2.703125h5.5q-.109375-1.234375-.625-1.859375-.796875-.96875-2.078125-.96875-1.140625 0-1.9375.78125-.78125.765625-.859375 2.046875zm9.110077 5.875v-9.859375h1.5v1.40625q1.09375-1.625 3.140625-1.625.890625 0 1.640625.328125.75.3125 1.109375.84375.375.515625.53125 1.21875.09375.46875.09375 1.625v6.0625h-1.671875v-6q0-1.015625-.203125-1.515625-.1875-.515625-.6875-.8125-.5-.296875-1.171875-.296875-1.0625 0-1.84375.671875-.765625.671875-.765625 2.578125v5.375zm14.031982-1.5.234375 1.484375q-.703125.140625-1.265625.140625-.90625 0-1.40625-.28125-.5-.296875-.703125-.75-.203125-.46875-.203125-1.984375v-5.65625h-1.234375v-1.3125h1.234375v-2.4375l1.65625-1v3.4375h1.6875v1.3125h-1.6875v5.75q0 .71875.078125.921875.09375.203125.296875.328125.203125.125.578125.125.265625 0 .734375-.078125zm5.4291077 1.5 5.234375-13.59375h1.9375l5.5625 13.59375h-2.046875l-1.59375-4.125h-5.6875l-1.484375 4.125zm3.921875-5.578125h4.609375l-1.40625-3.78125q-.65625-1.703125-.96875-2.8125-.265625 1.3125-.734375 2.59375z" fill="#000"/><path d="m396.49213 411.00787h90.99213v40h-90.99213z" fill="#d9d2e9" fill-rule="evenodd"/><path d="m396.49213 411.00787h90.99213v40h-90.99213z" fill-rule="evenodd" stroke="#000" stroke-linecap="butt" stroke-linejoin="round"/><path d="m420.49796 433.16226 1.796875.453125q-.5625 2.21875-2.03125 3.390625-1.46875 1.15625-3.59375 1.15625-2.203125 0-3.578125-.890625-1.375-.90625-2.09375-2.59375-.71875-1.703125-.71875-3.65625 0-2.125.796875-3.703125.8125-1.578125 2.3125-2.390625 1.5-.828125 3.296875-.828125 2.046875 0 3.4375 1.046875 1.390625 1.03125 1.9375 2.90625l-1.765625.421875q-.46875-1.484375-1.375-2.15625-.90625-.6875-2.265625-.6875-1.5625 0-2.625.75-1.046875.75-1.484375 2.03125-.421875 1.265625-.421875 2.609375 0 1.734375.5 3.03125.515625 1.28125 1.578125 1.921875 1.078125.640625 2.3125.640625 1.515625 0 2.5625-.859375 1.046875-.875 1.421875-2.59375zm3.5198364 4.765625v-13.59375h1.671875v13.59375zm4.191681-11.6875v-1.90625h1.671875v1.90625zm0 11.6875v-9.859375h1.671875v9.859375zm10.879211-3.171875 1.71875.21875q-.40625 1.5-1.515625 2.34375-1.09375.828125-2.8125.828125-2.15625 0-3.421875-1.328125-1.265625-1.328125-1.265625-3.734375 0-2.484375 1.265625-3.859375 1.28125-1.375 3.328125-1.375 1.984375 0 3.234375 1.34375 1.25 1.34375 1.25 3.796875 0 .140625-.015625.4375h-7.34375q.09375 1.625.921875 2.484375.828125.859375 2.0625.859375.90625 0 1.546875-.46875.65625-.484375 1.046875-1.546875zm-5.484375-2.703125h5.5q-.109375-1.234375-.625-1.859375-.796875-.96875-2.078125-.96875-1.140625 0-1.9375.78125-.78125.765625-.859375 2.046875zm9.110077 5.875v-9.859375h1.5v1.40625q1.09375-1.625 3.140625-1.625.890625 0 1.640625.328125.75.3125 1.109375.84375.375.515625.53125 1.21875.09375.46875.09375 1.625v6.0625h-1.671875v-6q0-1.015625-.203125-1.515625-.1875-.515625-.6875-.8125-.5-.296875-1.171875-.296875-1.0625 0-1.84375.671875-.765625.671875-.765625 2.578125v5.375zm14.031982-1.5.234375 1.484375q-.703125.140625-1.265625.140625-.90625 0-1.40625-.28125-.5-.296875-.703125-.75-.203125-.46875-.203125-1.984375v-5.65625h-1.234375v-1.3125h1.234375v-2.4375l1.65625-1v3.4375h1.6875v1.3125h-1.6875v5.75q0 .71875.078125.921875.09375.203125.296875.328125.203125.125.578125.125.265625 0 .734375-.078125zm6.8509827 1.5v-13.59375h5.109375q1.546875 0 2.484375.40625.953125.40625 1.484375 1.265625.53125.859375.53125 1.796875 0 .875-.46875 1.65625-.46875.765625-1.4375 1.234375 1.234375.359375 1.890625 1.234375.671875.875.671875 2.0625 0 .953125-.40625 1.78125-.390625.8125-.984375 1.265625-.59375.4375-1.5.671875-.890625.21875-2.1875.21875zm1.796875-7.890625h2.9375q1.203125 0 1.71875-.15625.6875-.203125 1.03125-.671875.359375-.46875.359375-1.1875 0-.671875-.328125-1.1875-.328125-.515625-.9375-.703125-.59375-.203125-2.0625-.203125h-2.71875zm0 6.28125h3.390625q.875 0 1.21875-.0625.625-.109375 1.046875-.359375.421875-.265625.6875-.765625.265625-.5.265625-1.140625 0-.765625-.390625-1.328125-.390625-.5625-1.078125-.78125-.6875-.234375-1.984375-.234375h-3.15625z" fill="#000"/><path d="m599.98425 410h90.99213v40h-90.99213z" fill="#d9d2e9" fill-rule="evenodd"/><path d="m599.98425 410h90.99213v40h-90.99213z" fill-rule="evenodd" stroke="#000" stroke-linecap="butt" stroke-linejoin="round"/><path d="m623.4754 432.15436 1.796875.453125q-.5625 2.21875-2.03125 3.390625-1.46875 1.15625-3.59375 1.15625-2.203125 0-3.578125-.890625-1.375-.90625-2.09375-2.59375-.71875-1.703125-.71875-3.65625 0-2.125.796875-3.703125.8125-1.578125 2.3125-2.390625 1.5-.828125 3.296875-.828125 2.046875 0 3.4375 1.046875 1.390625 1.03125 1.9375 2.90625l-1.765625.421875q-.46875-1.484375-1.375-2.15625-.90625-.6875-2.265625-.6875-1.5625 0-2.625.75-1.046875.75-1.484375 2.03125-.421875 1.265625-.421875 2.609375 0 1.734375.5 3.03125.515625 1.28125 1.578125 1.921875 1.078125.640625 2.3125.640625 1.515625 0 2.5625-.859375 1.046875-.875 1.421875-2.59375zm3.5198364 4.765625v-13.59375h1.671875v13.59375zm4.1916504-11.6875v-1.90625h1.671875v1.90625zm0 11.6875v-9.859375h1.671875v9.859375zm10.879211-3.171875 1.71875.21875q-.40625 1.5-1.515625 2.34375-1.09375.828125-2.8125.828125-2.15625 0-3.421875-1.328125-1.265625-1.328125-1.265625-3.734375 0-2.484375 1.265625-3.859375 1.28125-1.375 3.328125-1.375 1.984375 0 3.234375 1.34375 1.25 1.34375 1.25 3.796875 0 .140625-.015625.4375h-7.34375q.09375 1.625.921875 2.484375.828125.859375 2.0625.859375.90625 0 1.546875-.46875.65625-.484375 1.046875-1.546875zm-5.484375-2.703125h5.5q-.109375-1.234375-.625-1.859375-.796875-.96875-2.078125-.96875-1.140625 0-1.9375.78125-.78125.765625-.859375 2.046875zm9.110107 5.875v-9.859375h1.5v1.40625q1.09375-1.625 3.140625-1.625.890625 0 1.640625.328125.75.3125 1.109375.84375.375.515625.53125 1.21875.09375.46875.09375 1.625v6.0625h-1.671875v-6q0-1.015625-.203125-1.515625-.1875-.515625-.6875-.8125-.5-.296875-1.171875-.296875-1.0625 0-1.84375.671875-.765625.671875-.765625 2.578125v5.375zm14.031982-1.5.234375 1.484375q-.703125.140625-1.265625.140625-.90625 0-1.40625-.28125-.5-.296875-.703125-.75-.203125-.46875-.203125-1.984375v-5.65625h-1.234375v-1.3125h1.234375v-2.4375l1.65625-1v3.4375h1.6875v1.3125h-1.6875v5.75q0 .71875.078125.921875.09375.203125.296875.328125.203125.125.578125.125.265625 0 .734375-.078125zm16.632202-3.265625 1.796875.453125q-.5625 2.21875-2.03125 3.390625-1.46875 1.15625-3.59375 1.15625-2.203125 0-3.578125-.890625-1.375-.90625-2.09375-2.59375-.71875-1.703125-.71875-3.65625 0-2.125.796875-3.703125.8125-1.578125 2.3125-2.390625 1.5-.828125 3.296875-.828125 2.046875 0 3.4375 1.046875 1.390625 1.03125 1.9375 2.90625l-1.765625.421875q-.46875-1.484375-1.375-2.15625-.90625-.6875-2.265625-.6875-1.5625 0-2.625.75-1.046875.75-1.484375 2.03125-.421875 1.265625-.421875 2.609375 0 1.734375.5 3.03125.515625 1.28125 1.578125 1.921875 1.078125.640625 2.3125.640625 1.515625 0 2.5625-.859375 1.046875-.875 1.421875-2.59375z" fill="#000"/><path d="m221.49606 450-1.1338654 66.99213" fill="none"/><path d="m221.49606 450-1.0323181 60.99298" fill-rule="evenodd" stroke="#000" stroke-linecap="butt" stroke-linejoin="round"/><path d="m218.81224 510.96503 1.574707 4.5654297 1.7282867-4.5095215z" fill="#000" fill-rule="evenodd" stroke="#000" stroke-linecap="butt"/><path d="m441.9882 451.00787.8189087 66.99213" fill="none"/><path d="m441.9882 451.00787.74557495 60.992554" fill-rule="evenodd" stroke="#000" stroke-linecap="butt" stroke-linejoin="round"/><path d="m441.08215 512.0206 1.7070618 4.517578 1.5961304-4.557953z" fill="#000" fill-rule="evenodd" stroke="#000" stroke-linecap="butt"/><path d="m645.4803 450v66.99213" fill="none"/><path d="m645.4803 450v60.992126" fill-rule="evenodd" stroke="#000" stroke-linecap="butt" stroke-linejoin="round"/><path d="m643.82855 510.99213 1.6517334 4.538086 1.6517334-4.538086z" fill="#000" fill-rule="evenodd" stroke="#000" stroke-linecap="butt"/><path d="m345.39108 102.98425h158.11023v17.007874h-158.11023z" fill="none"/><path d="m361.29733 120.43275q0 .734375-.1875 1.375-.171875.640625-.515625 1.109375-.34375.46875-.859375.734375-.5.265625-1.140625.265625-.625 0-1.109375-.203125-.484375-.203125-.828125-.578125v3.296875h-1.171875v-9.515625h1.078125l.0625.75q.34375-.421875.828125-.640625.484375-.234375 1.125-.234375.65625 0 1.15625.265625.515625.265625.859375.734375.34375.453125.515625 1.09375.1875.640625.1875 1.421875zm-1.1875-.125q0-.515625-.109375-.96875-.109375-.453125-.34375-.796875-.21875-.34375-.578125-.546875-.359375-.203125-.859375-.203125-.5625 0-.953125.265625-.375.265625-.609375.671875v3.3125q.234375.40625.609375.671875.390625.25.96875.25.484375 0 .84375-.203125.359375-.21875.578125-.5625.234375-.34375.34375-.796875.109375-.46875.109375-.96875zm7.841919 2.53125q-.34375.515625-.859375.796875-.515625.28125-1.1875.28125-.53125 0-.984375-.15625-.4375-.171875-.75-.53125-.296875-.359375-.46875-.90625-.171875-.546875-.171875-1.3125v-4.09375h1.171875v4.09375q0 .5625.09375.9375.09375.359375.265625.578125.171875.21875.421875.3125.265625.09375.609375.09375.71875 0 1.15625-.296875.4375-.296875.65625-.78125v-4.9375h1.1875v6.875h-1.078125zm9.357574-2.40625q0 .734375-.1875 1.375-.171875.640625-.515625 1.109375-.328125.46875-.84375.734375-.5.265625-1.15625.265625-.65625 0-1.140625-.234375-.484375-.234375-.828125-.671875l-.0625.78125h-1.078125v-9.75h1.171875v3.625q.34375-.421875.8125-.640625.484375-.234375 1.109375-.234375.671875 0 1.171875.265625.515625.265625.84375.734375.34375.453125.515625 1.09375.1875.640625.1875 1.421875zm-1.171875-.125q0-.515625-.109375-.96875-.09375-.453125-.3125-.796875-.203125-.34375-.5625-.546875-.34375-.203125-.84375-.203125-.3125 0-.5625.078125-.25.078125-.453125.234375-.203125.140625-.359375.328125-.15625.1875-.265625.421875v3q.125.234375.265625.421875.15625.1875.359375.34375.203125.140625.453125.21875.265625.078125.5625.078125.484375 0 .828125-.1875.359375-.203125.578125-.546875.21875-.34375.3125-.796875.109375-.453125.109375-.953125zm7.920044 1.65625q0-.203125-.09375-.375-.078125-.171875-.28125-.296875-.1875-.140625-.515625-.25-.3125-.125-.796875-.234375-.59375-.109375-1.078125-.28125-.484375-.171875-.828125-.40625-.34375-.25-.546875-.5625-.1875-.328125-.1875-.75 0-.421875.1875-.78125.203125-.359375.5625-.625.359375-.28125.84375-.4375.5-.171875 1.09375-.171875.625 0 1.125.171875.515625.15625.875.453125.359375.296875.546875.6875.1875.390625.1875.84375h-1.171875q0-.234375-.109375-.4375-.109375-.21875-.3125-.375-.203125-.171875-.5-.265625-.28125-.109375-.640625-.109375-.375 0-.671875.09375-.28125.078125-.46875.21875-.1875.125-.28125.3125-.09375.1875-.09375.390625 0 .203125.078125.359375.078125.15625.265625.28125.1875.125.5.234375.3125.09375.796875.1875.640625.140625 1.140625.3125.5.171875.84375.421875.34375.234375.515625.5625.1875.328125.1875.75 0 .453125-.203125.828125-.203125.375-.578125.640625-.375.265625-.890625.421875-.5.140625-1.109375.140625-.703125 0-1.25-.1875-.546875-.1875-.921875-.484375-.375-.3125-.578125-.71875-.203125-.40625-.203125-.84375h1.171875q.03125.359375.1875.609375.171875.25.421875.40625.265625.140625.5625.203125.3125.0625.609375.0625.734375 0 1.15625-.265625.4375-.28125.453125-.734375zm7.8888245.875q-.34375.515625-.859375.796875-.515625.28125-1.1875.28125-.53125 0-.984375-.15625-.4375-.171875-.75-.53125-.296875-.359375-.46875-.90625-.171875-.546875-.171875-1.3125v-4.09375h1.171875v4.09375q0 .5625.09375.9375.09375.359375.265625.578125.171875.21875.421875.3125.265625.09375.609375.09375.71875 0 1.15625-.296875.4375-.296875.65625-.78125v-4.9375h1.1875v6.875h-1.078125zm9.357544-2.40625q0 .734375-.1875 1.375-.171875.640625-.515625 1.109375-.328125.46875-.84375.734375-.5.265625-1.15625.265625-.65625 0-1.140625-.234375-.484375-.234375-.828125-.671875l-.0625.78125h-1.078125v-9.75h1.171875v3.625q.34375-.421875.8125-.640625.484375-.234375 1.109375-.234375.671875 0 1.171875.265625.515625.265625.84375.734375.34375.453125.515625 1.09375.1875.640625.1875 1.421875zm-1.171875-.125q0-.515625-.109375-.96875-.09375-.453125-.3125-.796875-.203125-.34375-.5625-.546875-.34375-.203125-.84375-.203125-.3125 0-.5625.078125-.25.078125-.453125.234375-.203125.140625-.359375.328125-.15625.1875-.265625.421875v3q.125.234375.265625.421875.15625.1875.359375.34375.203125.140625.453125.21875.265625.078125.5625.078125.484375 0 .828125-.1875.359375-.203125.578125-.546875.21875-.34375.3125-.796875.109375-.453125.109375-.953125zm9.060699 4.4375h-5.828125v-.953125h5.828125zm5.216919-1.78125q.3125 0 .609375-.09375.3125-.109375.546875-.28125.234375-.1875.375-.421875.140625-.25.15625-.546875h1.109375q-.015625.46875-.25.890625-.21875.40625-.609375.71875-.390625.3125-.890625.5-.5.1875-1.046875.1875-.78125 0-1.375-.28125-.578125-.28125-.96875-.75-.390625-.46875-.59375-1.078125-.1875-.625-.1875-1.3125v-.265625q0-.6875.1875-1.296875.203125-.625.59375-1.09375.390625-.484375.96875-.765625.59375-.28125 1.375-.28125.609375 0 1.109375.203125.515625.1875.890625.53125.375.328125.578125.78125.21875.453125.21875.984375h-1.109375q-.015625-.3125-.140625-.59375-.125-.28125-.359375-.484375-.21875-.21875-.53125-.328125-.296875-.125-.65625-.125-.546875 0-.921875.21875-.359375.21875-.59375.578125-.234375.34375-.328125.78125-.09375.4375-.09375.890625v.265625q0 .453125.09375.890625.09375.4375.3125.796875.234375.34375.609375.5625.375.21875.921875.21875zm6.2481995-5.015625q.359375-.546875.890625-.84375.546875-.296875 1.234375-.3125.53125 0 .96875.15625.453125.15625.75.484375.3125.328125.484375.84375.171875.5.171875 1.1875v4.328125h-1.171875v-4.328125q0-.859375-.40625-1.265625-.40625-.40625-1.15625-.40625-.5625 0-1.03125.28125-.453125.265625-.734375.734375v4.984375h-1.171875v-9.75h1.171875zm11.341919 5.84375q-.078125-.140625-.125-.328125-.03125-.203125-.046875-.421875-.1875.171875-.40625.34375-.21875.15625-.484375.28125-.265625.109375-.5625.171875-.296875.078125-.625.078125-.546875 0-1-.15625-.4375-.15625-.75-.421875-.296875-.28125-.46875-.640625-.171875-.375-.171875-.8125 0-.5625.21875-.984375.234375-.421875.640625-.703125.421875-.296875 1-.4375.578125-.140625 1.296875-.140625h1.28125v-.53125q0-.3125-.109375-.5625-.109375-.25-.328125-.421875-.203125-.171875-.515625-.265625-.296875-.09375-.671875-.09375-.34375 0-.625.09375-.265625.078125-.46875.234375-.1875.140625-.296875.34375-.09375.1875-.09375.40625h-1.1875q.015625-.375.203125-.734375.1875-.359375.53125-.640625.359375-.296875.859375-.46875.5-.1875 1.140625-.1875.59375 0 1.09375.15625.5.140625.859375.4375.375.28125.578125.71875.21875.421875.21875 1v3.1875q0 .34375.0625.734375.0625.375.171875.65625v.109375zm-2.078125-.890625q.34375 0 .640625-.09375.296875-.09375.53125-.234375.25-.140625.421875-.328125.1875-.1875.28125-.390625v-1.390625h-1.09375q-1.015625 0-1.59375.3125-.5625.296875-.5625.953125 0 .25.078125.46875.09375.203125.25.359375.171875.15625.4375.25.265625.09375.609375.09375zm6.6075745-5.984375.078125 1.015625q.375-.53125.921875-.828125.546875-.296875 1.21875-.3125.546875 0 .984375.15625.4375.15625.75.484375.3125.3125.484375.8125.171875.5.171875 1.1875v4.359375h-1.171875v-4.328125q0-.46875-.109375-.78125-.09375-.3125-.296875-.515625-.203125-.203125-.5-.28125-.28125-.09375-.65625-.09375-.59375 0-1.046875.296875-.4375.296875-.703125.78125v4.921875h-1.171875v-6.875zm7.998169 0 .078125 1.015625q.375-.53125.921875-.828125.546875-.296875 1.21875-.3125.546875 0 .984375.15625.4375.15625.75.484375.3125.3125.484375.8125.171875.5.171875 1.1875v4.359375h-1.171875v-4.328125q0-.46875-.109375-.78125-.09375-.3125-.296875-.515625-.203125-.203125-.5-.28125-.28125-.09375-.65625-.09375-.59375 0-1.046875.296875-.4375.296875-.703125.78125v4.921875h-1.171875v-6.875zm9.982574 7q-.71875 0-1.328125-.25-.609375-.25-1.046875-.6875-.421875-.4375-.671875-1.046875-.234375-.609375-.234375-1.328125v-.265625q0-.84375.265625-1.5.265625-.65625.703125-1.109375.4375-.453125 1-.6875.5625-.25 1.15625-.25.75 0 1.296875.265625.5625.25.921875.703125.375.453125.546875 1.078125.1875.609375.1875 1.328125v.53125h-4.90625q.015625.46875.171875.890625.171875.40625.453125.71875.28125.296875.671875.484375.390625.171875.875.171875.625 0 1.109375-.25.5-.265625.8125-.6875l.71875.5625q-.171875.265625-.4375.5-.25.234375-.59375.421875-.328125.1875-.75.296875-.421875.109375-.921875.109375zm-.15625-6.15625q-.359375 0-.671875.140625-.3125.125-.578125.375-.25.25-.421875.625-.171875.359375-.25.828125h3.703125v-.09375q-.015625-.34375-.140625-.671875-.109375-.34375-.328125-.609375-.203125-.265625-.53125-.421875-.328125-.171875-.78125-.171875zm5.295044-3.71875h3.515625v8.734375h2.25v1.015625h-5.765625v-1.015625h2.34375v-7.71875h-2.34375zm12.388824 7.921875q0-.203125-.09375-.375-.078125-.171875-.28125-.296875-.1875-.140625-.515625-.25-.3125-.125-.796875-.234375-.59375-.109375-1.078125-.28125-.484375-.171875-.828125-.40625-.34375-.25-.546875-.5625-.1875-.328125-.1875-.75 0-.421875.1875-.78125.203125-.359375.5625-.625.359375-.28125.84375-.4375.5-.171875 1.09375-.171875.625 0 1.125.171875.515625.15625.875.453125.359375.296875.546875.6875.1875.390625.1875.84375h-1.171875q0-.234375-.109375-.4375-.109375-.21875-.3125-.375-.203125-.171875-.5-.265625-.28125-.109375-.640625-.109375-.375 0-.671875.09375-.28125.078125-.46875.21875-.1875.125-.28125.3125-.09375.1875-.09375.390625 0 .203125.078125.359375.078125.15625.265625.28125.1875.125.5.234375.3125.09375.796875.1875.640625.140625 1.140625.3125.5.171875.84375.421875.34375.234375.515625.5625.1875.328125.1875.75 0 .453125-.203125.828125-.203125.375-.578125.640625-.375.265625-.890625.421875-.5.140625-1.109375.140625-.703125 0-1.25-.1875-.546875-.1875-.921875-.484375-.375-.3125-.578125-.71875-.203125-.40625-.203125-.84375h1.171875q.03125.359375.1875.609375.171875.25.421875.40625.265625.140625.5625.203125.3125.0625.609375.0625.734375 0 1.15625-.265625.4375-.28125.453125-.734375z" fill="#000"/><path d="m212.99213 387.49606c0-4.696594 3.8073425-8.503937 8.503937-8.503937 2.2553864 0 4.418396.89593506 6.013199 2.4907532 1.5947876 1.5947876 2.490738 3.7578125 2.490738 6.0131836 0 4.696594-3.8073425 8.503937-8.503937 8.503937-4.696594 0-8.503937-3.8073425-8.503937-8.503937z" fill="#f4cccc" fill-rule="evenodd"/><path d="m212.99213 387.49606c0-4.696594 3.8073425-8.503937 8.503937-8.503937 2.2553864 0 4.418396.89593506 6.013199 2.4907532 1.5947876 1.5947876 2.490738 3.7578125 2.490738 6.0131836 0 4.696594-3.8073425 8.503937-8.503937 8.503937-4.696594 0-8.503937-3.8073425-8.503937-8.503937z" fill-rule="evenodd" stroke="#000" stroke-linecap="butt" stroke-linejoin="round"/><path d="m221.49606 410v-14.015747" fill="none"/><g fill-rule="evenodd"><path d="m221.49606 410v-8.015747" stroke="#000" stroke-linecap="butt" stroke-linejoin="round"/><path d="m223.1478 401.98425-1.6517334-4.538086-1.6517334 4.538086z" fill="#000" stroke="#000" stroke-linecap="butt"/><path d="m433.48425 388.50394c0-4.696594 3.8073425-8.503937 8.503937-8.503937 2.255371 0 4.418396.89593506 6.0131836 2.4907532 1.5948181 1.5947876 2.4907532 3.7578125 2.4907532 6.0131836 0 4.696594-3.8073425 8.503937-8.503937 8.503937-4.696594 0-8.503937-3.8073425-8.503937-8.503937z" fill="#f4cccc"/><path d="m433.48425 388.50394c0-4.696594 3.8073425-8.503937 8.503937-8.503937 2.255371 0 4.418396.89593506 6.0131836 2.4907532 1.5948181 1.5947876 2.4907532 3.7578125 2.4907532 6.0131836 0 4.696594-3.8073425 8.503937-8.503937 8.503937-4.696594 0-8.503937-3.8073425-8.503937-8.503937z" stroke="#000" stroke-linecap="butt" stroke-linejoin="round"/><path d="m636.9764 387.49606c0-4.696594 3.807312-8.503937 8.503906-8.503937 2.2554321 0 4.418396.89593506 6.0132446 2.4907532 1.5947876 1.5947876 2.4907227 3.7578125 2.4907227 6.0131836 0 4.696594-3.807373 8.503937-8.503967 8.503937-4.696594 0-8.503906-3.8073425-8.503906-8.503937z" fill="#f4cccc"/><path d="m636.9764 387.49606c0-4.696594 3.807312-8.503937 8.503906-8.503937 2.2554321 0 4.418396.89593506 6.0132446 2.4907532 1.5947876 1.5947876 2.4907227 3.7578125 2.4907227 6.0131836 0 4.696594-3.807373 8.503937-8.503967 8.503937-4.696594 0-8.503906-3.8073425-8.503906-8.503937z" stroke="#000" stroke-linecap="butt" stroke-linejoin="round"/></g><path d="m441.9882 411.00787v-14.015747" fill="none"/><path d="m441.9882 411.00787v-8.015747" fill-rule="evenodd" stroke="#000" stroke-linecap="butt" stroke-linejoin="round"/><path d="m443.63992 402.99213-1.6517334-4.538086-1.6517334 4.538086z" fill="#000" fill-rule="evenodd" stroke="#000" stroke-linecap="butt"/><path d="m645.4803 410v-14.015747" fill="none"/><path d="m645.4803 410v-8.015747" fill-rule="evenodd" stroke="#000" stroke-linecap="butt" stroke-linejoin="round"/><path d="m647.132 401.98425-1.6517334-4.538086-1.6517334 4.538086z" fill="#000" fill-rule="evenodd" stroke="#000" stroke-linecap="butt"/><path d="m441.9882 380-123.93701-161.51181" fill="none"/><path d="m441.9882 380-120.28433-156.75177" fill-rule="evenodd" stroke="#000" stroke-linecap="butt" stroke-linejoin="round"/><path d="m323.01422 222.2427-4.073059-2.5947266 1.4522705 4.6058044z" fill="#000" fill-rule="evenodd" stroke="#000" stroke-linecap="butt"/><path d="m441.9882 380 103.87399-161.51181" fill="none"/><path d="m441.9882 380 100.62851-156.4654" fill-rule="evenodd" stroke="#000" stroke-linecap="butt" stroke-linejoin="round"/><path d="m544.0059 224.42809 1.0654907-4.710327-3.8439941 2.9234009z" fill="#000" fill-rule="evenodd" stroke="#000" stroke-linecap="butt"/><path d="m221.49606 378.99213 96.566925-160.50394" fill="none"/><path d="m221.49606 378.99213 93.473724-155.36272" fill-rule="evenodd" stroke="#000" stroke-linecap="butt" stroke-linejoin="round"/><path d="m316.3851 224.48093.92422485-4.740082-3.7548523 3.037033z" fill="#000" fill-rule="evenodd" stroke="#000" stroke-linecap="butt"/><path d="m365.76117 218.48032-121.92128 191.49606" fill="none"/><path d="m365.76117 218.48032-118.6989 186.43484" fill-rule="evenodd" stroke="#000" stroke-linecap="butt" stroke-linejoin="round"/><path d="m245.66898 404.02805-1.0439453 4.715149 3.8305511-2.940979z" fill="#000" fill-rule="evenodd" stroke="#000" stroke-linecap="butt"/><path d="m365.76117 218.48032 57.07086 192" fill="none"/><path d="m365.76117 218.48032 55.36133 186.24869" fill-rule="evenodd" stroke="#000" stroke-linecap="butt" stroke-linejoin="round"/><path d="m419.5392 405.19962 2.8762817 3.8793945.2902527-4.8206177z" fill="#000" fill-rule="evenodd" stroke="#000" stroke-linecap="butt"/><path d="m593.2362 218.48032-130.2362 192.0315" fill="none"/><path d="m593.2362 218.48032-126.86847 187.06577" fill-rule="evenodd" stroke="#000" stroke-linecap="butt" stroke-linejoin="round"/><path d="m465.00076 404.619-1.1802063 4.6829224 3.9141846-2.8287048z" fill="#000" fill-rule="evenodd" stroke="#000" stroke-linecap="butt"/><path d="m356.5013 131.0105h25.196838v21.480316h-25.196838z" fill="#cfe2f3" fill-rule="evenodd"/><path d="m356.5013 131.0105h25.196838v21.480316h-25.196838z" fill-rule="evenodd" stroke="#000" stroke-linecap="butt" stroke-linejoin="round"/><path d="m371.7461 142.50629q0 .734375-.171875 1.3125-.171875.578125-.5.984375-.3125.390625-.78125.59375-.46875.203125-1.078125.203125-.59375 0-1.0625-.203125-.46875-.203125-.796875-.59375-.328125-.40625-.5-.984375-.171875-.578125-.171875-1.3125v-1.84375q0-.734375.171875-1.3125.171875-.578125.484375-.96875.328125-.40625.796875-.609375.484375-.21875 1.078125-.21875.59375 0 1.0625.21875.46875.203125.796875.609375.328125.390625.5.96875.171875.578125.171875 1.3125zm-4.0625-.203125 3.046875-2.34375q-.09375-.78125-.46875-1.171875-.359375-.40625-1.046875-.40625-.78125 0-1.15625.53125-.375.515625-.375 1.53125zm3.0625-1.390625-3.03125 2.328125q.078125.75.453125 1.15625.375.390625 1.046875.390625.796875 0 1.15625-.53125.375-.53125.375-1.546875z" fill="#000"/><path d="m381.69815 131.0105h25.196869v21.480316h-25.196869z" fill="#cfe2f3" fill-rule="evenodd"/><path d="m381.69815 131.0105h25.196869v21.480316h-25.196869z" fill-rule="evenodd" stroke="#000" stroke-linecap="butt" stroke-linejoin="round"/><path d="m395.25543 145.49066h-1v-6.546875l-2.03125.765625v-.90625l2.953125-1.140625h.078125z" fill="#000"/><path d="m406.89502 131.0105h25.196838v21.480316h-25.196838z" fill="#cfe2f3" fill-rule="evenodd"/><path d="m406.89502 131.0105h25.196838v21.480316h-25.196838z" fill-rule="evenodd" stroke="#000" stroke-linecap="butt" stroke-linejoin="round"/><path d="m422.03043 145.49066h-5.125v-.71875l2.5625-2.84375q.34375-.375.5625-.671875.234375-.296875.375-.546875.140625-.25.203125-.46875.0625-.234375.0625-.46875 0-.28125-.09375-.53125-.09375-.265625-.28125-.453125-.171875-.1875-.4375-.296875-.25-.109375-.578125-.109375-.390625 0-.671875.109375-.28125.109375-.484375.328125-.1875.203125-.28125.5-.09375.296875-.09375.65625h-1q0-.5.171875-.9375.171875-.4375.5-.765625.328125-.328125.796875-.515625.46875-.1875 1.0625-.1875.5625 0 1 .171875.453125.15625.75.453125.3125.28125.46875.6875.171875.390625.171875.84375 0 .359375-.125.703125-.109375.328125-.3125.671875-.203125.328125-.46875.65625-.265625.328125-.5625.640625l-2.09375 2.28125h3.921875z" fill="#000"/><path d="m432.09186 131.0105h25.196869v21.480316h-25.196869z" fill="#cfe2f3" fill-rule="evenodd"/><path d="m432.09186 131.0105h25.196869v21.480316h-25.196869z" fill-rule="evenodd" stroke="#000" stroke-linecap="butt" stroke-linejoin="round"/><path d="m443.58664 141.10004h.703125q.390625 0 .671875-.09375.28125-.109375.46875-.28125.203125-.1875.296875-.421875.109375-.25.109375-.546875 0-.6875-.34375-1.03125-.34375-.34375-1.015625-.34375-.3125 0-.578125.09375-.265625.09375-.453125.28125-.1875.171875-.296875.421875-.09375.234375-.09375.546875h-1q0-.453125.171875-.84375.1875-.390625.5-.6875.3125-.296875.75-.453125.453125-.171875 1-.171875.515625 0 .953125.140625.4375.140625.75.421875.3125.28125.484375.703125.171875.40625.171875.9375 0 .234375-.078125.484375-.0625.234375-.203125.46875-.140625.21875-.375.421875-.234375.203125-.546875.328125.375.125.625.328125.265625.203125.421875.453125.15625.234375.21875.515625.0625.265625.0625.53125 0 .546875-.1875.984375-.1875.421875-.53125.71875-.328125.28125-.78125.4375-.453125.15625-.984375.15625-.515625 0-.96875-.140625-.453125-.15625-.796875-.421875-.328125-.28125-.53125-.6875-.1875-.40625-.1875-.921875h1q0 .3125.09375.5625.109375.25.296875.4375.203125.171875.46875.265625.28125.09375.625.09375.34375 0 .609375-.078125.28125-.09375.46875-.28125.203125-.1875.296875-.453125.109375-.265625.109375-.640625 0-.375-.125-.640625-.109375-.265625-.328125-.4375-.21875-.171875-.53125-.25-.3125-.09375-.6875-.09375h-.703125z" fill="#000"/><path d="m419.49344 152.49081-101.41733 44.503937" fill="none"/><path d="m419.49344 152.49081-95.923035 42.092926" fill-rule="evenodd" stroke="#000" stroke-linecap="butt" stroke-linejoin="round"/><path d="m322.90668 193.07124-3.4918823 3.3360596 4.8193054-.31103516z" fill="#000" fill-rule="evenodd" stroke="#000" stroke-linecap="butt"/><path d="m282.1076 197h71.90552v21.480316h-71.90552z" fill="#b6d7a8" fill-rule="evenodd"/><path d="m282.1076 197h71.90552v21.480316h-71.90552z" fill-rule="evenodd" stroke="#000" stroke-linecap="butt" stroke-linejoin="round"/><path d="m294.12183 205.12079q0-.265625.0625-.53125.0625-.28125.1875-.546875.125-.28125.296875-.53125.171875-.25.390625-.4375l.546875.390625q-.25.375-.390625.78125-.125.390625-.125.859375v.796875h-.96875zm2 0q0-.265625.0625-.53125.0625-.28125.1875-.546875.125-.28125.296875-.53125.171875-.25.390625-.4375l.546875.390625q-.25.375-.390625.78125-.125.390625-.125.859375v.796875h-.96875zm3.504181 3.40625q0-.65625.15625-1.1875.171875-.546875.46875-.9375.3125-.40625.734375-.625.4375-.21875.96875-.21875.515625 0 .90625.1875.390625.171875.671875.5v-3.015625h1v8.25h-.921875l-.046875-.609375q-.28125.34375-.6875.53125-.40625.1875-.9375.1875-.53125 0-.953125-.21875-.421875-.234375-.734375-.625-.296875-.40625-.46875-.9375-.15625-.546875-.15625-1.171875zm.984375.109375q0 .421875.09375.8125.09375.375.28125.671875.1875.28125.484375.453125.296875.171875.71875.171875.25 0 .453125-.0625.203125-.0625.359375-.171875.171875-.109375.296875-.25.140625-.15625.234375-.34375v-2.703125q-.1875-.359375-.515625-.578125-.328125-.234375-.828125-.234375-.40625 0-.71875.171875-.296875.171875-.484375.46875-.1875.296875-.28125.6875-.09375.375-.09375.796875zm5.3166504-.109375q0-.640625.171875-1.171875.1875-.546875.53125-.9375.34375-.40625.828125-.625.5-.234375 1.109375-.234375.609375 0 1.09375.234375.5.21875.84375.625.34375.390625.515625.9375.1875.53125.1875 1.171875v.109375q0 .625-.1875 1.171875-.171875.53125-.515625.9375-.34375.390625-.828125.625-.484375.21875-1.109375.21875-.609375 0-1.109375-.21875-.484375-.234375-.828125-.625-.34375-.40625-.53125-.9375-.171875-.546875-.171875-1.171875zm1 .109375q0 .4375.09375.828125.109375.375.3125.671875.203125.296875.515625.46875.3125.171875.71875.171875.421875 0 .71875-.171875.3125-.171875.515625-.46875.21875-.296875.3125-.671875.109375-.390625.109375-.828125v-.109375q0-.4375-.109375-.8125-.109375-.390625-.3125-.6875-.203125-.296875-.515625-.46875-.3125-.1875-.71875-.1875-.421875 0-.734375.1875-.296875.171875-.5.46875-.203125.296875-.3125.6875-.09375.375-.09375.8125zm6.566681-2.96875.0625.859375q.328125-.453125.78125-.703125.46875-.25 1.03125-.265625.453125 0 .828125.140625.375.125.640625.40625.265625.265625.40625.6875.140625.421875.140625 1v3.6875h-.984375v-3.671875q0-.390625-.09375-.65625-.078125-.265625-.25-.421875-.171875-.171875-.421875-.25-.234375-.078125-.5625-.078125-.5 0-.875.25-.375.25-.609375.65625v4.171875h-.984375v-5.8125zm9.269775 5.015625q-.28125.421875-.71875.671875-.4375.234375-1.015625.234375-.453125 0-.828125-.140625-.359375-.140625-.625-.4375-.265625-.3125-.40625-.765625-.140625-.46875-.140625-1.125v-3.453125h.984375v3.46875q0 .46875.078125.78125.078125.3125.21875.5.15625.1875.375.265625.21875.0625.5.0625.609375 0 .984375-.234375.375-.25.5625-.671875v-4.171875h1v5.8125h-.90625zm4.972931-6.421875v1.40625h2.21875v.765625h-2.21875v3.15625q0 .34375.078125.5625.09375.21875.25.359375.15625.125.34375.1875.203125.046875.421875.046875.15625 0 .328125-.015625.171875-.03125.328125-.046875.171875-.03125.3125-.0625.140625-.03125.234375-.046875l.140625.703125q-.125.078125-.296875.140625-.171875.046875-.390625.078125-.203125.046875-.4375.0625-.234375.03125-.46875.03125-.390625 0-.734375-.109375-.328125-.109375-.578125-.34375-.234375-.25-.390625-.625-.140625-.375-.140625-.921875v-3.15625h-1.515625v-.765625h1.515625v-1.40625zm7.9104004 5.671875q0-.171875-.078125-.3125-.0625-.140625-.234375-.25-.15625-.125-.4375-.21875-.265625-.109375-.671875-.1875-.5-.109375-.921875-.25-.40625-.140625-.703125-.34375-.28125-.203125-.453125-.46875-.15625-.28125-.15625-.640625 0-.359375.15625-.65625.171875-.3125.46875-.546875.3125-.234375.71875-.359375.421875-.140625.921875-.140625.53125 0 .953125.140625.4375.140625.734375.390625.3125.25.46875.578125.171875.328125.171875.703125h-1q0-.1875-.09375-.359375-.09375-.1875-.265625-.328125-.171875-.140625-.421875-.21875-.234375-.09375-.546875-.09375-.3125 0-.5625.078125-.234375.0625-.390625.1875-.15625.109375-.25.265625-.078125.15625-.078125.328125 0 .171875.0625.3125.078125.125.234375.234375.15625.109375.421875.203125.265625.078125.671875.15625.546875.109375.96875.265625.421875.140625.703125.359375.296875.203125.453125.484375.15625.265625.15625.625 0 .390625-.1875.703125-.171875.3125-.484375.546875-.3125.21875-.75.34375-.421875.125-.9375.125-.59375 0-1.0625-.15625-.453125-.15625-.78125-.421875-.3125-.265625-.484375-.609375-.171875-.34375-.171875-.703125h1q.015625.296875.15625.515625.140625.203125.359375.328125.21875.125.46875.1875.265625.046875.515625.046875.625 0 .984375-.21875.375-.234375.375-.625zm4.551056-6.03125q0 .25-.0625.53125-.0625.28125-.1875.5625-.109375.265625-.28125.515625-.171875.234375-.40625.4375l-.546875-.390625q.265625-.390625.390625-.78125.125-.390625.125-.859375v-.8125h.96875zm2 0q0 .25-.0625.53125-.0625.28125-.1875.5625-.109375.265625-.28125.515625-.171875.234375-.40625.4375l-.546875-.390625q.265625-.390625.390625-.78125.125-.390625.125-.859375v-.8125h.96875z" fill="#000"/><path d="m354.01312 197h23.496063v21.480316h-23.496063z" fill="#f4cccc" fill-rule="evenodd"/><path d="m354.01312 197h23.496063v21.480316h-23.496063z" fill-rule="evenodd" stroke="#000" stroke-linecap="butt" stroke-linejoin="round"/><path d="m509.9134 197h71.90552v21.480316h-71.90552z" fill="#b6d7a8" fill-rule="evenodd"/><path d="m509.9134 197h71.90552v21.480316h-71.90552z" fill-rule="evenodd" stroke="#000" stroke-linecap="butt" stroke-linejoin="round"/><path d="m521.9276 205.12079q0-.265625.0625-.53125.0625-.28125.1875-.546875.125-.28125.296875-.53125.171875-.25.390625-.4375l.546875.390625q-.25.375-.390625.78125-.125.390625-.125.859375v.796875h-.96875zm2 0q0-.265625.0625-.53125.0625-.28125.1875-.546875.125-.28125.296875-.53125.171875-.25.390625-.4375l.546875.390625q-.25.375-.390625.78125-.125.390625-.125.859375v.796875h-.96875zm8.613525 3.515625q0 .625-.15625 1.171875-.140625.53125-.4375.9375-.28125.390625-.71875.625-.421875.21875-.96875.21875-.5625 0-.984375-.203125-.40625-.203125-.6875-.5625l-.046875.65625h-.921875v-8.25h1v3.0625q.28125-.359375.6875-.546875.40625-.1875.9375-.1875.5625 0 .984375.21875.4375.21875.71875.625.296875.390625.4375.9375.15625.53125.15625 1.1875zm-1-.109375q0-.421875-.078125-.796875-.078125-.390625-.265625-.6875-.1875-.296875-.484375-.46875-.28125-.171875-.71875-.171875-.25 0-.46875.078125-.21875.0625-.390625.1875-.171875.109375-.296875.28125-.125.15625-.21875.359375v2.53125q.09375.203125.21875.359375.140625.15625.3125.28125.171875.125.375.203125.21875.0625.484375.0625.40625 0 .6875-.171875.296875-.171875.484375-.453125.1875-.296875.265625-.671875.09375-.390625.09375-.8125zm6.2854004 2.953125q-.0625-.109375-.09375-.28125-.03125-.171875-.046875-.359375-.15625.15625-.34375.296875-.171875.125-.40625.234375-.21875.09375-.46875.15625-.25.0625-.53125.0625-.46875 0-.84375-.125-.375-.140625-.640625-.375-.25-.234375-.390625-.546875-.140625-.3125-.140625-.671875 0-.484375.1875-.84375.1875-.359375.53125-.59375.359375-.234375.84375-.359375.5-.125 1.09375-.125h1.09375v-.453125q0-.265625-.09375-.46875-.09375-.203125-.28125-.34375-.171875-.15625-.4375-.234375-.25-.09375-.5625-.09375-.296875 0-.53125.078125-.234375.078125-.40625.203125-.15625.125-.25.296875-.078125.15625-.078125.34375h-1q.015625-.3125.171875-.609375.15625-.3125.453125-.5625.296875-.25.71875-.390625.4375-.15625.96875-.15625.5 0 .921875.125.421875.125.734375.375.3125.234375.484375.609375.1875.359375.1875.84375v2.703125q0 .28125.046875.609375.046875.328125.15625.5625v.09375zm-1.75-.75q.28125 0 .53125-.078125.265625-.078125.46875-.203125.203125-.125.34375-.28125.15625-.15625.25-.328125v-1.171875h-.921875q-.875 0-1.359375.265625-.484375.25-.484375.796875 0 .21875.078125.40625.078125.171875.21875.3125.140625.125.359375.203125.21875.078125.515625.078125zm4.1448364-2.203125q0-.65625.15625-1.1875.15625-.546875.453125-.9375.3125-.40625.734375-.625.4375-.21875.984375-.21875.53125 0 .9375.203125.40625.1875.6875.546875l.046875-.640625h.90625v5.6875q0 .578125-.1875 1.015625-.171875.453125-.5.765625-.328125.3125-.78125.46875-.4375.15625-.984375.15625-.234375 0-.53125-.046875-.28125-.046875-.578125-.171875-.296875-.109375-.578125-.3125-.28125-.1875-.46875-.46875l.515625-.59375q.171875.21875.359375.375.203125.15625.40625.234375.203125.09375.390625.140625.203125.046875.40625.046875.34375 0 .625-.109375.296875-.109375.5-.3125.203125-.1875.296875-.484375.109375-.28125.109375-.65625v-.5q-.28125.34375-.6875.515625-.390625.171875-.90625.171875-.53125 0-.96875-.21875-.421875-.234375-.71875-.625-.296875-.40625-.46875-.9375-.15625-.546875-.15625-1.171875zm1 .109375q0 .421875.078125.8125.09375.375.28125.671875.1875.28125.484375.453125.296875.171875.71875.171875.25 0 .453125-.0625.21875-.0625.375-.171875.171875-.109375.296875-.265625.125-.15625.21875-.34375v-2.671875q-.09375-.1875-.21875-.328125-.125-.15625-.296875-.265625-.171875-.109375-.375-.171875-.203125-.0625-.453125-.0625-.40625 0-.71875.171875-.296875.171875-.484375.46875-.1875.296875-.28125.6875-.078125.375-.078125.796875zm8.144775 2.953125q-.609375 0-1.125-.203125-.515625-.21875-.875-.59375-.359375-.375-.578125-.890625-.203125-.515625-.203125-1.125v-.21875q0-.703125.21875-1.265625.234375-.5625.609375-.9375.375-.390625.84375-.59375.484375-.203125.984375-.203125.625 0 1.09375.21875.46875.21875.78125.609375.3125.375.46875.90625.15625.515625.15625 1.125v.4375h-4.15625q.015625.40625.15625.75.140625.34375.375.609375.234375.265625.5625.421875.34375.140625.75.140625.53125 0 .9375-.21875.421875-.21875.6875-.5625l.609375.46875q-.140625.21875-.359375.421875-.21875.203125-.515625.359375-.28125.15625-.640625.25-.359375.09375-.78125.09375zm-.125-5.21875q-.296875 0-.578125.125-.265625.109375-.484375.328125-.203125.203125-.359375.515625-.140625.296875-.203125.703125h3.125v-.078125q-.015625-.28125-.109375-.5625-.09375-.296875-.28125-.515625-.171875-.234375-.453125-.375-.28125-.140625-.65625-.140625zm4.1135254-3.140625h2.96875v7.390625h1.890625v.859375h-4.859375v-.859375h1.96875v-6.53125h-1.96875zm10.0979 6.703125q0-.171875-.078125-.3125-.0625-.140625-.234375-.25-.15625-.125-.4375-.21875-.265625-.109375-.671875-.1875-.5-.109375-.921875-.25-.40625-.140625-.703125-.34375-.28125-.203125-.453125-.46875-.15625-.28125-.15625-.640625 0-.359375.15625-.65625.171875-.3125.46875-.546875.3125-.234375.71875-.359375.421875-.140625.921875-.140625.53125 0 .953125.140625.4375.140625.734375.390625.3125.25.46875.578125.171875.328125.171875.703125h-1q0-.1875-.09375-.359375-.09375-.1875-.265625-.328125-.171875-.140625-.421875-.21875-.234375-.09375-.546875-.09375-.3125 0-.5625.078125-.234375.0625-.390625.1875-.15625.109375-.25.265625-.078125.15625-.078125.328125 0 .171875.0625.3125.078125.125.234375.234375.15625.109375.421875.203125.265625.078125.671875.15625.546875.109375.96875.265625.421875.140625.703125.359375.296875.203125.453125.484375.15625.265625.15625.625 0 .390625-.1875.703125-.171875.3125-.484375.546875-.3125.21875-.75.34375-.421875.125-.9375.125-.59375 0-1.0625-.15625-.453125-.15625-.78125-.421875-.3125-.265625-.484375-.609375-.171875-.34375-.171875-.703125h1q.015625.296875.15625.515625.140625.203125.359375.328125.21875.125.46875.1875.265625.046875.515625.046875.625 0 .984375-.21875.375-.234375.375-.625zm4.5510864-6.03125q0 .25-.0625.53125-.0625.28125-.1875.5625-.109375.265625-.28125.515625-.171875.234375-.40625.4375l-.546875-.390625q.265625-.390625.390625-.78125.125-.390625.125-.859375v-.8125h.96875zm2 0q0 .25-.0625.53125-.0625.28125-.1875.5625-.109375.265625-.28125.515625-.171875.234375-.40625.4375l-.546875-.390625q.265625-.390625.390625-.78125.125-.390625.125-.859375v-.8125h.96875z" fill="#000"/><path d="m581.48816 197h23.496094v21.480316h-23.496094z" fill="#f4cccc" fill-rule="evenodd"/><path d="m581.48816 197h23.496094v21.480316h-23.496094z" fill-rule="evenodd" stroke="#000" stroke-linecap="butt" stroke-linejoin="round"/><path d="m457.28873 131.0105h25.196838v21.480316h-25.196838z" fill="#cfe2f3" fill-rule="evenodd"/><path d="m457.28873 131.0105h25.196838v21.480316h-25.196838z" fill-rule="evenodd" stroke="#000" stroke-linecap="butt" stroke-linejoin="round"/><path d="m471.6585 142.86566h1.078125v.8125h-1.078125v1.8125h-1v-1.8125h-3.5625v-.59375l3.5-5.421875h1.0625zm-3.46875 0h2.46875v-3.875l-.15625.296875z" fill="#000"/><path d="m482.48557 131.0105h25.196838v21.480316h-25.196838z" fill="#cfe2f3" fill-rule="evenodd"/><path d="m482.48557 131.0105h25.196838v21.480316h-25.196838z" fill-rule="evenodd" stroke="#000" stroke-linecap="butt" stroke-linejoin="round"/><path d="m493.18347 141.56879.390625-3.90625h4v.96875h-3.171875l-.21875 2.09375q.234375-.140625.546875-.234375.328125-.109375.75-.109375.546875 0 .96875.1875.4375.1875.734375.53125.3125.34375.46875.828125.15625.484375.15625 1.0625 0 .5625-.15625 1.046875-.140625.46875-.453125.828125-.296875.34375-.765625.546875-.453125.1875-1.078125.1875-.484375 0-.90625-.125-.421875-.140625-.75-.40625-.328125-.28125-.546875-.6875-.203125-.40625-.265625-.953125h.953125q.09375.671875.484375 1.015625.40625.34375 1.03125.34375.359375 0 .625-.125.28125-.125.46875-.359375.1875-.234375.28125-.5625.09375-.328125.09375-.734375 0-.359375-.109375-.671875-.109375-.328125-.3125-.5625-.1875-.234375-.484375-.359375-.28125-.140625-.65625-.140625-.25 0-.4375.046875-.171875.03125-.328125.09375-.140625.0625-.265625.15625-.125.09375-.265625.203125z" fill="#000"/><path d="m507.6824 131.0105h25.196869v21.480316h-25.196869z" fill="#cfe2f3" fill-rule="evenodd"/><path d="m507.6824 131.0105h25.196869v21.480316h-25.196869z" fill-rule="evenodd" stroke="#000" stroke-linecap="butt" stroke-linejoin="round"/><path d="m521.6772 137.66254v.890625h-.078125q-.5 0-.890625.109375-.390625.09375-.6875.28125-.296875.171875-.515625.421875-.203125.234375-.34375.53125-.140625.28125-.21875.609375-.0625.3125-.09375.640625.140625-.171875.328125-.3125.1875-.140625.390625-.234375.21875-.109375.453125-.171875.25-.0625.515625-.0625.59375 0 1.015625.21875.421875.21875.6875.59375.28125.359375.40625.828125.140625.453125.140625.9375 0 .546875-.15625 1.03125-.15625.484375-.46875.84375-.296875.359375-.75.578125-.453125.203125-1.046875.203125-.421875 0-.78125-.125-.34375-.125-.625-.328125-.28125-.21875-.5-.5-.203125-.296875-.34375-.625-.140625-.34375-.21875-.703125-.0625-.359375-.0625-.71875v-.46875q0-.53125.0625-1.0625.078125-.546875.234375-1.046875.171875-.5.4375-.921875.28125-.4375.6875-.75.421875-.3125 1-.5.578125-.1875 1.34375-.1875zm-1.296875 3.53125q-.25 0-.484375.078125-.234375.078125-.4375.234375-.203125.140625-.359375.34375-.15625.203125-.25.4375v.34375q0 .515625.125.921875.125.390625.328125.671875.203125.265625.46875.40625.28125.140625.59375.140625.34375 0 .609375-.125.265625-.140625.453125-.375.1875-.234375.28125-.5625.09375-.328125.09375-.71875 0-.34375-.09375-.671875-.078125-.328125-.265625-.578125-.171875-.25-.4375-.390625-.265625-.15625-.625-.15625z" fill="#000"/><path d="m532.8793 131.0105h25.196838v21.480316h-25.196838z" fill="#cfe2f3" fill-rule="evenodd"/><path d="m532.8793 131.0105h25.196838v21.480316h-25.196838z" fill-rule="evenodd" stroke="#000" stroke-linecap="butt" stroke-linejoin="round"/><path d="m548.1709 138.22504-3.25 7.265625h-1.03125l3.21875-6.953125h-4.21875v-.875h5.28125z" fill="#000"/><path d="m377.50787 197h23.496063v21.480316h-23.496063z" fill="#ffe599" fill-rule="evenodd"/><path d="m377.50787 197h23.496063v21.480316h-23.496063z" fill-rule="evenodd" stroke="#000" stroke-linecap="butt" stroke-linejoin="round"/><path d="m401.00394 207.74016h108.91339" fill="none"/><path d="m401.00394 207.74016h102.91339" fill-rule="evenodd" stroke="#000" stroke-linecap="butt" stroke-linejoin="round"/><path d="m503.91733 209.39189 4.538086-1.6517334-4.538086-1.6517334z" fill="#000" fill-rule="evenodd" stroke="#000" stroke-linecap="butt"/><path d="m604.9829 197h23.496094v21.480316h-23.496094z" fill="#ffe599" fill-rule="evenodd"/><path d="m604.9829 197h23.496094v21.480316h-23.496094z" fill-rule="evenodd" stroke="#000" stroke-linecap="butt" stroke-linejoin="round"/><path d="m628.479 207.74016h40.53546" fill="none"/><path d="m628.479 207.74016h36.745422" fill-rule="evenodd" stroke="#000" stroke-linecap="butt" stroke-linejoin="round"/><path d="m665.2244 206.09515h3.290039v3.2900085h-3.290039z" fill="#000" stroke="#000" stroke-linecap="butt"/><path d="m267 183h413.98425v49.007874h-413.98425z" fill="none"/><path d="m267 183h413.98425v49.007874h-413.98425z" fill-rule="evenodd" stroke="#000" stroke-dasharray="1 3" stroke-linecap="butt" stroke-linejoin="round"/><path d="m15.309282 302.17935 102.07874 21.35434-8.031494 38.551178-102.07874-21.35434z" fill="none"/><path d="m32.681355 314.322q1.3866386.5454712 2.59486.7982483 1.2082214.25274658 1.5478745.3078308.2657814-1.4289856.53665924-2.729187.27087784-1.3002014.36648178-1.7590942.09878922-.47421265.1516838-.57489014.0713768-.11276245.29250717-.17825317.23960876-.07757568.6219559.00241089.565876.11837769.42565918.79141235l-1.3703194 6.577545q-.42702866 2.0497437-1.0471611 4.490082-.12683105.53219604-1.0138779.34661865-.4435234-.09277344-.33198547-.6281738l1.1058006-4.924774q-.6060257-.07888794-1.6460114-.29644775-1.0246925-.21438599-2.5368729-.7701721-.51307297 2.4627686-.8566456 5.1844482-.04525566.29382324-.35560036.4045105-.30715942.09536743-.7353897.00579834-.41293526-.08639526-.35429382-.52108765.306612-2.6975098.8419914-5.267334l1.3148499-5.774994q.07648468-.36712646.38682938-.4777832.3288269-.12277222.6347046-.05880737.5199928.10879517.41801453.5982971l-.9917145 4.4537964zm12.29702.94421387q.8258705.17276001.5358734 1.5647583-.03186798.1529541-.06692123.32122803l-.30146408 1.2938232q-.15806198.60543823-.28234482 1.2020264l-.5857811 4.267334q-.09560394.45889282-1.043827.26052856-.0611763-.01278687-.27529144-.05758667-.21411514-.04479981-.27082443-.23223877-.04141617-.18426514.0675621-.40090942.12746048-.22875977.06884384-.5602722-1.0476685.73861694-2.454712.4442749-2.6305542-.55029297-1.7860565-4.603882.46845627-2.2485962 1.5486336-3.2198792 1.0986557-.9833679 2.6739311-.6538391.7494011.1567688 1.4446297.5735779.3148117-.28533936.7277489-.19894409zm-2.2807693 1.2947998q-1.0552826-.22076416-1.7027473.28231812-.64746475.5030823-.9884491 2.1398315-.57362366 2.753357.9098892 3.0637207.3823471.07998657.92975616-.17266846.54740906-.2526245.83864594-.65463257.562088-.93600464.8106575-2.1291199.24856949-1.1931458.06952286-1.7893066-.17904663-.5961609-.86727524-.7401428zm4.0816383 1.5562439q.22945023-1.1013489 1.1432838-1.580658.9170227-.49456787 1.9417152-.2802124 1.0399895.21755981 1.9117317.78305054.87173843.5654602.7442665 1.1773376-.06692123.32122803-.34986496.45358276-.28294373.13238525-.46647263.09399414-.16823196-.03521729-.27529144-.05758667-.08857727-.03451538-.6608124-.5054016-.5722351-.47091675-1.107521-.58288574-.53528976-.11196899-.9749985.08337402-.43971252.19534302-.5480614.7154541-.10835266.52008057.25614166.9155884.38297653.38342285 1.4242287.82473755 1.0565491.44448853 1.554863.96377563.5167923.50720215.29690552 1.5626526-.32186508 1.5449524-1.2662888 2.0178528-.9444237.4729004-2.106762.22973633-1.1470451-.23995972-1.8938904-.7154541-.7283592-.48760986-.59451675-1.1300659.14978027-.7189331.8685951-.568573.1835289.03839111.7564049.42962646.5881691.39440918 1.1999245.5223999.6270523.13116455 1.0310822-.19937134.41932297-.32730103.5276718-.8473816.11153793-.5354004-.26889038-.85443115-.3804283-.31903076-1.2234993-.6390686-.8398895-.33532715-1.2177696-.5899658-1.020855-.69247437-.70217514-2.222107zm8.636967 2.1101074-.76166916 4.4220886q-.16889954.81073-.27405167.93240356-.10069656.33013916-.322464.47528076-.2064743.14837646-.711174.04278565-.2447052-.05117798-.33390808-.38909912-.07390976-.3347473-.02482987-.72354126.5596237-3.2990723.94462204-6.2196045.38500214-2.9205627.9012604-5.39859.07966995-.38241577.38747025-.5574951.30779648-.17504883.65955734-.10147095.5199928.10879517.42373657 1.0304871-.07777405.90960693-.32762527 2.262085-.24666214 1.3372192-.32825089 1.9586792 1.0164261-.28222656 1.9493561-.08706665 2.1564445.45111084 2.342453 2.469452.11339188 1.1411438-.24034119 2.8390808-.11472702.5506592-.47353745 1.7366943-.35562897 1.1707458-.44421768 1.5193787-.08859253.3486023-.4206047.48666382-.33201218.13809204-.6684799.06768799-.5199928-.10876465-.40526962-.65945435l.8132477-3.2140808q.0860405-.41299438.23773956-1.3710022.16699219-.95477295-.07004166-1.5790405-.21855545-.63635254-1.075016-.81552124-1.5293922-.3199463-1.7779617.87319946zm9.274059 3.6800537q.25813293-1.2390137 1.1292877-2.1263123.8864441-.88409424 2.001007-1.1777039 1.133049-.3057251 2.0965652-.10415649.9788132.20474243 1.508995.57107544.53336334.35101318.4536972.73342896-.07967377.38241577-.37345886.72003174-.290596.32232666-.6423569.24874878-.1223526-.02560425-.67420197-.36453247-.5365524-.33572388-.7047882-.37091064-1.0705719-.2239685-2.0009842.41149902-.93040466.635437-1.2012863 1.9356384-.27087402 1.3002319.00821686 2.0290527.29438782.73205566 1.3190765.94641113.39764404.08319092 1.4905396-.18304443 1.0928955-.26623535 1.3376007-.21505737.2447052.0512085.36577606.23617554.12425232.16964722.07645416.3991089-.09241486.44360352-.77874756.82681274-.6678543.37109375-1.575943.5163574-.8927994.14846802-1.5657272.00769043-1.4835129-.31033325-2.0977783-1.6520386-.59578705-1.3538208-.17194366-3.3882751zm9.680832.28518677-.761673 4.422119q-.16889954.81073-.27404785.93240356-.10070038.33010864-.322464.47528076-.20648193.14837646-.71118164.04278565-.24469757-.05117798-.33390045-.38909912-.07391357-.3347473-.02483368-.72354126.5596237-3.2990723.94462585-6.219635.38500214-2.9205322.9012604-5.39859.07966614-.38241577.38746643-.5574646.3078003-.17504883.65956116-.10147095.519989.10876465.42373657 1.0304871-.07777405.9095764-.3276291 2.262085-.24665833 1.3371887-.32824707 1.9586487 1.0164261-.28222656 1.9493561-.08706665 2.1564407.45114136 2.3424454 2.4694824.11339569 1.1411438-.24034119 2.8390503-.11472321.5506897-.47353363 1.7367249-.35562897 1.1707458-.4442215 1.5193481-.08859253.3486328-.4206009.48669434-.332016.13806152-.6684799.06768799-.51999664-.10879517-.40527344-.65945435l.8132477-3.2140808q.08604431-.4130249.23773956-1.3710022.16699219-.95477295-.07003784-1.5790405-.21855927-.63635254-1.0750122-.81552124-1.529396-.3199463-1.7779617.87316895zm11.420532-.38848877q.8258743.17279053.5358734 1.5647583-.03186798.15298462-.06691742.32122803l-.3014679 1.2938232q-.15805817.60546875-.282341 1.2020264l-.5857849 4.2673645q-.09560394.45889282-1.0438232.26052856-.06118012-.01281738-.27529144-.05758667-.21411896-.04479981-.27082825-.23226929-.04141235-.18426514.06756592-.40090942.12745667-.22872925.06884003-.5602722-1.0476685.73861694-2.4547043.4442749-2.6305618-.55029297-1.7860641-4.603882.46846008-2.2485962 1.5486374-3.2198792 1.0986557-.9833679 2.6739273-.6538391.7494049.15679932 1.4446335.5736084.3148117-.28533936.72774506-.19897461zm-2.2807693 1.2947998q-1.0552826-.22076416-1.7027435.28231812-.64746857.5031128-.9884491 2.1398315-.57362366 2.7533875.9098892 3.0637207.3823471.07998657.92975616-.17263794.54740906-.25265503.83864594-.6546631.562088-.9359741.8106537-2.1291199.2485733-1.1931152.06952667-1.7893066-.17904663-.5961609-.86727905-.7401428zm6.118477-3.7005615q.33647156.07037354.5601349.45239258.23895264.3852234.16565704.73703-.07010651.33654785-.46457672.6211853-.3944702.28460693-.761528.2078247-.35176086-.07357788-.58179474-.4249878-.21155548-.3635254-.11595154-.8224182.1880188-.90249634 1.1674728-.7774353.01529694.00320435.03058624.00640869zm-1.2378845 9.925568-.2555771 1.3034058q-.07330322.35183716-.41168976.5205078-.3230896.17184448-.6289673.10784912-.47411346-.09918213-.39380646-.5612793.9917755-5.9862366 1.1224289-6.6134033.1338501-.64245605.38304138-1.5321655.10070038-.33013916.49834442-.24694824.9788132.20477295.9507446 1.0289917-.04016113.42260742-.09115601.6673584l-.3033676 1.1497192-.8699951 4.1759644zm2.4788055 2.0031433 1.3722687-7.582794q.07329559-.35183716.36579895-.53009033.29250336-.17825317.5219116-.13024902.59646606.12475586.58306885.6487427-.02870178.5207825-.1402359 1.0561523 1.2834625-1.1043396 2.7822723-.790802 2.3093796.48312378 1.2131271 5.7451477-.10197449.48950195-.3059311 1.4684753-.20076752.9636841-.40342712 1.400177-.25237274.5218811-.9100113.38430786-.45881653-.09597778-.3345337-.6925354l.24729156-1.033783q.4493332-2.1567993.45892334-2.968933.02806854-.82421875.00450134-1.3240051-.11402893-1.0614624-.81755066-1.2086487-.93293-.19515991-1.4370117.38580322-.5659027.64785767-.84632874 1.6108398-.48246002 1.7029114-.88718414 3.6455994-.07647705.36709595-.4148636.5357666-.31990814.15655518-.70225525.0765686-.47411346-.09918213-.34983063-.69573975z" fill="#900"/><path d="m24.169207 328.8557q.33519936-.15338135.5525017-.12387085.2204895.01419067.9851856.17416382.77999115.16317749 1.2368889.49819946.46008492.31973267.31986618.99279785-.13703156.65774536-.68761444.542572-.10705757-.0223999-.58880997-.3147583-.47856522-.3076172-.63150406-.33963013-.6423454-.1343689-.9425163.6169739-.08794975.2689209-.269598 1.1408386-.17845917.8565979-.29636955 1.4225769l1.299984.27194214q.80420494.2001648.692667.7355652-.16252518.78012085-1.2885437.59243774-.17141914-.01989746-.41612244-.07107544-.22941017-.04800415-.5473957-.13046265-.10708427.74380493-.38307953 2.681488-.26070404 1.9408569-.63674355 3.7458496-.07648468.36712646-.43016434.5325928-.33519936.15335083-.6563721.08618164-.5046997-.10559082-.38041496-.70214844.3473587-1.6673279.5379524-3.2716675.20907402-1.6164551.52648735-3.3698425-1.682333-.35195923-1.8875141-.74606323-.07837677-.1600647-.03694916-.35891724.1019764-.48950195.52830124-.54397583.42951012-.0697937.94950294.03900147.51999474.10876465.749403.1567688.6768646-3.0191345 1.1051216-3.6957703.26065063-.40841675.59585-.5617676zm6.39686 5.8876953q1.3458652.28155518 1.9346352 1.745636.60406494 1.4672852.22802353 3.2722778-.37285233 1.7897034-1.5244045 2.8737488-1.13307 1.0719604-2.6012878.764801-1.4529247-.30392456-2.087576-1.7776184-.6161709-1.4857788-.28793335-3.0613098.42384338-2.0344543 1.4861774-3.0733032 1.1547394-1.0993652 2.8523655-.7442322zm-.53279495 1.4848633q-.77998924-.16314697-1.4567757.5572815-.67359924.70513916-.8648071 1.6229248-.29318428 1.4072876.10124397 2.2720032.41291046.8526001 1.1164322.9997864 1.2693958.26553345 1.8474178-.7469177.2612896-.48809814.42700386-1.2835083.63417053-3.0440369-1.1705151-3.4215698zm5.7652473 5.819458-.3862419 1.930542q-.07011032.33654785-.4333496.5478821-.3632431.21136475-.65382767.15057373-.4282303-.08959961-.41036224-.7882385.01338959-.14086914.41112137-2.7394714.4162178-2.6107178.3550949-4.1559753-.01845551-.7541504.00703812-.8765259.12747192-.6118469.87687683-.45507812.3058777.06399536.43841553.34713745.15102005.2710266.1427269.54067993-.00510788.2543335-.06375122.6890259-.04334641.43789673-.05354691.56347656.57674026-.8530884 1.4523354-1.1488342.87878036-.31100464 1.8117104-.11584473 1.529396.3199463 1.3668671 1.1000671-.08285523.39770508-.40594864.56954956-.30779648.17507935-.65955734.10147095-1.5905685-.33273315-2.458538.5392761-.8494835.8598938-1.3370628 3.2002869zm10.927521-7.9943542q.15615082-.74954224 1.0737877-.55755615.4282303.08956909.39635086.62564087l-.5831833 2.799286q-.16252518.78012085-.30975723 1.563446.40465546-.02709961.9858246.09448242 1.7893906.3743286 2.5164452 1.7875366.74235153 1.4163818.36312103 3.2366638-.37922668 1.8203125-1.8028831 2.831482-1.4236526 1.0111389-3.2436333.6304321-1.8199768-.3807373-1.6064606-1.4056091.21670151-1.0401611.9860077-5.2691345.7877922-4.241028 1.2243805-6.33667zm2.497795 6.780121q-.56139755-.67614746-1.2955055-.82974243-.41293716-.08636475-.87303543-.02297974-.21162033 1.5520325-1.0210648 5.437378.29886627.17425537.635334.2446289.71881485.15039062 1.5644608-.2314148 1.2267265-.52557373 1.5454063-2.0552368.318676-1.5296631-.5555954-2.542633zm3.9868355-.60266113q.14339066-.30523682.41741562-.47140503.28931808-.16296387.5340233-.11175537.2599945.05438232.37852097.17495728.11852264.12057495.13317871.2034607.01465225.08285523.00699997.27282715-.40980148 1.4307861-.6520004 2.5933228-.24219513 1.1625366-.27920914 2.7191772-.02172089 1.5598755.29945374 1.6270447.5046997.10559082 1.384121-.28512573.8978996-.4028015 1.3650246-.9595642.34357452-2.7217102.7419205-4.6337585.07966995-.38241577.38173676-.6065674.30525208-.23944092.65701294-.16586304.5811691.12158203.41864395.9017029-.2772522 1.3308105-.62018585 3.9728088-.34292984 2.6420288-.29070282 3.3872375.0140152.16256714-.02741242.36141968-.03824234.18356323-.336483.31274414-.28294373.13235474-.6958771.04598999-.39764404-.08319092-.4243927-.567688.0306015-.37670898.04911041-1.1550293-1.5836105 1.0894165-2.9141808.8110962-.6117592-.12799072-1.0055618-.68927-.37532043-.57336426-.4848976-1.4263916-.1675415-1.6473389.11289597-2.9934387.28362274-1.3613892.85084534-3.3179321zm6.326088 5.0747375q.25812912-1.2390137 1.1292839-2.1263123.8864479-.88409424 2.001011-1.1777344 1.1330452-.3057251 2.0965652-.10415649.97880554.20477295 1.5089874.57107544.533371.3510437.4536972.7334595-.07966614.38241577-.37345123.72003174-.290596.32232666-.6423569.24871826-.1223526-.02557373-.67420197-.36450195-.5365524-.33572388-.7047882-.37094116-1.0705757-.22393799-2.0009842.41149902-.9304085.6354675-1.2012863 1.935669-.27087784 1.3002014.00821304 2.0290527.29438782.73202515 1.3190804.9463806.39764023.08319092 1.4905396-.18304443 1.0928955-.26623535 1.3376007-.21502686.24469757.05117798.36576843.23614502.12425995.16964722.07646179.3991089-.09242249.44360352-.7787552.82681274-.6678467.37112427-1.5759392.5163574-.89279556.14846802-1.5657272.00769043-1.4835129-.31033325-2.0977783-1.6520386-.59578323-1.3538208-.17193985-3.3882446zm13.249863 6.443329q-.18164062.8719177-.9769287.7055359-.33646393-.07037354-.5766525-1.8286743-.22170258-1.7704163-1.0003891-2.859192-.1325531.09997559-.96354675.56466675-.8125076.4526062-.9635391.56466675l-.38560486 1.8508911q-.10643005.28103638-.19947052.4212036-.07456207.12808228-.302063.22415161-.22431946.08078003-.5454941.01358032-.5046997-.1055603-.37722778-.71743774.36010742-1.7285156.9624405-5.385803.6055145-3.672577 1.2078171-6.563629.07329559-.35180664.40530396-.48986816.33520508-.15338135.6563797-.08618164.42822266.08956909.4084549.64416504l-.68834686 3.3040466q-.12428284.5965576-.17272949.9057007-.04524994.29382324-.15105438.8782959-.21224976 1.2486267-.4423523 2.8127747.62133026-.3010254 1.6473312-1.0122681 1.0412903-.70803833 1.6001816-1.2456055.89282227-.91467285 1.4434052-.7994995.15293884.03198242.27465057.13726807.35302734.29733276.28929138.6032715-.06054688.2906189-.4225235.7257385-.9119415 1.0064697-1.9812775 1.7724915.6467743 1.1090393 1.1125412 3.0103455.2720642 1.222229.1414032 1.8493652zm5.2360535-7.0139465q.9941101.20794678 1.7600555.9747925.76914215.7515259.59067535 1.6081543-.17527008.8413086-1.0597992 1.4863586-.88134.6297302-2.1246185.54525757-.5359268-.03231812-1.5912018-.25305176-.1173172 1.6356201.37717438 2.249878.13890839.25256348.460083.31973267 1.1470413.23995972 2.0800018-.3310852.9329529-.57107544 1.2694244-.5007019.15293884.03201294.3861618.36813354.24851227.33932495.19752502.5840759-.10197449.48947144-1.4676285 1.1456299-.6092224.31951904-1.4038849.4565735-.79465485.13708496-1.4217072.00588989-1.6211548-.33911133-1.9524536-2.5794373-.2217102-1.3872986.10015106-2.932251.3218689-1.5449524 1.2733154-2.5112305.96674347-.96307373 2.5267258-.63671875zm-.17592621 1.3041077q-.7035217-.14718628-1.3739319.5426636-.2408905.23693848-.61626434 1.1960144 2.599968.5439148 2.8676605-.7409973.16252136-.78012085-.8774643-.99768066zm5.257393-.32092285.9144516.20727539q.32117462.06716919.37023926.06149292l.79351044-3.8088684q.08221436-.31802368.41741943-.4713745.35367584-.16546631.613678-.11108398.2599945.05438232.37787628.25463867.1178894.20025635.02929688.54888916-.08859253.3486328-.82154846 3.8668213l2.1876678.37783813q.5658798.11837769.42884827.77615356-.09879303.47418213-.44036865.6581421-.341568.18395996-.681221.12884521-.3243637-.05187988-.6302414-.11587524l-1.1285629-.25204468q-.1593399.76483154-.47486115 3.0454102-.3155136 2.2806091-.3639679 2.9728394-.04527283.67697144-.14787292.8630066-.08412933.17398071-.25299835.21844482-.2517166.05911255-.66464996-.02728272-.41294098-.08639526-.39699554-.54599.13964844-2.5089417.8911133-6.805481-.17141724-.01989746-1.2878723-.2534485-1.1011658-.23034668-.9673233-.87280273.19439697-.93310547 1.2343826-.71554565zm12.932335 11.804413-2.7159424-.60006714q-.19882202-.04159546-.38235474-.07998657-1.8352661-.38394165-1.6886749-1.0875854.10516357-.50479126.38110352-.91000366.27594757-.40518188.4919815-.5994568.21603394-.19424438.8290863-.60876465.61305237-.41448975.88134-.6297302.2835846-.21206665 1.6199341-1.0339661 1.3516388-.81869507 2.0959702-1.5569458.744339-.7382202.9419174-1.686615.3059311-1.4684753-.76717377-2.139923-.31097412-.19274902-.662735-.26635742-.8105774-.16955566-1.7492676.352417-.38491058.23873901-.73667145.16516113-.10705566-.0223999-.19563293-.05688477-.44861603-.22155762-.3370819-.7569275.14978027-.7189636 1.2764511-.9940796 1.2095108-.2897339 2.4942017-.02096558 1.2999878.27194214 1.9282761 1.3930969.63147736 1.1058655.34148407 2.4978333-.41428375 1.9885559-1.937355 3.1705017-.7213898.55145264-1.4357605.99264526-2.2387161 1.3993835-3.0754547 2.1980896.831604.2218628 2.0704117.48101807 1.2388077.25915527 3.087471.50219727.2657318.10348511.39253235.33755493.14209747.23724365.09111023.48199463-.13065338.62713623-.8392868.73431396-.71754456.07339478-2.3998795-.27856445z" fill="#900"/><path d="m66.348656 312.85654c0-52.677185 100.33071-105.35434 200.6614-105.35434" fill="none"/><path d="m66.34865 312.85654c0-26.338593 25.08268-52.677185 62.706696-72.43112 18.812012-9.876968 40.759354-18.107773 64.27435-23.869339 11.757507-2.880783 23.906937-5.1442413 36.25232-6.6875153 6.1726837-.7716522 12.394363-1.3632355 18.640549-1.7619171 3.1230774-.19934082 6.252289-.3504486 9.384552-.4517212.78308105-.02532959 1.5663452-.04753113 2.3497314-.06660461l.19952393-.00445557" fill-rule="evenodd" stroke="#900" stroke-linecap="butt" stroke-linejoin="round" stroke-width="2"/><path d="m260.15637 207.58388-2.2221985 2.2758026 6.1522827-2.322647-6.2058716-2.1753693z" fill="#900" fill-rule="evenodd" stroke="#900" stroke-linecap="butt" stroke-width="2"/><path d="m20.451271 162.58792 97.6063 36.72441-13.858269 36.850388-97.6063-36.724396z" fill="none"/><path d="m36.314583 177.44997q1.2866707.7512207 2.4419746 1.1859131 1.1553078.43467712 1.4825363.5411072.48225403-1.3711395.9497528-2.6142578.46749878-1.2431183.6324997-1.6818695.17050171-.4533844.23824692-.544754.08787537-.10049439.31648636-.1313324.24873734-.03996277.61434174.09759522.5410919.20358276.29909134.8470764l-2.3649979 6.2887573q-.7369995 1.9597473-1.7248688 4.2758484-.20712662.5063782-1.0553246.1872406-.42409897-.15956116-.2315979-.6714325l1.8496208-4.6963654q-.5868416-.17071533-1.5812836-.5448761-.97981644-.36865234-2.388977-1.1492767-.88549805 2.3546295-1.643261 4.991043-.08987808.28337097-.41360855.34519958-.3182373.04721069-.7277107-.1068573-.39485168-.14855957-.27009964-.5690613.71751404-2.618164 1.6415138-5.075165l2.1868668-5.504364q.13199997-.35099792.45573425-.41282654.34386063-.07095337.6363411.03909302.4972229.18707275.3212204.6550751l-1.6644974 4.2484894zm12.008648 2.8154297q.78970337.2971344.28920364 1.628006-.05500031.1462555-.1155014.3071289l-.49674606 1.2321167q-.2492485.57398987-.46374893 1.1443634l-1.234642 4.126419q-.16500092.43875122-1.0716972.09761047-.05849457-.02200317-.26323318-.0990448-.20473862-.07702637-.23198318-.2709198-.01261902-.18838501.128376-.3857422.16112137-.20649719.15412903-.5430145-1.1489525.56936646-2.4943695.06315613-2.5153503-.9463959-1.0578499-4.8220215.8084984-2.149887 2.0253258-2.9441223 1.2369499-.80337524 2.7432365-.2366333.71657944.26960754 1.3396645.78785706.35498428-.23371887.74983597-.0851593zm-2.4531403.9300842q-1.0090637-.37965393-1.726284.01826477-.7172203.3979187-1.3057213 1.9627991-.98999786 2.632492.4285431 3.166214.3656006.13755798.9454498-.02824402.5798454-.165802.92946243-.51838684.69935226-.83869934 1.1283531-1.9794464.42900085-1.1407471.3436432-1.7571716-.08536148-.61642456-.74344635-.86402893zm3.79496 2.1624146q.3959999-1.053009 1.3728294-1.3866425.9823303-.34825134 1.9621468.020401.9944382.37416077 1.7691345 1.0663147.77469635.6921387.5546951 1.2771454-.11549759.30711365-.41548538.39457703-.29998398.08746338-.4754753.0214386-.16086578-.06053162-.26323318-.0990448-.08224487-.04763794-.5754585-.6004791-.49321365-.55285645-1.0050583-.7454376-.51184464-.19258118-.97644806-.06689453-.46460342.1257019-.6515999.6229553-.18700027.49723816.11247253.9438019.31959915.43745422 1.2809143 1.0328674.9759369.60092163 1.3886528 1.1902618.43284225.58021545.05334091 1.5893402-.55550003 1.4771118-1.5615807 1.7997437-1.0060768.32263184-2.1175117-.09555054-1.0968056-.41267395-1.7618866-.99679565-.6449547-.59324646-.41395187-1.2075043.25849915-.6873627.9458313-.4287567.17549133.06602478.6815796.5402527.5207138.47972107 1.1056786.69981384.5995865.22558594 1.0496941-.03910828.46473312-.25920105.6517296-.75645447.19250107-.51187134-.1344719-.88531494-.32697678-.3734436-1.1110535-.81869507-.7785721-.45988464-1.1129265-.7693176-.9025612-.8404236-.35255814-2.3029175zm8.212097 3.4069977-1.4322586 4.2523956q-.2915001.77511597-.41411972.87924194-.15024948.31074524-.3917389.4202118-.22686386.11497498-.7094612-.06660461-.2339859-.08802795-.27022552-.43556213-.02161789-.3420105.08663178-.7186432 1.060009-3.173767 1.8892708-6.000305.8292618-2.826538 1.7202606-5.1957855.13750076-.36561584.46861267-.49145508.3311081-.12583923.6674652.00071716.4972191.18707275.2604637 1.082962-.21663284.8867645-.6713829 2.1847687-.44925308 1.2833862-.62538147 1.8848877 1.0479507-.12322998 1.9400215.2124176 2.0620003.7758179 1.9357185 2.7984161-.06327057 1.1448059-.6737709 2.7681732-.19799805.5265045-.7348671 1.6433563-.5313721 1.1022339-.672493 1.4331055-.14112473.33087158-.49048233.41645813-.34936142.08558655-.6710892-.03547669-.4972229-.18707275-.29922104-.7135773l1.297615-3.0509796q.14850235-.39486694.44562912-1.3181305.31175232-.9177551.17339706-1.5708008-.11823273-.66218567-.9371834-.9703064-1.46241-.55023193-1.8914108.59051514zm10.859005 1.1808777.87194824.34477234q.30710602.11553955.35647583.11741638l1.3694992-3.6416168q.13012695-.30162048.48498535-.40182495.3749771-.10932922.62358856-.01579285.24861145.09353638.3343506.30943298.08574677.2158966-.05538178.54678345-.14112091.33087158-1.4061203 3.6946106l2.104126.7082062q.5410919.20359802.30458832.8324585-.17050171.4533844-.53635406.58283997-.36586.12945557-.69309235.02302551-.3126068-.10092163-.6050873-.21096802l-1.0766907-.4217987q-.2749939.73124695-.93725586 2.936142-.66225433 2.2049103-.81651306 2.881424-.14875793.6618805-.2787552.83000183-.10987091.15899658-.28360748.1770935-.2578659.01983643-.6527176-.12872314-.39485168-.14855957-.30847168-.60020447.5235214-2.457428 1.9264069-6.587326-.16636658-.04589844-1.2339249-.4475708-1.0529404-.39616394-.82193756-1.0104218.335495-.89212036 1.3299408-.5179596zm10.5108795 3.9547272q.78970337.29711914.28920746 1.628006-.05500031.14624023-.1155014.30711365l-.49674988 1.232132q-.24924469.57398987-.46374512 1.1443634l-1.234642 4.126419q-.16500092.43875122-1.071701.09761047-.05849457-.02201843-.26322937-.0990448-.20474243-.07704163-.231987-.2709198-.01261902-.18838501.12837982-.38575745.16111755-.20648193.15412903-.54299927-1.1489487.56936646-2.4943695.06315613-2.5153503-.94641113-1.0578461-4.8220367.80849457-2.1498718 2.025322-2.9441223 1.2369537-.80336 2.7432404-.23661804.71658325.26960754 1.3396606.7878418.35498047-.23370361.74983215-.08514404zm-2.4531326.9300842q-1.0090637-.3796692-1.7262878.01824951-.7172165.39793396-1.3057175 1.9627991-.98999786 2.6325073.4285431 3.1662292.3656006.13755798.9454498-.02824402.5798416-.165802.9294586-.5184021.69934845-.83869934 1.1283493-1.9794464.42900085-1.1407471.3436432-1.7571716-.08535767-.6164093-.7434387-.8640137zm5.7812195-3.9182587q.26950073-.716629 1.1469498-.38648987.4094696.154068.29559326.67881775l-1.0065002 2.6763763q-.28050232.7458801-.5463791 1.4972534.40410614.03518677.9598236.24427795 1.7110214.6437683 2.2124634 2.151291.5160675 1.513031-.13842773 3.2534027-.65450287 1.7403717-2.2169342 2.5214539-1.5624313.7810669-3.3027039.126297-1.7402725-.65478516-1.3717728-1.6346588.37400055-.9944916 1.7841339-5.054886 1.4302521-4.069519 2.183754-6.0731354zm1.4269104 7.08107q-.45096588-.75398254-1.1529236-1.0180969-.39484406-.14855957-.8593216-.15637207-.44763184 1.5010071-1.844635 5.2157593.2686081.21792603.59033966.338974.68733215.25862122 1.5817947.010849 1.2931824-.33146667 1.8431854-1.7939606.55000305-1.4624939-.15843964-2.5971527zm5.4868546-3.895462q.296875-.65625.53473663-.8004761.2524948-.13871765.63272095.00434876.7604523.28611755.5239563.9149933-.1760025.46800232-1.0282516 2.467865-.83761597 2.0053558-1.4426193 3.6141052-.59949493 1.5941315-.8308792 2.608902-.43876648 1.788147-.0439148 1.9367218.39485168.14855957.7884674-.32102966.17024231-.18637085.4208603-.27571106.2707367-.09846497.5778427.01707459.61421204.23110962.21821594 1.2841034-.20900726.5557556-1.0377197.89501953-.82321167.32466125-1.4227982.09906006-.5995865-.22558594-.8881912-.5679016-.28860474-.34230042-.3685913-.83984375-.06536102-.4920349-.05397797-.92181396.01138306-.4297638.17651367-1.0020142.21850586-.9361572.9116287-2.9124146.6931305-1.9762421 1.3641281-3.760498.6764984-1.7988739.9678726-2.4404907zm6.015785 6.0029755q.9505615.35765076 1.5897675 1.232544.6446991.86026.3366928 1.6792603-.30249786.80436707-1.2758331 1.3062592-.9678345.4872589-2.1836395.2134552-.52471924-.11395264-1.533783-.49360657-.3672638 1.5980225.02707672 2.2806091.09849548.27078247.4056015.38633728 1.0968094.41267395 2.106636-.00871277 1.0098343-.42137146 1.3315582-.3003235.14624786.05502319.32510376.42282104.19348145.37329102.10548401.60728455-.1760025.46800232-1.6265564.90719604-.6512222.22242737-1.4576797.2361908-.8064575.01376343-1.4060516-.21183777-1.5501556-.5832367-1.5333633-2.8473663-.00596619-1.4045715.54953-2.8816986.55550385-1.4771271 1.6443329-2.2861328 1.1034622-.8035126 2.5951233-.24227905zm-.37425995 1.2615204q-.6727066-.2531128-1.4413071.32580566-.27448273.19721985-.7928543 1.087326 2.4861069.9353943 2.9481049-.29310608.28050232-.74586487-.7139435-1.1200256z" fill="#900"/><path d="m24.254114 189.97386q.3548584-.10020447.5650978-.03779602.21573639.04779053.9469433.3229065.74583054.28060913 1.1459255.68156433.40559578.38633728.1635971 1.0298309-.23649979.62887573-.76297.43078613-.1023674-.03851318-.5335884-.40109253-.4257202-.37719727-.57196045-.43222046-.61421394-.23110962-1.026331.46525574-.12824821.25224304-.44174767 1.0858612-.30800056.81900024-.5115013 1.3601227l1.2430515.46769714q.76407814.32087708.571579.8327484-.2805004.7458801-1.3645611.38809204-.16636658-.0459137-.40035248-.13394165-.21936226-.08253479-.5209675-.21270752-.22012901.71850586-.79063606 2.5906525-.5558815 1.8776398-1.2048817 3.6033936-.13199997.35099792-.5069828.46032715-.3548584.10020447-.6619644-.01535034-.48259735-.18156433-.26809692-.7519531.59950066-1.5941162 1.0343838-3.1500092.45500565-1.5650177 1.0381336-3.2487793-1.6086521-.6052551-1.7508869-1.0260468-.0528698-.17015076.01863098-.36027527.1760006-.46798706.60572624-.45655823.43522835-.00318909.93244743.18388367.497221.18708801.71658325.2696228 1.1328716-2.879242 1.6601067-3.4822083.320364-.36360168.6752224-.46380615zm5.4176617 6.796295q1.2869225.48420715 1.6438732 2.0208435.3715763 1.5421295-.27742386 3.2678833-.6435013 1.7111206-1.9482002 2.6058655-1.2845745.8856201-2.68849.35739136-1.3892918-.52272034-1.7901154-2.0758667-.38069916-1.5622559.18580055-3.068634.7315006-1.9451141 1.9410782-2.8088684 1.3101997-.9093628 2.9334774-.2986145zm-.75473785 1.3854675q-.74583054-.28060913-1.5254269.32756042-.77409554.59355164-1.1040955 1.4710541-.5060005 1.3454895-.24903107 2.2602081.27709198.9055786.9498024 1.1586914 1.2138023.45669556 1.9406567-.45513916.3332405-.44221497.6192417-1.202713 1.0944996-2.9103851-.6311474-3.5596619zm4.803898 6.632141-.67837524 1.8482666q-.1210022.32174683-.5124817.47494507-.3914833.15319824-.66934204.04866028-.40947533-.154068-.2844677-.84158325.03487587-.13713074.82725716-2.6436462.8125076-2.5156403.98952866-4.051697.09763336-.74790955.1416359-.8648987.2199974-.5850067.93658066-.31539917.29248428.11004639.37997055.41007996.10761643.2909088.05798721.55604553-.04412842.25050354-.16888046.67100525-.1101265.42601013-.13950348.5485077.7011032-.7545624 1.6119347-.91270447.91633224-.17274475 1.808403.16288757 1.46241.55023193 1.1819115 1.2961121-.14300156.38024902-.4887352.50057983-.3311081.12583923-.6674652-.00071716-1.5209084-.5722351-2.512745.15641785-.971714.71951294-1.8132133 2.957138zm8.782551 1.5181427q.44549942-1.1846161 1.4428368-1.9279022 1.0119629-.73776245 2.1586533-.85723877 1.1668167-.12858582 2.0881348.2180481.9359436.3521576 1.4036636.7952423.473217.4284668.33571625.7940979-.13750076.36561584-.47974014.6542053-.33673477.27397156-.6730919.14741516-.11699295-.04402161-.6103325-.4633484-.4787178-.41384888-.6395836-.47436523-1.0236893-.38516235-2.0408936.10021973-1.0172081.48538208-1.4847069 1.7285004-.46749878 1.2431335-.3036499 2.0059357.17847824.7683258 1.1582947 1.1369781.38022614.14305115 1.5012932.04733276 1.121067-.09571838 1.355053-.00769043.2339859.08804321.32522964.2893219.09674072.18664551.01424027.40602112-.15950012.42411804-.8967171.69766235-.7170906.2644043-1.6369171.26890564-.9052048.00999451-1.5486641-.23210144-1.418541-.5337219-1.8194923-1.9533539-.38082504-1.4287567.35067368-3.373886zm9.5242 1.763794-1.4322586 4.252411q-.2915001.77511597-.41412354.8792267-.15024567.31074524-.39173508.42022705-.22686768.11497498-.7094612-.06660461-.2339859-.08804321-.27022934-.43556213-.02161789-.34202576.08663559-.7186432 1.0600052-3.1737823 1.8892708-6.000305.8292618-2.826538 1.7202606-5.1957855.13750076-.3656311.46860886-.49145508.3311119-.12583923.6674652.00071716.4972229.18707275.26046753 1.082962-.21663284.8867645-.6713829 2.1847687-.44925308 1.2833862-.62538147 1.8848877 1.0479469-.12322998 1.9400177.21240234 2.062004.77583313 1.9357185 2.7984314-.06326675 1.1447906-.6737671 2.7681732-.19800186.52648926-.7348709 1.6433563-.53136826 1.1022339-.672493 1.4331055-.14112473.33087158-.49048233.41645813-.3493576.08557129-.6710892-.03547669-.4972191-.18707275-.29922104-.7135773l1.2976189-3.0509796q.14849854-.3948822.44562912-1.3181305.3117485-.9177551.17339706-1.570816-.11823273-.6621704-.9371834-.9703064-1.4624138-.55023193-1.8914108.59051514zm11.347153 1.364563q.78970337.29711914.28920364 1.6279907-.05500031.1462555-.1155014.3071289l-.49674988 1.2321167q-.2492485.5740051-.46374512 1.1443787l-1.234642 4.126419q-.16500092.43875122-1.0716972.09759522-.05849457-.02200317-.26323318-.09902954-.20473862-.07704163-.23198318-.27093506-.01261902-.18838501.128376-.3857422.16112137-.20649719.15412903-.5430145-1.1489525.56936646-2.4943733.06315613-2.5153465-.9463959-1.0578461-4.8220215.8084984-2.1498718 2.0253258-2.9441223 1.2369499-.80337524 2.7432365-.2366333.71657944.2696228 1.3396645.78785706.35498428-.23371887.74983597-.08514404zm-2.4531403.93006897q-1.0090637-.37965393-1.726284.01826477-.7172203.3979187-1.3057213 1.9627991-.98999786 2.632492.42853928 3.1662292.3656044.13755798.94545364-.02824402.5798454-.165802.9294586-.5184021.6993561-.83869934 1.1283569-1.9794464.42900085-1.1407471.34363937-1.7571716-.08535767-.61642456-.74344254-.86402893zm2.0980606 7.7843475 2.5213852-7.281662q.12650299-.33636475.44298553-.4677124.31649017-.1313324.5358505-.04879761.570343.21458435.4765854.7302246-.10838318.5101471-.30088043 1.0220184 1.4381943-.8945923 2.8713531-.35536194 2.2082443.83084106.31624603 5.861847-.1760025.46800232-.5279999 1.4039917-.3465042.9213867-.61387634 1.3216095-.32961273.47698975-.9584503.24038696-.4387207-.16506958-.22422028-.7354431l.40324402-.98350525q.77549744-2.0621185.9097595-2.8630219.15438843-.8100128.20789337-1.3074036.05039215-1.0661774-.62231445-1.3192902-.8920746-.33564758-1.4795532.16117859-.6588516.5534363-1.0839691 1.4619293-.7384949 1.6085968-1.4369965 3.465973-.13199615.35099792-.49235535.46583557-.34023666.10571289-.70583725-.03184509-.45335007-.170578-.23884964-.74095154zm7.8924637 2.9695435 2.5213928-7.281662q.12649536-.33636475.44298553-.4677124.31648254-.1313324.5358429-.04879761.570343.21458435.4765854.7302246-.10837555.5101471-.30088043 1.0220184 1.4381943-.8945923 2.8713608-.35536194 2.2082443.83084106.3162384 5.861847-.17599487.46800232-.5279999 1.4039917-.34649658.9213867-.6138687 1.3216095-.32961273.47698975-.9584503.24038696-.43872833-.16506958-.2242279-.7354431l.40325165-.98350525q.77549744-2.0621185.9097595-2.8630219.1543808-.8100128.20788574-1.3074036.05039978-1.0661774-.62231445-1.3192902-.89206696-.33564758-1.4795456.16117859-.6588516.5534363-1.0839767 1.4619293-.7384949 1.6085968-1.4369888 3.465973-.13200378.35099792-.49236298.46583557-.34023285.10571289-.70583344-.03184509-.45334625-.170578-.23885345-.74095154zm12.666489-3.9987793q.95056915.35765076 1.5897675 1.2325287.6446991.86027527.3366928 1.6792603-.30249786.8043823-1.2758331 1.3062744-.9678345.4872589-2.1836395.2134552-.52471924-.11395264-1.533783-.49362183-.3672638 1.5980377.02707672 2.2806244.09849548.27078247.4056015.38633728 1.0968094.41267395 2.106636-.00871277 1.0098343-.42138672 1.3315582-.3003235.14624786.05502319.32510376.4228058.19348145.37330627.10548401.6072998-.1760025.46800232-1.6265564.90719604-.6512222.22242737-1.4576797.2361908-.8064575.01376343-1.4060516-.21183777-1.5501556-.58325195-1.5333633-2.8473663-.00596619-1.4045715.54953-2.8816986.55550385-1.4771271 1.6443329-2.2861328 1.1034622-.8035126 2.5951233-.24227905zm-.37425995 1.2615204q-.6727066-.2531128-1.4413071.32580566-.27448273.19721985-.7928543 1.087326 2.4861069.9353943 2.9481049-.29310608.28050232-.7458801-.7139435-1.1200256zm5.9527206-2.9021606q.296875-.65625.53473663-.8004761.25248718-.13871765.63272095.00434876.7604523.28611755.52394867.9149933-.17599487.46800232-1.028244 2.467865-.83761597 2.0053558-1.4426193 3.6141052-.59950256 1.5941315-.8308792 2.608902-.43876648 1.7881622-.0439148 1.9367218.39485168.14855957.7884674-.32102966.17024231-.18637085.4208603-.27571106.2707367-.09846497.5778427.01707459.61421204.23110962.21820831 1.2841034-.20899963.5557556-1.0377121.8950348-.82321167.324646-1.4227982.0990448-.5995941-.22558594-.8881912-.5679016-.28860474-.34230042-.3685913-.83984375-.06536102-.4920349-.05397797-.9217987.01138306-.42977905.17650604-1.0020294.21850586-.93614197.91163635-2.9123993.6931305-1.9762573 1.3641281-3.7605133.6764984-1.7988739.9678726-2.4404907zm2.9386673 7.349365q.3959961-1.0529938 1.3728256-1.3866272.9823303-.34825134 1.9621506.020401.9944382.37416077 1.7691345 1.0662994.77469635.69215393.5546951 1.2771454-.1155014.3071289-.41548157.3945923-.2999878.08746338-.47547913.0214386-.16086578-.06053162-.263237-.0990448-.08224487-.04763794-.5754547-.6004944-.49320984-.5528412-1.0050583-.74542236-.5118408-.19258118-.97644806-.06689453-.4645996.12568665-.6516037.62294006-.18699646.49725342.11248016.94381714.31959534.43743896 1.2809067 1.0328674.9759369.6009064 1.3886566 1.1902466.43283844.58021545.05334473 1.5893402-.55550385 1.4771271-1.5615845 1.7997589-1.006073.32261658-2.117508-.09555054-1.0968094-.41267395-1.7618866-.99679565-.6449585-.59324646-.4139557-1.2075043.25849915-.6873779.9458313-.42877197.17549133.06604004.6815796.5402527.5207138.47972107 1.1056747.69981384.5995941.2256012 1.0496979-.03909302.4647293-.25920105.6517334-.75645447.19249725-.51187134-.13447571-.88531494-.3269806-.3734436-1.1110535-.81869507-.7785721-.45988464-1.1129227-.7693329-.902565-.8404083-.35256195-2.3029175z" fill="#900"/><path d="m69.25442 180.95013c0-19.606308 143.62204-39.2126 287.24408-39.2126" fill="none"/><path d="m69.25442 180.95013c0-9.803146 35.90551-19.606308 89.76379-26.958664 26.929138-3.676178 58.346466-6.73967 92.00787-8.8841095 16.830704-1.0722198 34.222458-1.9146729 51.8947-2.4890747 8.836121-.28720093 17.74237-.5074005 26.683685-.655777 4.470642-.07418823 8.950073-.13043213 13.433868-.1681366 1.1209412-.00941467 2.2421875-.01768494 3.363617-.02478027l3.2424011-.01713562" fill-rule="evenodd" stroke="#900" stroke-linecap="butt" stroke-linejoin="round" stroke-width="2"/><path d="m349.64438 141.75247-2.2442627 2.2540588 6.1746216-2.2626343-6.1844177-2.2356873z" fill="#900" fill-rule="evenodd" stroke="#900" stroke-linecap="butt" stroke-width="2"/></g></svg>