<?xml version="1.0" encoding="UTF-8" standalone="no"?>
<svg
   version="1.1"
   id="svg833"
   xml:space="preserve"
   width="512"
   height="512"
   viewBox="0 0 512 512"
   sodipodi:docname="icon.svg"
   inkscape:version="1.1.1 (3bf5ae0d25, 2021-09-20)"
   inkscape:export-filename="C:\Users\james\dev\tigyog\public\images\icon-512.png"
   inkscape:export-xdpi="96"
   inkscape:export-ydpi="96"
   xmlns:inkscape="http://www.inkscape.org/namespaces/inkscape"
   xmlns:sodipodi="http://sodipodi.sourceforge.net/DTD/sodipodi-0.dtd"
   xmlns:xlink="http://www.w3.org/1999/xlink"
   xmlns="http://www.w3.org/2000/svg"
   xmlns:svg="http://www.w3.org/2000/svg"
   xmlns:rdf="http://www.w3.org/1999/02/22-rdf-syntax-ns#"
   xmlns:cc="http://creativecommons.org/ns#"
   xmlns:dc="http://purl.org/dc/elements/1.1/"><metadata
     id="metadata839"><rdf:RDF><cc:Work
         rdf:about=""><dc:format>image/svg+xml</dc:format><dc:type
           rdf:resource="http://purl.org/dc/dcmitype/StillImage" /></cc:Work></rdf:RDF></metadata><defs
     id="defs837"><linearGradient
       inkscape:collect="always"
       id="linearGradient1221"><stop
         style="stop-color:#020066;stop-opacity:0"
         offset="0"
         id="stop1217" /><stop
         style="stop-color:#020066;stop-opacity:0"
         offset="0.52743167"
         id="stop2151" /><stop
         style="stop-color:#020066;stop-opacity:1"
         offset="1"
         id="stop1219" /></linearGradient><linearGradient
       inkscape:collect="always"
       id="linearGradient10606-1"><stop
         style="stop-color:#f63700;stop-opacity:1"
         offset="0"
         id="stop10602" /><stop
         style="stop-color:#f600a4;stop-opacity:1"
         offset="1"
         id="stop10604" /></linearGradient><radialGradient
       inkscape:collect="always"
       xlink:href="#linearGradient10606-1"
       id="radialGradient12634"
       cx="144.79906"
       cy="-455.95953"
       fx="144.79906"
       fy="-455.95953"
       r="193.55154"
       gradientTransform="matrix(0.99198384,0,0,0.99198384,-210.43743,-282.89912)"
       gradientUnits="userSpaceOnUse" /><clipPath
       clipPathUnits="userSpaceOnUse"
       id="clipPath109"><circle
         style="fill:#000000;stroke-width:8.1903;stroke-linecap:round;stroke-linejoin:round"
         id="circle111"
         cx="-19.677477"
         cy="-679.93085"
         r="187.90485" /></clipPath><clipPath
       clipPathUnits="userSpaceOnUse"
       id="clipPath346"><path
         id="path348"
         style="fill:#000000;stroke-width:7.49037;stroke-linecap:round;stroke-linejoin:round"
         d="M -75.795632,916.04903 -87.316629,845.48018 A 171.84671,171.84671 0 0 1 -203.31028,683.2165 171.84671,171.84671 0 0 1 -83.037819,519.61981 l 13.125,-51.21826 70.00049429,-7.05908 190.58789471,93.53027 80.58838,270.00001 z" /></clipPath><radialGradient
       inkscape:collect="always"
       xlink:href="#linearGradient1221"
       id="radialGradient1223"
       cx="-9.1108418"
       cy="-693.21667"
       fx="-9.1108418"
       fy="-693.21667"
       r="175.59194"
       gradientTransform="matrix(2.091877,-0.44622766,0.39250219,1.8400164,561.23666,1509.75)"
       gradientUnits="userSpaceOnUse" /></defs><sodipodi:namedview
     pagecolor="#ffffff"
     bordercolor="#666666"
     borderopacity="1"
     objecttolerance="10"
     gridtolerance="10"
     guidetolerance="10"
     inkscape:pageopacity="0"
     inkscape:pageshadow="2"
     inkscape:window-width="1932"
     inkscape:window-height="1419"
     id="namedview835"
     showgrid="false"
     inkscape:zoom="1.275"
     inkscape:cx="38.039216"
     inkscape:cy="139.21569"
     inkscape:window-x="266"
     inkscape:window-y="266"
     inkscape:window-maximized="0"
     inkscape:current-layer="g12828"
     inkscape:object-nodes="false"
     inkscape:snap-nodes="false"
     inkscape:pagecheckerboard="0"
     width="512px" /><g
     id="g841"
     inkscape:groupmode="layer"
     inkscape:label="Dog"
     transform="matrix(1.3333333,0,0,-1.3333333,0,792)"><g
       id="g845"
       transform="matrix(0.31718062,0,0,-0.31718062,0,594)"
       style="opacity:0.494118"><g
         id="g847" /></g><g
       id="g12828"
       transform="translate(211.67747,-277.93085)"
       style="stroke:#000000;stroke-width:11.25;stroke-linecap:round;stroke-linejoin:round;stroke-miterlimit:4;stroke-dasharray:none;stroke-opacity:1;fill:#ffeb55;fill-opacity:1"><rect
         style="fill:url(#radialGradient12634);fill-opacity:1;stroke:none;stroke-width:2.98399;stroke-linecap:round;stroke-linejoin:round;stroke-miterlimit:4;stroke-dasharray:none;stroke-opacity:1"
         id="rect12536"
         width="384"
         height="384"
         x="-211.67747"
         y="-871.93085"
         transform="matrix(0.91454113,0,0,-0.91454113,-13.467932,61.391798)"
         clip-path="url(#clipPath109)" /><g
         id="g215"
         clip-path="url(#clipPath346)"><path
           style="fill:#ffeb55;fill-opacity:1;stroke:#000000;stroke-width:13.074;stroke-linecap:round;stroke-linejoin:round;stroke-miterlimit:4;stroke-dasharray:none;stroke-opacity:1"
           d="m -15.01784,537.68762 c 5.8885499,-10.59471 61.564669,-39.46873 75.118743,-18.88327 23.723808,36.0309 -53.2786217,31.83276 -44.203184,67.84164 4.179796,16.58431 74.785175,32.92628 108.973531,109.3003 l -20.21898,56.76626 -254.21651,-107.9815 z"
           id="path889"
           sodipodi:nodetypes="csscccc" /><path
           style="fill:#ffeb55;fill-opacity:1;stroke:#000000;stroke-width:13.074;stroke-linecap:round;stroke-linejoin:round;stroke-miterlimit:4;stroke-dasharray:none;stroke-opacity:1"
           d="m 129.71097,724.37992 c 0,0 3.3356,17.44782 -3.79003,39.29974 -7.88198,24.17145 -25.00902,51.95415 -62.189926,61.76195 -64.31460018,16.96534 -123.727253,-50.69605 -131.049722,-49.34002 -12.60414,2.33412 15.246448,45.54319 -9.97535,49.88241 -25.221802,4.33925 -16.737652,-58.53025 -24.408192,-61.56284 -11.66167,-4.61048 1.05639,50.43701 -16.81453,47.46036 -16.22173,-2.70198 -13.42402,-45.058 -15.85706,-58.70559 -2.43304,-13.64754 -73.43222,-44.00042 -114.12375,-43.37622 -92.67606,1.42162 -69.37553,-144.2223 -18.36672,-168.57784 24.2811,-11.59364 37.23261,-8.55018 121.22732,0.2712 59.393249,6.23763 62.411985,18.44392 75.047901,12.76714 9.242231,-4.15214 24.271356,-62.20349 44.915752,-58.4908 37.655695,6.77196 3.099514,48.90178 5.971704,67.42923 2.872193,18.52742 12.256532,23.91001 12.256532,23.91001"
           id="path889-3"
           sodipodi:nodetypes="csssssssssssszc" /><path
           style="fill:#ffeb55;fill-opacity:1;stroke:#000000;stroke-width:13.074;stroke-linecap:round;stroke-linejoin:round;stroke-miterlimit:4;stroke-dasharray:none;stroke-opacity:1"
           d="m 130.50925,744.10294 c 34.98508,-3.25442 43.01826,-41.1204 23.04209,-50.67147 -29.61488,-14.15953 -61.806161,7.37655 -87.549909,75.33244 23.865831,-76.61456 9.080859,-121.84597 -39.864075,-121.70106 -38.427671,0.11378 -38.120919,40.45646 -38.120919,40.45646"
           id="path883"
           sodipodi:nodetypes="cscsc" /><path
           style="fill:#000000;fill-opacity:1;stroke:#000000;stroke-width:13.074;stroke-linecap:round;stroke-linejoin:round;stroke-miterlimit:4;stroke-dasharray:none;stroke-opacity:1"
           d="m 73.202174,757.60207 c 9.552349,15.19139 14.424451,39.19522 -12.731126,27.61025 -35.034462,-14.94621 -11.722557,-29.35211 8.686036,-30.85672"
           id="path885"
           sodipodi:nodetypes="csc" /><path
           style="fill:#ffeb55;fill-opacity:1;stroke:#000000;stroke-width:13.074;stroke-linecap:round;stroke-linejoin:round;stroke-miterlimit:4;stroke-dasharray:none;stroke-opacity:1"
           d="M -58.971626,726.85531 C -80.606851,739.23259 -93.12697,711.01574 -93.12697,711.01574"
           id="path3162"
           sodipodi:nodetypes="cc" /><path
           style="fill:#ffeb55;fill-opacity:1;stroke:#000000;stroke-width:13.074;stroke-linecap:round;stroke-linejoin:round;stroke-miterlimit:4;stroke-dasharray:none;stroke-opacity:1"
           d="M -3.1493072,790.22525 C -28.030209,789.413 -24.991392,764.28688 -24.991392,764.28688"
           id="path3164"
           sodipodi:nodetypes="cc" /><path
           style="fill:#ffeb55;fill-opacity:1;stroke:#000000;stroke-width:13.074;stroke-linecap:round;stroke-linejoin:round;stroke-miterlimit:4;stroke-dasharray:none;stroke-opacity:1"
           d="m 136.54882,722.55043 c 0,0 -6.84243,9.77307 -9.36943,36.64649"
           id="path21630"
           sodipodi:nodetypes="cc" /><path
           style="opacity:0.195683;mix-blend-mode:darken;fill:#ffeb55;fill-opacity:1;stroke:none;stroke-width:0.8716px;stroke-linecap:butt;stroke-linejoin:miter;stroke-opacity:1"
           d="m -49.757551,576.02851 c 10.501566,-27.17511 24.543943,-50.88536 15.03936,-76.56403 21.875443,0.68361 31.445944,40.67463 31.445944,40.67463 0,0 18.55661,-22.45518 26.318884,-10.59592 6.209012,9.4862 -30.786393,52.84639 -10.937716,79.29846 5.940757,7.68804 47.12459,23.13728 62.550072,39.99104 18.4574,20.16643 34.863987,47.51073 34.863987,47.51073 l -30.762335,36.91478 -2.734432,-38.282 c 0,0 2.734432,-19.14101 -7.519681,-32.12956 -10.254113,-12.98853 -30.078728,-19.14099 -40.332834,-16.40656 -10.254115,2.73442 -30.078731,9.57049 -30.078731,9.57049 l -11.621325,17.09019 C -35.335622,544.28138 -306.11955,634.90141 -305.42673,592.4351 c 0.79665,-48.82985 158.45079,-50.8269 255.669179,-16.40659 z"
           id="path26263"
           sodipodi:nodetypes="cccscscccssccsc" /><path
           style="opacity:0.2;mix-blend-mode:multiply;fill:#2100f6;fill-opacity:1;stroke:none;stroke-width:0.8716px;stroke-linecap:butt;stroke-linejoin:miter;stroke-miterlimit:4;stroke-dasharray:none;stroke-opacity:1"
           d="m -48.358064,578.76842 c 10.501566,-27.1751 24.543943,-50.88536 15.03936,-76.56401 21.875447,0.68358 26.1518292,28.32168 26.1518292,28.32168 0,0 24.9074138,-11.4972 33.9659448,-0.59592 10.326653,12.42737 -49.609921,45.19931 -13.290665,81.65141 5.940764,7.68802 47.124597,23.13724 62.550075,39.99103 18.457401,20.16642 34.86399,47.51071 34.86399,47.51071 l -30.762337,36.91479 -2.734413,-38.282 c 0,0 2.734413,-19.14101 -7.51971,-32.12955 -10.254099,-12.98854 -30.07872,-19.14102 -40.33282,-16.40659 -10.254122,2.73443 -30.07873368,9.57051 -30.07873368,9.57051 L -12.126869,675.84066 C -33.936134,547.02127 -304.72006,637.64131 -304.02725,595.17499 c 0.79664,-48.82982 158.4508,-50.82687 255.669186,-16.40657 z"
           id="path26263-0"
           sodipodi:nodetypes="cccscscccssccsc" /><path
           style="opacity:0.2;mix-blend-mode:multiply;fill:#2100f6;fill-opacity:1;stroke:none;stroke-width:0.8716px;stroke-linecap:butt;stroke-linejoin:miter;stroke-miterlimit:4;stroke-dasharray:none;stroke-opacity:1"
           d="m -39.520615,709.65812 c 6.386998,-13.88369 -20.747399,-29.72574 -29.46916,-17.31802 -4.348586,6.18637 7.794884,8.74716 12.252475,11.63196 7.668763,4.96292 12.829167,15.22339 17.216685,5.68606 z"
           id="path27685"
           sodipodi:nodetypes="ssss" /><path
           style="opacity:0.2;mix-blend-mode:multiply;fill:#2100f6;fill-opacity:1;stroke:none;stroke-width:0.8716px;stroke-linecap:butt;stroke-linejoin:miter;stroke-miterlimit:4;stroke-dasharray:none;stroke-opacity:1"
           d="m 12.453388,769.48591 c 6.955185,-10.07223 -5.7707696,-26.71102 -18.5314376,-18.51432 -5.3739974,3.45195 4.581596,7.52139 8.3217318,11.29013 3.7380212,3.76663 6.2363372,12.97828 10.2097058,7.22419 z"
           id="path28929"
           sodipodi:nodetypes="ssss" /><ellipse
           style="fill:#ffffff;fill-opacity:1;stroke:none;stroke-width:7.58492;stroke-linecap:round;stroke-linejoin:round;stroke-miterlimit:4;stroke-dasharray:none;stroke-opacity:1"
           id="path29311"
           cx="70.386452"
           cy="-780.17914"
           transform="scale(1,-1)"
           rx="6.4942703"
           ry="6.2463989" /><circle
           style="fill:#000000;fill-opacity:1;stroke:none;stroke-width:5.81067;stroke-linecap:round;stroke-linejoin:round;stroke-miterlimit:4;stroke-dasharray:none;stroke-opacity:1"
           id="circle32639"
           cx="101.48834"
           cy="-758.70886"
           transform="scale(1,-1)"
           r="4.3579974" /><circle
           style="fill:#000000;fill-opacity:1;stroke:none;stroke-width:5.81067;stroke-linecap:round;stroke-linejoin:round;stroke-miterlimit:4;stroke-dasharray:none;stroke-opacity:1"
           id="circle33041"
           cx="109.19943"
           cy="-732.77087"
           transform="scale(1,-1)"
           r="4.3579974" /><circle
           style="fill:#000000;fill-opacity:1;stroke:none;stroke-width:5.81067;stroke-linecap:round;stroke-linejoin:round;stroke-miterlimit:4;stroke-dasharray:none;stroke-opacity:1"
           id="circle33045"
           cx="43.13768"
           cy="-723.32928"
           transform="scale(1,-1)"
           r="4.3579974" /><circle
           style="fill:#000000;fill-opacity:1;stroke:none;stroke-width:5.81067;stroke-linecap:round;stroke-linejoin:round;stroke-miterlimit:4;stroke-dasharray:none;stroke-opacity:1"
           id="circle33047"
           cx="42.903111"
           cy="-694.55902"
           transform="scale(1,-1)"
           r="4.3579974" /><circle
           style="fill:#000000;fill-opacity:1;stroke:none;stroke-width:5.81067;stroke-linecap:round;stroke-linejoin:round;stroke-miterlimit:4;stroke-dasharray:none;stroke-opacity:1"
           id="circle33049"
           cx="21.062014"
           cy="-706.78094"
           transform="scale(1,-1)"
           r="4.3579974" /></g><path
         id="circle343"
         style="fill:url(#radialGradient1223);fill-opacity:1;stroke:none;stroke-width:9.98716;stroke-linecap:round;stroke-linejoin:round"
         d="M 240.28516 22.490234 A 229.129 229.12894 0 0 0 11.15625 251.61914 A 229.129 229.12894 0 0 0 215.93164 479.27539 L 203.92188 453.33398 L 188.23438 417.25586 L 194.50977 367.05859 L 101.96094 163.13672 L 110.58789 93.333984 L 123.13672 77.646484 L 134.90234 84.705078 L 148.23438 125.49023 L 160 67.451172 L 179.60742 62.744141 L 193.72461 74.509766 C 193.72461 74.509766 190.589 101.17582 189.80469 106.66602 C 189.02038 112.15622 191.37305 127.05859 191.37305 127.05859 L 287.05859 69.019531 L 358.84375 55.585938 A 229.129 229.12894 0 0 0 240.28516 22.490234 z "
         transform="matrix(0.75000002,0,0,-0.75000002,-211.67747,871.93086)" /></g></g></svg>
