<?xml version="1.0" encoding="UTF-8" standalone="no"?>
<svg
   version="1.1"
   id="svg833"
   xml:space="preserve"
   width="64"
   height="64"
   viewBox="0 0 64 63.999997"
   sodipodi:docname="icon-64.svg"
   inkscape:version="1.1.1 (3bf5ae0d25, 2021-09-20)"
   inkscape:export-filename="C:\Users\james\dev\tigyog\public\images\icon-64.png"
   inkscape:export-xdpi="96"
   inkscape:export-ydpi="96"
   xmlns:inkscape="http://www.inkscape.org/namespaces/inkscape"
   xmlns:sodipodi="http://sodipodi.sourceforge.net/DTD/sodipodi-0.dtd"
   xmlns="http://www.w3.org/2000/svg"
   xmlns:svg="http://www.w3.org/2000/svg"
   xmlns:rdf="http://www.w3.org/1999/02/22-rdf-syntax-ns#"
   xmlns:cc="http://creativecommons.org/ns#"
   xmlns:dc="http://purl.org/dc/elements/1.1/"><metadata
     id="metadata839"><rdf:RDF><cc:Work
         rdf:about=""><dc:format>image/svg+xml</dc:format><dc:type
           rdf:resource="http://purl.org/dc/dcmitype/StillImage" /></cc:Work></rdf:RDF></metadata><defs
     id="defs837"><clipPath
       clipPathUnits="userSpaceOnUse"
       id="clipPath34222"><path
         id="path34224"
         style="fill:#000000;stroke-width:6.89703;stroke-linecap:round;stroke-linejoin:round"
         d="M 13.372923,1050.5535 C 8.9862407,1050.501 4.5454929,1050.3214 0.04977802,1050.0089 -143.81315,1040.0077 -263.82713,1018.4668 -263.82713,1018.4668 V 870.75802 l 102.31934,-78.47044 11.71651,-9.885 a 158.2341,158.2341 0 0 1 -13.94087,-64.23965 158.2341,158.2341 0 0 1 158.2332127,-158.23457 158.2341,158.2341 0 0 1 6.2382403,0.37795 l 10.849528,-48.82084 264.646349,65.39248 c 0,0 -33.08051,314.652 -38.46576,335.42364 -5.21695,20.12254 -88.40925,139.87931 -224.396497,138.25191 z" /></clipPath><clipPath
       clipPathUnits="userSpaceOnUse"
       id="clipPath2239"><rect
         style="fill:#0000ff;fill-opacity:1;stroke:none;stroke-width:3.75;stroke-linecap:round;stroke-linejoin:round;stroke-miterlimit:4;stroke-dasharray:none;stroke-opacity:0.72428"
         id="rect2241"
         width="48"
         height="48"
         x="0"
         y="-594"
         rx="7.5"
         ry="7.5"
         transform="scale(1,-1)" /></clipPath></defs><sodipodi:namedview
     pagecolor="#ffffff"
     bordercolor="#666666"
     borderopacity="1"
     objecttolerance="10"
     gridtolerance="10"
     guidetolerance="10"
     inkscape:pageopacity="0"
     inkscape:pageshadow="2"
     inkscape:window-width="2388"
     inkscape:window-height="1708"
     id="namedview835"
     showgrid="true"
     inkscape:zoom="10.2"
     inkscape:cx="6.9607843"
     inkscape:cy="18.823529"
     inkscape:window-x="266"
     inkscape:window-y="266"
     inkscape:window-maximized="0"
     inkscape:current-layer="g841"
     inkscape:object-nodes="false"
     inkscape:snap-nodes="false"
     inkscape:pagecheckerboard="0"
     width="64px"
     units="px" /><g
     id="g841"
     inkscape:groupmode="layer"
     inkscape:label="Dog"
     transform="matrix(1.3333333,0,0,-1.3333333,0,792)"><g
       id="g845"
       transform="matrix(0.31718062,0,0,-0.31718062,0,594)"
       style="opacity:0.494118"><g
         id="g847" /></g><g
       id="g2237"
       clip-path="url(#clipPath2239)"><rect
         style="fill:#f600a4;fill-opacity:1;stroke:none;stroke-width:0.372998;stroke-linecap:round;stroke-linejoin:round;stroke-miterlimit:4;stroke-dasharray:none;stroke-opacity:1"
         id="rect12766"
         width="48"
         height="48"
         x="0"
         y="-594"
         transform="scale(1,-1)"
         clip-path="none" /><path
         style="fill:#ffeb55;fill-opacity:1;stroke:none;stroke-width:3.73774;stroke-linecap:round;stroke-linejoin:round;stroke-miterlimit:4;stroke-dasharray:none;stroke-opacity:1"
         d="M 38.571438,577.51423 C 57.172954,567.98335 31.441913,538.60881 29.772692,576.696"
         id="path38878"
         sodipodi:nodetypes="cc" /><path
         style="fill:#ffeb55;fill-opacity:1;stroke:#000000;stroke-width:3.75;stroke-linecap:round;stroke-linejoin:round;stroke-miterlimit:4;stroke-dasharray:none;stroke-opacity:1"
         d="m 38.563357,569.77481 c 5.735981,7.12035 3.72538,19.59269 -6.836471,22.56092 -22.8182394,44.4385 -72.98908,-29.74008 -37.0583823,-47.67314 L 22.68433,541.94976 c 4.909195,3.06723 10.288348,6.22491 12.89763,13.4565"
         id="path38876"
         sodipodi:nodetypes="ccccc"
         clip-path="none" /><path
         style="fill:#ffeb55;fill-opacity:1;stroke:#000000;stroke-width:3.75;stroke-linecap:round;stroke-linejoin:round;stroke-miterlimit:4;stroke-dasharray:none;stroke-opacity:1"
         d="m 9.8914614,581.26332 c -5.8326035,0.21367 -6.0678543,-6.32104 -6.0678543,-6.32104"
         id="path38882"
         sodipodi:nodetypes="cc" /><path
         style="fill:#ffeb55;fill-opacity:1;stroke:#000000;stroke-width:3.75;stroke-linecap:round;stroke-linejoin:round;stroke-miterlimit:4;stroke-dasharray:none;stroke-opacity:1"
         d="m 23.273071,589.25327 c -5.444331,2.09288 -7.060477,-3.65593 -7.060477,-3.65593"
         id="path38884"
         sodipodi:nodetypes="cc" /><circle
         style="fill:#000000;fill-opacity:1;stroke:none;stroke-width:4.50001;stroke-linecap:round;stroke-linejoin:round;stroke-miterlimit:4;stroke-dasharray:none;stroke-opacity:0.72428"
         id="path51217"
         cx="19.5"
         cy="-571.5"
         transform="scale(1,-1)"
         r="1.5" /><circle
         style="fill:#000000;fill-opacity:1;stroke:none;stroke-width:4.50001;stroke-linecap:round;stroke-linejoin:round;stroke-miterlimit:4;stroke-dasharray:none;stroke-opacity:0.72428"
         id="circle51409"
         cx="19.5"
         cy="-565.5"
         transform="scale(1,-1)"
         r="1.5" /><circle
         style="fill:#000000;fill-opacity:1;stroke:none;stroke-width:4.50001;stroke-linecap:round;stroke-linejoin:round;stroke-miterlimit:4;stroke-dasharray:none;stroke-opacity:0.72428"
         id="circle51411"
         cx="13.5"
         cy="-568.5"
         transform="scale(1,-1)"
         r="1.5" /><path
         style="fill:none;fill-opacity:1;stroke:#000000;stroke-width:3.75;stroke-linecap:round;stroke-linejoin:round;stroke-miterlimit:4;stroke-dasharray:none;stroke-opacity:1"
         d="M 41.72622,576.26832 C 56.000814,563.28757 31.556835,540.94101 29.141868,574.98849 33.326941,550.30787 5.9411921,548.85671 6.1878724,563.32929"
         id="path3912"
         sodipodi:nodetypes="ccc" /><circle
         style="fill:#000000;fill-opacity:1;stroke:none;stroke-width:3.47988;stroke-linecap:round;stroke-linejoin:round;stroke-opacity:0.72428"
         id="path12919"
         cx="28.5"
         cy="-579.75"
         transform="scale(1,-1)"
         r="6" /><circle
         style="fill:#ffffff;fill-opacity:1;stroke:none;stroke-width:4.50001;stroke-linecap:round;stroke-linejoin:round;stroke-miterlimit:4;stroke-dasharray:none;stroke-opacity:0.72428"
         id="circle14536"
         cx="30"
         cy="-581.25"
         transform="scale(1,-1)"
         r="1.5" /><path
         style="opacity:0.2;mix-blend-mode:multiply;fill:#2100f6;fill-opacity:1;stroke:none;stroke-width:0.8716px;stroke-linecap:butt;stroke-linejoin:miter;stroke-miterlimit:4;stroke-dasharray:none;stroke-opacity:1"
         d="m 35.524217,555.62888 -5.285698,10.08633 C 24.31989,551.35047 15.52863,548.95699 6.2596619,559.55434 3.9673795,553.67079 -6.260401,545.17655 -14.921385,542.19651 l 37.907832,0.67255 c 6.699412,4.17181 8.969023,6.84014 12.53777,12.75982 z"
         id="path26263-0"
         sodipodi:nodetypes="cccccc" /></g></g></svg>
