<?xml version="1.0" encoding="UTF-8" standalone="no"?>
<svg
   xmlns:dc="http://purl.org/dc/elements/1.1/"
   xmlns:cc="http://creativecommons.org/ns#"
   xmlns:rdf="http://www.w3.org/1999/02/22-rdf-syntax-ns#"
   xmlns:svg="http://www.w3.org/2000/svg"
   xmlns="http://www.w3.org/2000/svg"
   xmlns:sodipodi="http://sodipodi.sourceforge.net/DTD/sodipodi-0.dtd"
   xmlns:inkscape="http://www.inkscape.org/namespaces/inkscape"
   width="400"
   height="250"
   viewBox="0 0 105.83333 66.145835"
   version="1.1"
   id="svg889"
   sodipodi:docname="Flag_of_the_United_Nations.svg"
   inkscape:version="0.92.2 5c3e80d, 2017-08-06">
  <metadata
     id="metadata895">
    <rdf:RDF>
      <cc:Work
         rdf:about="">
        <dc:format>image/svg+xml</dc:format>
        <dc:type
           rdf:resource="http://purl.org/dc/dcmitype/StillImage" />
        <dc:title></dc:title>
      </cc:Work>
    </rdf:RDF>
  </metadata>
  <defs
     id="defs893" />
  <sodipodi:namedview
     pagecolor="#ffffff"
     bordercolor="#666666"
     borderopacity="1"
     objecttolerance="10"
     gridtolerance="10"
     guidetolerance="10"
     inkscape:pageopacity="0"
     inkscape:pageshadow="2"
     inkscape:window-width="1680"
     inkscape:window-height="936"
     id="namedview891"
     showgrid="false"
     fit-margin-top="0"
     fit-margin-left="0"
     fit-margin-right="0"
     fit-margin-bottom="0"
     inkscape:zoom="2.1202346"
     inkscape:cx="200"
     inkscape:cy="119.676"
     inkscape:window-x="0"
     inkscape:window-y="1"
     inkscape:window-maximized="1"
     inkscape:current-layer="g887" />
  <path
     d="m -203.80467,-264.3649 h 124.732004 v 80.886 H -203.80467 Z"
     id="path875"
     inkscape:connector-curvature="0"
     style="fill:#418fde;fill-rule:evenodd" />
  <path
     d="m -141.43867,-244.1419 c -2.753,0 -5.356,0.64 -7.664,1.767 -3.335,1.63 -6.05,4.288 -7.704,7.544 a 17.032,16.567 0 0 0 -1.762,7.35 c 0,1.614 0.237,3.19 0.69,4.697 l 0.404,-0.1 a 16.774,16.317 0 0 1 -0.676,-4.396 h 3.088 c 0.02,1.26 0.218,2.49 0.584,3.663 l 0.4,-0.098 a 12.55,12.55 0 0 1 -0.57,-3.564 h 2.796 c 0.008,0.402 0.04,0.797 0.097,1.188 -0.194,0.025 -0.377,0.086 -0.377,0.086 l -0.087,0.273 c -0.19,0.035 -0.31,0.34 -0.31,0.34 -0.156,0.052 -0.277,0.24 -0.225,0.29 0.053,0.053 -0.086,0.07 -0.086,0.07 v 0.375 l -0.086,0.12 0.017,0.41 c 0.104,0 0.087,0.186 0.087,0.186 -0.173,0.017 -0.14,0.24 -0.14,0.24 l -0.36,0.12 -0.07,0.1 -0.45,-0.016 -0.12,0.12 v -0.002 c -0.04,-0.11 -0.076,-0.22 -0.11,-0.334 l -0.403,0.098 c 0.012,0.04 0.025,0.078 0.04,0.118 h -0.514 l -0.034,-0.085 -0.172,-0.035 -0.018,-0.188 -0.26,0.017 -0.05,0.104 -0.277,0.017 c 0.016,0.172 -0.277,0.427 -0.31,0.36 -0.037,-0.07 -0.227,-0.257 -0.14,-0.29 0.087,-0.035 0.31,-0.07 0.31,-0.07 v -0.12 l -0.638,-0.016 -0.07,0.103 -0.258,0.017 v 0.273 l -0.122,0.034 c -0.087,0.053 0.017,0.24 0.017,0.24 0.12,0.12 -0.017,0.307 -0.017,0.307 -0.104,0.102 0.085,0.29 0.085,0.29 0.14,0.034 -0.085,0.137 -0.085,0.137 0.034,0.17 0.137,0.22 0.137,0.22 -0.103,0.172 0.07,0.257 0.07,0.257 l 0.018,0.29 0.12,0.07 v 0.187 l 0.07,0.12 h 0.275 l -0.016,-0.427 c -0.243,-0.273 0.206,-0.34 0.224,-0.24 0.018,0.103 0.208,0.155 0.208,0.155 0.034,0.255 0.327,0.408 0.414,0.153 0.087,-0.257 0.156,-0.103 0.208,0.016 0.052,0.12 0.38,0.41 0.38,0.41 h 0.26 l 0.033,0.24 c 0.293,-0.018 0.38,0.017 0.5,0.408 0.122,0.392 0.45,0.495 0.45,0.495 l 0.24,-0.017 c 0,-0.205 0.244,0.035 0.244,0.137 0,0.102 0.466,0.494 0.466,0.494 l 0.466,0.103 0.086,0.068 c 0.287,0.353 0.592,0.694 0.918,1.02 l -2.185,2.125 a 16.085,16.085 0 0 1 -4.072,-6.757 l -0.405,0.1 a 16.48,16.48 0 0 0 4.328,7.085 17.165,17.165 0 0 0 4.726,3.26 l 0.205,-0.354 a 16.716,16.716 0 0 1 -4.49,-3.052 l 2.184,-2.125 a 13.625,13.625 0 0 0 3.83,2.55 l 0.204,-0.353 a 13.237,13.237 0 0 1 -3.74,-2.48 l 0.406,-0.395 a 0.4,0.4 0 0 1 0.045,0.144 c 0.035,0.255 0.155,0.204 0.155,0.204 l 0.986,-0.016 0.346,-0.29 0.88,-0.018 c 0.45,-0.017 0.174,-0.615 0.087,-0.615 -0.052,-0.038 -0.062,-0.118 -0.055,-0.207 0.703,0.526 1.465,0.96 2.27,1.292 l 0.203,-0.35 a 9.972,9.7 0 0 1 -2.58,-1.54 l -0.466,-0.424 2.176,-2.117 a 6.91,6.91 0 0 0 3.138,1.648 c -0.043,0.036 -0.067,0.07 -0.057,0.095 0.033,0.085 -0.14,0.17 -0.14,0.17 l -0.155,0.05 -0.104,0.155 -0.206,0.068 -0.035,0.36 -0.104,0.066 v 0.154 l -0.122,0.034 v 0.085 l -0.172,0.018 0.104,0.255 0.138,0.07 c 0.242,0.033 0.138,0.323 0.138,0.323 l 0.138,0.018 0.07,0.187 0.137,0.273 c 0.052,0.205 0.208,0.154 0.278,0.136 0.068,-0.016 0.137,0.206 0.137,0.206 l 0.69,0.017 c 0,0 -0.033,0.068 0.087,0.102 0.066,0.018 0.337,0.036 0.573,0.04 v 0.3 a 10.202,10.202 0 0 1 -3.664,-0.75 l -0.205,0.35 c 1.21,0.502 2.518,0.777 3.868,0.802 v 2.72 a 13.466,13.466 0 0 1 -5.248,-1.14 l -0.204,0.352 a 13.884,13.884 0 0 0 5.453,1.19 v 3.005 a 17.05,17.05 0 0 1 -6.975,-1.57 l -0.205,0.354 a 17.46,17.46 0 0 0 7.387,1.62 c 2.726,0 5.354,-0.62 7.72,-1.783 a 17.17,17.17 0 0 0 4.393,-3.095 16.688,16.688 0 0 0 3.307,-4.514 l -0.002,-0.003 a 16.214,16.214 0 0 0 1.71,-7.268 c 0,-2.18 -0.43,-4.29 -1.243,-6.25 a 16.606,16.606 0 0 0 -3.774,-5.533 17.12,17.12 0 0 0 -5.712,-3.68 17.518,17.518 0 0 0 -6.4,-1.2 z m -0.206,0.406 v 3.005 a 13.85,13.85 0 0 0 -5.833,1.375 13.675,13.302 0 0 0 -3.445,2.368 l -2.19,-2.13 a 16.743,16.286 0 0 1 4.197,-2.907 17.008,17.008 0 0 1 7.27,-1.712 z m 0.412,0 c 2.104,0.025 4.145,0.428 6.042,1.172 v -0.002 a 16.71,16.71 0 0 1 5.423,3.447 l -1.85,1.802 c -0.065,0.015 -0.132,0.022 -0.18,0.002 -0.122,-0.05 0.05,-0.17 0.05,-0.17 v -0.137 l -0.103,-0.102 c 0,0 -0.293,0.034 -0.31,-0.016 a 5.66,5.66 0 0 1 -0.07,-0.274 l -0.017,-0.29 -0.12,-0.052 -0.02,-0.102 -0.19,0.017 v -0.206 l -0.103,-0.034 -0.103,-0.05 -0.017,-0.207 -0.38,-0.016 -0.12,-0.17 -0.14,-0.206 -0.43,-0.032 -0.105,-0.102 -0.172,-0.035 -0.122,-0.05 -0.052,0.086 -0.328,0.017 -0.017,0.102 c -0.102,0.05 -0.38,0.047 -0.6,0.046 a 13.73,13.73 0 0 0 -1.053,-0.466 l -0.15,0.373 c 0.287,0.115 0.572,0.238 0.85,0.37 -0.02,0.06 -0.044,0.104 -0.083,0.104 -0.087,0 -0.052,0.223 -0.052,0.223 0,0 0.225,0 0.294,0.017 0.07,0.016 0.07,0.187 0.07,0.187 0.258,-0.017 0.362,0.325 0.328,0.41 -0.035,0.085 0.103,0.085 0.103,0.085 0,0 0,0.273 -0.035,0.34 -0.034,0.07 0.225,0.12 0.295,0.223 0.068,0.102 -0.036,0.444 -0.088,0.46 -0.052,0.018 0.138,0.07 0.12,0.154 -0.017,0.085 0.053,0 0.07,0.136 l 0.052,0.426 0.242,0.017 c 0.034,-0.222 0.48,-0.232 0.553,-0.205 0.293,0.102 0.518,0.546 0.518,0.648 0,0.102 -0.19,0.12 -0.19,0.12 l 0.007,0.11 -0.606,0.59 c -0.062,-0.04 -0.124,-0.057 -0.16,-0.036 -0.087,0.05 -0.053,-0.36 -0.053,-0.36 0,0 0.156,-0.1 0.225,-0.05 0.07,0.05 -0.587,-0.852 -0.726,-0.766 -0.138,0.085 -0.45,-0.085 -0.43,-0.24 0.016,-0.152 -0.624,-0.664 -0.624,-0.664 0,0 -0.207,-0.136 -0.24,-0.034 -0.036,0.102 -0.105,0.17 0,0.222 0.102,0.05 0.084,-0.085 0.206,0.034 0.12,0.12 0.346,0.273 0.26,0.375 -0.087,0.102 -0.19,0.137 -0.19,0.137 l 0.12,0.136 h 0.19 l 0.035,0.29 c 0,0 0.206,0.102 0.258,0.222 0.034,0.078 0.043,0.133 0.033,0.182 a 10.31,10.03 0 0 0 -1.206,-0.777 0.208,0.208 0 0 0 0,-0.088 c -0.036,-0.12 0.137,-0.17 0.224,-0.034 l 0.172,-0.015 0.034,-0.154 -0.24,-0.187 h -0.19 c 0,0 -0.02,0.136 -0.14,0.086 -0.12,-0.053 -0.05,-0.035 -0.155,-0.053 -0.095,-0.015 -0.076,0.173 -0.058,0.26 a 10.372,10.09 0 0 0 -0.817,-0.367 10.642,10.642 0 0 0 -3.74,-0.748 v -1.498 c 0.112,0.002 0.16,-0.04 0.173,-0.085 0.017,-0.07 0.035,-0.087 0.14,-0.105 0.102,-0.016 -0.02,-0.22 -0.123,-0.204 a 0.215,0.215 0 0 1 -0.19,-0.055 v -0.775 a 13.53,13.53 0 0 1 4.76,0.936 l 0.152,-0.373 c -1.543,-0.608 -3.2,-0.94 -4.913,-0.964 z m 2.895,0.715 -0.165,0.1 -0.11,-0.068 -0.055,0.087 0.138,0.084 0.027,0.017 0.028,-0.016 0.19,-0.12 z m 0.79,0.41 -0.14,0.108 -0.087,-0.087 -0.073,0.074 0.12,0.12 0.034,0.032 0.035,-0.028 0.173,-0.138 z m -16.664,0.084 c -1.72,0.652 -3.563,1.317 -4.678,3.033 -0.653,1.003 -0.747,2.192 -1.262,3.23 0.952,-0.872 2.06,-1.514 2.866,-2.55 0.97,-1.248 1.812,-2.635 3.074,-3.713 z m 25.548,0 c 1.262,1.078 2.105,2.465 3.074,3.712 0.807,1.037 1.914,1.68 2.866,2.55 -0.514,-1.037 -0.61,-2.226 -1.262,-3.23 -1.115,-1.715 -2.96,-2.38 -4.678,-3.032 z m -10.078,0.21 c -0.087,-0.008 -0.2,0.028 -0.21,0.07 -0.017,0.07 -0.12,0.086 -0.12,0.086 l -0.397,0.034 c -0.037,0.103 -0.243,0.17 -0.26,0.103 -0.04,-0.15 -0.26,0.187 -0.035,0.255 0.224,0.07 0.45,0 0.45,0 l 0.05,-0.102 0.864,0.017 c 0.07,-0.068 0.103,-0.17 0.103,-0.17 0,0 0.207,-0.07 0.293,-0.035 0.087,0.035 0.018,-0.238 -0.068,-0.204 -0.086,0.033 -0.26,0.017 -0.26,0.017 h -0.31 c -0.007,-0.045 -0.05,-0.066 -0.102,-0.07 z m -1.54,0.344 -0.226,0.085 -0.24,0.154 -0.26,0.034 -0.14,0.155 0.554,0.05 0.104,0.17 0.398,0.036 0.26,0.256 c 0.223,0.068 0.275,-0.034 0.137,-0.153 l -0.225,-0.222 v -0.187 l -0.07,-0.07 -0.07,-0.237 z m -1.364,1.642 v 2.72 a 10.333,10.05 0 0 0 -4.346,1.02 c -0.984,0.467 -1.88,1.08 -2.662,1.81 l -1.98,-1.928 c 1,-0.944 2.127,-1.713 3.342,-2.297 a 13.43,13.43 0 0 1 5.646,-1.325 z m -17.2,0.08 c -0.878,0.217 -1.614,0.77 -2.27,1.477 -1.374,1.48 -1.255,3.667 -1.072,5.618 0.057,0.6 0.026,1.115 -0.044,1.732 0.416,-0.83 1.097,-1.62 1.897,-2.208 1.787,-1.314 3.743,-3.01 3.77,-5.243 -0.59,1.606 -2.39,2.27 -3.587,3.37 a 5.45,5.45 0 0 0 -1.4,2.004 l -0.045,-0.032 c 0.15,-0.642 0.43,-1.226 0.62,-1.847 0.522,-1.7 0.43,-3.733 2.13,-4.87 z m 34.818,0 c 1.7,1.137 1.61,3.17 2.13,4.87 0.19,0.622 0.47,1.206 0.62,1.848 l -0.045,0.033 a 5.45,5.45 0 0 0 -1.4,-2.004 c -1.197,-1.098 -2.997,-1.763 -3.588,-3.37 0.027,2.233 1.982,3.93 3.77,5.243 0.8,0.587 1.48,1.378 1.897,2.207 -0.07,-0.617 -0.1,-1.13 -0.045,-1.732 0.183,-1.95 0.302,-4.137 -1.07,-5.618 -0.658,-0.708 -1.394,-1.26 -2.27,-1.478 z m -9.38,0.338 c -0.142,-0.002 -0.346,0.09 -0.326,0.192 0.018,0.086 0.087,0.17 0.225,0.205 l 0.26,0.085 c 0,0 0.322,0.37 0.31,0.187 -0.035,-0.512 -0.277,-0.53 -0.363,-0.63 -0.022,-0.026 -0.062,-0.038 -0.108,-0.04 z m -5.42,0.205 -0.07,0.154 0.096,0.04 0.07,-0.153 z m 0.323,0.168 c -0.013,-0.01 -0.106,0.127 -0.175,0.16 0.084,0.04 0.195,0.103 0.195,0.103 0.137,0 0.225,0.103 0.225,0.153 0,0.052 0.19,0.035 0.19,0.035 l 0.016,-0.12 -0.138,-0.17 -0.12,-0.084 c 0,0 -0.19,-0.018 -0.19,-0.07 0,-0.002 0,-0.004 -0.003,-0.005 z m -0.752,0.11 -0.01,0.1 0.148,0.016 0.108,0.166 0.086,-0.055 -0.12,-0.187 -0.014,-0.02 -0.025,-0.003 z m -3.994,0.427 c -0.094,0.003 -0.18,0.02 -0.174,0.05 0.017,0.085 0.154,0.187 0.154,0.187 0,0 0.26,0.018 0.277,0.07 0.018,0.05 0.19,0.067 0.208,0.016 0.02,-0.05 0.087,-0.153 -0.068,-0.153 -0.156,0 -0.12,-0.085 -0.173,-0.137 -0.027,-0.025 -0.13,-0.036 -0.224,-0.033 z m 13.775,0.17 a 16.175,16.175 0 0 1 3.54,5.263 15.81,15.81 0 0 1 1.21,5.888 h -3.088 a 12.903,12.903 0 0 0 -1.24,-5.335 c 0.03,-0.09 0.082,-0.187 0.194,-0.153 0.173,0.05 0.052,-0.375 0.052,-0.375 0,0 -0.24,-0.17 -0.224,-0.256 0.017,-0.087 -0.243,-0.257 -0.225,-0.326 0.016,-0.07 -0.225,-0.204 -0.21,-0.273 0.02,-0.067 -0.12,-0.255 -0.12,-0.255 l -0.258,-0.238 -0.036,-0.154 -0.206,-0.017 -0.415,-0.495 0.017,-0.135 -0.12,-0.017 v -0.187 l -0.122,-0.068 -0.19,-0.017 -0.38,-0.41 -0.035,-0.187 h -0.19 l 0.028,-0.29 z m -9.387,0 v 0.153 l 0.19,0.017 -0.05,-0.137 z m -14.538,0 2.188,2.13 a 13.695,13.322 0 0 0 -2.51,3.493 12.876,12.876 0 0 0 -1.338,5.53 h -3.09 c 0.03,-2.454 0.62,-4.82 1.705,-6.963 a 16.75,16.294 0 0 1 3.045,-4.19 z m 15.382,0.796 c -0.02,0.002 -0.033,0.01 -0.033,0.022 0,0.05 0.07,0.05 0.104,0.153 0.035,0.102 0.017,0.273 0.173,0.308 0.157,0.034 0.19,0.067 0.21,0.136 0.015,0.068 0.206,0.085 0.206,0.085 l 0.138,0.07 0.415,0.34 v -0.137 c 0,0 -0.02,-0.137 -0.105,-0.137 -0.087,0 -0.24,-0.102 -0.207,-0.17 0.034,-0.068 -0.294,-0.136 -0.294,-0.136 0,0 -0.293,-0.273 -0.19,-0.24 0.103,0.035 0.05,-0.12 0.05,-0.12 0,0 -0.205,0.036 -0.257,0.018 -0.052,-0.017 -0.036,-0.17 -0.036,-0.17 0,0 -0.115,-0.03 -0.173,-0.022 z m -9.5,0.124 -0.072,0.072 0.103,0.102 0.074,-0.072 z m -14.957,0.703 c -0.044,-0.008 -0.07,0.026 -0.103,0.043 -1.186,1.47 -1.977,3.083 -1.977,5.057 0,2.44 1.443,4.144 1.622,6.436 0.372,-2.39 2.436,-4.09 3.504,-6.194 0.417,-0.82 0.676,-1.746 0.79,-2.65 a 2.877,2.877 0 0 1 -0.722,1.045 c -1.39,1.28 -3.025,2.543 -3.34,4.356 -0.044,0.26 -0.067,0.526 -0.145,0.777 -0.062,0.025 -0.062,-0.042 -0.088,-0.06 l 0.173,-2.248 c 0.168,-2.19 -1.02,-4.63 0.285,-6.562 z m 42.08,0 c 1.306,1.933 0.117,4.37 0.285,6.562 l 0.172,2.25 c -0.025,0.016 -0.025,0.083 -0.087,0.058 -0.077,-0.25 -0.1,-0.518 -0.144,-0.777 -0.315,-1.813 -1.952,-3.075 -3.34,-4.356 a 2.96,2.88 0 0 1 -0.723,-1.044 c 0.115,0.903 0.374,1.828 0.79,2.65 1.07,2.103 3.133,3.802 3.504,6.193 0.18,-2.292 1.623,-3.995 1.623,-6.436 0,-1.974 -0.79,-3.586 -1.977,-5.057 -0.034,-0.017 -0.06,-0.05 -0.104,-0.043 z m -21.248,0.002 v 3.005 a 6.87,6.683 0 0 0 -2.723,0.63 6.938,6.748 0 0 0 -1.812,1.2 l -2.186,-2.127 a 9.978,9.705 0 0 1 2.562,-1.74 10.178,10.178 0 0 1 4.158,-0.968 z m 0.413,0 c 1.25,0.026 2.462,0.273 3.588,0.722 0.31,0.124 0.61,0.262 0.906,0.416 a 0.15,0.15 0 0 0 0.053,0.028 c 0.488,0.257 0.955,0.554 1.396,0.89 v 0.003 c 0.017,0.12 0.155,0.17 0.155,0.17 l 0.078,0.01 c 0.055,0.046 0.11,0.09 0.164,0.137 v 0.145 c 0.12,-0.03 0.307,0.11 0.34,0.224 l -2.147,2.09 a 6.916,6.916 0 0 0 -2.076,-1.314 6.888,6.7 0 0 0 -2.46,-0.514 z m -9.695,0.784 1.982,1.927 a 10.426,10.14 0 0 0 -1.95,2.775 v -0.002 a 10.344,10.062 0 0 0 -0.957,4.044 h -2.798 c 0.03,-1.88 0.473,-3.692 1.285,-5.342 a 12.86,12.86 0 0 1 2.438,-3.402 z m 17.65,1.288 c 0.24,0.138 0.42,0.456 0.39,0.516 -0.034,0.067 0.207,0.05 0.207,0.05 0.036,-0.306 0.33,-0.204 0.346,-0.102 0.018,0.103 0.07,0.325 0.07,0.325 l 0.085,0.152 0.122,0.12 0.19,-0.016 0.052,0.1 0.225,0.035 c 0,0 0.19,0.204 0.206,0.256 0.018,0.05 0.277,0.035 0.347,0.05 0.068,0.02 0.172,0.07 0.19,0.155 0.016,0.086 0.12,0.223 0.12,0.223 0,0 0.207,0.05 0.225,0.12 0.018,0.067 0.104,0.22 0.104,0.22 l 0.17,0.137 0.018,0.153 0.19,0.018 0.052,0.204 0.31,-0.017 0.175,-0.12 c 0.053,-0.027 0.1,-0.057 0.145,-0.088 a 12.494,12.494 0 0 1 1.108,4.962 h -2.796 a 9.99,9.99 0 0 0 -0.134,-1.426 c 0.018,-0.068 0.027,-0.128 0,-0.154 -0.05,-0.05 0.053,-0.29 0.053,-0.29 0,0 0.07,-0.136 0,-0.273 -0.07,-0.136 0.018,-0.29 0.07,-0.36 l -0.14,-0.066 -0.137,-0.017 -0.105,0.017 a 11.714,11.714 0 0 0 -0.102,-0.324 l 0.087,0.016 v -0.103 l -0.126,-0.034 c -0.024,-0.07 -0.05,-0.142 -0.077,-0.212 l -0.022,-0.35 -0.12,-0.085 0.034,-0.137 -0.138,-0.05 0.07,-0.223 -0.122,-0.238 h -0.175 c -0.083,-0.162 -0.17,-0.322 -0.262,-0.48 a 0.55,0.55 0 0 1 0.21,-0.06 l -0.016,-0.176 -0.156,-0.1 -0.052,-0.207 c 0,0 -0.19,0.035 -0.172,0.137 0.004,0.023 -0.01,0.04 -0.03,0.054 a 10.236,9.957 0 0 0 -0.382,-0.554 l 0.014,-0.03 c 0.07,-0.118 0.034,-0.186 -0.086,-0.22 -0.122,-0.035 -0.122,-0.035 -0.156,-0.17 -0.035,-0.138 -0.173,-0.172 -0.173,-0.172 l -0.052,-0.204 -0.13,0.078 a 8.924,8.924 0 0 0 -0.208,-0.228 l 0.063,-0.192 a 0.158,0.158 0 0 1 -0.123,-0.09 z m -11.1,0.408 -0.067,0.078 0.104,0.085 0.065,-0.078 z m -0.397,0.073 0.018,0.19 h 0.26 c 0.104,0 -0.086,-0.12 -0.086,-0.12 0,0 -0.207,0.015 -0.19,-0.07 z m 11.49,0.03 -0.1,0.012 0.015,0.153 0.104,-0.01 z m -15.373,0.408 2.186,2.127 a 6.93,6.74 0 0 0 -1.138,1.58 c -0.077,-0.002 -0.15,0.013 -0.17,0.07 -0.053,0.135 -0.277,0.102 -0.277,0.102 l -0.034,0.067 -0.173,0.034 -0.034,0.102 -0.21,0.034 0.52,-0.017 c 0.138,-0.017 -0.052,0.29 -0.14,0.273 l -0.24,0.017 -0.087,0.085 h -0.225 l -0.103,0.137 -0.328,-0.017 c 0,0 -0.19,0.153 -0.173,0.205 0.017,0.05 -0.035,0.204 -0.087,0.204 -0.052,0 -0.155,0.154 -0.12,0.205 0.034,0.05 -0.104,0.222 -0.104,0.222 l -0.035,0.17 -0.104,0.035 v 0.46 l -0.207,0.135 v 0.206 l -0.095,0.1 h -1.405 a 9.468,9.468 0 0 1 0.904,-3.854 9.735,9.735 0 0 1 1.88,-2.683 z m 14.4,0.034 c 0.074,0.065 0.067,0.093 0.162,0.16 a 0.203,0.203 0 0 0 0.096,0.04 c 0.057,0.06 0.113,0.12 0.167,0.183 l -0.04,0.05 c 0,0.196 0.096,0.14 0.19,0.124 l 0.083,0.102 c 0.01,0.113 0.01,0.275 0.195,0.252 h 0.005 c 0.222,0.29 0.426,0.592 0.612,0.904 l 0.005,0.017 h 0.006 c 0.03,0.048 0.06,0.1 0.088,0.15 -0.037,0.034 -0.058,0.07 -0.058,0.07 l -0.277,0.034 v 0.273 l -0.138,0.05 0.017,0.172 0.19,-0.018 c 0,0 0,0.205 0.052,0.12 0.052,-0.086 0.484,0.016 0.45,0.22 -0.015,0.085 0.43,0.308 0.38,0.58 a 0.237,0.237 0 0 1 0.087,0.03 c 0.084,0.235 0.158,0.47 0.222,0.712 l -0.032,0.06 c 0,0 0.027,0.02 0.063,0.054 0.054,0.21 0.1,0.423 0.14,0.636 -0.014,0.187 -0.057,0.365 -0.152,0.42 -0.206,0.12 0.018,0.05 0.018,0.05 l -0.034,0.376 c 0.052,0.17 0.137,0.085 0.19,0 a 0.425,0.425 0 0 1 0.086,-0.1 c 0.027,0.258 0.043,0.517 0.05,0.778 h -2.09 l 0.035,-0.046 0.087,-0.24 0.294,-0.084 0.034,-0.22 -0.155,-0.02 c 0,0 0.173,-0.306 0.26,-0.306 0.085,0 0.656,0 0.707,-0.035 0.052,-0.033 0.156,-0.306 0.156,-0.358 0,-0.052 0.138,-0.07 0.19,-0.085 0.052,-0.018 0.173,-0.154 0.207,-0.223 0.035,-0.07 -0.085,-0.495 -0.155,-0.427 -0.068,0.07 -0.224,0.103 -0.224,0.103 l -0.052,0.188 -0.087,0.067 c 0,0 0.018,0.052 0,0.17 -0.017,0.12 -0.172,0.19 -0.172,0.19 l -0.07,0.084 c 0,0 -0.416,0.022 -0.465,0 -0.156,-0.07 -0.052,-0.273 0.05,-0.256 0.104,0.02 -0.016,-0.29 -0.016,-0.29 l 0.138,-0.016 c 0,0 0.017,-0.307 0.07,-0.307 0.05,0 -0.018,-0.102 -0.088,-0.153 -0.07,-0.052 -0.156,-0.222 -0.224,-0.205 -0.07,0.016 -0.346,0 -0.346,0 l -0.052,0.102 -0.19,0.033 c 0,0 0.016,0.133 -0.017,0.17 -0.104,0.12 -0.5,0.376 -0.33,-0.05 l 0.053,-0.103 v -0.153 l -0.31,-0.017 c 0,0 -0.156,-0.052 -0.156,-0.12 0,-0.07 -0.017,-0.153 -0.017,-0.153 l -0.364,-0.393 -0.43,-0.05 -0.034,-0.086 -0.26,-0.033 a 0.625,0.608 0 0 0 -0.112,-0.044 6.782,6.597 0 0 0 -0.395,-0.55 c -0.005,-0.012 -0.01,-0.028 -0.012,-0.038 -0.015,-0.06 -0.206,-0.32 -0.31,-0.332 l -0.116,-0.127 z m 1.7,0.21 c -0.023,0 -0.035,0.018 -0.035,0.052 0,0.068 0.086,0.102 0.052,0.187 -0.035,0.085 0.034,0.154 0.104,0.154 0.07,0 0.12,0.035 0.19,0.07 a 0.49,0.49 0 0 1 0.173,0.153 l 0.173,-0.052 c 0,0 0.018,-0.17 -0.052,-0.118 -0.07,0.05 -0.12,-0.12 -0.19,-0.102 -0.07,0.017 -0.103,-0.068 -0.173,-0.154 -0.068,-0.085 -0.05,-0.102 -0.137,-0.154 -0.043,-0.025 -0.078,-0.038 -0.102,-0.036 z m -9.088,0.172 v 2.725 c -0.367,0.02 -0.72,0.092 -1.05,0.208 h -0.005 l -0.018,-0.188 0.087,-0.05 -0.14,-0.052 -0.102,0.136 -0.035,0.153 -0.173,0.033 v 0.086 h -0.12 v 0.1 a 3.69,3.59 0 0 0 -0.707,0.485 l -1.982,-1.93 a 6.51,6.51 0 0 1 1.71,-1.127 6.472,6.296 0 0 1 2.534,-0.58 z m 0.413,0 c 0.804,0.024 1.584,0.19 2.308,0.486 0.708,0.288 1.362,0.7 1.936,1.224 l -0.113,0.11 c -0.057,-0.056 -0.245,-0.09 -0.245,-0.15 0,-0.068 -0.172,-0.154 -0.155,-0.05 0.017,0.102 -0.12,0.152 -0.155,0.12 -0.035,-0.036 -0.14,0.1 -0.14,0.1 0,0.05 -0.033,0.12 0.07,0.137 0.105,0.018 0.294,-0.067 0.312,0.035 0.006,0.034 0.01,0.064 0.02,0.092 l -0.686,0.665 c -0.09,0.004 -0.18,-0.008 -0.18,-0.008 -0.052,0.154 -0.295,-0.016 -0.226,-0.12 0.07,-0.1 0.07,-0.17 0.07,-0.17 l -0.087,-0.016 -0.104,0.187 c -0.24,0 -0.31,0.136 -0.257,0.22 0.05,0.087 -0.07,-0.015 -0.104,0.104 -0.036,0.12 0.016,0.12 0.12,0.17 0.103,0.052 -0.053,0.052 0.017,0.137 0.044,0.054 0.143,0.04 0.18,0.052 l -0.132,0.13 c -0.12,0.034 -0.256,0.006 -0.256,0.006 a 0.098,0.098 0 0 1 -0.052,0.076 3.668,3.568 0 0 0 -0.91,-0.537 c 0.053,-0.038 0.14,-0.037 0.184,-0.152 0.07,-0.188 0.104,-0.495 0.104,-0.495 0,0 -0.277,-0.017 -0.295,0.068 -0.015,0.086 -0.188,0.138 -0.188,0.138 0,0 -0.138,0.05 -0.086,0.12 0.052,0.068 -0.104,0.1 -0.104,0.1 0,0 0.01,0.047 0.005,0.09 a 3.743,3.743 0 0 0 -0.852,-0.142 z m 9.193,0.578 -0.207,0.017 c 0.053,0.068 0.157,0.12 0.157,0.188 0,0.068 -0.036,0.12 0.068,0.137 0.104,0.016 0.173,-0.017 0.208,0.068 a 0.56,0.56 0 0 1 0.017,0.29 c -0.017,0.067 0.017,0.17 0.104,0.17 0.086,0 0.104,0.017 0.104,0.068 0,0.052 0.103,-0.188 0.103,-0.188 a 0.706,0.706 0 0 1 -0.154,-0.22 c 0,0 -0.087,-0.24 -0.087,-0.274 0,-0.035 -0.122,-0.07 -0.173,-0.085 -0.052,-0.018 -0.14,-0.172 -0.14,-0.172 z m -1.647,0.068 -0.172,0.017 0.01,0.1 0.172,-0.015 z m 0.11,0.12 v 0.085 h 0.104 v -0.084 z m -0.14,0.17 c 0,0 -0.102,0.138 -0.31,0.07 0,0 -0.034,0.323 -0.137,0.39 h -0.242 c 0,0 0.053,0.087 0.104,0.138 0.052,0.05 0.173,0.153 0.052,0.222 -0.12,0.068 0.017,0.05 0.017,0.05 0,0 -0.017,0.36 -0.172,0.308 -0.155,-0.05 -0.207,0.188 -0.207,0.256 0,0.068 0.614,0.094 0.52,0 -0.053,-0.052 0.067,-0.17 0.067,-0.17 0,0 0.416,0.033 0.502,0.033 0.087,0 0.155,-0.017 0.103,-0.102 -0.052,-0.085 -0.207,-0.066 -0.207,-0.066 0,0 -0.208,0.05 -0.398,-0.052 -0.19,-0.102 0.036,-0.137 0.07,-0.137 0.034,0 0.19,-0.12 0.12,-0.205 -0.068,-0.085 0,-0.238 0,-0.17 0,0.068 0.19,0.102 0.226,0.05 0.034,-0.05 0,-0.204 -0.087,-0.255 -0.088,-0.052 0.155,-0.085 0.086,-0.17 a 0.69,0.69 0 0 1 -0.105,-0.188 z m 0.347,0.513 v 0.118 h 0.104 v -0.12 z m 0.233,0.058 -0.052,0.104 0.092,0.045 0.052,-0.102 z m 1.678,0.14 c -0.04,0.01 0.035,0.198 -0.01,0.227 -0.052,0.035 -0.087,0.102 -0.14,0.154 -0.05,0.05 0.105,0.118 0.105,0.17 0,0.05 0.035,0.306 0.035,0.306 0,0 0.12,0.052 0.137,0.12 0.018,0.068 0,0.205 0.052,0.222 0.052,0.017 0.156,0.085 0.122,0.153 -0.036,0.07 -0.036,0.206 -0.036,0.206 l 0.07,0.154 0.138,0.084 c 0,0 0.052,-0.41 -0.036,-0.425 -0.086,-0.018 -0.05,-0.258 -0.05,-0.258 0,0 0.086,-0.324 -0.053,-0.324 -0.138,0 -0.034,-0.17 -0.12,-0.22 -0.087,-0.053 -0.036,-0.29 -0.07,-0.36 -0.034,-0.068 -0.034,-0.153 -0.12,-0.204 -0.012,-0.007 -0.02,-0.008 -0.025,-0.007 z m -4.195,0.327 -0.173,0.018 0.01,0.102 0.174,-0.017 z m -2.62,0.006 a 0.493,0.493 0 0 0 -0.107,0.015 l -0.276,0.034 -0.018,0.118 0.19,0.017 c 0,0 0.086,0.07 0.086,0.12 0,0.05 0.122,0.102 0.19,0.102 0.07,0 0.26,-0.137 0.26,-0.137 0,0 0.087,-0.238 0.017,-0.22 -0.07,0.016 -0.207,0.118 -0.224,0.016 -0.008,-0.05 -0.064,-0.065 -0.118,-0.065 z m -7.907,0.012 1.692,1.646 -0.163,-0.006 c -0.07,0.153 -0.242,-0.018 -0.242,-0.018 -0.034,-0.102 -0.277,0 -0.277,0 0,0.188 -0.328,-0.085 -0.328,-0.085 l -0.605,-0.427 c -0.345,-0.307 -0.864,0.086 -0.88,0.17 0.008,0.13 -0.11,0.133 -0.218,0.11 a 6.502,6.324 0 0 1 1.02,-1.39 z m 6.8,0.043 -0.103,0.022 0.034,0.154 0.102,-0.02 z m 0.566,0.028 -0.38,0.017 0.005,0.102 0.38,-0.018 z m -3.246,0.034 v 0.102 h 0.14 v -0.103 z m 0.89,0.017 -0.014,0.1 0.12,0.018 0.015,-0.102 z m 0.223,0.05 -0.016,0.103 0.122,0.017 0.014,-0.1 z m -1.4,0.036 -0.015,0.1 0.122,0.017 0.014,-0.1 z m 2.844,0.003 -0.052,0.017 0.034,0.096 0.05,-0.016 z m 4.185,0.042 -0.053,0.12 0.096,0.04 0.052,-0.12 z m -1.284,0.023 a 1.767,1.72 0 0 0 0.19,0.04 6.195,6.026 0 0 1 0.238,0.3 l -0.22,-0.033 -0.14,-0.017 -0.26,-0.017 c -0.258,0.17 -0.31,0.376 -0.31,0.376 -0.118,0.22 -0.377,-0.014 -0.37,-0.17 l 0.46,-0.45 a 0.765,0.765 0 0 0 0.083,0.006 c 0.104,0 0.33,-0.034 0.33,-0.034 z m -4.112,0.034 v 0.102 h 0.138 v -0.102 z m -1.75,0.02 -0.025,0.1 0.137,0.034 0.026,-0.1 z m -0.05,0.14 -0.1,0.017 0.017,0.1 0.103,-0.015 z m 2.054,0 -0.103,0.005 0.005,0.12 0.104,-0.005 z m 5.442,0.044 a 1.1,1.1 0 0 0 -0.184,0.017 c -0.087,0.018 -0.07,0.085 0,0.17 l 0.208,-0.033 c 0,0 0.154,-0.07 0.12,-0.12 -0.018,-0.026 -0.078,-0.034 -0.144,-0.034 z m -1.154,0.104 c 0.065,0.088 0.13,0.177 0.19,0.268 a 0.252,0.252 0 0 0 -0.016,0.157 c 0.052,0.256 0.14,0.36 -0.034,0.36 -0.173,0 -0.208,-0.138 -0.208,-0.138 0,0 -0.137,-0.05 -0.137,0.017 0,0.068 -0.05,0.205 0,0.273 0.052,0.068 -0.07,0.17 -0.12,0.12 -0.053,-0.052 -0.19,-0.205 -0.156,-0.256 0.035,-0.05 -0.242,-0.375 0.035,-0.426 0.275,-0.05 -0.02,-0.205 0.085,-0.238 l 0.138,-0.07 h 0.14 z m -28.84,0.065 c -0.276,0.567 -0.388,1.206 -0.534,1.823 -0.308,1.597 0,3.29 0.446,4.758 0.558,1.835 2.406,3.15 3.342,4.83 l 0.128,0.1 c -0.136,-0.913 -0.206,-1.896 0.06,-2.767 0.404,-1.395 0.91,-2.75 1.178,-4.196 0.207,-1.122 0.445,-2.382 0.31,-3.47 -0.156,0.586 -0.315,1.166 -0.646,1.664 -1.257,1.894 -2.548,4.115 -1.668,6.52 -0.02,0.025 -0.05,0.058 -0.082,0.04 -0.354,-0.794 -0.433,-1.698 -0.662,-2.55 -0.61,-2.257 -2.394,-4.142 -1.87,-6.753 z m 47.147,0 c 0.523,2.61 -1.26,4.496 -1.872,6.754 -0.228,0.85 -0.306,1.754 -0.66,2.55 -0.033,0.016 -0.062,-0.017 -0.083,-0.043 0.882,-2.404 -0.41,-4.625 -1.667,-6.52 -0.33,-0.497 -0.49,-1.077 -0.645,-1.663 -0.136,1.088 0.102,2.348 0.31,3.47 0.265,1.446 0.774,2.8 1.178,4.195 0.265,0.87 0.195,1.853 0.06,2.766 l 0.127,-0.1 c 0.936,-1.68 2.784,-2.995 3.342,-4.83 0.446,-1.467 0.754,-3.16 0.446,-4.758 -0.147,-0.617 -0.258,-1.256 -0.535,-1.823 z m -23.608,0.44 0.033,0.41 -0.19,-0.063 h -0.12 l -0.053,-0.102 -0.104,-0.018 v 0.375 l 0.105,0.085 0.086,0.085 0.174,0.018 0.035,0.205 0.43,0.017 0.053,0.085 0.26,0.017 0.5,0.494 -0.035,0.153 -0.086,0.05 c 0.034,0.12 -0.225,0.052 -0.225,0.052 v 0.1 l 0.12,0.02 0.123,0.067 0.172,-0.29 c 0.19,-0.12 0.277,0.05 0.293,0.154 0.018,0.103 -0.086,0.086 -0.086,0.086 v 0.238 l 0.103,0.035 c 0.173,0.203 -0.07,0.323 -0.07,0.323 l -0.052,0.17 c -0.05,0.154 -0.24,0.12 -0.24,0.12 l -0.068,0.103 -0.208,0.05 0.41,0.052 c 0.04,-0.137 0.143,-0.17 0.194,-0.102 0.052,0.067 0.052,0.187 0.052,0.187 l 0.104,0.017 -0.017,0.187 0.104,0.034 v 0.547 l 0.12,0.137 c 0.208,-0.085 0.208,0.05 0.105,0.12 -0.104,0.068 -0.035,0.374 -0.035,0.374 l -0.086,0.086 v 0.137 l -0.104,0.068 v 0.188 c -0.173,-0.085 -0.38,-0.05 -0.433,0 -0.154,-0.103 -0.483,-0.068 -0.483,0.018 0.104,0.136 -0.12,0.17 -0.12,0.17 l -0.122,0.136 c 0.087,0.17 -0.085,0.188 -0.085,0.188 v 0.325 l -0.208,0.187 0.01,0.3 a 3.32,3.32 0 0 1 -2.496,-0.782 0.087,0.087 0 0 0 0.032,-0.03 c 0.086,-0.136 0.224,-0.154 0.224,-0.154 l 0.052,-0.12 0.467,0.018 c 0.033,-0.188 0.258,-0.12 0.258,-0.034 0,0.086 0.172,0.017 0.172,0.017 l 0.12,-0.187 h 0.19 l 0.02,-0.205 0.085,-0.05 v -0.308 c 0.276,-0.085 0.242,-0.342 0.242,-0.342 l 0.07,-0.085 -0.036,-0.12 c -0.137,-0.05 -0.068,-0.17 0.02,-0.136 0.085,0.035 -0.122,-0.153 -0.122,-0.153 -0.103,0.085 -0.19,-0.103 -0.19,-0.103 h -0.26 v -0.24 l -0.034,-0.22 -0.26,-0.12 -0.19,0.17 -0.034,0.24 v 0.152 l -0.173,0.034 -0.034,0.46 -0.138,0.05 0.017,0.172 -0.19,0.05 -0.19,0.052 -0.034,0.222 -0.14,0.086 -0.068,0.204 -0.084,0.483 a 3.282,3.193 0 0 1 -0.592,-0.83 1.19,1.19 0 0 0 0.037,-0.233 c -0.154,-0.07 -0.068,-0.308 0.104,-0.102 0.173,0.204 -0.103,-0.41 -0.103,-0.41 l -0.138,-0.12 -0.178,-0.015 a 3.402,3.31 0 0 1 -0.04,-0.502 c 0,-0.07 0.002,-0.14 0.007,-0.21 0.05,-0.048 0.11,-0.023 0.11,-0.023 l 0.102,0.086 0.156,0.12 0.018,0.102 -0.104,0.05 -0.018,0.138 0.052,0.187 h 0.138 c 0.052,-0.273 0.415,-0.273 0.52,-0.102 l 0.103,-0.24 c -0.242,-0.118 -0.004,-0.306 0.065,-0.22 0.068,0.085 0.228,-0.223 0.228,-0.223 0,0 0.122,0.154 0,-0.05 -0.12,-0.205 0.086,-0.308 0.086,-0.308 -0.034,-0.205 0.225,-0.17 0.225,-0.17 l 0.02,-0.273 -0.244,-0.018 c -0.05,0.24 -0.258,0.035 -0.154,-0.017 0.104,-0.05 0.206,-0.154 0.206,-0.154 v -0.17 l 0.104,-0.035 0.017,-0.17 h 0.26 l 0.223,-0.102 0.052,-0.085 0.243,-0.017 0.345,-0.307 -0.035,-0.138 c -0.206,0 0,-0.153 0,-0.153 l 0.035,-0.256 h -0.19 l -0.034,-0.362 c 0.234,-0.055 0.477,-0.083 0.725,-0.086 z m 10.523,0.99 -0.018,0.137 0.103,0.013 0.018,-0.136 z m -0.064,0.46 -0.052,0.103 0.092,0.045 0.052,-0.102 z m -17.932,0.678 c 0.163,-0.01 0.284,0.077 0.284,0.077 l 0.242,-0.016 c 0.06,0.038 0.1,0.084 0.125,0.13 -0.02,0.16 -0.036,0.32 -0.046,0.48 -0.025,0.044 -0.045,0.07 -0.045,0.07 -0.02,0.032 -0.03,0.08 -0.037,0.136 h -0.657 l 0.003,-0.015 -0.19,-0.017 c -0.207,-0.12 -0.103,-0.563 -0.103,-0.563 0.144,-0.21 0.297,-0.275 0.425,-0.282 z m 6.003,0.316 -0.034,0.085 h -0.086 l -0.017,0.136 h 0.104 l 0.018,0.103 -0.07,0.068 -0.034,0.087 -0.138,0.034 -0.312,0.29 -0.016,0.137 -0.087,0.12 -0.103,0.256 -0.362,0.016 -0.07,0.307 0.052,0.255 0.31,0.12 0.036,-0.17 0.103,-0.052 0.018,-0.17 0.068,-0.12 0.105,-0.12 0.034,-0.136 0.174,-0.102 0.207,-0.034 0.088,-0.102 0.035,-0.205 0.012,-0.152 0.074,-0.103 0.206,-0.085 v -0.324 h -0.103 l -0.018,-0.12 z m 10.842,0.103 -0.017,0.1 0.19,0.034 0.02,-0.1 z m -0.432,0.147 -0.05,0.03 -0.13,0.07 -0.112,-0.07 -0.054,0.087 0.137,0.085 0.026,0.016 0.026,-0.014 0.103,-0.058 0.013,0.03 0.096,-0.036 -0.034,-0.086 z m -1.33,0.71 h 2.423 a 9.928,9.657 0 0 1 -0.854,3.733 10.032,9.758 0 0 1 -1.915,2.782 c -0.034,-0.343 -0.114,-0.72 -0.114,-0.72 l -0.138,-0.068 0.034,-0.41 h -0.19 l -0.31,0.393 -0.035,0.108 -0.177,-0.173 0.09,-0.09 -0.017,-0.204 0.12,-0.1 v -0.17 l 0.105,-0.035 0.017,-0.376 0.086,-0.018 v -0.82 l -0.258,-0.237 c -0.017,0.085 -0.294,0.085 -0.294,0.085 0,0 -0.068,0.12 -0.12,0.12 -0.052,0 0.07,0.153 0.034,0.255 -0.034,0.102 -0.173,0.102 -0.173,0.102 l -0.26,0.07 -0.07,0.083 h -0.275 l -0.023,-0.148 0.082,-0.1 0.217,-0.06 0.174,-0.084 0.086,-0.17 c 0.018,-0.17 0.225,-0.153 0.225,-0.153 0,0 0.397,-0.325 0.414,-0.478 0.017,-0.153 0.155,-0.58 0.397,-0.58 h 0.45 c 0.172,-0.07 0.12,-0.29 0.12,-0.29 l 0.224,-0.035 0.037,0.12 c 0,0 0.31,0.034 0.345,-0.016 0.035,-0.052 0.104,-0.17 0.19,-0.12 0.086,0.05 0.363,-0.12 0.363,-0.12 0.017,-0.12 0.45,-0.068 0.45,-0.068 l 0.05,-0.153 c 0,0 -0.292,-0.393 -0.344,-0.393 -0.05,0 -0.328,-0.238 -0.362,-0.153 -0.277,-0.07 -0.26,-0.445 -0.26,-0.445 l -0.103,-0.24 c 0,-0.135 -0.26,-0.426 -0.312,-0.39 -0.108,-0.08 -0.135,-0.163 -0.13,-0.236 z m 2.836,0 h 2.798 a 12.475,12.475 0 0 1 -1.24,5.234 13.247,12.886 0 0 1 -2.487,3.505 l -0.075,-0.076 -0.024,-0.43 -0.086,-0.085 -0.017,-0.428 c 0.07,-0.223 -0.328,-0.546 -0.363,-0.477 -0.034,0.067 -0.26,0.016 -0.26,0.085 0,0.067 -0.137,0.41 -0.068,0.528 0.004,0.006 0.005,0.013 0.008,0.02 l -1.086,-1.06 a 10.112,10.112 0 0 0 2.004,-2.89 10.374,10.09 0 0 0 0.9,-3.93 z m 3.21,0 h 3.09 a 15.795,15.795 0 0 1 -1.665,6.87 16.792,16.334 0 0 1 -3.09,4.276 l -2.178,-2.12 a 13.254,13.254 0 0 0 2.562,-3.595 h -0.002 a 12.887,12.887 0 0 0 1.283,-5.43 z m -23.623,0 h 1.212 l 0.01,0.097 -0.258,0.273 0.034,0.273 -0.155,0.05 -0.034,0.12 -0.068,0.36 0.172,0.016 c 0.086,-0.035 0.07,0.22 0,0.255 -0.07,0.033 -0.26,0.102 -0.156,0.17 0.104,0.07 -0.276,0.05 -0.276,-0.05 0,-0.103 -0.207,-0.19 -0.26,-0.154 -0.03,0.02 -0.07,-0.034 -0.1,-0.083 a 9.496,9.496 0 0 1 -0.12,-1.326 z m 1.785,0 h 0.087 c 0.043,0.01 0.077,0.03 0.077,0.03 l 0.242,0.016 0.023,-0.045 h 0.822 l 0.07,0.438 -0.226,0.187 c -0.19,0.103 -0.19,0.342 0.017,0.393 0.138,0.017 0.086,0.34 -0.12,0.12 -0.312,0 0.172,0.272 0.033,0.204 0.312,0.154 0.242,-0.137 0.242,-0.137 l 0.156,-0.122 a 6.956,6.766 0 0 0 0.275,0.982 6.656,6.656 0 0 0 1.48,2.348 l -2.183,2.125 a 9.905,9.635 0 0 1 -0.41,-0.442 c 0.027,-0.106 0.095,-0.216 0.095,-0.216 0.225,-0.137 -0.052,-0.358 -0.052,-0.358 0.035,-0.205 -0.12,-0.444 -0.12,-0.444 -0.31,-0.205 -0.226,-0.598 -0.226,-0.598 v -0.273 c -0.26,-0.238 0.104,-0.273 0.104,-0.273 0.122,-0.204 -0.085,-0.358 -0.085,-0.358 l -0.018,-0.22 -0.276,-0.035 -0.034,-0.8 -0.62,-0.87 c -0.123,-0.035 -0.037,-0.24 -0.037,-0.24 0.155,-0.085 -0.035,-0.29 -0.035,-0.29 l -0.018,-0.375 0.363,-0.034 0.087,-0.135 h 0.173 l -0.018,-0.444 c 0.033,-0.08 0.08,-0.117 0.13,-0.13 z m 4.322,0 h 0.197 c 0.007,0.12 0.02,0.24 0.04,0.356 l -0.108,0.03 -0.035,-0.067 -0.052,0.186 h -0.31 l -0.018,-0.204 0.19,-0.052 0.07,-0.102 z m 5.12,0.234 c -0.028,-0.004 -0.06,0.017 -0.086,0.085 v 0.22 c 0,0 0.242,0.375 0.33,0.427 0.085,0.05 0.224,-0.062 0.137,-0.12 -0.26,-0.17 -0.24,-0.392 -0.31,-0.545 -0.015,-0.034 -0.04,-0.063 -0.07,-0.068 z m -9.035,0.152 0.016,0.12 h 0.087 c 0.137,0.24 0.016,0.82 0.016,0.82 0,0 -0.208,0.016 -0.243,-0.086 -0.034,-0.102 -0.12,0.22 -0.05,0.273 0.068,0.05 0.31,0 0.327,0.188 0.017,0.188 0.155,-0.12 0.155,-0.12 v -1.16 z m 8.31,0.343 -0.312,0.22 c 0.156,0.018 0.173,0.172 0.19,0.24 0.038,0.148 0.035,-0.24 0.103,-0.222 0.07,0.016 0.02,-0.24 0.02,-0.24 z m -6.912,0.138 c 0.146,0.05 0.312,0.28 0.312,0.32 0,0.052 0.69,0.017 0.69,0.017 0.19,0.12 0.26,0.427 0.26,0.427 0.19,-0.24 0.587,-0.017 0.293,0.12 0.276,0.17 0.276,0.323 0.276,0.323 0.224,-0.068 0.225,0.103 0.225,0.154 0,0.05 0.068,-0.257 0.068,-0.257 -0.258,-0.188 0.346,-0.256 0.173,0.085 l -0.104,0.153 0.174,0.138 0.016,0.392 c 0.38,-0.033 0.277,-0.494 0.277,-0.494 l 0.17,-0.035 c 0,-0.152 0.123,-0.066 0.123,-0.066 -0.084,-0.404 0.08,-0.574 0.19,-0.64 0.137,0.248 0.306,0.483 0.504,0.698 l -1.98,1.927 a 6.288,6.288 0 0 1 -1.373,-2.163 6.546,6.368 0 0 1 -0.296,-1.1 z m 15.65,0.397 c -0.14,-0.01 -0.324,0.094 -0.272,0.163 0.104,0.136 0.277,0.068 0.345,0.085 0.07,0.017 0.14,0.05 0.07,-0.153 -0.02,-0.065 -0.077,-0.09 -0.14,-0.095 z m -16.428,0.24 a 0.074,0.072 0 0 0 -0.074,0.073 c 0,0.04 0.034,0.072 0.074,0.07 a 0.074,0.072 0 0 0 0.073,-0.07 0.074,0.072 0 0 0 -0.073,-0.073 z m -0.19,0.23 -0.26,0.17 -0.172,-0.102 v 0.41 l 0.277,0.357 0.103,-0.24 0.035,-0.152 -0.12,-0.05 0.015,-0.257 0.105,-0.016 z m 6.393,0.426 -0.155,0.018 0.017,0.24 0.103,0.084 0.19,0.05 c 0,0 0.26,-0.068 0.277,-0.272 l -0.397,-0.017 z m 2.178,0.13 c 0.146,0 0.116,0.342 0.107,0.456 -0.103,0.043 -0.207,0.08 -0.315,0.114 v -0.375 l 0.173,-0.188 a 0.125,0.125 0 0 1 0.036,-0.006 z m -3.66,0.197 c 0.604,0.526 1.354,0.84 2.157,0.904 v 0.007 c 0,0 -0.064,0.154 0.013,0.18 0.01,0.003 0.012,0.006 0.02,0.008 0.05,0.02 0.036,0.034 0.07,0.068 l -0.038,0.09 -0.008,-0.007 c -0.06,-0.06 -0.095,0.073 -0.057,0.11 0.04,0.038 -0.09,0.013 -0.09,0.064 0,0.05 -0.04,0.076 0,0.102 0.038,0.025 -0.014,0.04 -0.066,0.077 -0.05,0.037 0.222,0.05 0.222,0.05 0,0 -0.052,-0.103 0.012,-0.103 h 0.03 v 0.17 c -0.025,-0.005 -0.047,-0.008 -0.073,-0.016 v 0.12 l -0.137,0.018 0.12,0.135 0.09,0.01 v 0.28 l -0.003,0.018 c 0,0.222 -0.57,0.068 -0.62,0.018 l -0.02,0.307 -0.103,0.016 0.018,0.207 -0.018,0.29 0.19,-0.035 v 0.12 l 0.467,0.017 0.09,-0.094 v 0.315 l -0.004,0.017 -0.312,0.035 -0.137,0.07 -0.05,-0.105 h -0.14 l -0.084,0.117 a 6.565,6.386 0 0 1 -1.197,-0.282 6.502,6.502 0 0 1 -2.32,-1.366 z m -16.47,0.166 c 0.233,1.487 -0.373,2.8 -0.513,4.212 a 6.19,6.19 0 0 0 0.557,3.266 c 0.137,0.29 0.387,0.552 0.456,0.847 -0.448,-0.393 -0.765,-0.894 -1.073,-1.38 -1.444,-2.274 -4.473,-3.753 -4.68,-6.52 -0.103,1.23 0.006,2.536 0.428,3.63 0.587,1.517 1.713,2.684 3.012,3.68 1.343,1.028 2.945,1.832 4.168,2.737 -0.24,-0.592 -0.632,-1.14 -0.79,-1.764 -0.72,-2.826 -0.32,-6.093 -1.564,-8.707 z m 37.88,0 c -1.246,2.614 -0.844,5.88 -1.564,8.707 -0.16,0.625 -0.55,1.172 -0.79,1.764 1.222,-0.905 2.824,-1.71 4.167,-2.738 1.3,-0.995 2.425,-2.162 3.01,-3.68 0.423,-1.093 0.533,-2.4 0.43,-3.63 -0.207,2.768 -3.236,4.247 -4.68,6.52 -0.308,0.487 -0.625,0.988 -1.073,1.38 0.07,-0.294 0.32,-0.556 0.456,-0.845 a 6.2,6.2 0 0 0 0.557,-3.265 c -0.14,-1.413 -0.746,-2.725 -0.514,-4.212 z m -15.06,0.06 c 0.045,0 0.077,0.02 0.057,0.08 -0.052,0.153 0,0.22 0,0.22 0.225,-0.204 0.415,0.017 0.398,0.07 -0.018,0.05 0.12,0.1 0.206,0.05 0.09,-0.05 0.192,0.153 0.157,0.255 -0.034,0.103 -0.345,0.086 -0.362,-0.016 -0.018,-0.103 -0.07,-0.07 -0.104,-0.017 -0.03,0.043 -0.145,0.074 -0.232,0.05 l -0.074,-0.07 c 0.007,-0.02 0.024,-0.038 -0.004,-0.066 -0.025,-0.025 -0.055,-0.026 -0.09,-0.026 l -0.157,-0.153 c 0.002,-0.104 0.033,-0.238 0.022,-0.28 -0.01,-0.043 0.107,-0.1 0.184,-0.098 z m -11.242,0.062 -0.12,0.017 -0.02,0.136 0.14,0.018 z m 21.596,0.148 a 0.473,0.473 0 0 0 -0.205,0.074 l 0.056,0.085 c 0.067,-0.043 0.152,-0.064 0.172,-0.055 -0.002,0 -0.004,-0.004 -0.005,-0.006 l 0.103,-0.015 a 0.095,0.093 0 0 0 -0.057,-0.072 0.142,0.14 0 0 0 -0.066,-0.01 z m -21.548,0.172 a 0.0725,0.0725 0 0 0 0,0.145 0.0725,0.0725 0 0 0 0,-0.145 z m 8.616,0.082 a 0.298,0.298 0 0 0 0.026,0.092 l 0.087,0.033 -0.156,0.12 -0.14,0.153 -0.172,-0.05 -0.207,-0.017 -0.068,-0.12 -0.12,-0.018 -0.02,0.24 -0.085,0.1 -0.207,0.206 c 0.217,0 0.072,0.114 -0.034,0.164 v -0.683 c 0.223,-0.013 0.443,-0.044 0.657,-0.094 l 0.033,0.032 h 0.156 l 0.01,-0.083 c 0.08,-0.023 0.16,-0.05 0.24,-0.078 z m -8.496,0.276 a 0.074,0.072 0 0 0 -0.074,0.073 c 0,0.04 0.033,0.073 0.074,0.073 a 0.074,0.072 0 0 0 0.073,-0.074 0.074,0.072 0 0 0 -0.074,-0.073 z m 6.532,0.054 c -0.087,-0.004 -0.16,0.26 -0.195,0.326 0,0 0.04,0.14 0.116,0.13 0.077,-0.014 0.13,-0.053 0.193,-0.066 0.065,-0.012 0.092,-0.115 0.117,-0.217 0.026,-0.103 -0.026,-0.154 -0.026,-0.154 0,0 -0.065,0.103 -0.168,0 a 0.066,0.066 0 0 0 -0.038,-0.02 z m -6.856,0.138 -0.147,0.016 v 0.122 l 0.147,-0.018 z m 10.4,0 h 0.122 l 0.018,0.085 0.528,0.05 0.025,0.002 c 0.207,0.12 0.103,0.273 0.034,0.306 -0.07,0.034 -0.19,0.034 -0.19,0.034 l -0.036,0.07 -0.45,0.033 -0.034,0.17 c -0.224,-0.034 -0.31,0.205 -0.26,0.324 0.053,0.118 0,0.22 0,0.22 l 0.19,0.086 0.243,-0.067 c 0.035,-0.172 0.19,-0.207 0.328,-0.31 0.14,-0.1 0.365,0.188 0.295,0.325 a 1.203,1.203 0 0 0 -0.02,0.042 6.432,6.257 0 0 1 -0.83,0.472 6.417,6.242 0 0 1 -1.447,0.488 l -0.02,-0.013 -0.19,-0.052 -0.015,-0.255 c -0.035,-0.17 -0.363,-0.17 -0.347,-0.05 0.018,0.118 -0.616,0.05 -0.62,0.05 v -0.47 l 0.172,-0.18 0.397,-0.084 c 0.035,-0.17 0.207,0.035 0.207,0.035 0.173,-0.02 0.208,0.1 0.208,0.1 l 0.225,0.035 c 0.19,0.052 0.075,0.07 0.086,0.137 0.018,0.102 0.105,0.067 0.105,0.067 l 0.034,-0.222 0.103,0.017 -0.104,-0.12 -0.19,-0.085 -0.21,-0.085 c -0.137,-0.188 0.036,-0.154 0.175,-0.137 h 0.224 c 0,0 0.26,0.34 0.26,0.427 0,0.085 0.12,0.102 0.12,0.102 l 0.155,-0.017 0.052,0.12 h 0.155 l 0.052,0.1 h 0.31 l 0.02,-0.15 -0.295,-0.053 -0.02,-0.17 -0.206,-0.052 c -0.07,-0.29 0.052,-0.374 0.138,-0.238 l 0.103,0.016 -0.034,-0.255 0.122,-0.035 -0.035,-0.358 -0.103,-0.034 v -0.118 l 0.432,0.017 c -0.035,-0.223 0.017,-0.325 0.017,-0.325 z m 12.506,0.78 -0.093,0.044 a 0.19,0.19 0 0 1 0.017,0.07 c 0.002,0.03 0.005,0.064 0.035,0.085 0.018,0.014 0.042,0.018 0.07,0.013 l -0.02,-0.1 c 0.01,0.002 0.02,0.01 0.02,0.016 0,-0.003 0,-0.015 -0.002,-0.024 a 0.268,0.268 0 0 0 -0.027,-0.106 z m -0.1,0.188 -0.1,0.025 c 0.025,0.104 0.064,0.206 0.066,0.21 l 0.097,-0.036 c 0,0 -0.038,-0.1 -0.062,-0.2 z m -8.11,0.1 v 0.323 h 0.12 v -0.324 z m -3.734,0.083 -0.14,0.085 0.057,0.088 0.14,-0.086 z m 11.263,0.234 c -0.008,0.08 0.01,0.18 0.093,0.197 l 0.02,-0.1 h 0.002 c -0.008,-0.008 -0.016,-0.048 -0.012,-0.087 z m -0.058,0.19 c -0.032,0.003 -0.074,0.036 -0.11,0.058 -0.105,0.064 -0.066,0.32 0,0.256 0.063,-0.064 0.14,0 0.155,-0.192 0.006,-0.096 -0.015,-0.124 -0.046,-0.12 z m -10.743,0.133 0.41,0.203 c 0.052,0.068 0.276,0.05 0.276,0.05 l 0.07,0.087 c 0,0 0.138,-0.018 0.224,0.085 0.087,0.102 0.536,0.017 0.536,0.017 l 0.12,0.102 0.19,0.07 0.32,0.01 0.2,0.193 c -0.313,0.138 -0.946,0.09 -0.986,0.05 -0.052,-0.05 -0.414,-0.204 -0.414,-0.204 0,0 -0.276,-0.22 -0.328,-0.154 -0.052,0.07 -0.294,-0.084 -0.294,-0.033 0,0.05 -0.224,-0.12 -0.224,-0.12 l -0.345,-0.12 0.26,-0.05 -0.042,-0.168 c 0.01,-0.006 0.02,-0.012 0.03,-0.02 z m -18.77,1.004 v 0.17 h 0.14 v 0.222 h 0.103 l -0.017,-0.256 -0.14,-0.05 v -0.087 z m 25.242,0.086 -0.015,0.154 0.17,0.01 0.012,-0.14 z m -0.14,0.36 -0.034,0.098 c 0.01,0.004 0.02,0.01 0.032,0.017 l 0.022,0.09 a 0.54,0.54 0 0 1 -0.023,0.028 l 0.076,0.07 c 0.055,-0.06 0.076,-0.118 0.062,-0.175 -0.023,-0.087 -0.124,-0.122 -0.135,-0.126 z m -3.022,0.304 0.76,0.74 c -0.035,0.126 -0.154,0.198 -0.222,0.148 -0.07,-0.052 0.087,0.085 0.12,0.154 0.036,0.066 0.14,0.066 0.174,0 0.023,-0.048 0.023,-0.13 0.032,-0.202 l 0.35,0.342 c -0.045,0.088 -0.09,0.177 -0.07,0.234 l 0.155,0.067 0.017,0.292 c 0.116,0.115 0.377,0.11 0.586,0.076 l 0.07,0.07 a 13.232,12.872 0 0 1 -2.092,1.605 v -0.164 c 0.312,-0.223 0.33,-0.616 0.036,-0.65 -0.224,-0.025 -0.12,-0.256 0.086,-0.29 l 0.12,-0.05 v -0.155 l 0.398,-0.357 v -0.273 l -0.863,-0.7 c -0.177,-0.063 -0.188,-0.272 -0.126,-0.477 0.158,-0.132 0.315,-0.268 0.468,-0.41 z m -21.216,0.035 0.122,0.307 0.07,0.153 0.137,0.187 0.19,0.17 0.07,-0.12 -0.12,-0.255 -0.122,-0.086 -0.087,-0.24 z m -3.378,0.25 c 1.05,2.04 0.596,4.67 1.958,6.595 0.425,0.6 1.02,1.177 1.57,1.662 l -0.025,0.024 c -0.498,-0.225 -0.947,-0.563 -1.4,-0.93 -2.383,-1.926 -5.966,-2.172 -7.392,-5.312 0.387,2.305 2.27,4.347 4.3,5.64 1.932,1.232 4.408,1.095 6.553,1.784 -1.982,-1.556 -2.283,-3.892 -3.167,-5.938 -0.548,-1.272 -1.443,-2.417 -2.396,-3.527 z m 34.752,0 c -0.954,1.11 -1.848,2.254 -2.398,3.526 -0.883,2.046 -1.184,4.382 -3.166,5.938 2.146,-0.69 4.62,-0.552 6.553,-1.783 2.03,-1.294 3.912,-3.336 4.3,-5.64 -1.426,3.14 -5.01,3.385 -7.39,5.312 -0.455,0.366 -0.904,0.704 -1.402,0.93 l -0.026,-0.026 c 0.55,-0.486 1.145,-1.062 1.57,-1.663 1.363,-1.925 0.91,-4.555 1.96,-6.596 z m -27.105,0.737 c 0.154,0.002 0.357,0.17 0.38,0.24 a 0.34,0.34 0 0 0 0.117,0.127 l -0.256,0.25 c -0.16,-0.163 -0.315,-0.328 -0.467,-0.496 h 0.072 c 0.027,-0.09 0.086,-0.123 0.156,-0.12 z m 10.144,0.94 a 0.8,0.8 0 0 1 0.09,0 0.583,0.583 0 0 1 0.288,0.085 c 0.19,0.136 0.45,0.05 0.45,0.05 l 0.19,0.227 c -0.402,0.056 -0.81,0.09 -1.226,0.1 v -0.405 a 0.415,0.415 0 0 1 0.208,-0.057 z m 9.073,0.245 2.18,2.12 a 16.792,16.792 0 0 1 -4.144,2.878 16.988,16.988 0 0 1 -7.317,1.746 v -3.006 a 13.604,13.233 0 0 0 3.67,-0.543 l 0.303,0.09 0.085,0.273 0.138,-0.017 0.104,-0.085 0.415,-0.016 0.208,-0.188 0.224,-0.033 1.63,-1.348 a 13.61,13.61 0 0 0 2.503,-1.87 z m -7.85,0.495 0.037,0.08 0.294,0.084 0.207,0.05 0.07,0.29 0.154,0.017 0.05,0.19 c 0.19,0.136 -0.05,0.426 -0.05,0.426 v 0.375 l 0.137,0.07 -0.017,0.137 0.225,0.22 0.26,0.018 0.428,0.446 a 13.11,12.753 0 0 1 -3.227,0.443 v -2.72 c 0.483,-0.01 0.96,-0.05 1.43,-0.123 z m -4.177,0.278 -0.104,0.085 -0.05,0.042 0.053,0.04 0.12,0.084 0.06,-0.083 -0.067,-0.048 0.053,-0.043 z m 1.23,1.22 -0.045,0.093 0.108,0.054 -0.036,0.035 0.074,0.072 0.087,-0.086 0.05,-0.05 -0.063,-0.032 z m -8.75,0.866 0.14,0.205 0.017,0.153 0.173,0.05 0.07,0.102 0.12,-0.067 -0.086,-0.223 -0.225,-0.187 z m -3.89,0.19 c 1.297,1.697 1.666,4.162 4.035,5.03 0.42,0.154 0.9,0.18 1.263,0.403 -0.457,0.068 -0.856,-0.07 -1.28,-0.157 -3.053,-0.632 -6.78,0.182 -9.068,-2.35 0.868,1.655 2.655,2.96 4.372,3.51 2.66,0.856 5.433,-0.097 7.933,-0.7 0.36,-0.087 0.798,-0.06 1.132,-0.178 -1.392,-0.275 -2.734,-0.686 -3.812,-1.644 -1.547,-1.377 -2.918,-2.843 -4.574,-3.913 z m 27.898,0 c -1.655,1.07 -3.026,2.537 -4.574,3.914 -1.077,0.958 -2.42,1.37 -3.812,1.644 0.335,0.12 0.772,0.09 1.133,0.178 2.5,0.603 5.272,1.556 7.933,0.7 1.717,-0.55 3.504,-1.855 4.372,-3.51 -2.287,2.532 -6.015,1.718 -9.068,2.35 -0.424,0.088 -0.823,0.225 -1.28,0.157 0.363,-0.224 0.844,-0.25 1.263,-0.403 2.37,-0.868 2.738,-3.333 4.033,-5.03 z m -16.462,5.493 c -2.343,0 -4.436,1.1 -6.492,1.93 -1.86,0.75 -4.326,0.603 -5.973,-0.502 0.816,0.995 1.907,1.607 3.033,2.023 2.092,0.812 4.535,0.19 6.315,-0.918 1.283,-0.798 2.383,-1.928 3.91,-1.928 0.27,0 0.54,0.03 0.814,0.086 0.3,-0.117 0.6,-0.222 0.908,-0.312 a 8.924,8.924 0 0 0 -2.514,-0.38 z m 2.514,0.38 c 0.307,0.09 0.61,0.194 0.91,0.31 0.27,-0.055 0.542,-0.085 0.812,-0.085 1.527,0 2.627,1.13 3.91,1.928 1.78,1.107 4.223,1.73 6.315,0.918 1.126,-0.416 2.216,-1.028 3.03,-2.023 -1.645,1.105 -4.113,1.253 -5.972,0.502 -2.055,-0.83 -4.148,-1.93 -6.49,-1.93 -0.853,0 -1.695,0.14 -2.515,0.38 z m 0.91,0.31 a 5.33,5.33 0 0 0 -0.91,0.277 c 1.918,0.762 3.842,2.61 5.538,4.315 0.342,-0.27 0.705,-0.56 0.985,-0.872 -1.52,-1.413 -3.47,-2.884 -5.614,-3.72 z m -0.91,0.277 a 5.33,5.33 0 0 0 -0.908,-0.276 c -2.145,0.836 -4.094,2.307 -5.614,3.72 0.28,0.312 0.642,0.603 0.983,0.87 1.698,-1.705 3.622,-3.552 5.54,-4.314 z"
     id="path877"
     inkscape:connector-curvature="0"
     style="fill:#ffffff" />
  <path
     d="m -142.34467,-208.7319 c 0.063,-0.07 0.773,-0.323 0.908,-0.312 0.157,-0.004 0.91,0.274 0.91,0.312 -0.016,0.064 -0.813,0.29 -0.91,0.276 -0.052,0.003 -0.904,-0.242 -0.908,-0.276 z"
     id="path879"
     inkscape:connector-curvature="0"
     style="fill:#ffffff" />
  <g
     id="g887"
     transform="translate(-14.816666,-10.6299)">
    <path
       d="M 14.816666,10.6299 H 120.65 V 76.775732 H 14.816666 Z"
       id="path881"
       inkscape:connector-curvature="0"
       style="fill:#418fde;fill-rule:evenodd;stroke-width:0.75644577" />
    <path
       d="m 67.733,22.58 c -2.99,0 -5.817,0.713 -8.323,1.972 a 18.73,18.73 0 0 0 -8.367,8.424 18.498,18.498 0 0 0 -1.914,8.207 c 0,1.802 0.257,3.562 0.748,5.244 l 0.44,-0.11 a 18.218,18.218 0 0 1 -0.735,-4.91 h 3.354 c 0.02,1.406 0.237,2.78 0.634,4.09 l 0.437,-0.11 c -0.39,-1.275 -0.6,-2.61 -0.622,-3.98 h 3.038 c 0.01,0.448 0.045,0.89 0.105,1.326 -0.21,0.027 -0.41,0.096 -0.41,0.096 l -0.095,0.304 c -0.205,0.038 -0.337,0.38 -0.337,0.38 -0.168,0.058 -0.3,0.268 -0.244,0.324 0.056,0.058 -0.094,0.077 -0.094,0.077 v 0.42 l -0.093,0.132 0.018,0.457 c 0.113,0 0.094,0.21 0.094,0.21 -0.187,0.018 -0.15,0.267 -0.15,0.267 l -0.394,0.134 -0.075,0.114 -0.488,-0.02 -0.13,0.134 h -0.002 c -0.042,-0.124 -0.08,-0.25 -0.12,-0.374 l -0.435,0.11 c 0.013,0.044 0.028,0.087 0.042,0.13 h -0.556 l -0.038,-0.094 -0.188,-0.04 -0.02,-0.21 -0.28,0.02 -0.056,0.115 -0.3,0.018 c 0.017,0.19 -0.3,0.476 -0.338,0.4 -0.04,-0.076 -0.245,-0.286 -0.15,-0.323 0.093,-0.04 0.337,-0.077 0.337,-0.077 v -0.133 l -0.694,-0.02 -0.076,0.116 -0.28,0.02 v 0.303 l -0.132,0.04 c -0.095,0.056 0.018,0.265 0.018,0.265 0.13,0.133 -0.018,0.343 -0.018,0.343 -0.113,0.115 0.093,0.325 0.093,0.325 0.15,0.038 -0.093,0.153 -0.093,0.153 0.037,0.19 0.15,0.247 0.15,0.247 -0.113,0.19 0.075,0.286 0.075,0.286 l 0.02,0.325 0.13,0.075 v 0.21 l 0.074,0.133 h 0.3 l -0.017,-0.476 c -0.263,-0.305 0.224,-0.38 0.244,-0.266 0.02,0.115 0.226,0.172 0.226,0.172 0.038,0.286 0.356,0.456 0.45,0.172 0.094,-0.287 0.17,-0.115 0.225,0.018 0.058,0.133 0.413,0.457 0.413,0.457 h 0.283 l 0.037,0.267 c 0.32,-0.02 0.413,0.02 0.544,0.456 a 0.83,0.83 0 0 0 0.488,0.553 l 0.263,-0.02 c 0,-0.23 0.263,0.04 0.263,0.153 0,0.113 0.508,0.55 0.508,0.55 l 0.505,0.115 0.094,0.076 c 0.312,0.394 0.642,0.774 0.997,1.14 l -2.373,2.37 a 18.06,18.06 0 0 1 -4.422,-7.543 l -0.44,0.11 a 18.497,18.497 0 0 0 4.702,7.912 18.637,18.637 0 0 0 5.13,3.64 l 0.224,-0.397 a 18.14,18.14 0 0 1 -4.876,-3.406 l 2.372,-2.372 a 14.775,14.775 0 0 0 4.16,2.846 l 0.22,-0.392 A 14.35,14.35 0 0 1 57.75,51.49 l 0.442,-0.44 a 0.454,0.454 0 0 1 0.048,0.16 c 0.038,0.286 0.168,0.23 0.168,0.23 l 1.07,-0.02 0.377,-0.323 0.957,-0.02 c 0.488,-0.02 0.187,-0.686 0.094,-0.686 -0.056,-0.044 -0.067,-0.133 -0.06,-0.232 0.764,0.587 1.59,1.07 2.465,1.442 l 0.22,-0.39 a 10.83,10.83 0 0 1 -2.8,-1.72 l -0.508,-0.474 2.364,-2.364 a 7.466,7.466 0 0 0 3.408,1.842 c -0.048,0.04 -0.074,0.08 -0.062,0.106 0.037,0.095 -0.15,0.19 -0.15,0.19 l -0.17,0.057 -0.113,0.172 -0.225,0.074 -0.04,0.4 -0.11,0.077 v 0.172 l -0.133,0.04 v 0.093 l -0.187,0.02 0.113,0.285 0.15,0.077 c 0.263,0.037 0.15,0.36 0.15,0.36 l 0.15,0.02 0.076,0.21 0.15,0.304 c 0.055,0.23 0.225,0.173 0.3,0.153 0.075,-0.018 0.15,0.23 0.15,0.23 l 0.75,0.02 c 0,0 -0.037,0.074 0.094,0.113 0.072,0.02 0.367,0.042 0.623,0.046 v 0.335 a 10.82,10.82 0 0 1 -3.978,-0.837 l -0.222,0.392 c 1.316,0.558 2.735,0.865 4.2,0.894 v 3.037 a 14.29,14.29 0 0 1 -5.7,-1.273 l -0.22,0.393 a 14.732,14.732 0 0 0 5.92,1.33 v 3.354 a 18.098,18.098 0 0 1 -7.575,-1.75 l -0.222,0.393 a 18.53,18.53 0 0 0 8.023,1.81 c 2.96,0 5.814,-0.693 8.383,-1.992 a 18.657,18.657 0 0 0 4.77,-3.457 18.616,18.616 0 0 0 3.593,-5.04 L 84.48,49.299 a 18.52,18.52 0 0 0 1.857,-8.114 c 0,-2.432 -0.466,-4.79 -1.35,-6.978 a 18.57,18.57 0 0 0 -4.1,-6.177 18.545,18.545 0 0 0 -6.203,-4.11 v 0.003 a 18.57,18.57 0 0 0 -6.95,-1.34 z m -0.223,0.453 v 3.355 c -2.273,0.034 -4.42,0.586 -6.336,1.536 a 14.852,14.852 0 0 0 -3.74,2.644 l -2.377,-2.377 a 18.184,18.184 0 0 1 4.557,-3.246 18.06,18.06 0 0 1 7.896,-1.91 z m 0.447,0 c 2.285,0.028 4.502,0.478 6.562,1.308 2.17,0.873 4.168,2.17 5.888,3.848 l -2.01,2.01 c -0.068,0.018 -0.14,0.026 -0.194,0.003 -0.13,-0.055 0.056,-0.19 0.056,-0.19 V 29.86 l -0.113,-0.114 c 0,0 -0.318,0.038 -0.337,-0.018 a 6.465,6.465 0 0 1 -0.075,-0.305 l -0.02,-0.323 -0.13,-0.057 -0.02,-0.114 -0.206,0.02 v -0.23 l -0.114,-0.038 -0.11,-0.057 -0.02,-0.228 -0.413,-0.02 -0.132,-0.19 -0.15,-0.228 -0.467,-0.038 -0.113,-0.114 -0.188,-0.038 -0.132,-0.058 -0.056,0.096 -0.357,0.02 -0.018,0.113 c -0.113,0.057 -0.414,0.054 -0.652,0.052 a 14.71,14.71 0 0 0 -1.145,-0.52 l -0.164,0.415 c 0.312,0.128 0.62,0.266 0.924,0.415 -0.02,0.066 -0.05,0.114 -0.09,0.114 -0.095,0 -0.058,0.25 -0.058,0.25 0,0 0.245,0 0.32,0.018 0.075,0.018 0.075,0.21 0.075,0.21 0.282,-0.02 0.395,0.362 0.358,0.456 -0.038,0.095 0.112,0.095 0.112,0.095 0,0 0,0.304 -0.038,0.38 -0.037,0.076 0.244,0.134 0.32,0.248 0.074,0.114 -0.038,0.496 -0.095,0.515 -0.055,0.02 0.15,0.075 0.132,0.17 -0.02,0.096 0.056,0 0.074,0.154 0.02,0.15 0.056,0.475 0.056,0.475 l 0.263,0.02 c 0.037,-0.248 0.522,-0.258 0.6,-0.23 0.32,0.115 0.564,0.61 0.564,0.725 0,0.114 -0.208,0.133 -0.208,0.133 l 0.008,0.123 -0.658,0.658 c -0.068,-0.04 -0.135,-0.06 -0.175,-0.037 -0.093,0.056 -0.056,-0.4 -0.056,-0.4 0,0 0.168,-0.115 0.243,-0.057 0.075,0.056 -0.638,-0.953 -0.788,-0.857 -0.15,0.094 -0.488,-0.097 -0.47,-0.27 0.02,-0.17 -0.675,-0.742 -0.675,-0.742 0,0 -0.225,-0.15 -0.262,-0.037 -0.038,0.115 -0.113,0.192 0,0.248 0.112,0.058 0.093,-0.094 0.225,0.04 0.13,0.132 0.376,0.304 0.28,0.418 -0.093,0.114 -0.206,0.152 -0.206,0.152 l 0.132,0.152 h 0.206 l 0.037,0.324 c 0,0 0.225,0.114 0.28,0.248 0.038,0.087 0.05,0.15 0.037,0.203 a 11.197,11.197 0 0 0 -1.31,-0.867 0.238,0.238 0 0 0 0,-0.098 c -0.04,-0.134 0.15,-0.19 0.242,-0.04 l 0.188,-0.017 0.037,-0.17 -0.262,-0.21 h -0.206 c 0,0 -0.02,0.15 -0.152,0.095 -0.132,-0.058 -0.056,-0.04 -0.17,-0.058 -0.1,-0.017 -0.08,0.193 -0.06,0.29 a 11.265,11.265 0 0 0 -0.888,-0.41 11.284,11.284 0 0 0 -4.062,-0.835 v -1.673 c 0.122,0.002 0.175,-0.044 0.19,-0.095 0.017,-0.077 0.036,-0.096 0.15,-0.115 0.11,-0.018 -0.02,-0.247 -0.133,-0.228 a 0.23,0.23 0 0 1 -0.207,-0.063 v -0.864 c 1.8,0.028 3.547,0.387 5.17,1.045 l 0.165,-0.415 A 14.768,14.768 0 0 0 67.95,26.395 Z m 3.144,0.798 -0.176,0.114 -0.12,-0.076 -0.06,0.097 0.15,0.095 0.03,0.02 0.03,-0.02 0.207,-0.133 z m 0.86,0.46 -0.15,0.12 -0.096,-0.096 -0.08,0.08 0.132,0.134 0.036,0.037 0.038,-0.032 0.19,-0.154 z m -18.097,0.094 c -1.868,0.728 -3.87,1.47 -5.08,3.387 -0.71,1.12 -0.813,2.448 -1.372,3.605 1.035,-0.972 2.237,-1.69 3.113,-2.847 1.054,-1.392 1.968,-2.94 3.34,-4.144 z m 27.746,0 c 1.37,1.203 2.285,2.752 3.338,4.144 0.876,1.158 2.078,1.875 3.112,2.847 C 87.5,30.219 87.4,28.892 86.69,27.772 85.478,25.857 83.475,25.114 81.61,24.386 Z M 70.664,24.62 c -0.095,-0.01 -0.217,0.03 -0.228,0.078 -0.02,0.075 -0.13,0.095 -0.13,0.095 l -0.432,0.038 c -0.04,0.115 -0.263,0.19 -0.283,0.115 -0.04,-0.167 -0.28,0.21 -0.036,0.286 0.244,0.077 0.488,0 0.488,0 l 0.056,-0.113 0.938,0.02 c 0.076,-0.078 0.113,-0.192 0.113,-0.192 0,0 0.224,-0.077 0.318,-0.038 0.093,0.038 0.02,-0.267 -0.075,-0.228 -0.094,0.036 -0.28,0.018 -0.28,0.018 h -0.34 c -0.006,-0.05 -0.053,-0.074 -0.11,-0.08 z m -1.674,0.383 -0.244,0.094 -0.262,0.172 -0.282,0.037 -0.15,0.172 0.6,0.055 0.113,0.19 0.433,0.04 0.28,0.285 c 0.244,0.076 0.3,-0.038 0.15,-0.17 l -0.244,-0.25 v -0.21 l -0.075,-0.075 -0.076,-0.267 z m -1.48,1.833 v 3.038 a 11.222,11.222 0 0 0 -4.72,1.138 11.355,11.355 0 0 0 -2.89,2.02 L 57.747,30.88 a 14.338,14.338 0 0 1 3.63,-2.565 h 0.002 a 14.26,14.26 0 0 1 6.13,-1.48 z m -18.682,0.088 c -0.952,0.244 -1.75,0.86 -2.465,1.65 -1.49,1.654 -1.362,4.095 -1.163,6.273 0.062,0.67 0.028,1.245 -0.048,1.933 0.452,-0.925 1.19,-1.808 2.06,-2.465 1.94,-1.465 4.066,-3.36 4.095,-5.852 -0.642,1.792 -2.597,2.535 -3.896,3.76 a 6.09,6.09 0 0 0 -1.52,2.24 l -0.048,-0.038 c 0.16,-0.716 0.466,-1.368 0.673,-2.06 0.565,-1.9 0.465,-4.17 2.313,-5.44 z m 37.815,0 c 1.848,1.27 1.748,3.54 2.313,5.44 0.207,0.693 0.51,1.345 0.673,2.06 l -0.048,0.04 a 6.09,6.09 0 0 0 -1.522,-2.24 c -1.3,-1.226 -3.253,-1.97 -3.896,-3.76 0.03,2.49 2.153,4.386 4.094,5.85 0.87,0.658 1.61,1.54 2.06,2.466 -0.075,-0.688 -0.108,-1.262 -0.048,-1.933 0.2,-2.178 0.33,-4.62 -1.162,-6.273 -0.714,-0.79 -1.513,-1.406 -2.465,-1.65 z m -10.188,0.378 c -0.152,-0.002 -0.375,0.102 -0.352,0.215 0.02,0.096 0.094,0.19 0.244,0.23 l 0.282,0.094 c 0,0 0.35,0.415 0.337,0.21 -0.038,-0.572 -0.3,-0.59 -0.394,-0.705 -0.024,-0.028 -0.067,-0.042 -0.118,-0.043 z m -5.884,0.23 -0.074,0.17 0.102,0.047 0.076,-0.172 z m 0.35,0.187 c -0.013,-0.014 -0.114,0.14 -0.19,0.175 0.092,0.047 0.213,0.116 0.213,0.116 0.15,0 0.244,0.116 0.244,0.173 0,0.057 0.205,0.038 0.205,0.038 l 0.02,-0.132 -0.15,-0.19 -0.132,-0.096 c 0,0 -0.206,-0.02 -0.206,-0.076 0,-0.004 0,-0.006 -0.003,-0.007 z m -0.816,0.12 -0.01,0.114 0.16,0.016 0.116,0.186 0.094,-0.06 -0.13,-0.21 -0.016,-0.024 -0.027,-0.002 z m -4.338,0.477 c -0.103,0.003 -0.197,0.023 -0.19,0.056 0.02,0.095 0.168,0.21 0.168,0.21 0,0 0.282,0.02 0.3,0.076 0.02,0.057 0.208,0.075 0.226,0.018 0.02,-0.057 0.094,-0.17 -0.074,-0.17 -0.17,0 -0.132,-0.096 -0.19,-0.154 -0.027,-0.028 -0.138,-0.04 -0.24,-0.037 z m 14.96,0.19 a 18.078,18.078 0 0 1 5.158,12.452 L 82.532,40.956 A 14.756,14.756 0 0 0 81.183,35 c 0.032,-0.1 0.09,-0.208 0.21,-0.17 0.188,0.057 0.057,-0.42 0.057,-0.42 0,0 -0.26,-0.19 -0.243,-0.285 0.02,-0.096 -0.263,-0.285 -0.244,-0.362 0.018,-0.077 -0.244,-0.228 -0.226,-0.305 0.02,-0.076 -0.13,-0.286 -0.13,-0.286 l -0.282,-0.266 -0.038,-0.172 -0.225,-0.02 -0.45,-0.55 0.018,-0.153 -0.13,-0.018 v -0.21 l -0.132,-0.076 -0.207,-0.02 -0.412,-0.456 -0.037,-0.21 h -0.206 l 0.03,-0.322 z m -10.196,0 v 0.17 l 0.206,0.02 -0.055,-0.153 z m -15.79,0 2.377,2.377 a 14.874,14.874 0 0 0 -2.725,3.902 14.704,14.704 0 0 0 -1.454,6.173 h -3.355 a 18.05,18.05 0 0 1 1.85,-7.774 18.192,18.192 0 0 1 3.308,-4.678 z m 16.706,0.89 c -0.02,0.002 -0.035,0.01 -0.035,0.023 0,0.058 0.077,0.058 0.114,0.172 0.037,0.114 0.018,0.304 0.188,0.343 0.17,0.038 0.206,0.075 0.225,0.152 0.018,0.076 0.225,0.095 0.225,0.095 l 0.15,0.077 0.45,0.38 v -0.153 c 0,0 -0.02,-0.153 -0.112,-0.153 -0.094,0 -0.262,-0.114 -0.225,-0.19 0.037,-0.076 -0.32,-0.152 -0.32,-0.152 0,0 -0.318,-0.304 -0.206,-0.267 0.112,0.038 0.055,-0.133 0.055,-0.133 0,0 -0.224,0.038 -0.28,0.02 -0.057,-0.02 -0.04,-0.192 -0.04,-0.192 0,0 -0.126,-0.032 -0.19,-0.024 z m -10.316,0.137 -0.08,0.08 0.113,0.115 0.08,-0.08 z m -16.245,0.786 c -0.048,-0.01 -0.075,0.028 -0.112,0.047 -1.288,1.643 -2.147,3.442 -2.147,5.647 0,2.725 1.567,4.626 1.762,7.185 0.403,-2.67 2.645,-4.567 3.805,-6.916 0.453,-0.917 0.734,-1.95 0.86,-2.958 -0.17,0.43 -0.43,0.83 -0.786,1.166 -1.508,1.43 -3.285,2.84 -3.627,4.863 -0.05,0.29 -0.074,0.587 -0.158,0.867 -0.066,0.03 -0.066,-0.046 -0.094,-0.065 l 0.187,-2.51 c 0.183,-2.447 -1.108,-5.17 0.31,-7.327 z m 45.7,0 c 1.42,2.157 0.128,4.88 0.31,7.326 l 0.187,2.51 c -0.027,0.02 -0.027,0.095 -0.094,0.066 -0.083,-0.28 -0.108,-0.578 -0.156,-0.867 -0.343,-2.024 -2.12,-3.433 -3.628,-4.863 A 3.215,3.215 0 0 1 86.42,33.325 c 0.124,1.008 0.405,2.04 0.858,2.958 1.16,2.35 3.4,4.245 3.804,6.915 0.197,-2.56 1.763,-4.46 1.763,-7.186 0,-2.205 -0.86,-4.004 -2.147,-5.647 -0.037,-0.02 -0.064,-0.056 -0.113,-0.047 z m -23.075,0.002 v 3.355 a 7.462,7.462 0 0 0 -2.958,0.704 7.535,7.535 0 0 0 -1.966,1.34 l -2.374,-2.375 a 10.836,10.836 0 0 1 2.782,-1.942 10.806,10.806 0 0 1 4.516,-1.08 z m 0.448,0 c 1.358,0.028 2.674,0.305 3.897,0.806 0.336,0.138 0.664,0.292 0.984,0.464 a 0.162,0.162 0 0 0 0.058,0.032 c 0.53,0.287 1.036,0.618 1.516,0.993 v 0.004 c 0.02,0.134 0.17,0.19 0.17,0.19 l 0.084,0.012 0.178,0.15 v 0.163 c 0.13,-0.034 0.333,0.122 0.37,0.25 l -2.333,2.333 a 7.487,7.487 0 0 0 -2.254,-1.466 7.48,7.48 0 0 0 -2.672,-0.574 z m -10.53,0.875 2.154,2.152 a 11.323,11.323 0 0 0 -2.117,3.096 11.235,11.235 0 0 0 -1.04,4.513 h -3.04 c 0.033,-2.1 0.514,-4.122 1.395,-5.964 a 14.357,14.357 0 0 1 2.65,-3.8 z m 19.17,1.438 c 0.26,0.154 0.457,0.51 0.424,0.576 -0.037,0.076 0.224,0.058 0.224,0.058 0.04,-0.343 0.357,-0.23 0.376,-0.115 0.02,0.115 0.075,0.363 0.075,0.363 l 0.094,0.17 0.133,0.134 0.206,-0.02 0.056,0.115 0.244,0.04 c 0,0 0.206,0.227 0.224,0.284 0.02,0.056 0.3,0.038 0.376,0.056 0.075,0.02 0.188,0.076 0.206,0.17 0.02,0.097 0.132,0.25 0.132,0.25 0,0 0.224,0.056 0.244,0.133 0.02,0.074 0.112,0.246 0.112,0.246 l 0.188,0.152 0.018,0.172 0.206,0.02 0.057,0.227 0.337,-0.02 0.19,-0.132 a 1.4,1.4 0 0 0 0.157,-0.098 14.288,14.288 0 0 1 1.203,5.54 h -3.036 a 11.46,11.46 0 0 0 -0.146,-1.593 c 0.02,-0.076 0.03,-0.144 0,-0.172 -0.055,-0.058 0.058,-0.324 0.058,-0.324 0,0 0.074,-0.153 0,-0.305 -0.076,-0.153 0.018,-0.324 0.074,-0.4 l -0.15,-0.076 -0.15,-0.02 -0.114,0.02 c -0.035,-0.12 -0.072,-0.242 -0.11,-0.362 l 0.093,0.018 v -0.114 l -0.138,-0.04 C 78.436,37.509 78.407,37.43 78.379,37.352 l -0.025,-0.393 -0.13,-0.095 0.036,-0.152 -0.15,-0.058 0.077,-0.247 -0.132,-0.266 h -0.19 c -0.09,-0.18 -0.185,-0.36 -0.284,-0.535 a 0.582,0.582 0 0 1 0.23,-0.067 l -0.017,-0.2 -0.17,-0.113 -0.056,-0.23 c 0,0 -0.207,0.04 -0.187,0.154 0.004,0.026 -0.01,0.044 -0.034,0.06 a 11.117,11.117 0 0 0 -0.413,-0.618 l 0.014,-0.033 c 0.076,-0.133 0.038,-0.21 -0.093,-0.247 -0.132,-0.038 -0.132,-0.038 -0.17,-0.19 -0.037,-0.153 -0.187,-0.192 -0.187,-0.192 l -0.057,-0.228 -0.14,0.088 A 9.87,9.87 0 0 0 76.075,33.535 L 76.142,33.32 A 0.173,0.173 0 0 1 76.01,33.218 Z m -12.056,0.455 -0.072,0.088 0.113,0.095 0.07,-0.088 z m -0.43,0.082 0.02,0.21 h 0.28 c 0.113,0 -0.094,-0.133 -0.094,-0.133 0,0 -0.224,0.017 -0.206,-0.078 z m 12.48,0.034 -0.112,0.013 0.018,0.17 0.113,-0.012 z m -16.698,0.455 2.374,2.376 a 7.526,7.526 0 0 0 -1.236,1.763 c -0.083,-0.003 -0.162,0.014 -0.185,0.078 -0.056,0.15 -0.3,0.114 -0.3,0.114 l -0.04,0.075 -0.186,0.04 -0.036,0.113 -0.226,0.038 0.563,-0.02 c 0.15,-0.018 -0.055,0.325 -0.15,0.306 l -0.26,0.02 -0.096,0.094 h -0.243 l -0.11,0.152 -0.358,-0.02 c 0,0 -0.206,0.172 -0.187,0.23 0.018,0.056 -0.04,0.228 -0.095,0.228 -0.057,0 -0.168,0.172 -0.13,0.23 0.036,0.056 -0.114,0.246 -0.114,0.246 l -0.037,0.19 -0.114,0.04 v 0.513 l -0.225,0.153 v 0.23 l -0.103,0.11 H 56.87 c 0.032,-1.51 0.37,-2.968 0.983,-4.304 a 10.877,10.877 0 0 1 2.04,-2.995 z m 15.64,0.038 c 0.08,0.074 0.072,0.104 0.175,0.18 0.036,0.026 0.07,0.04 0.104,0.043 0.062,0.07 0.122,0.137 0.18,0.206 l -0.04,0.057 c 0,0.22 0.102,0.156 0.203,0.137 0.03,0.038 0.06,0.076 0.092,0.114 0.01,0.127 0.01,0.308 0.21,0.282 h 0.005 c 0.242,0.325 0.463,0.66 0.665,1.01 l 0.006,0.018 h 0.005 l 0.096,0.168 c -0.04,0.04 -0.063,0.08 -0.063,0.08 l -0.3,0.038 v 0.304 l -0.15,0.057 0.018,0.192 0.207,-0.02 c 0,0 0,0.23 0.057,0.134 0.056,-0.095 0.526,0.02 0.487,0.248 -0.013,0.094 0.47,0.342 0.415,0.647 0.04,0.007 0.07,0.02 0.094,0.034 0.09,0.262 0.17,0.526 0.24,0.794 l -0.035,0.068 c 0,0 0.03,0.02 0.07,0.06 0.057,0.235 0.107,0.472 0.15,0.71 -0.015,0.21 -0.06,0.408 -0.165,0.468 -0.224,0.134 0.02,0.057 0.02,0.057 l -0.038,0.42 c 0.057,0.19 0.15,0.096 0.206,0 a 0.47,0.47 0 0 1 0.093,-0.11 c 0.03,0.287 0.05,0.576 0.056,0.867 h -2.27 l 0.04,-0.05 0.093,-0.268 0.318,-0.096 0.037,-0.247 -0.168,-0.02 c 0,0 0.187,-0.343 0.28,-0.343 0.095,0 0.715,0 0.77,-0.038 0.056,-0.037 0.17,-0.342 0.17,-0.4 0,-0.057 0.15,-0.076 0.206,-0.094 0.056,-0.02 0.187,-0.172 0.224,-0.25 0.04,-0.076 -0.092,-0.552 -0.168,-0.475 -0.075,0.077 -0.245,0.114 -0.245,0.114 l -0.056,0.21 -0.095,0.076 c 0,0 0.02,0.058 0,0.19 -0.02,0.134 -0.187,0.21 -0.187,0.21 l -0.076,0.096 c 0,0 -0.45,0.025 -0.505,0 -0.17,-0.077 -0.057,-0.305 0.056,-0.286 0.112,0.02 -0.02,-0.324 -0.02,-0.324 l 0.15,-0.02 c 0,0 0.02,-0.342 0.075,-0.342 0.057,0 -0.018,-0.114 -0.093,-0.17 -0.076,-0.058 -0.17,-0.25 -0.244,-0.23 -0.075,0.02 -0.375,0 -0.375,0 l -0.056,0.116 -0.208,0.037 c 0,0 0.018,0.148 -0.018,0.19 -0.113,0.134 -0.544,0.42 -0.357,-0.057 l 0.057,-0.114 V 38.2 l -0.338,-0.018 c 0,0 -0.17,-0.057 -0.17,-0.134 0,-0.076 -0.017,-0.17 -0.017,-0.17 l -0.396,-0.438 -0.47,-0.058 -0.036,-0.095 -0.28,-0.038 a 0.678,0.678 0 0 0 -0.124,-0.05 7.366,7.366 0 0 0 -0.43,-0.613 l -0.01,-0.043 c -0.018,-0.067 -0.224,-0.357 -0.337,-0.37 l -0.126,-0.142 z m 1.847,0.234 c -0.025,0.002 -0.04,0.022 -0.04,0.06 0,0.077 0.095,0.114 0.058,0.21 a 0.123,0.123 0 0 0 0.113,0.172 c 0.075,0 0.132,0.037 0.207,0.075 0.075,0.038 0.13,0.094 0.188,0.17 l 0.187,-0.057 c 0,0 0.02,-0.19 -0.056,-0.133 -0.075,0.058 -0.13,-0.133 -0.207,-0.114 -0.076,0.02 -0.113,-0.075 -0.188,-0.17 -0.075,-0.096 -0.057,-0.116 -0.15,-0.173 -0.047,-0.028 -0.085,-0.043 -0.11,-0.04 z m -9.87,0.193 v 3.044 c -0.4,0.02 -0.78,0.1 -1.14,0.23 h -0.006 l -0.02,-0.21 0.096,-0.055 -0.152,-0.058 -0.11,0.153 -0.04,0.17 -0.187,0.038 v 0.096 h -0.13 v 0.113 a 4.008,4.008 0 0 0 -0.767,0.54 L 62.9,36.034 a 7.057,7.057 0 0 1 1.858,-1.26 7.03,7.03 0 0 1 2.752,-0.65 z m 0.448,0 a 7.02,7.02 0 0 1 4.61,1.91 l -0.123,0.122 c -0.06,-0.06 -0.265,-0.098 -0.265,-0.166 0,-0.074 -0.187,-0.17 -0.168,-0.055 0.018,0.114 -0.13,0.17 -0.17,0.133 -0.037,-0.038 -0.15,0.114 -0.15,0.114 0,0.056 -0.037,0.133 0.075,0.152 0.114,0.02 0.32,-0.075 0.34,0.04 0.005,0.037 0.01,0.07 0.02,0.102 l -0.744,0.742 c -0.1,0.006 -0.198,-0.008 -0.198,-0.008 -0.055,0.172 -0.318,-0.018 -0.243,-0.133 0.075,-0.114 0.075,-0.19 0.075,-0.19 l -0.093,-0.02 -0.113,0.21 c -0.262,0 -0.337,0.153 -0.28,0.248 0.055,0.096 -0.076,-0.018 -0.113,0.115 -0.038,0.133 0.02,0.133 0.132,0.19 0.11,0.057 -0.06,0.057 0.017,0.152 0.047,0.06 0.156,0.045 0.194,0.058 l -0.14,0.144 c -0.13,0.04 -0.28,0.008 -0.28,0.008 a 0.11,0.11 0 0 1 -0.054,0.084 3.984,3.984 0 0 0 -0.99,-0.6 c 0.058,-0.042 0.154,-0.04 0.2,-0.17 a 3.03,3.03 0 0 0 0.114,-0.553 c 0,0 -0.3,-0.018 -0.32,0.077 -0.018,0.095 -0.205,0.152 -0.205,0.152 0,0 -0.15,0.057 -0.094,0.134 0.057,0.076 -0.112,0.114 -0.112,0.114 0,0 0.01,0.05 0.006,0.1 a 3.965,3.965 0 0 0 -0.926,-0.16 z m 9.984,0.647 -0.225,0.02 c 0.057,0.075 0.17,0.132 0.17,0.21 0,0.075 -0.04,0.132 0.074,0.152 0.114,0.018 0.188,-0.02 0.227,0.075 a 0.643,0.643 0 0 1 0.018,0.323 c -0.018,0.076 0.02,0.19 0.113,0.19 0.093,0 0.113,0.02 0.113,0.077 0,0.057 0.112,-0.21 0.112,-0.21 -0.093,-0.076 -0.168,-0.248 -0.168,-0.248 0,0 -0.093,-0.266 -0.093,-0.304 0,-0.04 -0.132,-0.077 -0.187,-0.095 -0.056,-0.02 -0.15,-0.19 -0.15,-0.19 z m -1.788,0.076 -0.19,0.02 0.012,0.112 0.188,-0.018 z m 0.118,0.134 v 0.095 h 0.113 v -0.095 z m -0.15,0.19 c 0,0 -0.113,0.153 -0.34,0.077 0,0 -0.036,0.36 -0.148,0.436 h -0.263 c 0,0 0.058,0.096 0.113,0.153 0.057,0.056 0.19,0.17 0.057,0.247 -0.13,0.076 0.02,0.057 0.02,0.057 0,0 -0.02,0.4 -0.19,0.343 -0.168,-0.058 -0.224,0.21 -0.224,0.286 0,0.075 0.667,0.105 0.563,0 -0.058,-0.058 0.073,-0.19 0.073,-0.19 0,0 0.452,0.037 0.546,0.037 0.092,0 0.167,-0.02 0.11,-0.114 -0.056,-0.096 -0.224,-0.075 -0.224,-0.075 0,0 -0.226,0.057 -0.433,-0.057 -0.205,-0.114 0.04,-0.153 0.076,-0.153 0.036,0 0.205,-0.133 0.13,-0.23 -0.074,-0.094 0,-0.265 0,-0.19 0,0.077 0.207,0.116 0.245,0.058 0.037,-0.056 0,-0.228 -0.095,-0.286 -0.094,-0.057 0.17,-0.094 0.095,-0.19 -0.076,-0.095 -0.114,-0.21 -0.114,-0.21 z m 0.375,0.572 v 0.133 h 0.113 v -0.133 z m 0.253,0.067 -0.057,0.116 0.1,0.05 0.057,-0.113 z m 1.822,0.155 c -0.042,0.014 0.038,0.223 -0.01,0.255 -0.057,0.04 -0.095,0.114 -0.152,0.172 -0.056,0.058 0.113,0.133 0.113,0.19 0,0.057 0.04,0.343 0.04,0.343 0,0 0.13,0.057 0.148,0.134 0.02,0.075 0.002,0.227 0.057,0.246 0.057,0.02 0.17,0.095 0.132,0.17 -0.04,0.078 -0.04,0.23 -0.04,0.23 l 0.076,0.172 0.15,0.094 c 0,0 0.057,-0.457 -0.038,-0.475 -0.094,-0.02 -0.055,-0.287 -0.055,-0.287 0,0 0.094,-0.36 -0.057,-0.36 -0.15,0 -0.037,-0.192 -0.13,-0.248 -0.094,-0.058 -0.04,-0.324 -0.076,-0.4 -0.037,-0.076 -0.037,-0.17 -0.13,-0.23 -0.014,-0.007 -0.02,-0.008 -0.028,-0.007 z m -4.555,0.367 -0.19,0.02 0.012,0.113 0.188,-0.02 z m -2.847,0.007 a 0.52,0.52 0 0 0 -0.115,0.014 l -0.3,0.038 -0.02,0.133 0.207,0.02 c 0,0 0.093,0.076 0.093,0.133 0,0.057 0.132,0.114 0.207,0.114 0.076,0 0.28,-0.153 0.28,-0.153 0,0 0.096,-0.267 0.02,-0.248 -0.075,0.02 -0.224,0.133 -0.244,0.02 -0.01,-0.058 -0.07,-0.073 -0.128,-0.073 z m -8.587,0.01 1.838,1.838 -0.176,-0.007 c -0.076,0.173 -0.263,-0.018 -0.263,-0.018 -0.036,-0.114 -0.3,0 -0.3,0 0,0.21 -0.356,-0.095 -0.356,-0.095 l -0.657,-0.476 c -0.375,-0.34 -0.938,0.097 -0.957,0.192 0.01,0.144 -0.117,0.148 -0.235,0.122 a 7.06,7.06 0 0 1 1.108,-1.554 z m 7.384,0.05 -0.11,0.024 0.037,0.17 0.11,-0.024 z m 0.616,0.03 -0.412,0.018 0.006,0.114 0.412,-0.02 z m -3.525,0.038 v 0.114 h 0.15 v -0.114 z m 0.967,0.02 -0.016,0.112 0.13,0.02 0.016,-0.115 z m 0.24,0.056 -0.015,0.113 0.132,0.02 0.016,-0.113 z m -1.517,0.04 -0.017,0.112 0.133,0.018 0.016,-0.113 z m 3.088,0.002 -0.056,0.02 0.036,0.107 0.055,-0.018 z m 4.545,0.048 -0.055,0.133 0.104,0.045 0.055,-0.133 z m -1.393,0.024 a 1.92,1.92 0 0 0 0.208,0.047 6.728,6.728 0 0 1 0.257,0.334 l -0.24,-0.038 -0.15,-0.02 -0.28,-0.02 c -0.282,0.192 -0.34,0.42 -0.34,0.42 -0.128,0.246 -0.41,-0.016 -0.4,-0.19 l 0.498,-0.5 c 0.03,0.003 0.06,0.005 0.09,0.005 0.113,0 0.357,-0.04 0.357,-0.04 z m -4.466,0.04 v 0.113 h 0.15 v -0.113 z m -1.9,0.02 -0.026,0.112 0.15,0.038 0.03,-0.11 z m -0.052,0.157 -0.11,0.02 0.02,0.113 0.11,-0.018 z m 2.23,0 -0.112,0.006 0.006,0.135 0.113,-0.006 z m 5.91,0.05 c -0.074,0 -0.153,0.01 -0.2,0.02 -0.094,0.018 -0.075,0.094 0,0.19 l 0.226,-0.04 c 0,0 0.168,-0.075 0.13,-0.132 -0.02,-0.03 -0.084,-0.038 -0.156,-0.038 z m -1.253,0.116 c 0.07,0.1 0.14,0.2 0.205,0.3 a 0.29,0.29 0 0 0 -0.016,0.175 c 0.057,0.286 0.15,0.4 -0.037,0.4 -0.19,0 -0.226,-0.15 -0.226,-0.15 0,0 -0.148,-0.06 -0.148,0.017 0,0.076 -0.056,0.23 0,0.304 0.055,0.077 -0.075,0.19 -0.132,0.134 -0.056,-0.057 -0.207,-0.228 -0.17,-0.285 0.04,-0.057 -0.26,-0.42 0.04,-0.476 0.3,-0.06 -0.02,-0.23 0.093,-0.268 l 0.15,-0.076 h 0.15 z m -31.32,0.073 c -0.302,0.634 -0.424,1.347 -0.582,2.036 -0.335,1.78 0,3.673 0.485,5.31 0.605,2.05 2.612,3.517 3.63,5.394 l 0.138,0.112 c -0.148,-1.02 -0.224,-2.117 0.064,-3.09 0.44,-1.557 0.99,-3.07 1.28,-4.684 0.225,-1.253 0.483,-2.66 0.336,-3.874 -0.17,0.655 -0.34,1.3 -0.7,1.858 -1.366,2.114 -2.768,4.595 -1.812,7.278 -0.022,0.03 -0.053,0.067 -0.09,0.047 -0.383,-0.886 -0.47,-1.895 -0.718,-2.846 -0.662,-2.52 -2.6,-4.626 -2.032,-7.54 z m 51.203,0 c 0.567,2.915 -1.37,5.02 -2.033,7.54 -0.25,0.952 -0.335,1.96 -0.72,2.848 -0.035,0.02 -0.066,-0.017 -0.09,-0.046 0.96,-2.683 -0.444,-5.164 -1.81,-7.278 -0.358,-0.557 -0.532,-1.203 -0.7,-1.858 -0.147,1.215 0.11,2.62 0.336,3.874 0.29,1.615 0.842,3.127 1.28,4.684 0.29,0.973 0.213,2.07 0.065,3.09 l 0.14,-0.112 c 1.016,-1.877 3.022,-3.344 3.63,-5.393 0.483,-1.637 0.818,-3.53 0.483,-5.31 -0.16,-0.69 -0.28,-1.403 -0.58,-2.037 z m -25.64,0.493 0.035,0.457 -0.206,-0.07 h -0.13 l -0.058,-0.115 -0.114,-0.02 v 0.42 l 0.113,0.094 0.093,0.095 0.187,0.02 0.04,0.228 0.467,0.02 0.057,0.094 0.28,0.018 0.545,0.552 -0.038,0.172 -0.094,0.057 c 0.037,0.133 -0.244,0.056 -0.244,0.056 v 0.114 l 0.13,0.02 0.133,0.076 0.188,-0.324 c 0.206,-0.133 0.3,0.057 0.318,0.172 0.02,0.114 -0.094,0.094 -0.094,0.094 v 0.267 l 0.112,0.038 c 0.188,0.228 -0.075,0.363 -0.075,0.363 l -0.057,0.19 c -0.055,0.17 -0.262,0.133 -0.262,0.133 l -0.074,0.114 -0.226,0.056 0.446,0.058 c 0.042,-0.153 0.154,-0.19 0.21,-0.114 0.056,0.075 0.056,0.21 0.056,0.21 l 0.113,0.018 -0.018,0.21 0.113,0.037 v 0.61 l 0.13,0.15 c 0.226,-0.094 0.226,0.06 0.114,0.134 -0.113,0.077 -0.04,0.42 -0.04,0.42 l -0.092,0.095 v 0.15 l -0.113,0.077 v 0.21 c -0.188,-0.096 -0.413,-0.058 -0.47,0 -0.168,-0.115 -0.525,-0.077 -0.525,0.02 0.113,0.152 -0.13,0.19 -0.13,0.19 l -0.133,0.15 c 0.094,0.192 -0.093,0.21 -0.093,0.21 v 0.364 l -0.226,0.21 0.013,0.335 a 3.547,3.547 0 0 1 -2.71,-0.873 0.096,0.096 0 0 0 0.034,-0.034 c 0.093,-0.152 0.244,-0.17 0.244,-0.17 l 0.057,-0.135 0.507,0.02 c 0.037,-0.21 0.28,-0.134 0.28,-0.04 0,0.097 0.188,0.02 0.188,0.02 l 0.13,-0.21 h 0.208 l 0.02,-0.228 0.093,-0.056 v -0.344 c 0.3,-0.095 0.263,-0.382 0.263,-0.382 l 0.074,-0.095 -0.037,-0.134 c -0.15,-0.057 -0.076,-0.19 0.02,-0.152 0.093,0.038 -0.133,-0.172 -0.133,-0.172 -0.112,0.096 -0.205,-0.114 -0.205,-0.114 h -0.283 v -0.266 l -0.037,-0.25 -0.28,-0.132 -0.207,0.19 -0.04,0.267 v 0.172 l -0.186,0.037 -0.037,0.514 -0.15,0.06 0.02,0.19 -0.208,0.056 -0.207,0.057 -0.037,0.248 -0.15,0.096 -0.076,0.23 -0.09,0.538 a 3.565,3.565 0 0 1 -0.643,-0.926 c 0.035,-0.134 0.04,-0.26 0.04,-0.26 -0.17,-0.078 -0.075,-0.345 0.112,-0.115 0.187,0.228 -0.113,-0.458 -0.113,-0.458 L 64.394,41.758 64.2,41.74 a 3.695,3.695 0 0 1 -0.045,-0.56 c 0,-0.08 0.003,-0.157 0.01,-0.235 0.052,-0.055 0.116,-0.027 0.116,-0.027 l 0.113,0.096 0.17,0.133 0.018,0.114 -0.11,0.056 -0.02,0.154 0.056,0.208 h 0.15 c 0.056,-0.304 0.45,-0.304 0.563,-0.114 L 65.333,41.3 c -0.263,-0.133 -0.004,-0.343 0.07,-0.248 0.075,0.096 0.25,-0.248 0.25,-0.248 0,0 0.13,0.17 0,-0.058 -0.132,-0.228 0.092,-0.342 0.092,-0.342 -0.037,-0.23 0.244,-0.19 0.244,-0.19 l 0.02,-0.306 -0.264,-0.02 c -0.055,0.267 -0.28,0.04 -0.168,-0.018 0.113,-0.057 0.225,-0.172 0.225,-0.172 v -0.19 l 0.114,-0.038 0.018,-0.19 h 0.282 l 0.244,-0.115 0.056,-0.094 0.263,-0.02 0.375,-0.342 -0.037,-0.152 c -0.225,0 0,-0.172 0,-0.172 l 0.037,-0.284 h -0.207 l -0.036,-0.404 c 0.254,-0.06 0.52,-0.093 0.787,-0.096 z m 11.428,1.105 -0.02,0.153 0.113,0.015 0.018,-0.153 z m -0.07,0.514 -0.056,0.114 0.1,0.05 0.057,-0.113 z m -19.474,0.757 a 0.517,0.517 0 0 1 0.308,0.087 l 0.263,-0.02 a 0.41,0.41 0 0 1 0.135,0.147 7.66,7.66 0 0 0 -0.05,0.535 c -0.026,0.05 -0.048,0.08 -0.048,0.08 a 0.36,0.36 0 0 0 -0.04,0.15 H 59.44 l 0.003,-0.017 -0.207,-0.02 c -0.226,-0.133 -0.113,-0.627 -0.113,-0.627 0.156,-0.234 0.323,-0.307 0.462,-0.315 z m 6.52,0.353 -0.038,0.096 h -0.094 l -0.02,0.15 h 0.114 l 0.02,0.115 -0.077,0.076 -0.037,0.097 -0.15,0.038 -0.34,0.324 -0.017,0.15 -0.094,0.135 -0.113,0.285 -0.394,0.02 -0.076,0.342 0.056,0.285 0.338,0.134 0.04,-0.19 0.11,-0.057 0.02,-0.19 0.075,-0.134 0.114,-0.134 0.035,-0.152 0.188,-0.114 0.225,-0.04 0.095,-0.113 0.037,-0.228 0.014,-0.172 0.08,-0.115 0.224,-0.095 v -0.362 h -0.11 l -0.02,-0.134 z m 11.774,0.116 -0.02,0.11 0.208,0.04 0.02,-0.114 z m -0.47,0.164 -0.055,0.032 -0.14,0.08 -0.12,-0.078 -0.06,0.096 0.15,0.095 0.03,0.017 0.027,-0.016 0.113,-0.063 0.015,0.035 0.104,-0.042 -0.038,-0.096 z m -1.444,0.79 h 2.632 a 10.782,10.782 0 0 1 -0.928,4.17 10.895,10.895 0 0 1 -2.08,3.106 8.688,8.688 0 0 0 -0.122,-0.804 l -0.15,-0.075 0.037,-0.458 h -0.204 l -0.34,0.44 -0.036,0.12 -0.192,-0.193 0.098,-0.1 -0.02,-0.23 0.133,-0.113 v -0.19 l 0.112,-0.038 0.018,-0.42 0.094,-0.02 v -0.914 l -0.282,-0.266 c -0.02,0.095 -0.32,0.095 -0.32,0.095 0,0 -0.074,0.133 -0.13,0.133 -0.056,0 0.076,0.17 0.037,0.285 -0.038,0.114 -0.188,0.114 -0.188,0.114 l -0.282,0.077 -0.075,0.095 h -0.3 l -0.025,-0.167 0.09,-0.11 0.235,-0.067 0.188,-0.095 0.093,-0.19 c 0.02,-0.19 0.245,-0.17 0.245,-0.17 0,0 0.432,-0.363 0.45,-0.533 0.02,-0.172 0.17,-0.648 0.433,-0.648 h 0.488 c 0.188,-0.078 0.132,-0.325 0.132,-0.325 l 0.243,-0.038 0.04,0.133 c 0,0 0.336,0.038 0.374,-0.018 0.037,-0.058 0.11,-0.19 0.205,-0.135 0.094,0.058 0.394,-0.133 0.394,-0.133 0.018,-0.133 0.487,-0.076 0.487,-0.076 l 0.056,-0.17 c 0,0 -0.318,-0.44 -0.375,-0.44 -0.056,0 -0.356,-0.266 -0.394,-0.17 -0.3,-0.076 -0.282,-0.496 -0.282,-0.496 l -0.112,-0.267 c 0,-0.152 -0.28,-0.476 -0.338,-0.438 -0.118,-0.087 -0.147,-0.18 -0.14,-0.262 z m 3.08,0 h 3.038 a 14.25,14.25 0 0 1 -1.348,5.846 h 0.002 a 14.387,14.387 0 0 1 -2.702,3.914 l -0.082,-0.084 -0.026,-0.48 -0.095,-0.096 -0.02,-0.476 c 0.075,-0.25 -0.356,-0.61 -0.393,-0.533 -0.037,0.076 -0.28,0.018 -0.28,0.095 0,0.075 -0.15,0.457 -0.077,0.59 0.005,0.007 0.006,0.014 0.01,0.02 l -1.18,-1.18 c 0.92,-0.956 1.65,-2.048 2.176,-3.227 a 11.266,11.266 0 0 0 0.977,-4.388 z m 3.487,0 h 3.354 a 18.037,18.037 0 0 1 -1.81,7.67 h 0.002 a 18.237,18.237 0 0 1 -3.356,4.777 l -2.366,-2.365 a 14.8,14.8 0 0 0 2.783,-4.015 14.72,14.72 0 0 0 1.392,-6.065 z m -25.66,0.004 h 1.317 l 0.014,0.107 -0.28,0.305 0.037,0.304 -0.17,0.057 -0.036,0.135 -0.074,0.4 0.187,0.02 c 0.094,-0.04 0.075,0.246 0,0.285 -0.075,0.037 -0.282,0.114 -0.17,0.19 0.114,0.076 -0.3,0.057 -0.3,-0.057 0,-0.114 -0.224,-0.21 -0.28,-0.172 -0.033,0.024 -0.077,-0.037 -0.11,-0.092 -0.075,-0.486 -0.122,-0.98 -0.132,-1.48 z m 1.94,0 h 0.094 c 0.05,0.01 0.085,0.03 0.085,0.03 l 0.262,0.02 0.026,-0.05 h 0.893 l 0.077,0.487 -0.245,0.21 c -0.206,0.114 -0.206,0.38 0.02,0.438 0.15,0.018 0.092,0.38 -0.132,0.134 -0.338,0 0.187,0.303 0.037,0.228 0.34,0.17 0.263,-0.153 0.263,-0.153 l 0.17,-0.136 a 7.555,7.555 0 0 0 0.297,1.096 7.463,7.463 0 0 0 1.61,2.62 l -2.373,2.374 a 10.758,10.758 0 0 1 -0.444,-0.493 c 0.028,-0.12 0.102,-0.242 0.102,-0.242 0.244,-0.15 -0.056,-0.4 -0.056,-0.4 0.037,-0.228 -0.13,-0.494 -0.13,-0.494 -0.34,-0.23 -0.246,-0.667 -0.246,-0.667 v -0.306 c -0.28,-0.267 0.113,-0.305 0.113,-0.305 0.13,-0.23 -0.094,-0.4 -0.094,-0.4 l -0.02,-0.248 -0.3,-0.038 -0.038,-0.895 -0.675,-0.972 c -0.132,-0.04 -0.038,-0.268 -0.038,-0.268 0.168,-0.095 -0.038,-0.323 -0.038,-0.323 l -0.02,-0.418 0.394,-0.04 0.095,-0.152 h 0.19 l -0.02,-0.496 c 0.034,-0.09 0.088,-0.13 0.14,-0.144 z m 4.695,0 h 0.213 c 0.007,0.133 0.02,0.265 0.042,0.396 l -0.117,0.034 -0.038,-0.076 -0.056,0.21 h -0.34 l -0.017,-0.23 0.207,-0.057 0.074,-0.114 z m 5.56,0.26 c -0.03,-0.005 -0.065,0.018 -0.093,0.094 v 0.247 c 0,0 0.263,0.418 0.356,0.476 0.094,0.057 0.245,-0.07 0.15,-0.133 -0.28,-0.19 -0.26,-0.438 -0.337,-0.61 -0.015,-0.037 -0.043,-0.07 -0.075,-0.076 z m -9.813,0.17 0.02,0.133 h 0.093 c 0.15,0.27 0.018,0.915 0.018,0.915 0,0 -0.225,0.02 -0.263,-0.094 -0.037,-0.113 -0.13,0.248 -0.055,0.305 0.074,0.057 0.337,0 0.355,0.21 0.02,0.21 0.17,-0.134 0.17,-0.134 v -1.294 z m 9.025,0.382 -0.337,0.248 c 0.17,0.02 0.187,0.19 0.207,0.266 0.04,0.166 0.037,-0.267 0.11,-0.247 0.077,0.018 0.02,-0.267 0.02,-0.267 z m -7.506,0.155 c 0.16,0.055 0.34,0.314 0.34,0.358 0,0.058 0.75,0.02 0.75,0.02 0.206,0.132 0.282,0.476 0.282,0.476 0.207,-0.27 0.638,-0.02 0.318,0.132 0.3,0.19 0.3,0.36 0.3,0.36 0.244,-0.075 0.246,0.116 0.246,0.173 0,0.057 0.074,-0.286 0.074,-0.286 -0.28,-0.21 0.375,-0.287 0.187,0.094 l -0.112,0.17 0.188,0.154 0.018,0.438 c 0.414,-0.037 0.3,-0.552 0.3,-0.552 l 0.19,-0.04 c 0,-0.17 0.13,-0.074 0.13,-0.074 -0.09,-0.45 0.09,-0.64 0.207,-0.716 0.15,0.28 0.332,0.54 0.548,0.78 l -2.152,2.153 a 7.05,7.05 0 0 1 -1.49,-2.415 7.11,7.11 0 0 1 -0.322,-1.227 z m 17,0.444 c -0.154,-0.01 -0.353,0.104 -0.297,0.18 0.113,0.153 0.3,0.076 0.375,0.095 0.076,0.02 0.15,0.058 0.076,-0.17 -0.024,-0.072 -0.085,-0.102 -0.155,-0.106 z m -17.843,0.266 a 0.08,0.08 0 0 0 -0.08,0.082 c 0,0.044 0.036,0.08 0.08,0.08 a 0.08,0.08 0 0 0 0.08,-0.08 0.08,0.08 0 0 0 -0.08,-0.082 z m -0.207,0.257 -0.282,0.19 -0.187,-0.114 v 0.457 l 0.302,0.4 0.112,-0.268 0.038,-0.172 -0.132,-0.057 0.018,-0.285 0.114,-0.02 z m 6.943,0.476 -0.168,0.018 0.02,0.267 0.11,0.094 0.207,0.057 c 0,0 0.282,-0.077 0.3,-0.305 l -0.43,-0.02 z m 2.366,0.145 c 0.156,0 0.123,0.38 0.114,0.508 -0.11,0.047 -0.224,0.09 -0.342,0.126 v -0.42 l 0.188,-0.21 a 0.132,0.132 0 0 1 0.04,-0.005 z m -3.976,0.22 a 3.98,3.98 0 0 0 2.342,1.008 V 45.2 c 0,0 -0.07,0.17 0.013,0.2 l 0.02,0.01 c 0.054,0.022 0.04,0.037 0.078,0.075 l -0.042,0.1 -0.01,-0.008 c -0.063,-0.068 -0.1,0.082 -0.06,0.123 0.042,0.043 -0.1,0.014 -0.1,0.072 0,0.056 -0.04,0.085 0,0.114 0.043,0.028 -0.013,0.043 -0.07,0.086 -0.056,0.043 0.24,0.056 0.24,0.056 0,0 -0.057,-0.114 0.013,-0.114 h 0.03 v 0.19 c -0.025,-0.006 -0.05,-0.01 -0.077,-0.018 v 0.133 l -0.15,0.018 0.13,0.15 0.098,0.014 v 0.31 l -0.002,0.02 c 0,0.248 -0.62,0.076 -0.676,0.02 l -0.02,0.343 -0.112,0.018 0.02,0.23 -0.02,0.323 0.207,-0.038 v 0.133 l 0.507,0.02 0.097,-0.104 v 0.353 l -0.002,0.017 -0.34,0.038 -0.148,0.077 -0.057,-0.115 h -0.15 l -0.092,0.13 a 7.13,7.13 0 0 1 -1.3,-0.315 v -0.002 a 7.022,7.022 0 0 1 -2.517,-1.524 z m -17.888,0.184 c 0.253,1.658 -0.405,3.123 -0.558,4.702 a 7.082,7.082 0 0 0 0.606,3.646 c 0.15,0.323 0.42,0.615 0.495,0.944 -0.487,-0.438 -0.832,-0.998 -1.167,-1.54 -1.568,-2.54 -4.858,-4.19 -5.08,-7.28 -0.114,1.374 0.004,2.83 0.463,4.052 0.636,1.695 1.86,2.998 3.27,4.108 1.46,1.15 3.2,2.047 4.527,3.057 -0.262,-0.662 -0.686,-1.273 -0.86,-1.97 -0.78,-3.156 -0.344,-6.803 -1.697,-9.72 z m 41.138,0 c -1.35,2.917 -0.916,6.564 -1.697,9.72 -0.172,0.697 -0.597,1.308 -0.86,1.97 1.33,-1.01 3.07,-1.908 4.528,-3.058 1.41,-1.11 2.634,-2.413 3.27,-4.108 0.458,-1.22 0.577,-2.678 0.464,-4.052 -0.224,3.09 -3.514,4.74 -5.082,7.28 -0.335,0.542 -0.68,1.102 -1.166,1.54 0.076,-0.33 0.347,-0.62 0.496,-0.944 0.502,-1.09 0.73,-2.35 0.605,-3.646 -0.154,-1.58 -0.81,-3.044 -0.56,-4.703 z m -16.355,0.064 c 0.048,0 0.083,0.025 0.062,0.09 -0.057,0.17 0,0.248 0,0.248 0.244,-0.23 0.45,0.018 0.43,0.075 -0.018,0.058 0.133,0.114 0.226,0.058 0.095,-0.058 0.206,0.17 0.17,0.284 -0.038,0.115 -0.376,0.095 -0.395,-0.02 -0.02,-0.114 -0.076,-0.075 -0.113,-0.018 -0.03,0.05 -0.158,0.083 -0.253,0.057 l -0.08,-0.082 c 0.008,-0.02 0.026,-0.04 -0.004,-0.072 -0.027,-0.027 -0.06,-0.028 -0.096,-0.028 l -0.172,-0.17 c 0.002,-0.118 0.035,-0.267 0.024,-0.315 -0.012,-0.048 0.115,-0.11 0.2,-0.11 z m -12.21,0.07 -0.13,0.02 -0.022,0.152 0.152,0.02 z m 23.455,0.166 a 0.505,0.505 0 0 0 -0.223,0.083 l 0.062,0.094 c 0.073,-0.048 0.165,-0.07 0.187,-0.06 l -0.005,-0.007 0.112,-0.018 a 0.103,0.103 0 0 0 -0.062,-0.08 0.155,0.155 0 0 0 -0.07,-0.012 z m -23.403,0.192 a 0.08,0.08 0 0 0 -0.08,0.08 0.08,0.08 0 0 0 0.158,0 0.08,0.08 0 0 0 -0.078,-0.08 z m 9.358,0.09 a 0.34,0.34 0 0 0 0.028,0.104 l 0.094,0.04 -0.17,0.132 -0.15,0.17 -0.187,-0.055 -0.225,-0.02 -0.075,-0.132 -0.13,-0.02 -0.02,0.268 -0.094,0.114 -0.224,0.23 c 0.236,0 0.078,0.127 -0.037,0.182 v -0.762 c 0.242,-0.014 0.48,-0.05 0.713,-0.104 l 0.036,0.035 h 0.168 l 0.01,-0.093 c 0.088,-0.026 0.175,-0.055 0.262,-0.087 z m -9.227,0.31 a 0.08,0.08 0 0 0 -0.08,0.08 0.08,0.08 0 0 0 0.08,0.082 0.08,0.08 0 0 0 0.08,-0.08 0.08,0.08 0 0 0 -0.08,-0.082 z m 7.093,0.06 c -0.094,-0.005 -0.174,0.288 -0.212,0.364 0,0 0.043,0.157 0.127,0.144 0.085,-0.015 0.142,-0.058 0.212,-0.073 0.07,-0.013 0.1,-0.128 0.126,-0.242 0.028,-0.114 -0.028,-0.172 -0.028,-0.172 0,0 -0.07,0.115 -0.182,0 a 0.07,0.07 0 0 0 -0.042,-0.02 z m -7.446,0.154 -0.16,0.018 v 0.135 l 0.16,-0.02 z m 11.297,0 h 0.13 l 0.02,0.095 0.574,0.055 0.028,0.004 c 0.224,0.132 0.112,0.303 0.037,0.34 a 0.57,0.57 0 0 1 -0.206,0.04 l -0.04,0.076 -0.486,0.037 -0.04,0.19 c -0.243,-0.038 -0.336,0.23 -0.28,0.362 0.057,0.133 0,0.248 0,0.248 l 0.207,0.095 0.263,-0.075 c 0.038,-0.19 0.206,-0.23 0.356,-0.344 0.15,-0.115 0.394,0.208 0.32,0.36 a 1.36,1.36 0 0 0 -0.023,0.048 6.986,6.986 0 0 1 -0.903,0.527 6.97,6.97 0 0 1 -1.57,0.546 l -0.02,-0.014 -0.207,-0.058 -0.018,-0.284 c -0.038,-0.19 -0.395,-0.19 -0.377,-0.058 0.02,0.133 -0.67,0.058 -0.674,0.058 V 47.2 l 0.187,-0.2 0.43,-0.096 c 0.038,-0.19 0.225,0.04 0.225,0.04 0.188,-0.02 0.226,0.113 0.226,0.113 l 0.244,0.038 c 0.207,0.058 0.08,0.077 0.094,0.152 0.018,0.114 0.113,0.076 0.113,0.076 l 0.036,-0.247 0.113,0.02 -0.114,-0.134 -0.207,-0.096 -0.227,-0.095 c -0.15,-0.21 0.04,-0.17 0.19,-0.15 h 0.243 c 0,0 0.282,0.38 0.282,0.475 0,0.095 0.13,0.114 0.13,0.114 l 0.17,-0.02 0.056,0.133 h 0.17 l 0.055,0.114 h 0.337 l 0.02,-0.17 -0.32,-0.058 -0.02,-0.192 -0.224,-0.057 c -0.076,-0.322 0.056,-0.417 0.15,-0.265 l 0.112,0.018 -0.037,-0.285 0.13,-0.04 -0.037,-0.398 -0.11,-0.04 v -0.132 l 0.468,0.02 c -0.037,-0.248 0.02,-0.362 0.02,-0.362 z m 13.58,0.87 -0.1,0.05 a 0.217,0.217 0 0 1 0.018,0.078 c 0.003,0.034 0.006,0.072 0.04,0.096 0.018,0.016 0.044,0.02 0.074,0.015 l -0.022,-0.11 c 0.01,0 0.02,0.008 0.022,0.016 l -0.003,-0.026 a 0.306,0.306 0 0 0 -0.03,-0.12 z m -0.108,0.21 -0.11,0.03 c 0.028,0.115 0.07,0.23 0.072,0.234 l 0.106,-0.04 c 0,-0.002 -0.043,-0.114 -0.07,-0.223 z m -8.81,0.11 v 0.364 h 0.132 v -0.363 z m -4.054,0.095 -0.15,0.096 0.06,0.097 0.15,-0.096 z m 12.232,0.263 c -0.01,0.09 0.013,0.2 0.1,0.22 l 0.023,-0.113 h 0.004 c -0.01,-0.008 -0.02,-0.053 -0.014,-0.096 z m -0.063,0.213 c -0.034,0.002 -0.08,0.038 -0.12,0.063 -0.113,0.07 -0.07,0.357 0,0.285 0.07,-0.07 0.155,0 0.17,-0.215 0.006,-0.107 -0.016,-0.137 -0.05,-0.134 z m -11.666,0.147 0.444,0.227 c 0.056,0.075 0.3,0.056 0.3,0.056 l 0.076,0.096 c 0,0 0.15,-0.02 0.244,0.095 0.093,0.114 0.58,0.02 0.58,0.02 l 0.133,0.113 0.206,0.077 0.347,0.01 0.217,0.218 c -0.34,0.155 -1.027,0.1 -1.07,0.056 -0.058,-0.055 -0.45,-0.227 -0.45,-0.227 0,0 -0.3,-0.247 -0.357,-0.17 -0.057,0.076 -0.32,-0.096 -0.32,-0.038 0,0.056 -0.244,-0.134 -0.244,-0.134 l -0.374,-0.133 0.28,-0.056 -0.045,-0.186 0.032,-0.02 z m -20.385,1.12 v 0.192 h 0.15 v 0.247 h 0.113 l -0.02,-0.285 -0.15,-0.057 v -0.096 z m 27.413,0.097 -0.015,0.17 0.183,0.014 0.014,-0.156 z m -0.152,0.403 -0.036,0.108 a 0.21,0.21 0 0 1 0.035,0.02 l 0.024,0.1 c -0.01,0.01 -0.02,0.023 -0.026,0.03 l 0.082,0.08 c 0.06,-0.07 0.083,-0.133 0.067,-0.196 -0.025,-0.097 -0.134,-0.137 -0.147,-0.14 z m -3.28,0.338 0.825,0.83 c -0.037,0.138 -0.167,0.22 -0.24,0.163 -0.076,-0.058 0.093,0.094 0.13,0.17 0.04,0.077 0.15,0.077 0.19,0 0.024,-0.05 0.024,-0.143 0.033,-0.222 l 0.38,0.382 c -0.048,0.098 -0.098,0.198 -0.077,0.26 l 0.17,0.077 0.018,0.323 c 0.126,0.128 0.41,0.123 0.636,0.085 l 0.077,0.077 a 14.37,14.37 0 0 1 -2.272,1.793 v -0.183 c 0.338,-0.248 0.357,-0.686 0.038,-0.725 -0.243,-0.028 -0.13,-0.285 0.094,-0.324 l 0.13,-0.056 v -0.172 l 0.432,-0.4 v -0.304 l -0.938,-0.78 c -0.192,-0.07 -0.204,-0.305 -0.137,-0.534 0.173,-0.147 0.344,-0.3 0.51,-0.46 z m -23.043,0.04 0.132,0.343 0.076,0.172 0.15,0.208 0.206,0.19 0.076,-0.132 -0.132,-0.285 -0.13,-0.096 -0.096,-0.267 z m -3.67,0.28 c 1.14,2.277 0.65,5.214 2.128,7.362 0.462,0.672 1.11,1.316 1.707,1.856 l -0.03,0.03 c -0.54,-0.253 -1.027,-0.63 -1.52,-1.04 -2.587,-2.15 -6.478,-2.425 -8.027,-5.93 0.42,2.573 2.465,4.853 4.67,6.298 2.098,1.374 4.787,1.22 7.117,1.99 -2.153,-1.737 -2.48,-4.345 -3.44,-6.63 -0.596,-1.42 -1.568,-2.698 -2.603,-3.937 z m 37.744,0 c -1.036,1.238 -2.007,2.516 -2.604,3.936 -0.96,2.285 -1.286,4.893 -3.44,6.63 2.33,-0.77 5.02,-0.616 7.118,-1.99 2.207,-1.445 4.25,-3.725 4.67,-6.3 -1.548,3.507 -5.44,3.78 -8.027,5.933 -0.492,0.408 -0.98,0.785 -1.52,1.037 l -0.028,-0.03 c 0.597,-0.54 1.243,-1.183 1.705,-1.855 1.48,-2.148 0.987,-5.085 2.127,-7.363 z m -29.438,0.823 c 0.165,0.003 0.386,0.19 0.41,0.268 a 0.375,0.375 0 0 0 0.128,0.144 l -0.278,0.277 c -0.175,-0.18 -0.343,-0.364 -0.508,-0.552 H 57 c 0.03,-0.1 0.094,-0.137 0.17,-0.135 z m 11.015,1.05 a 0.845,0.845 0 0 1 0.097,0 0.62,0.62 0 0 1 0.314,0.094 c 0.207,0.153 0.488,0.058 0.488,0.058 l 0.207,0.252 c -0.436,0.063 -0.88,0.1 -1.33,0.11 v -0.45 a 0.442,0.442 0 0 1 0.225,-0.063 z m 9.854,0.274 2.365,2.366 a 18.237,18.237 0 0 1 -4.5,3.214 18.04,18.04 0 0 1 -7.946,1.95 v -3.355 a 14.775,14.775 0 0 0 3.985,-0.607 l 0.33,0.1 0.092,0.305 0.15,-0.02 0.113,-0.094 0.45,-0.02 0.227,-0.21 0.243,-0.037 1.77,-1.506 a 14.82,14.82 0 0 0 2.72,-2.087 z m -8.526,0.552 0.04,0.087 0.32,0.095 0.223,0.057 0.076,0.322 0.168,0.02 0.058,0.21 c 0.206,0.152 -0.057,0.476 -0.057,0.476 v 0.42 l 0.15,0.074 -0.018,0.154 0.245,0.247 0.28,0.02 0.467,0.497 a 14.24,14.24 0 0 1 -3.505,0.493 v -3.037 c 0.524,-0.01 1.043,-0.057 1.554,-0.137 z m -4.537,0.31 -0.113,0.094 -0.056,0.048 0.06,0.043 0.13,0.094 0.067,-0.092 -0.074,-0.053 0.06,-0.048 z m 1.337,1.363 -0.05,0.103 0.117,0.06 -0.037,0.038 0.08,0.08 0.093,-0.095 0.056,-0.056 -0.07,-0.036 z m -9.503,0.965 0.153,0.23 0.018,0.17 0.188,0.058 0.076,0.114 0.13,-0.076 -0.093,-0.248 -0.243,-0.21 z m -4.224,0.214 c 1.408,1.894 1.808,4.646 4.38,5.615 0.456,0.17 0.98,0.2 1.373,0.45 -0.497,0.076 -0.93,-0.078 -1.392,-0.176 -3.314,-0.704 -7.364,0.204 -9.847,-2.62 0.943,1.846 2.884,3.303 4.75,3.918 2.888,0.954 5.9,-0.11 8.614,-0.783 0.392,-0.097 0.867,-0.066 1.23,-0.2 -1.512,-0.306 -2.97,-0.764 -4.14,-1.835 -1.68,-1.537 -3.17,-3.174 -4.968,-4.368 z m 30.298,0 c -1.797,1.194 -3.286,2.83 -4.968,4.368 -1.17,1.07 -2.627,1.53 -4.14,1.836 0.364,0.133 0.84,0.102 1.23,0.2 2.716,0.673 5.726,1.736 8.616,0.782 1.865,-0.615 3.806,-2.072 4.75,-3.92 -2.485,2.826 -6.534,1.918 -9.85,2.623 -0.46,0.1 -0.894,0.253 -1.39,0.177 0.394,-0.25 0.917,-0.28 1.372,-0.45 2.573,-0.97 2.974,-3.72 4.38,-5.615 z m -17.88,6.132 c -2.544,0 -4.816,1.23 -7.05,2.155 -2.02,0.838 -4.698,0.672 -6.487,-0.562 0.885,1.11 2.07,1.795 3.293,2.26 2.273,0.905 4.925,0.21 6.86,-1.026 1.392,-0.89 2.587,-2.153 4.245,-2.153 0.294,0 0.588,0.033 0.884,0.095 0.324,-0.13 0.653,-0.247 0.986,-0.348 a 9.448,9.448 0 0 0 -2.73,-0.423 z m 2.732,0.423 c 0.333,0.1 0.66,0.218 0.986,0.348 0.296,-0.062 0.59,-0.096 0.884,-0.096 1.658,0 2.853,1.26 4.246,2.152 1.934,1.236 4.587,1.93 6.86,1.025 1.222,-0.464 2.406,-1.148 3.29,-2.26 -1.787,1.235 -4.467,1.4 -6.487,0.562 -2.232,-0.927 -4.504,-2.156 -7.05,-2.156 -0.924,0 -1.84,0.154 -2.73,0.423 z m 0.986,0.348 c -0.327,0.07 -0.657,0.173 -0.986,0.308 2.082,0.85 4.172,2.914 6.014,4.818 0.372,-0.298 0.766,-0.623 1.07,-0.97 -1.652,-1.58 -3.77,-3.222 -6.098,-4.155 z m -0.986,0.308 c -0.33,-0.135 -0.66,-0.24 -0.987,-0.308 -2.33,0.933 -4.447,2.576 -6.098,4.154 0.303,0.347 0.697,0.672 1.068,0.97 1.843,-1.903 3.933,-3.966 6.016,-4.817 z"
       id="path883"
       inkscape:connector-curvature="0"
       style="fill:#ffffff" />
    <path
       d="m 66.75,62.115 c 0.068,-0.078 0.84,-0.36 0.986,-0.348 0.17,-0.004 0.986,0.306 0.986,0.348 -0.016,0.072 -0.88,0.326 -0.986,0.308 -0.057,0.003 -0.982,-0.27 -0.987,-0.308 z"
       id="path885"
       inkscape:connector-curvature="0"
       style="fill:#ffffff" />
  </g>
</svg>
