<?xml version="1.0" standalone="yes"?>

<svg version="1.1" viewBox="0.0 0.0 721.0 464.0" fill="none" stroke="none" stroke-linecap="square" stroke-miterlimit="10" xmlns="http://www.w3.org/2000/svg" xmlns:xlink="http://www.w3.org/1999/xlink"><clipPath id="p.0"><path d="m0 0l721.0 0l0 464.0l-721.0 0l0 -464.0z" clip-rule="nonzero"></path></clipPath><g clip-path="url(#p.0)"><path fill="#000000" fill-opacity="0.0" d="m0 0l721.0 0l0 464.0l-721.0 0z" fill-rule="nonzero"></path><path fill="#f3f3f3" d="m272.0 192.0l32.0 0l0 32.0l-32.0 0z" fill-rule="nonzero"></path><path stroke="#000000" stroke-width="1.0" stroke-linejoin="round" stroke-linecap="butt" d="m272.0 192.0l32.0 0l0 32.0l-32.0 0z" fill-rule="nonzero"></path><path fill="#000000" d="m284.02344 208.70125q0 -2.15625 0.640625 -3.703125q0.65625 -1.546875 1.734375 -2.3125q0.828125 -0.609375 1.71875 -0.609375q1.453125 0 2.609375 1.484375q1.4375 1.828125 1.4375 4.953125q0 2.1875 -0.640625 3.71875q-0.625 1.53125 -1.609375 2.21875q-0.96875 0.6875 -1.890625 0.6875q-1.796875 0 -2.984375 -2.125q-1.015625 -1.78125 -1.015625 -4.3125zm1.8125 0.234375q0 2.59375 0.640625 4.234375q0.53125 1.390625 1.578125 1.390625q0.5 0 1.03125 -0.453125q0.546875 -0.453125 0.828125 -1.5q0.421875 -1.609375 0.421875 -4.5q0 -2.15625 -0.4375 -3.59375q-0.34375 -1.0625 -0.859375 -1.515625q-0.390625 -0.3125 -0.921875 -0.3125q-0.640625 0 -1.125 0.578125q-0.671875 0.765625 -0.921875 2.421875q-0.234375 1.640625 -0.234375 3.25z" fill-rule="nonzero"></path><path fill="#f3f3f3" d="m272.0 224.0l32.0 0l0 32.0l-32.0 0z" fill-rule="nonzero"></path><path stroke="#000000" stroke-width="1.0" stroke-linejoin="round" stroke-linecap="butt" d="m272.0 224.0l32.0 0l0 32.0l-32.0 0z" fill-rule="nonzero"></path><path fill="#000000" d="m285.5703 235.57625l3.046875 -1.5l0.3125 0l0 10.625q0 1.0625 0.078125 1.328125q0.09375 0.25 0.375 0.390625q0.28125 0.140625 1.140625 0.15625l0 0.34375l-4.734375 0l0 -0.34375q0.890625 -0.015625 1.140625 -0.140625q0.265625 -0.140625 0.359375 -0.359375q0.109375 -0.234375 0.109375 -1.375l0 -6.796875q0 -1.359375 -0.09375 -1.75q-0.0625 -0.296875 -0.234375 -0.4375q-0.171875 -0.140625 -0.40625 -0.140625q-0.34375 0 -0.96875 0.28125l-0.125 -0.28125z" fill-rule="nonzero"></path><path fill="#f3f3f3" d="m272.0 256.0l32.0 0l0 32.0l-32.0 0z" fill-rule="nonzero"></path><path stroke="#000000" stroke-width="1.0" stroke-linejoin="round" stroke-linecap="butt" d="m272.0 256.0l32.0 0l0 32.0l-32.0 0z" fill-rule="nonzero"></path><path fill="#000000" d="m292.0547 276.4981l-0.890625 2.421875l-7.421875 0l0 -0.34375q3.28125 -2.984375 4.609375 -4.875q1.34375 -1.890625 1.34375 -3.46875q0 -1.1875 -0.734375 -1.953125q-0.734375 -0.78125 -1.75 -0.78125q-0.9375 0 -1.671875 0.546875q-0.734375 0.546875 -1.09375 1.59375l-0.34375 0q0.234375 -1.71875 1.1875 -2.640625q0.96875 -0.921875 2.40625 -0.921875q1.53125 0 2.546875 0.984375q1.03125 0.984375 1.03125 2.328125q0 0.953125 -0.4375 1.90625q-0.6875 1.5 -2.234375 3.1875q-2.3125 2.515625 -2.875 3.03125l3.28125 0q1.0 0 1.40625 -0.0625q0.40625 -0.078125 0.71875 -0.296875q0.328125 -0.234375 0.578125 -0.65625l0.34375 0z" fill-rule="nonzero"></path><path fill="#c9daf8" d="m160.0 176.0l64.0 0l16.0 16.0l-16.0 16.0l-64.0 0l16.0 -16.0z" fill-rule="nonzero"></path><path stroke="#000000" stroke-width="1.0" stroke-linejoin="round" stroke-linecap="butt" d="m160.0 176.0l64.0 0l16.0 16.0l-16.0 16.0l-64.0 0l16.0 -16.0z" fill-rule="nonzero"></path><path fill="#000000" fill-opacity="0.0" d="m272.0 208.0c-8.0 0 -12.0 -4.0 -16.0 -8.0c-4.0 -4.0 -8.0 -8.0 -16.0 -8.0" fill-rule="nonzero"></path><path stroke="#000000" stroke-width="1.0" stroke-linejoin="round" stroke-linecap="butt" d="m272.0 208.0c-8.0 0 -12.0 -4.0 -16.0 -8.0c-2.0 -2.0 -4.0 -4.0 -6.5 -5.5c-0.625 -0.375 -1.28125 -0.71875 -1.9765625 -1.0234375c-0.3476715 -0.15232849 -0.7050781 -0.29492188 -1.0732422 -0.4267578c-0.092056274 -0.032943726 -0.18475342 -0.06524658 -0.27815247 -0.096847534l-0.23625183 -0.0776062" fill-rule="evenodd"></path><path fill="#000000" stroke="#000000" stroke-width="1.0" stroke-linecap="butt" d="m246.17677 191.24129l-4.7305145 0.97198486l4.2485657 2.2961426z" fill-rule="evenodd"></path><path fill="#c9daf8" d="m240.0 224.0l-64.0 0l-16.0 16.0l16.0 16.0l64.0 0l-16.0 -16.0z" fill-rule="nonzero"></path><path stroke="#000000" stroke-width="1.0" stroke-linejoin="round" stroke-linecap="butt" d="m240.0 224.0l-64.0 0l-16.0 16.0l16.0 16.0l64.0 0l-16.0 -16.0z" fill-rule="nonzero"></path><path fill="#000000" fill-opacity="0.0" d="m272.0 240.0c-7.9999084 0 -9.999847 0.01574707 -15.999847 0.03149414c-6.0 0.01574707 -16.000076 0.03149414 -32.000153 0.03149414" fill-rule="nonzero"></path><path stroke="#000000" stroke-width="1.0" stroke-linejoin="round" stroke-linecap="butt" d="m272.0 240.0c-7.9999084 0 -9.999847 0.01574707 -15.999847 0.03149414c-2.9999847 0.007873535 -7.0000153 0.01574707 -12.2500305 0.021652222c-2.6250153 0.002960205 -5.562546 0.00541687 -8.843811 0.0071411133l-4.906311 0.0012054443" fill-rule="evenodd"></path><path fill="#000000" stroke="#000000" stroke-width="1.0" stroke-linecap="butt" d="m229.99959 238.40977l-4.537689 1.6528473l4.538513 1.6506195z" fill-rule="evenodd"></path><path fill="#c9daf8" d="m240.0 272.0l-64.0 0l-16.0 16.0l16.0 16.0l64.0 0l-16.0 -16.0z" fill-rule="nonzero"></path><path stroke="#000000" stroke-width="1.0" stroke-linejoin="round" stroke-linecap="butt" d="m240.0 272.0l-64.0 0l-16.0 16.0l16.0 16.0l64.0 0l-16.0 -16.0z" fill-rule="nonzero"></path><path fill="#000000" fill-opacity="0.0" d="m272.0 272.0c-7.9999084 0 -9.999847 4.0 -15.999847 8.0c-6.0 4.0 -16.000076 8.0 -32.000153 8.0" fill-rule="nonzero"></path><path stroke="#000000" stroke-width="1.0" stroke-linejoin="round" stroke-linecap="butt" d="m272.0 272.0c-7.9999084 0 -9.999847 4.0 -15.999847 8.0c-2.9999847 2.0 -7.0000153 4.0 -12.2500305 5.5c-2.6250153 0.75 -5.562546 1.375 -8.843811 1.8125c-0.8203125 0.109375 -1.6621094 0.20703125 -2.5258942 0.2919922c-0.43188477 0.04248047 -0.8692627 0.08178711 -1.3121948 0.11779785c-0.22148132 0.018005371 -0.44433594 0.035186768 -0.6685791 0.05154419l-0.40292358 0.027648926" fill-rule="evenodd"></path><path fill="#000000" stroke="#000000" stroke-width="1.0" stroke-linecap="butt" d="m229.94206 286.15067l-4.480957 1.8009644l4.5902557 1.5007019z" fill-rule="evenodd"></path><path fill="#000000" fill-opacity="0.0" d="m288.0 80.0c0 28.0 0.01574707 42.0 0.03149414 56.0c0.01574707 14.0 0.03149414 28.0 0.03149414 56.0" fill-rule="nonzero"></path><path stroke="#000000" stroke-width="1.0" stroke-linejoin="round" stroke-linecap="butt" d="m288.0 80.0c0 28.0 0.01574707 42.0 0.03149414 56.0c0.007873535 7.0 0.01574707 14.0 0.02166748 22.75c0.0029296875 4.375 0.0054016113 9.1875 0.0071105957 14.65625l0.0018310547 12.59375" fill-rule="evenodd"></path><path fill="#000000" stroke="#000000" stroke-width="1.0" stroke-linecap="butt" d="m286.4104 186.00024l1.6523743 4.537857l1.651062 -4.5383453z" fill-rule="evenodd"></path><path fill="#ead1dc" d="m256.0 48.0l64.0 0l0 32.0l-64.0 0z" fill-rule="nonzero"></path><path stroke="#000000" stroke-width="1.0" stroke-linejoin="round" stroke-linecap="butt" d="m256.0 48.0l64.0 0l0 32.0l-64.0 0z" fill-rule="nonzero"></path><path fill="#000000" d="m280.52133 63.091873l0 5.578125q0 1.1875 0.25 1.5q0.34375 0.421875 0.921875 0.421875l0.765625 0l0 0.328125l-5.078125 0l0 -0.328125l0.390625 0q0.375 0 0.671875 -0.1875q0.3125 -0.1875 0.421875 -0.5q0.125 -0.328125 0.125 -1.234375l0 -5.578125l-1.65625 0l0 -0.671875l1.65625 0l0 -0.5625q0 -1.265625 0.40625 -2.140625q0.40625 -0.890625 1.234375 -1.421875q0.84375 -0.546875 1.890625 -0.546875q0.984375 0 1.796875 0.625q0.53125 0.421875 0.53125 0.9375q0 0.28125 -0.234375 0.53125q-0.234375 0.234375 -0.515625 0.234375q-0.21875 0 -0.453125 -0.140625q-0.234375 -0.15625 -0.578125 -0.65625q-0.34375 -0.515625 -0.640625 -0.6875q-0.28125 -0.171875 -0.625 -0.171875q-0.4375 0 -0.734375 0.234375q-0.296875 0.21875 -0.421875 0.703125q-0.125 0.46875 -0.125 2.453125l0 0.609375l2.1875 0l0 0.671875l-2.1875 0zm8.884552 6.875q-0.625 0.640625 -1.21875 0.9375q-0.59375 0.28125 -1.28125 0.28125q-1.390625 0 -2.4375 -1.15625q-1.03125 -1.171875 -1.03125 -3.0q0 -1.828125 1.15625 -3.34375q1.15625 -1.53125 2.953125 -1.53125q1.125 0 1.859375 0.71875l0 -1.5625q0 -1.453125 -0.078125 -1.78125q-0.0625 -0.34375 -0.21875 -0.46875q-0.140625 -0.125 -0.359375 -0.125q-0.234375 0 -0.640625 0.15625l-0.125 -0.328125l2.53125 -1.03125l0.421875 0l0 9.8125q0 1.5 0.0625 1.828125q0.078125 0.328125 0.234375 0.46875q0.15625 0.125 0.359375 0.125q0.25 0 0.65625 -0.15625l0.109375 0.328125l-2.53125 1.046875l-0.421875 0l0 -1.21875zm0 -0.65625l0 -4.375q-0.046875 -0.625 -0.328125 -1.140625q-0.28125 -0.53125 -0.75 -0.796875q-0.453125 -0.265625 -0.890625 -0.265625q-0.8125 0 -1.453125 0.734375q-0.84375 0.96875 -0.84375 2.828125q0 1.875 0.8125 2.875q0.828125 0.984375 1.828125 0.984375q0.84375 0 1.625 -0.84375zm8.828125 -7.140625l0 2.890625l-0.3125 0q-0.359375 -1.359375 -0.90625 -1.84375q-0.546875 -0.5 -1.40625 -0.5q-0.640625 0 -1.046875 0.34375q-0.40625 0.34375 -0.40625 0.765625q0 0.515625 0.296875 0.890625q0.296875 0.375 1.171875 0.796875l1.359375 0.671875q1.875 0.90625 1.875 2.421875q0 1.15625 -0.875 1.875q-0.875 0.703125 -1.953125 0.703125q-0.78125 0 -1.78125 -0.28125q-0.3125 -0.09375 -0.5 -0.09375q-0.21875 0 -0.34375 0.234375l-0.296875 0l0 -3.03125l0.296875 0q0.265625 1.296875 1.0 1.96875q0.734375 0.65625 1.640625 0.65625q0.640625 0 1.046875 -0.375q0.40625 -0.390625 0.40625 -0.90625q0 -0.640625 -0.453125 -1.078125q-0.453125 -0.4375 -1.796875 -1.109375q-1.34375 -0.671875 -1.765625 -1.203125q-0.421875 -0.53125 -0.421875 -1.34375q0 -1.046875 0.71875 -1.75q0.71875 -0.703125 1.859375 -0.703125q0.515625 0 1.21875 0.21875q0.484375 0.140625 0.640625 0.140625q0.140625 0 0.21875 -0.0625q0.09375 -0.078125 0.203125 -0.296875l0.3125 0z" fill-rule="nonzero"></path><path fill="#ead1dc" d="m192.0 16.0l128.0 0l0 32.0l-128.0 0z" fill-rule="nonzero"></path><path stroke="#000000" stroke-width="1.0" stroke-linejoin="round" stroke-linecap="butt" d="m192.0 16.0l128.0 0l0 32.0l-128.0 0z" fill-rule="nonzero"></path><path fill="#000000" d="m216.09389 31.263748l2.609375 -1.0625l0.359375 0l0 2.0q0.65625 -1.125 1.3125 -1.578125q0.671875 -0.453125 1.40625 -0.453125q1.28125 0 2.125 1.0q1.046875 1.234375 1.046875 3.1875q0 2.203125 -1.25 3.640625q-1.046875 1.1875 -2.625 1.1875q-0.6875 0 -1.1875 -0.203125q-0.359375 -0.140625 -0.828125 -0.546875l0 2.578125q0 0.875 0.09375 1.109375q0.109375 0.234375 0.375 0.375q0.265625 0.140625 0.96875 0.140625l0 0.34375l-4.453125 0l0 -0.34375l0.234375 0q0.5 0.015625 0.875 -0.1875q0.171875 -0.109375 0.265625 -0.34375q0.09375 -0.21875 0.09375 -1.140625l0 -8.046875q0 -0.8125 -0.078125 -1.03125q-0.0625 -0.234375 -0.234375 -0.34375q-0.15625 -0.109375 -0.4375 -0.109375q-0.21875 0 -0.5625 0.125l-0.109375 -0.296875zm2.96875 1.484375l0 3.171875q0 1.03125 0.078125 1.34375q0.125 0.546875 0.625 0.953125q0.515625 0.40625 1.28125 0.40625q0.9375 0 1.515625 -0.71875q0.75 -0.953125 0.75 -2.671875q0 -1.9375 -0.859375 -3.0q-0.59375 -0.71875 -1.40625 -0.71875q-0.453125 0 -0.890625 0.21875q-0.328125 0.171875 -1.09375 1.015625zm11.78125 4.953125q-1.3125 1.0 -1.640625 1.15625q-0.5 0.234375 -1.0625 0.234375q-0.890625 0 -1.46875 -0.59375q-0.5625 -0.609375 -0.5625 -1.59375q0 -0.625 0.28125 -1.078125q0.390625 -0.625 1.328125 -1.171875q0.9375 -0.5625 3.125 -1.359375l0 -0.34375q0 -1.265625 -0.40625 -1.734375q-0.390625 -0.484375 -1.171875 -0.484375q-0.578125 0 -0.921875 0.3125q-0.359375 0.328125 -0.359375 0.734375l0.015625 0.53125q0 0.4375 -0.21875 0.671875q-0.203125 0.21875 -0.5625 0.21875q-0.34375 0 -0.5625 -0.234375q-0.21875 -0.25 -0.21875 -0.65625q0 -0.796875 0.8125 -1.46875q0.828125 -0.671875 2.296875 -0.671875q1.125 0 1.859375 0.375q0.546875 0.296875 0.796875 0.90625q0.171875 0.40625 0.171875 1.640625l0 2.875q0 1.21875 0.046875 1.5q0.046875 0.265625 0.15625 0.359375q0.109375 0.09375 0.25 0.09375q0.140625 0 0.25 -0.0625q0.203125 -0.125 0.75 -0.6875l0 0.53125q-1.03125 1.390625 -1.984375 1.390625q-0.453125 0 -0.71875 -0.3125q-0.265625 -0.328125 -0.28125 -1.078125zm0 -0.609375l0 -3.234375q-1.390625 0.546875 -1.8125 0.78125q-0.734375 0.40625 -1.046875 0.859375q-0.3125 0.4375 -0.3125 0.96875q0 0.671875 0.390625 1.109375q0.40625 0.4375 0.921875 0.4375q0.71875 0 1.859375 -0.921875zm5.952408 -6.921875l0 1.90625q1.0625 -1.90625 2.1875 -1.90625q0.515625 0 0.84375 0.3125q0.34375 0.3125 0.34375 0.71875q0 0.359375 -0.25 0.609375q-0.234375 0.25 -0.578125 0.25q-0.3125 0 -0.71875 -0.3125q-0.40625 -0.328125 -0.59375 -0.328125q-0.171875 0 -0.375 0.1875q-0.40625 0.375 -0.859375 1.25l0 4.078125q0 0.703125 0.171875 1.0625q0.125 0.25 0.421875 0.421875q0.3125 0.171875 0.890625 0.171875l0 0.328125l-4.34375 0l0 -0.328125q0.640625 0 0.953125 -0.203125q0.234375 -0.15625 0.328125 -0.484375q0.046875 -0.15625 0.046875 -0.890625l0 -3.296875q0 -1.484375 -0.0625 -1.765625q-0.0625 -0.28125 -0.21875 -0.40625q-0.15625 -0.140625 -0.40625 -0.140625q-0.28125 0 -0.640625 0.140625l-0.09375 -0.328125l2.5625 -1.046875l0.390625 0zm5.150177 3.453125q0 1.890625 0.921875 2.96875q0.9375 1.078125 2.1875 1.078125q0.828125 0 1.4375 -0.453125q0.625 -0.46875 1.046875 -1.578125l0.28125 0.1875q-0.1875 1.265625 -1.125 2.3125q-0.9375 1.046875 -2.34375 1.046875q-1.53125 0 -2.625 -1.1875q-1.09375 -1.203125 -1.09375 -3.21875q0 -2.171875 1.109375 -3.390625q1.125 -1.234375 2.8125 -1.234375q1.4375 0 2.34375 0.953125q0.921875 0.9375 0.921875 2.515625l-5.875 0zm0 -0.53125l3.9375 0q-0.046875 -0.828125 -0.1875 -1.15625q-0.234375 -0.515625 -0.703125 -0.8125q-0.453125 -0.296875 -0.953125 -0.296875q-0.765625 0 -1.375 0.59375q-0.609375 0.59375 -0.71875 1.671875zm9.343033 -1.125q1.484375 -1.796875 2.84375 -1.796875q0.6875 0 1.1875 0.359375q0.5 0.34375 0.79685974 1.140625q0.21875 0.546875 0.21875 1.703125l0 3.625q0 0.8125 0.125 1.09375q0.09375 0.234375 0.3125 0.375q0.234375 0.125 0.859375 0.125l0 0.328125l-4.2031097 0l0 -0.328125l0.171875 0q0.59375 0 0.828125 -0.1875q0.234375 -0.1875 0.328125 -0.53125q0.046875 -0.140625 0.046875 -0.875l0 -3.484375q0 -1.15625 -0.3125 -1.671875q-0.296875 -0.53125 -1.015625 -0.53125q-1.09375 0 -2.1875 1.203125l0 4.484375q0 0.859375 0.09375 1.0625q0.125 0.28125 0.34375 0.40625q0.234375 0.125 0.9375 0.125l0 0.328125l-4.203125 0l0 -0.328125l0.1875 0q0.640625 0 0.875 -0.328125q0.234375 -0.34375 0.234375 -1.265625l0 -3.15625q0 -1.53125 -0.078125 -1.859375q-0.0625 -0.34375 -0.21875 -0.453125q-0.140625 -0.125 -0.375 -0.125q-0.265625 0 -0.625 0.140625l-0.140625 -0.328125l2.5625 -1.046875l0.40625 0l0 1.796875zm9.312485 -4.34375l0 2.796875l1.984375 0l0 0.65625l-1.984375 0l0 5.5q0 0.828125 0.234375 1.125q0.234375 0.28125 0.609375 0.28125q0.3125 0 0.59375 -0.1875q0.28125 -0.1875 0.4375 -0.5625l0.375 0q-0.328125 0.90625 -0.921875 1.375q-0.59375 0.453125 -1.234375 0.453125q-0.421875 0 -0.828125 -0.234375q-0.40625 -0.234375 -0.609375 -0.671875q-0.1875 -0.453125 -0.1875 -1.375l0 -5.703125l-1.34375 0l0 -0.3125q0.515625 -0.203125 1.046875 -0.6875q0.53125 -0.484375 0.953125 -1.15625q0.203125 -0.359375 0.59375 -1.296875l0.28125 0zm11.792694 15.390625l-9.828125 0l0 -0.765625l9.828125 0l0 0.765625zm-0.359375 -11.75l2.609375 -1.0625l0.359375 0l0 2.0q0.65625 -1.125 1.3125 -1.578125q0.671875 -0.453125 1.40625 -0.453125q1.28125 0 2.125 1.0q1.046875 1.234375 1.046875 3.1875q0 2.203125 -1.25 3.640625q-1.046875 1.1875 -2.625 1.1875q-0.6875 0 -1.1875 -0.203125q-0.359375 -0.140625 -0.828125 -0.546875l0 2.578125q0 0.875 0.09375 1.109375q0.109375 0.234375 0.375 0.375q0.265625 0.140625 0.96875 0.140625l0 0.34375l-4.453125 0l0 -0.34375l0.234375 0q0.5 0.015625 0.875 -0.1875q0.171875 -0.109375 0.265625 -0.34375q0.09375 -0.21875 0.09375 -1.140625l0 -8.046875q0 -0.8125 -0.078125 -1.03125q-0.0625 -0.234375 -0.234375 -0.34375q-0.15625 -0.109375 -0.4375 -0.109375q-0.21875 0 -0.5625 0.125l-0.109375 -0.296875zm2.96875 1.484375l0 3.171875q0 1.03125 0.078125 1.34375q0.125 0.546875 0.625 0.953125q0.515625 0.40625 1.28125 0.40625q0.9375 0 1.515625 -0.71875q0.75 -0.953125 0.75 -2.671875q0 -1.9375 -0.859375 -3.0q-0.59375 -0.71875 -1.40625 -0.71875q-0.453125 0 -0.890625 0.21875q-0.328125 0.171875 -1.09375 1.015625zm9.125 -7.015625q0.390625 0 0.65625 0.28125q0.28125 0.265625 0.28125 0.65625q0 0.390625 -0.28125 0.671875q-0.265625 0.265625 -0.65625 0.265625q-0.390625 0 -0.671875 -0.265625q-0.265625 -0.28125 -0.265625 -0.671875q0 -0.390625 0.265625 -0.65625q0.28125 -0.28125 0.671875 -0.28125zm0.78125 4.4375l0 6.828125q0 0.796875 0.109375 1.0625q0.109375 0.265625 0.34375 0.40625q0.234375 0.125 0.828125 0.125l0 0.328125l-4.125 0l0 -0.328125q0.625 0 0.828125 -0.125q0.21875 -0.125 0.34375 -0.390625q0.125 -0.28125 0.125 -1.078125l0 -3.28125q0 -1.375 -0.078125 -1.78125q-0.0625 -0.296875 -0.203125 -0.40625q-0.140625 -0.125 -0.390625 -0.125q-0.25 0 -0.625 0.140625l-0.125 -0.328125l2.5625 -1.046875l0.40625 0zm8.245819 7.796875q-0.625 0.640625 -1.21875 0.9375q-0.59375 0.28125 -1.28125 0.28125q-1.390625 0 -2.4375 -1.15625q-1.03125 -1.171875 -1.03125 -3.0q0 -1.828125 1.15625 -3.34375q1.15625 -1.53125 2.953125 -1.53125q1.125 0 1.859375 0.71875l0 -1.5625q0 -1.453125 -0.078125 -1.78125q-0.0625 -0.34375 -0.21875 -0.46875q-0.140625 -0.125 -0.359375 -0.125q-0.234375 0 -0.640625 0.15625l-0.125 -0.328125l2.53125 -1.03125l0.421875 0l0 9.8125q0 1.5 0.0625 1.828125q0.078125 0.328125 0.234375 0.46875q0.15625 0.125 0.359375 0.125q0.25 0 0.65625 -0.15625l0.109375 0.328125l-2.53125 1.046875l-0.421875 0l0 -1.21875zm0 -0.65625l0 -4.375q-0.046875 -0.625 -0.328125 -1.140625q-0.28125 -0.53125 -0.75 -0.796875q-0.453125 -0.265625 -0.890625 -0.265625q-0.8125 0 -1.453125 0.734375q-0.84375 0.96875 -0.84375 2.828125q0 1.875 0.8125 2.875q0.828125 0.984375 1.828125 0.984375q0.84375 0 1.625 -0.84375z" fill-rule="nonzero"></path><path fill="#ead1dc" d="m512.0 48.0l64.0 0l0 32.0l-64.0 0z" fill-rule="nonzero"></path><path stroke="#000000" stroke-width="1.0" stroke-linejoin="round" stroke-linecap="butt" d="m512.0 48.0l64.0 0l0 32.0l-64.0 0z" fill-rule="nonzero"></path><path fill="#000000" d="m536.52136 63.091873l0 5.578125q0 1.1875 0.25 1.5q0.34375 0.421875 0.921875 0.421875l0.765625 0l0 0.328125l-5.078125 0l0 -0.328125l0.390625 0q0.375 0 0.671875 -0.1875q0.3125 -0.1875 0.421875 -0.5q0.125 -0.328125 0.125 -1.234375l0 -5.578125l-1.65625 0l0 -0.671875l1.65625 0l0 -0.5625q0 -1.265625 0.40625 -2.140625q0.40625 -0.890625 1.234375 -1.421875q0.84375 -0.546875 1.890625 -0.546875q0.984375 0 1.796875 0.625q0.53125 0.421875 0.53125 0.9375q0 0.28125 -0.234375 0.53125q-0.234375 0.234375 -0.515625 0.234375q-0.21875 0 -0.453125 -0.140625q-0.234375 -0.15625 -0.578125 -0.65625q-0.34375 -0.515625 -0.640625 -0.6875q-0.28125 -0.171875 -0.625 -0.171875q-0.4375 0 -0.734375 0.234375q-0.296875 0.21875 -0.421875 0.703125q-0.125 0.46875 -0.125 2.453125l0 0.609375l2.1875 0l0 0.671875l-2.1875 0zm8.8845215 6.875q-0.625 0.640625 -1.21875 0.9375q-0.59375 0.28125 -1.28125 0.28125q-1.390625 0 -2.4375 -1.15625q-1.03125 -1.171875 -1.03125 -3.0q0 -1.828125 1.15625 -3.34375q1.15625 -1.53125 2.953125 -1.53125q1.125 0 1.859375 0.71875l0 -1.5625q0 -1.453125 -0.078125 -1.78125q-0.0625 -0.34375 -0.21875 -0.46875q-0.140625 -0.125 -0.359375 -0.125q-0.234375 0 -0.640625 0.15625l-0.125 -0.328125l2.53125 -1.03125l0.421875 0l0 9.8125q0 1.5 0.0625 1.828125q0.078125 0.328125 0.234375 0.46875q0.15625 0.125 0.359375 0.125q0.25 0 0.65625 -0.15625l0.109375 0.328125l-2.53125 1.046875l-0.421875 0l0 -1.21875zm0 -0.65625l0 -4.375q-0.046875 -0.625 -0.328125 -1.140625q-0.28125 -0.53125 -0.75 -0.796875q-0.453125 -0.265625 -0.890625 -0.265625q-0.8125 0 -1.453125 0.734375q-0.84375 0.96875 -0.84375 2.828125q0 1.875 0.8125 2.875q0.828125 0.984375 1.828125 0.984375q0.84375 0 1.625 -0.84375zm8.828125 -7.140625l0 2.890625l-0.3125 0q-0.359375 -1.359375 -0.90625 -1.84375q-0.546875 -0.5 -1.40625 -0.5q-0.640625 0 -1.046875 0.34375q-0.40625 0.34375 -0.40625 0.765625q0 0.515625 0.296875 0.890625q0.296875 0.375 1.171875 0.796875l1.359375 0.671875q1.875 0.90625 1.875 2.421875q0 1.15625 -0.875 1.875q-0.875 0.703125 -1.953125 0.703125q-0.78125 0 -1.78125 -0.28125q-0.3125 -0.09375 -0.5 -0.09375q-0.21875 0 -0.34375 0.234375l-0.296875 0l0 -3.03125l0.296875 0q0.265625 1.296875 1.0 1.96875q0.734375 0.65625 1.640625 0.65625q0.640625 0 1.046875 -0.375q0.40625 -0.390625 0.40625 -0.90625q0 -0.640625 -0.453125 -1.078125q-0.453125 -0.4375 -1.796875 -1.109375q-1.34375 -0.671875 -1.765625 -1.203125q-0.421875 -0.53125 -0.421875 -1.34375q0 -1.046875 0.71875 -1.75q0.71875 -0.703125 1.859375 -0.703125q0.515625 0 1.21875 0.21875q0.484375 0.140625 0.640625 0.140625q0.140625 0 0.21875 -0.0625q0.09375 -0.078125 0.203125 -0.296875l0.3125 0z" fill-rule="nonzero"></path><path fill="#ead1dc" d="m448.0 16.0l128.0 0l0 32.0l-128.0 0z" fill-rule="nonzero"></path><path stroke="#000000" stroke-width="1.0" stroke-linejoin="round" stroke-linecap="butt" d="m448.0 16.0l128.0 0l0 32.0l-128.0 0z" fill-rule="nonzero"></path><path fill="#000000" d="m484.57697 35.685623q-0.34375 1.6875 -1.34375 2.59375q-1.0 0.90625 -2.21875 0.90625q-1.453125 0 -2.53125 -1.21875q-1.0625 -1.21875 -1.0625 -3.28125q0 -2.015625 1.1875 -3.265625q1.1875 -1.25 2.859375 -1.25q1.25 0 2.0625 0.671875q0.8125 0.65625 0.8125 1.375q0 0.34375 -0.234375 0.5625q-0.234375 0.21875 -0.640625 0.21875q-0.546875 0 -0.828125 -0.34375q-0.15625 -0.203125 -0.203125 -0.75q-0.046875 -0.546875 -0.375 -0.828125q-0.328125 -0.28125 -0.90625 -0.28125q-0.921875 0 -1.484375 0.6875q-0.75 0.90625 -0.75 2.40625q0 1.515625 0.734375 2.6875q0.75 1.15625 2.03125 1.15625q0.90625 0 1.625 -0.625q0.515625 -0.421875 1.0 -1.546875l0.265625 0.125zm3.5617676 -9.953125l0 6.203125q1.03125 -1.125 1.625 -1.4375q0.609375 -0.328125 1.203125 -0.328125q0.734375 0 1.25 0.40625q0.515625 0.390625 0.765625 1.25q0.1875 0.59375 0.1875 2.171875l0 3.0q0 0.8125 0.125 1.109375q0.09375 0.21875 0.3125 0.359375q0.21875 0.125 0.8125 0.125l0 0.328125l-4.171875 0l0 -0.328125l0.203125 0q0.59375 0 0.8125 -0.1875q0.234375 -0.1875 0.328125 -0.53125q0.03125 -0.15625 0.03125 -0.875l0 -3.0q0 -1.390625 -0.140625 -1.828125q-0.140625 -0.4375 -0.46875 -0.65625q-0.3125 -0.21875 -0.75 -0.21875q-0.453125 0 -0.953125 0.25q-0.484375 0.234375 -1.171875 0.96875l0 4.484375q0 0.875 0.09375 1.09375q0.09375 0.203125 0.359375 0.359375q0.265625 0.140625 0.921875 0.140625l0 0.328125l-4.21875 0l0 -0.328125q0.5625 0 0.890625 -0.1875q0.1875 -0.09375 0.296875 -0.34375q0.109375 -0.265625 0.109375 -1.0625l0 -7.6875q0 -1.453125 -0.078125 -1.78125q-0.0625 -0.34375 -0.203125 -0.46875q-0.140625 -0.125 -0.390625 -0.125q-0.1875 0 -0.625 0.15625l-0.125 -0.328125l2.53125 -1.03125l0.4375 0zm8.984375 0q0.390625 0 0.65625 0.28125q0.28125 0.265625 0.28125 0.65625q0 0.390625 -0.28125 0.671875q-0.265625 0.265625 -0.65625 0.265625q-0.390625 0 -0.671875 -0.265625q-0.265625 -0.28125 -0.265625 -0.671875q0 -0.390625 0.265625 -0.65625q0.28125 -0.28125 0.671875 -0.28125zm0.78125 4.4375l0 6.828125q0 0.796875 0.109375 1.0625q0.109375 0.265625 0.34375 0.40625q0.234375 0.125 0.828125 0.125l0 0.328125l-4.125 0l0 -0.328125q0.625 0 0.828125 -0.125q0.21875 -0.125 0.34375 -0.390625q0.125 -0.28125 0.125 -1.078125l0 -3.28125q0 -1.375 -0.078125 -1.78125q-0.0625 -0.296875 -0.203125 -0.40625q-0.140625 -0.125 -0.390625 -0.125q-0.25 0 -0.625 0.140625l-0.125 -0.328125l2.5625 -1.046875l0.40625 0zm5.167694 -4.4375l0 11.265625q0 0.796875 0.109375 1.0625q0.125 0.25 0.359375 0.390625q0.25 0.140625 0.90625 0.140625l0 0.328125l-4.171875 0l0 -0.328125q0.59375 0 0.796875 -0.125q0.21875 -0.125 0.328125 -0.390625q0.125 -0.28125 0.125 -1.078125l0 -7.71875q0 -1.4375 -0.0625 -1.765625q-0.0625 -0.328125 -0.203125 -0.453125q-0.140625 -0.125 -0.359375 -0.125q-0.25 0 -0.625 0.15625l-0.15625 -0.328125l2.53125 -1.03125l0.421875 0zm8.261444 12.234375q-0.625 0.640625 -1.21875 0.9375q-0.59375 0.28125 -1.28125 0.28125q-1.390625 0 -2.4375 -1.15625q-1.03125 -1.171875 -1.03125 -3.0q0 -1.828125 1.15625 -3.34375q1.15625 -1.53125 2.953125 -1.53125q1.125 0 1.859375 0.71875l0 -1.5625q0 -1.453125 -0.078125 -1.78125q-0.0625 -0.34375 -0.21875 -0.46875q-0.140625 -0.125 -0.359375 -0.125q-0.234375 0 -0.640625 0.15625l-0.125 -0.328125l2.53125 -1.03125l0.421875 0l0 9.8125q0 1.5 0.0625 1.828125q0.078125 0.328125 0.234375 0.46875q0.15625 0.125 0.359375 0.125q0.25 0 0.65625 -0.15625l0.109375 0.328125l-2.53125 1.046875l-0.421875 0l0 -1.21875zm0 -0.65625l0 -4.375q-0.046875 -0.625 -0.328125 -1.140625q-0.28125 -0.53125 -0.75 -0.796875q-0.453125 -0.265625 -0.890625 -0.265625q-0.8125 0 -1.453125 0.734375q-0.84375 0.96875 -0.84375 2.828125q0 1.875 0.8125 2.875q0.828125 0.984375 1.828125 0.984375q0.84375 0 1.625 -0.84375zm12.40625 5.703125l-9.828125 0l0 -0.765625l9.828125 0l0 0.765625zm-0.359375 -11.75l2.609375 -1.0625l0.359375 0l0 2.0q0.65625 -1.125 1.3125 -1.578125q0.671875 -0.453125 1.40625 -0.453125q1.28125 0 2.125 1.0q1.046875 1.234375 1.046875 3.1875q0 2.203125 -1.25 3.640625q-1.046875 1.1875 -2.625 1.1875q-0.6875 0 -1.1875 -0.203125q-0.359375 -0.140625 -0.828125 -0.546875l0 2.578125q0 0.875 0.09375 1.109375q0.109375 0.234375 0.375 0.375q0.265625 0.140625 0.96875 0.140625l0 0.34375l-4.453125 0l0 -0.34375l0.234375 0q0.5 0.015625 0.875 -0.1875q0.171875 -0.109375 0.265625 -0.34375q0.09375 -0.21875 0.09375 -1.140625l0 -8.046875q0 -0.8125 -0.078125 -1.03125q-0.0625 -0.234375 -0.234375 -0.34375q-0.15625 -0.109375 -0.4375 -0.109375q-0.21875 0 -0.5625 0.125l-0.109375 -0.296875zm2.96875 1.484375l0 3.171875q0 1.03125 0.078125 1.34375q0.125 0.546875 0.625 0.953125q0.515625 0.40625 1.28125 0.40625q0.9375 0 1.515625 -0.71875q0.75 -0.953125 0.75 -2.671875q0 -1.9375 -0.859375 -3.0q-0.59375 -0.71875 -1.40625 -0.71875q-0.453125 0 -0.890625 0.21875q-0.328125 0.171875 -1.09375 1.015625zm9.125 -7.015625q0.390625 0 0.65625 0.28125q0.28125 0.265625 0.28125 0.65625q0 0.390625 -0.28125 0.671875q-0.265625 0.265625 -0.65625 0.265625q-0.390625 0 -0.671875 -0.265625q-0.265625 -0.28125 -0.265625 -0.671875q0 -0.390625 0.265625 -0.65625q0.28125 -0.28125 0.671875 -0.28125zm0.78125 4.4375l0 6.828125q0 0.796875 0.109375 1.0625q0.109375 0.265625 0.34375 0.40625q0.234375 0.125 0.828125 0.125l0 0.328125l-4.125 0l0 -0.328125q0.625 0 0.828125 -0.125q0.21875 -0.125 0.34375 -0.390625q0.125 -0.28125 0.125 -1.078125l0 -3.28125q0 -1.375 -0.078125 -1.78125q-0.0625 -0.296875 -0.203125 -0.40625q-0.140625 -0.125 -0.390625 -0.125q-0.25 0 -0.625 0.140625l-0.125 -0.328125l2.5625 -1.046875l0.40625 0zm8.245789 7.796875q-0.625 0.640625 -1.21875 0.9375q-0.59375 0.28125 -1.28125 0.28125q-1.390625 0 -2.4375 -1.15625q-1.03125 -1.171875 -1.03125 -3.0q0 -1.828125 1.15625 -3.34375q1.15625 -1.53125 2.953125 -1.53125q1.125 0 1.859375 0.71875l0 -1.5625q0 -1.453125 -0.078125 -1.78125q-0.0625 -0.34375 -0.21875 -0.46875q-0.140625 -0.125 -0.359375 -0.125q-0.234375 0 -0.640625 0.15625l-0.125 -0.328125l2.53125 -1.03125l0.421875 0l0 9.8125q0 1.5 0.0625 1.828125q0.078125 0.328125 0.234375 0.46875q0.15625 0.125 0.359375 0.125q0.25 0 0.65625 -0.15625l0.109375 0.328125l-2.53125 1.046875l-0.421875 0l0 -1.21875zm0 -0.65625l0 -4.375q-0.046875 -0.625 -0.328125 -1.140625q-0.28125 -0.53125 -0.75 -0.796875q-0.453125 -0.265625 -0.890625 -0.265625q-0.8125 0 -1.453125 0.734375q-0.84375 0.96875 -0.84375 2.828125q0 1.875 0.8125 2.875q0.828125 0.984375 1.828125 0.984375q0.84375 0 1.625 -0.84375z" fill-rule="nonzero"></path><path fill="#f3f3f3" d="m528.0 192.0l32.0 0l0 32.0l-32.0 0z" fill-rule="nonzero"></path><path stroke="#000000" stroke-width="1.0" stroke-linejoin="round" stroke-linecap="butt" d="m528.0 192.0l32.0 0l0 32.0l-32.0 0z" fill-rule="nonzero"></path><path fill="#000000" d="m540.02344 208.70125q0 -2.15625 0.640625 -3.703125q0.65625 -1.546875 1.734375 -2.3125q0.828125 -0.609375 1.71875 -0.609375q1.453125 0 2.609375 1.484375q1.4375 1.828125 1.4375 4.953125q0 2.1875 -0.640625 3.71875q-0.625 1.53125 -1.609375 2.21875q-0.96875 0.6875 -1.890625 0.6875q-1.796875 0 -2.984375 -2.125q-1.015625 -1.78125 -1.015625 -4.3125zm1.8125 0.234375q0 2.59375 0.640625 4.234375q0.53125 1.390625 1.578125 1.390625q0.5 0 1.03125 -0.453125q0.546875 -0.453125 0.828125 -1.5q0.421875 -1.609375 0.421875 -4.5q0 -2.15625 -0.4375 -3.59375q-0.34375 -1.0625 -0.859375 -1.515625q-0.390625 -0.3125 -0.921875 -0.3125q-0.640625 0 -1.125 0.578125q-0.671875 0.765625 -0.921875 2.421875q-0.234375 1.640625 -0.234375 3.25z" fill-rule="nonzero"></path><path fill="#f3f3f3" d="m528.0 224.0l32.0 0l0 32.0l-32.0 0z" fill-rule="nonzero"></path><path stroke="#000000" stroke-width="1.0" stroke-linejoin="round" stroke-linecap="butt" d="m528.0 224.0l32.0 0l0 32.0l-32.0 0z" fill-rule="nonzero"></path><path fill="#000000" d="m541.5703 235.57625l3.046875 -1.5l0.3125 0l0 10.625q0 1.0625 0.078125 1.328125q0.09375 0.25 0.375 0.390625q0.28125 0.140625 1.140625 0.15625l0 0.34375l-4.734375 0l0 -0.34375q0.890625 -0.015625 1.140625 -0.140625q0.265625 -0.140625 0.359375 -0.359375q0.109375 -0.234375 0.109375 -1.375l0 -6.796875q0 -1.359375 -0.09375 -1.75q-0.0625 -0.296875 -0.234375 -0.4375q-0.171875 -0.140625 -0.40625 -0.140625q-0.34375 0 -0.96875 0.28125l-0.125 -0.28125z" fill-rule="nonzero"></path><path fill="#f3f3f3" d="m528.0 256.0l32.0 0l0 32.0l-32.0 0z" fill-rule="nonzero"></path><path stroke="#000000" stroke-width="1.0" stroke-linejoin="round" stroke-linecap="butt" d="m528.0 256.0l32.0 0l0 32.0l-32.0 0z" fill-rule="nonzero"></path><path fill="#000000" d="m548.0547 276.4981l-0.890625 2.421875l-7.421875 0l0 -0.34375q3.28125 -2.984375 4.609375 -4.875q1.34375 -1.890625 1.34375 -3.46875q0 -1.1875 -0.734375 -1.953125q-0.734375 -0.78125 -1.75 -0.78125q-0.9375 0 -1.671875 0.546875q-0.734375 0.546875 -1.09375 1.59375l-0.34375 0q0.234375 -1.71875 1.1875 -2.640625q0.96875 -0.921875 2.40625 -0.921875q1.53125 0 2.546875 0.984375q1.03125 0.984375 1.03125 2.328125q0 0.953125 -0.4375 1.90625q-0.6875 1.5 -2.234375 3.1875q-2.3125 2.515625 -2.875 3.03125l3.28125 0q1.0 0 1.40625 -0.0625q0.40625 -0.078125 0.71875 -0.296875q0.328125 -0.234375 0.578125 -0.65625l0.34375 0z" fill-rule="nonzero"></path><path fill="#000000" fill-opacity="0.0" d="m544.0 80.0c0 28.0 0.01574707 42.0 0.03149414 56.0c0.01574707 14.0 0.03149414 28.0 0.03149414 56.0" fill-rule="nonzero"></path><path stroke="#000000" stroke-width="1.0" stroke-linejoin="round" stroke-linecap="butt" d="m544.0 80.0c0 28.0 0.01574707 42.0 0.03149414 56.0c0.007873535 7.0 0.01574707 14.0 0.02166748 22.75c0.0029296875 4.375 0.0053710938 9.1875 0.0071411133 14.65625l0.0018310547 12.59375" fill-rule="evenodd"></path><path fill="#000000" stroke="#000000" stroke-width="1.0" stroke-linecap="butt" d="m542.4104 186.00024l1.6524048 4.537857l1.651062 -4.5383453z" fill-rule="evenodd"></path><path fill="#c9daf8" d="m416.0 176.0l64.0 0l16.0 16.0l-16.0 16.0l-64.0 0l16.0 -16.0z" fill-rule="nonzero"></path><path stroke="#000000" stroke-width="1.0" stroke-linejoin="round" stroke-linecap="butt" d="m416.0 176.0l64.0 0l16.0 16.0l-16.0 16.0l-64.0 0l16.0 -16.0z" fill-rule="nonzero"></path><path fill="#c9daf8" d="m496.0 224.0l-64.0 0l-16.0 16.0l16.0 16.0l64.0 0l-16.0 -16.0z" fill-rule="nonzero"></path><path stroke="#000000" stroke-width="1.0" stroke-linejoin="round" stroke-linecap="butt" d="m496.0 224.0l-64.0 0l-16.0 16.0l16.0 16.0l64.0 0l-16.0 -16.0z" fill-rule="nonzero"></path><path fill="#c9daf8" d="m496.0 272.0l-64.0 0l-16.0 16.0l16.0 16.0l64.0 0l-16.0 -16.0z" fill-rule="nonzero"></path><path stroke="#000000" stroke-width="1.0" stroke-linejoin="round" stroke-linecap="butt" d="m496.0 272.0l-64.0 0l-16.0 16.0l16.0 16.0l64.0 0l-16.0 -16.0z" fill-rule="nonzero"></path><path fill="#000000" fill-opacity="0.0" d="m528.0 208.0c-8.0 0 -12.0 -4.0 -16.0 -8.0c-4.0 -4.0 -8.0 -8.0 -16.0 -8.0" fill-rule="nonzero"></path><path stroke="#000000" stroke-width="1.0" stroke-linejoin="round" stroke-linecap="butt" d="m528.0 208.0c-8.0 0 -12.0 -4.0 -16.0 -8.0c-2.0 -2.0 -4.0 -4.0 -6.5 -5.5c-0.625 -0.375 -1.28125 -0.71875 -1.976532 -1.0234375c-0.34768677 -0.15232849 -0.70510864 -0.29492188 -1.0732422 -0.4267578c-0.09207153 -0.032943726 -0.18475342 -0.06524658 -0.27819824 -0.096847534l-0.23620605 -0.0776062" fill-rule="evenodd"></path><path fill="#000000" stroke="#000000" stroke-width="1.0" stroke-linecap="butt" d="m502.1768 191.24129l-4.73053 0.97198486l4.2485657 2.2961426z" fill-rule="evenodd"></path><path fill="#000000" fill-opacity="0.0" d="m528.0 240.0c-7.999939 0 -9.999817 0.01574707 -15.999817 0.03149414c-6.0000305 0.01574707 -16.000092 0.03149414 -32.000183 0.03149414" fill-rule="nonzero"></path><path stroke="#000000" stroke-width="1.0" stroke-linejoin="round" stroke-linecap="butt" d="m528.0 240.0c-7.999939 0 -9.999817 0.01574707 -15.999817 0.03149414c-3.0000305 0.007873535 -7.0000305 0.01574707 -12.250061 0.021652222c-2.6250305 0.002960205 -5.5625305 0.00541687 -8.843842 0.0071411133l-4.9062805 0.0012054443" fill-rule="evenodd"></path><path fill="#000000" stroke="#000000" stroke-width="1.0" stroke-linecap="butt" d="m485.9996 238.40977l-4.537689 1.6528473l4.5384827 1.6506195z" fill-rule="evenodd"></path><path fill="#000000" fill-opacity="0.0" d="m528.0 272.0c-7.999939 0 -9.999817 4.0 -15.999817 8.0c-6.0000305 4.0 -16.000092 8.0 -32.000183 8.0" fill-rule="nonzero"></path><path stroke="#000000" stroke-width="1.0" stroke-linejoin="round" stroke-linecap="butt" d="m528.0 272.0c-7.999939 0 -9.999817 4.0 -15.999817 8.0c-3.0000305 2.0 -7.0000305 4.0 -12.250061 5.5c-2.6250305 0.75 -5.5625305 1.375 -8.843842 1.8125c-0.820282 0.109375 -1.6621094 0.20703125 -2.525879 0.2919922c-0.43188477 0.04248047 -0.8692322 0.08178711 -1.3121948 0.11779785c-0.22146606 0.018005371 -0.44430542 0.035186768 -0.6685486 0.05154419l-0.4029541 0.027648926" fill-rule="evenodd"></path><path fill="#000000" stroke="#000000" stroke-width="1.0" stroke-linecap="butt" d="m485.94208 286.15067l-4.4809875 1.8009644l4.590271 1.5007019z" fill-rule="evenodd"></path><path fill="#ead1dc" d="m192.0 48.0l64.0 0l0 32.0l-64.0 0z" fill-rule="nonzero"></path><path stroke="#000000" stroke-width="1.0" stroke-linejoin="round" stroke-linecap="butt" d="m192.0 48.0l64.0 0l0 32.0l-64.0 0z" fill-rule="nonzero"></path><path fill="#000000" d="m202.74557 63.26375l2.609375 -1.0625l0.359375 0l0 2.0q0.65625 -1.125 1.3125 -1.578125q0.671875 -0.453125 1.40625 -0.453125q1.28125 0 2.125 1.0q1.046875 1.234375 1.046875 3.1875q0 2.203125 -1.25 3.640625q-1.046875 1.1875 -2.625 1.1875q-0.6875 0 -1.1875 -0.203125q-0.359375 -0.140625 -0.828125 -0.546875l0 2.578125q0 0.875 0.09375 1.109375q0.109375 0.234375 0.375 0.375q0.265625 0.140625 0.96875 0.140625l0 0.34375l-4.453125 0l0 -0.34375l0.234375 0q0.5 0.015625 0.875 -0.1875q0.171875 -0.109375 0.265625 -0.34375q0.09375 -0.21875 0.09375 -1.140625l0 -8.046875q0 -0.8125 -0.078125 -1.03125q-0.0625 -0.234375 -0.234375 -0.34375q-0.15625 -0.109375 -0.4375 -0.109375q-0.21875 0 -0.5625 0.125l-0.109375 -0.296875zm2.96875 1.484375l0 3.171875q0 1.03125 0.078125 1.34375q0.125 0.546875 0.625 0.953125q0.515625 0.40625 1.28125 0.40625q0.9375 0 1.515625 -0.71875q0.75 -0.953125 0.75 -2.671875q0 -1.9375 -0.859375 -3.0q-0.59375 -0.71875 -1.40625 -0.71875q-0.453125 0 -0.890625 0.21875q-0.328125 0.171875 -1.09375 1.015625zm11.78125 4.953125q-1.3125 1.0 -1.640625 1.15625q-0.5 0.234375 -1.0625 0.234375q-0.890625 0 -1.46875 -0.59375q-0.5625 -0.609375 -0.5625 -1.59375q0 -0.625 0.28125 -1.078125q0.390625 -0.625 1.328125 -1.171875q0.9375 -0.5625 3.125 -1.359375l0 -0.34375q0 -1.265625 -0.40625 -1.734375q-0.390625 -0.484375 -1.171875 -0.484375q-0.578125 0 -0.921875 0.3125q-0.359375 0.328125 -0.359375 0.734375l0.015625 0.53125q0 0.4375 -0.21875 0.671875q-0.203125 0.21875 -0.5625 0.21875q-0.34375 0 -0.5625 -0.234375q-0.21875 -0.25 -0.21875 -0.65625q0 -0.796875 0.8125 -1.46875q0.828125 -0.671875 2.296875 -0.671875q1.125 0 1.859375 0.375q0.546875 0.296875 0.796875 0.90625q0.171875 0.40625 0.171875 1.640625l0 2.875q0 1.21875 0.046875 1.5q0.046875 0.265625 0.15625 0.359375q0.109375 0.09375 0.25 0.09375q0.140625 0 0.25 -0.0625q0.203125 -0.125 0.75 -0.6875l0 0.53125q-1.03125 1.390625 -1.984375 1.390625q-0.453125 0 -0.71875 -0.3125q-0.265625 -0.328125 -0.28125 -1.078125zm0 -0.609375l0 -3.234375q-1.390625 0.546875 -1.8125 0.78125q-0.734375 0.40625 -1.046875 0.859375q-0.3125 0.4375 -0.3125 0.96875q0 0.671875 0.390625 1.109375q0.40625 0.4375 0.921875 0.4375q0.71875 0 1.859375 -0.921875zm5.733673 -1.265625q-0.765625 -0.390625 -1.1875 -1.0625q-0.421875 -0.6875 -0.421875 -1.515625q0 -1.265625 0.953125 -2.171875q0.953125 -0.90625 2.4375 -0.90625q1.21875 0 2.109375 0.59375l1.796875 0q0.390625 0 0.453125 0.03125q0.078125 0.015625 0.09375 0.078125q0.0625 0.078125 0.0625 0.296875q0 0.234375 -0.046875 0.328125q-0.03125 0.046875 -0.109375 0.078125q-0.0625 0.03125 -0.453125 0.03125l-1.109375 0q0.515625 0.65625 0.515625 1.703125q0 1.1875 -0.90625 2.03125q-0.90625 0.84375 -2.4375 0.84375q-0.625 0 -1.28125 -0.1875q-0.421875 0.359375 -0.5625 0.625q-0.140625 0.25 -0.140625 0.4375q0 0.15625 0.15625 0.3125q0.15625 0.140625 0.59375 0.203125q0.265625 0.046875 1.296875 0.078125q1.921875 0.046875 2.484375 0.125q0.859375 0.125 1.375 0.640625q0.515625 0.515625 0.515625 1.28125q0 1.046875 -0.984375 1.96875q-1.453125 1.34375 -3.78125 1.34375q-1.78125 0 -3.015625 -0.796875q-0.703125 -0.46875 -0.703125 -0.96875q0 -0.21875 0.109375 -0.4375q0.15625 -0.34375 0.640625 -0.96875q0.0625 -0.078125 0.953125 -1.0q-0.484375 -0.28125 -0.6875 -0.5q-0.203125 -0.234375 -0.203125 -0.53125q0 -0.3125 0.265625 -0.75q0.265625 -0.4375 1.21875 -1.234375zm1.625 -5.203125q-0.6875 0 -1.15625 0.546875q-0.46875 0.546875 -0.46875 1.671875q0 1.46875 0.640625 2.28125q0.484375 0.609375 1.21875 0.609375q0.703125 0 1.15625 -0.53125q0.46875 -0.53125 0.46875 -1.65625q0 -1.484375 -0.640625 -2.3125q-0.484375 -0.609375 -1.21875 -0.609375zm-1.703125 8.296875q-0.4375 0.46875 -0.671875 0.875q-0.21875 0.421875 -0.21875 0.765625q0 0.4375 0.546875 0.765625q0.921875 0.578125 2.671875 0.578125q1.671875 0 2.46875 -0.59375q0.796875 -0.578125 0.796875 -1.25q0 -0.484375 -0.484375 -0.6875q-0.484375 -0.203125 -1.90625 -0.234375q-2.09375 -0.0625 -3.203125 -0.21875zm8.5625 -5.296875q0 1.890625 0.921875 2.96875q0.9375 1.078125 2.1875 1.078125q0.828125 0 1.4375 -0.453125q0.625 -0.46875 1.046875 -1.578125l0.28125 0.1875q-0.1875 1.265625 -1.125 2.3125q-0.9375 1.046875 -2.34375 1.046875q-1.53125 0 -2.625 -1.1875q-1.09375 -1.203125 -1.09375 -3.21875q0 -2.171875 1.109375 -3.390625q1.125 -1.234375 2.8125 -1.234375q1.4375 0 2.34375 0.953125q0.921875 0.9375 0.921875 2.515625l-5.875 0zm0 -0.53125l3.9375 0q-0.046875 -0.828125 -0.1875 -1.15625q-0.234375 -0.515625 -0.703125 -0.8125q-0.453125 -0.296875 -0.953125 -0.296875q-0.765625 0 -1.375 0.59375q-0.609375 0.59375 -0.71875 1.671875zm12.358643 -2.921875l0 2.890625l-0.3125 0q-0.359375 -1.359375 -0.90625 -1.84375q-0.546875 -0.5 -1.40625 -0.5q-0.640625 0 -1.046875 0.34375q-0.40625 0.34375 -0.40625 0.765625q0 0.515625 0.296875 0.890625q0.296875 0.375 1.171875 0.796875l1.359375 0.671875q1.875 0.90625 1.875 2.421875q0 1.15625 -0.875 1.875q-0.875 0.703125 -1.953125 0.703125q-0.78125 0 -1.78125 -0.28125q-0.3125 -0.09375 -0.5 -0.09375q-0.21875 0 -0.34375 0.234375l-0.296875 0l0 -3.03125l0.296875 0q0.265625 1.296875 1.0 1.96875q0.734375 0.65625 1.640625 0.65625q0.640625 0 1.046875 -0.375q0.40625 -0.390625 0.40625 -0.90625q0 -0.640625 -0.453125 -1.078125q-0.453125 -0.4375 -1.796875 -1.109375q-1.34375 -0.671875 -1.765625 -1.203125q-0.421875 -0.53125 -0.421875 -1.34375q0 -1.046875 0.71875 -1.75q0.71875 -0.703125 1.859375 -0.703125q0.515625 0 1.21875 0.21875q0.484375 0.140625 0.640625 0.140625q0.140625 0 0.21875 -0.0625q0.09375 -0.078125 0.203125 -0.296875l0.3125 0z" fill-rule="nonzero"></path><path fill="#ead1dc" d="m448.0 48.0l64.0 0l0 32.0l-64.0 0z" fill-rule="nonzero"></path><path stroke="#000000" stroke-width="1.0" stroke-linejoin="round" stroke-linecap="butt" d="m448.0 48.0l64.0 0l0 32.0l-64.0 0z" fill-rule="nonzero"></path><path fill="#000000" d="m458.74557 63.26375l2.609375 -1.0625l0.359375 0l0 2.0q0.65625 -1.125 1.3125 -1.578125q0.671875 -0.453125 1.40625 -0.453125q1.28125 0 2.125 1.0q1.046875 1.234375 1.046875 3.1875q0 2.203125 -1.25 3.640625q-1.046875 1.1875 -2.625 1.1875q-0.6875 0 -1.1875 -0.203125q-0.359375 -0.140625 -0.828125 -0.546875l0 2.578125q0 0.875 0.09375 1.109375q0.109375 0.234375 0.375 0.375q0.265625 0.140625 0.96875 0.140625l0 0.34375l-4.453125 0l0 -0.34375l0.234375 0q0.5 0.015625 0.875 -0.1875q0.171875 -0.109375 0.265625 -0.34375q0.09375 -0.21875 0.09375 -1.140625l0 -8.046875q0 -0.8125 -0.078125 -1.03125q-0.0625 -0.234375 -0.234375 -0.34375q-0.15625 -0.109375 -0.4375 -0.109375q-0.21875 0 -0.5625 0.125l-0.109375 -0.296875zm2.96875 1.484375l0 3.171875q0 1.03125 0.078125 1.34375q0.125 0.546875 0.625 0.953125q0.515625 0.40625 1.28125 0.40625q0.9375 0 1.515625 -0.71875q0.75 -0.953125 0.75 -2.671875q0 -1.9375 -0.859375 -3.0q-0.59375 -0.71875 -1.40625 -0.71875q-0.453125 0 -0.890625 0.21875q-0.328125 0.171875 -1.09375 1.015625zm11.78125 4.953125q-1.3125 1.0 -1.640625 1.15625q-0.5 0.234375 -1.0625 0.234375q-0.890625 0 -1.46875 -0.59375q-0.5625 -0.609375 -0.5625 -1.59375q0 -0.625 0.28125 -1.078125q0.390625 -0.625 1.328125 -1.171875q0.9375 -0.5625 3.125 -1.359375l0 -0.34375q0 -1.265625 -0.40625 -1.734375q-0.390625 -0.484375 -1.171875 -0.484375q-0.578125 0 -0.921875 0.3125q-0.359375 0.328125 -0.359375 0.734375l0.015625 0.53125q0 0.4375 -0.21875 0.671875q-0.203125 0.21875 -0.5625 0.21875q-0.34375 0 -0.5625 -0.234375q-0.21875 -0.25 -0.21875 -0.65625q0 -0.796875 0.8125 -1.46875q0.828125 -0.671875 2.296875 -0.671875q1.125 0 1.859375 0.375q0.546875 0.296875 0.796875 0.90625q0.171875 0.40625 0.171875 1.640625l0 2.875q0 1.21875 0.046875 1.5q0.046875 0.265625 0.15625 0.359375q0.109375 0.09375 0.25 0.09375q0.140625 0 0.25 -0.0625q0.203125 -0.125 0.75 -0.6875l0 0.53125q-1.03125 1.390625 -1.984375 1.390625q-0.453125 0 -0.71875 -0.3125q-0.265625 -0.328125 -0.28125 -1.078125zm0 -0.609375l0 -3.234375q-1.390625 0.546875 -1.8125 0.78125q-0.734375 0.40625 -1.046875 0.859375q-0.3125 0.4375 -0.3125 0.96875q0 0.671875 0.390625 1.109375q0.40625 0.4375 0.921875 0.4375q0.71875 0 1.859375 -0.921875zm5.733673 -1.265625q-0.765625 -0.390625 -1.1875 -1.0625q-0.421875 -0.6875 -0.421875 -1.515625q0 -1.265625 0.953125 -2.171875q0.953125 -0.90625 2.4375 -0.90625q1.21875 0 2.109375 0.59375l1.796875 0q0.390625 0 0.453125 0.03125q0.078125 0.015625 0.09375 0.078125q0.0625 0.078125 0.0625 0.296875q0 0.234375 -0.046875 0.328125q-0.03125 0.046875 -0.109375 0.078125q-0.0625 0.03125 -0.453125 0.03125l-1.109375 0q0.515625 0.65625 0.515625 1.703125q0 1.1875 -0.90625 2.03125q-0.90625 0.84375 -2.4375 0.84375q-0.625 0 -1.28125 -0.1875q-0.421875 0.359375 -0.5625 0.625q-0.140625 0.25 -0.140625 0.4375q0 0.15625 0.15625 0.3125q0.15625 0.140625 0.59375 0.203125q0.265625 0.046875 1.296875 0.078125q1.921875 0.046875 2.484375 0.125q0.859375 0.125 1.375 0.640625q0.515625 0.515625 0.515625 1.28125q0 1.046875 -0.984375 1.96875q-1.453125 1.34375 -3.78125 1.34375q-1.78125 0 -3.015625 -0.796875q-0.703125 -0.46875 -0.703125 -0.96875q0 -0.21875 0.109375 -0.4375q0.15625 -0.34375 0.640625 -0.96875q0.0625 -0.078125 0.953125 -1.0q-0.484375 -0.28125 -0.6875 -0.5q-0.203125 -0.234375 -0.203125 -0.53125q0 -0.3125 0.265625 -0.75q0.265625 -0.4375 1.21875 -1.234375zm1.625 -5.203125q-0.6875 0 -1.15625 0.546875q-0.46875 0.546875 -0.46875 1.671875q0 1.46875 0.640625 2.28125q0.484375 0.609375 1.21875 0.609375q0.703125 0 1.15625 -0.53125q0.46875 -0.53125 0.46875 -1.65625q0 -1.484375 -0.640625 -2.3125q-0.484375 -0.609375 -1.21875 -0.609375zm-1.703125 8.296875q-0.4375 0.46875 -0.671875 0.875q-0.21875 0.421875 -0.21875 0.765625q0 0.4375 0.546875 0.765625q0.921875 0.578125 2.671875 0.578125q1.671875 0 2.46875 -0.59375q0.796875 -0.578125 0.796875 -1.25q0 -0.484375 -0.484375 -0.6875q-0.484375 -0.203125 -1.90625 -0.234375q-2.09375 -0.0625 -3.203125 -0.21875zm8.5625 -5.296875q0 1.890625 0.921875 2.96875q0.9375 1.078125 2.1875 1.078125q0.828125 0 1.4375 -0.453125q0.625 -0.46875 1.046875 -1.578125l0.28125 0.1875q-0.1875 1.265625 -1.125 2.3125q-0.9375 1.046875 -2.34375 1.046875q-1.53125 0 -2.625 -1.1875q-1.09375 -1.203125 -1.09375 -3.21875q0 -2.171875 1.109375 -3.390625q1.125 -1.234375 2.8125 -1.234375q1.4375 0 2.34375 0.953125q0.921875 0.9375 0.921875 2.515625l-5.875 0zm0 -0.53125l3.9375 0q-0.046875 -0.828125 -0.1875 -1.15625q-0.234375 -0.515625 -0.703125 -0.8125q-0.453125 -0.296875 -0.953125 -0.296875q-0.765625 0 -1.375 0.59375q-0.609375 0.59375 -0.71875 1.671875zm12.358643 -2.921875l0 2.890625l-0.3125 0q-0.359375 -1.359375 -0.90625 -1.84375q-0.546875 -0.5 -1.40625 -0.5q-0.640625 0 -1.046875 0.34375q-0.40625 0.34375 -0.40625 0.765625q0 0.515625 0.296875 0.890625q0.296875 0.375 1.171875 0.796875l1.359375 0.671875q1.875 0.90625 1.875 2.421875q0 1.15625 -0.875 1.875q-0.875 0.703125 -1.953125 0.703125q-0.78125 0 -1.78125 -0.28125q-0.3125 -0.09375 -0.5 -0.09375q-0.21875 0 -0.34375 0.234375l-0.296875 0l0 -3.03125l0.296875 0q0.265625 1.296875 1.0 1.96875q0.734375 0.65625 1.640625 0.65625q0.640625 0 1.046875 -0.375q0.40625 -0.390625 0.40625 -0.90625q0 -0.640625 -0.453125 -1.078125q-0.453125 -0.4375 -1.796875 -1.109375q-1.34375 -0.671875 -1.765625 -1.203125q-0.421875 -0.53125 -0.421875 -1.34375q0 -1.046875 0.71875 -1.75q0.71875 -0.703125 1.859375 -0.703125q0.515625 0 1.21875 0.21875q0.484375 0.140625 0.640625 0.140625q0.140625 0 0.21875 -0.0625q0.09375 -0.078125 0.203125 -0.296875l0.3125 0z" fill-rule="nonzero"></path><path fill="#d9ead3" d="m16.0 320.0l128.0 0l0 32.0l-128.0 0z" fill-rule="nonzero"></path><path stroke="#000000" stroke-width="1.0" stroke-linejoin="round" stroke-linecap="butt" d="m16.0 320.0l128.0 0l0 32.0l-128.0 0z" fill-rule="nonzero"></path><path fill="#000000" d="m42.93605 335.26373l2.609375 -1.0625l0.359375 0l0 2.0q0.65625 -1.125 1.3125 -1.578125q0.671875 -0.453125 1.40625 -0.453125q1.28125 0 2.125 1.0q1.046875 1.234375 1.046875 3.1875q0 2.203125 -1.25 3.640625q-1.046875 1.1875 -2.625 1.1875q-0.6875 0 -1.1875 -0.203125q-0.359375 -0.140625 -0.828125 -0.546875l0 2.578125q0 0.875 0.09375 1.109375q0.109375 0.234375 0.375 0.375q0.265625 0.140625 0.96875 0.140625l0 0.34375l-4.453125 0l0 -0.34375l0.234375 0q0.5 0.015625 0.875 -0.1875q0.171875 -0.109375 0.265625 -0.34375q0.09375 -0.21875 0.09375 -1.140625l0 -8.046875q0 -0.8125 -0.078125 -1.03125q-0.0625 -0.234375 -0.234375 -0.34375q-0.15625 -0.109375 -0.4375 -0.109375q-0.21875 0 -0.5625 0.125l-0.109375 -0.296875zm2.96875 1.484375l0 3.171875q0 1.03125 0.078125 1.34375q0.125 0.546875 0.625 0.953125q0.515625 0.40625 1.28125 0.40625q0.9375 0 1.515625 -0.71875q0.75 -0.953125 0.75 -2.671875q0 -1.9375 -0.859375 -3.0q-0.59375 -0.71875 -1.40625 -0.71875q-0.453125 0 -0.890625 0.21875q-0.328125 0.171875 -1.09375 1.015625zm9.453125 -2.578125l0 1.90625q1.0625 -1.90625 2.1875 -1.90625q0.515625 0 0.84375 0.3125q0.34375 0.3125 0.34375 0.71875q0 0.359375 -0.25 0.609375q-0.234375 0.25 -0.578125 0.25q-0.3125 0 -0.71875 -0.3125q-0.40625 -0.328125 -0.59375 -0.328125q-0.171875 0 -0.375 0.1875q-0.40625 0.375 -0.859375 1.25l0 4.078125q0 0.703125 0.171875 1.0625q0.125 0.25 0.421875 0.421875q0.3125 0.171875 0.890625 0.171875l0 0.328125l-4.34375 0l0 -0.328125q0.640625 0 0.953125 -0.203125q0.234375 -0.15625 0.328125 -0.484375q0.046875 -0.15625 0.046875 -0.890625l0 -3.296875q0 -1.484375 -0.0625 -1.765625q-0.0625 -0.28125 -0.21875 -0.40625q-0.15625 -0.140625 -0.40625 -0.140625q-0.28125 0 -0.640625 0.140625l-0.09375 -0.328125l2.5625 -1.046875l0.390625 0zm7.884552 0q1.9375 0 3.09375 1.46875q1.0 1.25 1.0 2.875q0 1.140625 -0.546875 2.3125q-0.546875 1.171875 -1.515625 1.765625q-0.953125 0.59375 -2.140625 0.59375q-1.90625 0 -3.046875 -1.53125q-0.953125 -1.296875 -0.953125 -2.90625q0 -1.15625 0.578125 -2.3125q0.578125 -1.15625 1.515625 -1.703125q0.953125 -0.5625 2.015625 -0.5625zm-0.28125 0.609375q-0.5 0 -1.0 0.296875q-0.484375 0.28125 -0.796875 1.015625q-0.3125 0.734375 -0.3125 1.890625q0 1.84375 0.734375 3.1875q0.75 1.34375 1.953125 1.34375q0.90625 0 1.484375 -0.734375q0.578125 -0.75 0.578125 -2.546875q0 -2.265625 -0.96875 -3.5625q-0.65625 -0.890625 -1.671875 -0.890625zm12.671875 4.90625q-0.34375 1.6875 -1.34375 2.59375q-1.0 0.90625 -2.21875 0.90625q-1.453125 0 -2.53125 -1.21875q-1.0625 -1.21875 -1.0625 -3.28125q0 -2.015625 1.1875 -3.265625q1.1875 -1.25 2.859375 -1.25q1.25 0 2.0625 0.671875q0.8125 0.65625 0.8125 1.375q0 0.34375 -0.234375 0.5625q-0.234375 0.21875 -0.640625 0.21875q-0.546875 0 -0.828125 -0.34375q-0.15625 -0.203125 -0.203125 -0.75q-0.046875 -0.546875 -0.375 -0.828125q-0.328125 -0.28125 -0.90625 -0.28125q-0.921875 0 -1.484375 0.6875q-0.75 0.90625 -0.75 2.40625q0 1.515625 0.734375 2.6875q0.75 1.15625 2.03125 1.15625q0.90625 0 1.625 -0.625q0.515625 -0.421875 1.0 -1.546875l0.265625 0.125zm2.8430328 1.4375q0.4375 0 0.734375 0.296875q0.296875 0.296875 0.296875 0.734375q0 0.421875 -0.3125 0.734375q-0.296875 0.296875 -0.71875 0.296875q-0.421875 0 -0.734375 -0.296875q-0.296875 -0.3125 -0.296875 -0.734375q0 -0.4375 0.296875 -0.734375q0.3125 -0.296875 0.734375 -0.296875zm8.3828125 -6.953125l0 2.890625l-0.3125 0q-0.359375 -1.359375 -0.90625 -1.84375q-0.546875 -0.5 -1.40625 -0.5q-0.640625 0 -1.046875 0.34375q-0.40625 0.34375 -0.40625 0.765625q0 0.515625 0.296875 0.890625q0.296875 0.375 1.171875 0.796875l1.359375 0.671875q1.875 0.90625 1.875 2.421875q0 1.15625 -0.875 1.875q-0.875 0.703125 -1.953125 0.703125q-0.78125 0 -1.78125 -0.28125q-0.3125 -0.09375 -0.5 -0.09375q-0.21875 0 -0.34375 0.234375l-0.296875 0l0 -3.03125l0.296875 0q0.265625 1.296875 1.0 1.96875q0.734375 0.65625 1.640625 0.65625q0.640625 0 1.046875 -0.375q0.40625 -0.390625 0.40625 -0.90625q0 -0.640625 -0.453125 -1.078125q-0.453125 -0.4375 -1.796875 -1.109375q-1.34375 -0.671875 -1.765625 -1.203125q-0.421875 -0.53125 -0.421875 -1.34375q0 -1.046875 0.71875 -1.75q0.71875 -0.703125 1.859375 -0.703125q0.515625 0 1.21875 0.21875q0.484375 0.140625 0.640625 0.140625q0.140625 0 0.21875 -0.0625q0.09375 -0.078125 0.203125 -0.296875l0.3125 0zm4.229019 -2.546875l0 2.796875l1.984375 0l0 0.65625l-1.984375 0l0 5.5q0 0.828125 0.234375 1.125q0.234375 0.28125 0.609375 0.28125q0.3125 0 0.59375 -0.1875q0.28125 -0.1875 0.4375 -0.5625l0.375 0q-0.328125 0.90625 -0.921875 1.375q-0.59375 0.453125 -1.234375 0.453125q-0.421875 0 -0.828125 -0.234375q-0.40625 -0.234375 -0.609375 -0.671875q-0.1875 -0.453125 -0.1875 -1.375l0 -5.703125l-1.34375 0l0 -0.3125q0.515625 -0.203125 1.046875 -0.6875q0.53125 -0.484375 0.953125 -1.15625q0.203125 -0.359375 0.59375 -1.296875l0.28125 0zm8.714554 10.34375q-0.625 0.640625 -1.21875 0.9375q-0.59375 0.28125 -1.28125 0.28125q-1.390625 0 -2.4375 -1.15625q-1.03125 -1.171875 -1.03125 -3.0q0 -1.828125 1.15625 -3.34375q1.15625 -1.53125 2.953125 -1.53125q1.125 0 1.859375 0.71875l0 -1.5625q0 -1.453125 -0.078125 -1.78125q-0.0625 -0.34375 -0.21875 -0.46875q-0.140625 -0.125 -0.359375 -0.125q-0.234375 0 -0.640625 0.15625l-0.125 -0.328125l2.53125 -1.03125l0.421875 0l0 9.8125q0 1.5 0.0625 1.828125q0.078125 0.328125 0.234375 0.46875q0.15625 0.125 0.359375 0.125q0.25 0 0.65625 -0.15625l0.109375 0.328125l-2.53125 1.046875l-0.421875 0l0 -1.21875zm0 -0.65625l0 -4.375q-0.046875 -0.625 -0.328125 -1.140625q-0.28125 -0.53125 -0.75 -0.796875q-0.453125 -0.265625 -0.890625 -0.265625q-0.8125 0 -1.453125 0.734375q-0.84375 0.96875 -0.84375 2.828125q0 1.875 0.8125 2.875q0.828125 0.984375 1.828125 0.984375q0.84375 0 1.625 -0.84375zm5.484375 -11.578125q0.390625 0 0.65625 0.28125q0.28125 0.265625 0.28125 0.65625q0 0.390625 -0.28125 0.671875q-0.265625 0.265625 -0.65625 0.265625q-0.390625 0 -0.671875 -0.265625q-0.265625 -0.28125 -0.265625 -0.671875q0 -0.390625 0.265625 -0.65625q0.28125 -0.28125 0.671875 -0.28125zm0.78125 4.4375l0 6.828125q0 0.796875 0.109375 1.0625q0.109375 0.265625 0.34375 0.40625q0.234375 0.125 0.828125 0.125l0 0.328125l-4.125 0l0 -0.328125q0.625 0 0.828125 -0.125q0.21875 -0.125 0.34375 -0.390625q0.125 -0.28125 0.125 -1.078125l0 -3.28125q0 -1.375 -0.078125 -1.78125q-0.0625 -0.296875 -0.203125 -0.40625q-0.140625 -0.125 -0.390625 -0.125q-0.25 0 -0.625 0.140625l-0.125 -0.328125l2.5625 -1.046875l0.40625 0zm4.730179 1.796875q1.484375 -1.796875 2.84375 -1.796875q0.6875 0 1.1875 0.359375q0.5 0.34375 0.796875 1.140625q0.21875 0.546875 0.21875 1.703125l0 3.625q0 0.8125 0.125 1.09375q0.09375 0.234375 0.3125 0.375q0.234375 0.125 0.859375 0.125l0 0.328125l-4.203125 0l0 -0.328125l0.171875 0q0.59375 0 0.828125 -0.1875q0.234375 -0.1875 0.328125 -0.53125q0.046875 -0.140625 0.046875 -0.875l0 -3.484375q0 -1.15625 -0.3125 -1.671875q-0.296875 -0.53125 -1.015625 -0.53125q-1.09375 0 -2.1875 1.203125l0 4.484375q0 0.859375 0.09375 1.0625q0.125 0.28125 0.34375 0.40625q0.234375 0.125 0.9375 0.125l0 0.328125l-4.203125 0l0 -0.328125l0.1875 0q0.640625 0 0.875 -0.328125q0.234375 -0.34375 0.234375 -1.265625l0 -3.15625q0 -1.53125 -0.078125 -1.859375q-0.0625 -0.34375 -0.21875 -0.453125q-0.140625 -0.125 -0.375 -0.125q-0.265625 0 -0.625 0.140625l-0.140625 -0.328125l2.5625 -1.046875l0.40625 0l0 1.796875z" fill-rule="nonzero"></path><path fill="#d9ead3" d="m16.0 352.0l128.0 0l0 32.0l-128.0 0z" fill-rule="nonzero"></path><path stroke="#000000" stroke-width="1.0" stroke-linejoin="round" stroke-linecap="butt" d="m16.0 352.0l128.0 0l0 32.0l-128.0 0z" fill-rule="nonzero"></path><path fill="#000000" d="m38.271988 367.26373l2.609375 -1.0625l0.359375 0l0 2.0q0.65625 -1.125 1.3125 -1.578125q0.671875 -0.453125 1.40625 -0.453125q1.28125 0 2.125 1.0q1.046875 1.234375 1.046875 3.1875q0 2.203125 -1.25 3.640625q-1.046875 1.1875 -2.625 1.1875q-0.6875 0 -1.1875 -0.203125q-0.359375 -0.140625 -0.828125 -0.546875l0 2.578125q0 0.875 0.09375 1.109375q0.109375 0.234375 0.375 0.375q0.265625 0.140625 0.96875 0.140625l0 0.34375l-4.453125 0l0 -0.34375l0.234375 0q0.5 0.015625 0.875 -0.1875q0.171875 -0.109375 0.265625 -0.34375q0.09375 -0.21875 0.09375 -1.140625l0 -8.046875q0 -0.8125 -0.078125 -1.03125q-0.0625 -0.234375 -0.234375 -0.34375q-0.15625 -0.109375 -0.4375 -0.109375q-0.21875 0 -0.5625 0.125l-0.109375 -0.296875zm2.96875 1.484375l0 3.171875q0 1.03125 0.078125 1.34375q0.125 0.546875 0.625 0.953125q0.515625 0.40625 1.28125 0.40625q0.9375 0 1.515625 -0.71875q0.75 -0.953125 0.75 -2.671875q0 -1.9375 -0.859375 -3.0q-0.59375 -0.71875 -1.40625 -0.71875q-0.453125 0 -0.890625 0.21875q-0.328125 0.171875 -1.09375 1.015625zm9.453125 -2.578125l0 1.90625q1.0625 -1.90625 2.1875 -1.90625q0.515625 0 0.84375 0.3125q0.34375 0.3125 0.34375 0.71875q0 0.359375 -0.25 0.609375q-0.234375 0.25 -0.578125 0.25q-0.3125 0 -0.71875 -0.3125q-0.40625 -0.328125 -0.59375 -0.328125q-0.171875 0 -0.375 0.1875q-0.40625 0.375 -0.859375 1.25l0 4.078125q0 0.703125 0.171875 1.0625q0.125 0.25 0.421875 0.421875q0.3125 0.171875 0.890625 0.171875l0 0.328125l-4.34375 0l0 -0.328125q0.640625 0 0.953125 -0.203125q0.234375 -0.15625 0.328125 -0.484375q0.046875 -0.15625 0.046875 -0.890625l0 -3.296875q0 -1.484375 -0.0625 -1.765625q-0.0625 -0.28125 -0.21875 -0.40625q-0.15625 -0.140625 -0.40625 -0.140625q-0.28125 0 -0.640625 0.140625l-0.09375 -0.328125l2.5625 -1.046875l0.390625 0zm7.884552 0q1.9375 0 3.09375 1.46875q1.0 1.25 1.0 2.875q0 1.140625 -0.546875 2.3125q-0.546875 1.171875 -1.515625 1.765625q-0.953125 0.59375 -2.140625 0.59375q-1.90625 0 -3.046875 -1.53125q-0.953125 -1.296875 -0.953125 -2.90625q0 -1.15625 0.578125 -2.3125q0.578125 -1.15625 1.515625 -1.703125q0.953125 -0.5625 2.015625 -0.5625zm-0.28125 0.609375q-0.5 0 -1.0 0.296875q-0.484375 0.28125 -0.796875 1.015625q-0.3125 0.734375 -0.3125 1.890625q0 1.84375 0.734375 3.1875q0.75 1.34375 1.953125 1.34375q0.90625 0 1.484375 -0.734375q0.578125 -0.75 0.578125 -2.546875q0 -2.265625 -0.96875 -3.5625q-0.65625 -0.890625 -1.671875 -0.890625zm12.671875 4.90625q-0.34375 1.6875 -1.34375 2.59375q-1.0 0.90625 -2.21875 0.90625q-1.453125 0 -2.53125 -1.21875q-1.0625 -1.21875 -1.0625 -3.28125q0 -2.015625 1.1875 -3.265625q1.1875 -1.25 2.859375 -1.25q1.25 0 2.0625 0.671875q0.8125 0.65625 0.8125 1.375q0 0.34375 -0.234375 0.5625q-0.234375 0.21875 -0.640625 0.21875q-0.546875 0 -0.828125 -0.34375q-0.15625 -0.203125 -0.203125 -0.75q-0.046875 -0.546875 -0.375 -0.828125q-0.328125 -0.28125 -0.90625 -0.28125q-0.921875 0 -1.484375 0.6875q-0.75 0.90625 -0.75 2.40625q0 1.515625 0.734375 2.6875q0.75 1.15625 2.03125 1.15625q0.90625 0 1.625 -0.625q0.515625 -0.421875 1.0 -1.546875l0.265625 0.125zm2.8430328 1.4375q0.4375 0 0.734375 0.296875q0.296875 0.296875 0.296875 0.734375q0 0.421875 -0.3125 0.734375q-0.296875 0.296875 -0.71875 0.296875q-0.421875 0 -0.734375 -0.296875q-0.296875 -0.3125 -0.296875 -0.734375q0 -0.4375 0.296875 -0.734375q0.3125 -0.296875 0.734375 -0.296875zm8.3828125 -6.953125l0 2.890625l-0.3125 0q-0.359375 -1.359375 -0.90625 -1.84375q-0.546875 -0.5 -1.40625 -0.5q-0.640625 0 -1.046875 0.34375q-0.40625 0.34375 -0.40625 0.765625q0 0.515625 0.296875 0.890625q0.296875 0.375 1.171875 0.796875l1.359375 0.671875q1.875 0.90625 1.875 2.421875q0 1.15625 -0.875 1.875q-0.875 0.703125 -1.953125 0.703125q-0.78125 0 -1.78125 -0.28125q-0.3125 -0.09375 -0.5 -0.09375q-0.21875 0 -0.34375 0.234375l-0.296875 0l0 -3.03125l0.296875 0q0.265625 1.296875 1.0 1.96875q0.734375 0.65625 1.640625 0.65625q0.640625 0 1.046875 -0.375q0.40625 -0.390625 0.40625 -0.90625q0 -0.640625 -0.453125 -1.078125q-0.453125 -0.4375 -1.796875 -1.109375q-1.34375 -0.671875 -1.765625 -1.203125q-0.421875 -0.53125 -0.421875 -1.34375q0 -1.046875 0.71875 -1.75q0.71875 -0.703125 1.859375 -0.703125q0.515625 0 1.21875 0.21875q0.484375 0.140625 0.640625 0.140625q0.140625 0 0.21875 -0.0625q0.09375 -0.078125 0.203125 -0.296875l0.3125 0zm4.229019 -2.546875l0 2.796875l1.984375 0l0 0.65625l-1.984375 0l0 5.5q0 0.828125 0.234375 1.125q0.234375 0.28125 0.609375 0.28125q0.3125 0 0.59375 -0.1875q0.28125 -0.1875 0.4375 -0.5625l0.375 0q-0.328125 0.90625 -0.921875 1.375q-0.59375 0.453125 -1.234375 0.453125q-0.421875 0 -0.828125 -0.234375q-0.40625 -0.234375 -0.609375 -0.671875q-0.1875 -0.453125 -0.1875 -1.375l0 -5.703125l-1.34375 0l0 -0.3125q0.515625 -0.203125 1.046875 -0.6875q0.53125 -0.484375 0.953125 -1.15625q0.203125 -0.359375 0.59375 -1.296875l0.28125 0zm8.714554 10.34375q-0.625 0.640625 -1.21875 0.9375q-0.59375 0.28125 -1.28125 0.28125q-1.390625 0 -2.4375 -1.15625q-1.03125 -1.171875 -1.03125 -3.0q0 -1.828125 1.15625 -3.34375q1.15625 -1.53125 2.953125 -1.53125q1.125 0 1.859375 0.71875l0 -1.5625q0 -1.453125 -0.078125 -1.78125q-0.0625 -0.34375 -0.21875 -0.46875q-0.140625 -0.125 -0.359375 -0.125q-0.234375 0 -0.640625 0.15625l-0.125 -0.328125l2.53125 -1.03125l0.421875 0l0 9.8125q0 1.5 0.0625 1.828125q0.078125 0.328125 0.234375 0.46875q0.15625 0.125 0.359375 0.125q0.25 0 0.65625 -0.15625l0.109375 0.328125l-2.53125 1.046875l-0.421875 0l0 -1.21875zm0 -0.65625l0 -4.375q-0.046875 -0.625 -0.328125 -1.140625q-0.28125 -0.53125 -0.75 -0.796875q-0.453125 -0.265625 -0.890625 -0.265625q-0.8125 0 -1.453125 0.734375q-0.84375 0.96875 -0.84375 2.828125q0 1.875 0.8125 2.875q0.828125 0.984375 1.828125 0.984375q0.84375 0 1.625 -0.84375zm7.484375 -7.140625q1.9375 0 3.09375 1.46875q1.0 1.25 1.0 2.875q0 1.140625 -0.546875 2.3125q-0.546875 1.171875 -1.515625 1.765625q-0.953125 0.59375 -2.140625 0.59375q-1.90625 0 -3.046875 -1.53125q-0.953125 -1.296875 -0.953125 -2.90625q0 -1.15625 0.578125 -2.3125q0.578125 -1.15625 1.515625 -1.703125q0.953125 -0.5625 2.015625 -0.5625zm-0.28125 0.609375q-0.5 0 -1.0 0.296875q-0.484375 0.28125 -0.796875 1.015625q-0.3125 0.734375 -0.3125 1.890625q0 1.84375 0.734375 3.1875q0.75 1.34375 1.953125 1.34375q0.90625 0 1.484375 -0.734375q0.578125 -0.75 0.578125 -2.546875q0 -2.265625 -0.96875 -3.5625q-0.65625 -0.890625 -1.671875 -0.890625zm12.90625 -0.359375l0 5.15625q0 1.46875 0.0625 1.796875q0.078125 0.328125 0.21875 0.46875q0.15625 0.125 0.359375 0.125q0.296875 0 0.65625 -0.15625l0.125 0.328125l-2.53125 1.046875l-0.421875 0l0 -1.8125q-1.09375 1.1875 -1.671875 1.5q-0.578125 0.3125 -1.21875 0.3125q-0.71875 0 -1.25 -0.40625q-0.515625 -0.421875 -0.71875 -1.0625q-0.203125 -0.65625 -0.203125 -1.84375l0 -3.796875q0 -0.609375 -0.125 -0.828125q-0.125 -0.234375 -0.390625 -0.359375q-0.25 -0.140625 -0.921875 -0.125l0 -0.34375l2.984375 0l0 5.6875q0 1.1875 0.40625 1.5625q0.421875 0.375 1.0 0.375q0.40625 0 0.90625 -0.25q0.5 -0.25 1.203125 -0.96875l0 -4.8125q0 -0.71875 -0.265625 -0.96875q-0.265625 -0.265625 -1.09375 -0.28125l0 -0.34375l2.890625 0zm4.34375 -2.796875l0 2.796875l1.984375 0l0 0.65625l-1.984375 0l0 5.5q0 0.828125 0.234375 1.125q0.234375 0.28125 0.609375 0.28125q0.3125 0 0.59375 -0.1875q0.28125 -0.1875 0.4375 -0.5625l0.375 0q-0.328125 0.90625 -0.921875 1.375q-0.59375 0.453125 -1.234375 0.453125q-0.421875 0 -0.828125 -0.234375q-0.40625 -0.234375 -0.609375 -0.671875q-0.1875 -0.453125 -0.1875 -1.375l0 -5.703125l-1.34375 0l0 -0.3125q0.515625 -0.203125 1.046875 -0.6875q0.53125 -0.484375 0.953125 -1.15625q0.203125 -0.359375 0.59375 -1.296875l0.28125 0z" fill-rule="nonzero"></path><path fill="#d9ead3" d="m16.0 384.0l128.0 0l0 32.0l-128.0 0z" fill-rule="nonzero"></path><path stroke="#000000" stroke-width="1.0" stroke-linejoin="round" stroke-linecap="butt" d="m16.0 384.0l128.0 0l0 32.0l-128.0 0z" fill-rule="nonzero"></path><path fill="#000000" d="m39.83882 399.26373l2.609375 -1.0625l0.359375 0l0 2.0q0.65625 -1.125 1.3125 -1.578125q0.671875 -0.453125 1.40625 -0.453125q1.28125 0 2.125 1.0q1.046875 1.234375 1.046875 3.1875q0 2.203125 -1.25 3.640625q-1.046875 1.1875 -2.625 1.1875q-0.6875 0 -1.1875 -0.203125q-0.359375 -0.140625 -0.828125 -0.546875l0 2.578125q0 0.875 0.09375 1.109375q0.109375 0.234375 0.375 0.375q0.265625 0.140625 0.96875 0.140625l0 0.34375l-4.453125 0l0 -0.34375l0.234375 0q0.5 0.015625 0.875 -0.1875q0.171875 -0.109375 0.265625 -0.34375q0.09375 -0.21875 0.09375 -1.140625l0 -8.046875q0 -0.8125 -0.078125 -1.03125q-0.0625 -0.234375 -0.234375 -0.34375q-0.15625 -0.109375 -0.4375 -0.109375q-0.21875 0 -0.5625 0.125l-0.109375 -0.296875zm2.96875 1.484375l0 3.171875q0 1.03125 0.078125 1.34375q0.125 0.546875 0.625 0.953125q0.515625 0.40625 1.28125 0.40625q0.9375 0 1.515625 -0.71875q0.75 -0.953125 0.75 -2.671875q0 -1.9375 -0.859375 -3.0q-0.59375 -0.71875 -1.40625 -0.71875q-0.453125 0 -0.890625 0.21875q-0.328125 0.171875 -1.09375 1.015625zm9.453125 -2.578125l0 1.90625q1.0625 -1.90625 2.1875 -1.90625q0.515625 0 0.84375 0.3125q0.34375 0.3125 0.34375 0.71875q0 0.359375 -0.25 0.609375q-0.234375 0.25 -0.578125 0.25q-0.3125 0 -0.71875 -0.3125q-0.40625 -0.328125 -0.59375 -0.328125q-0.171875 0 -0.375 0.1875q-0.40625 0.375 -0.859375 1.25l0 4.078125q0 0.703125 0.171875 1.0625q0.125 0.25 0.421875 0.421875q0.3125 0.171875 0.890625 0.171875l0 0.328125l-4.34375 0l0 -0.328125q0.640625 0 0.953125 -0.203125q0.234375 -0.15625 0.328125 -0.484375q0.046875 -0.15625 0.046875 -0.890625l0 -3.296875q0 -1.484375 -0.0625 -1.765625q-0.0625 -0.28125 -0.21875 -0.40625q-0.15625 -0.140625 -0.40625 -0.140625q-0.28125 0 -0.640625 0.140625l-0.09375 -0.328125l2.5625 -1.046875l0.390625 0zm7.884552 0q1.9375 0 3.09375 1.46875q1.0 1.25 1.0 2.875q0 1.140625 -0.546875 2.3125q-0.546875 1.171875 -1.515625 1.765625q-0.953125 0.59375 -2.140625 0.59375q-1.90625 0 -3.046875 -1.53125q-0.953125 -1.296875 -0.953125 -2.90625q0 -1.15625 0.578125 -2.3125q0.578125 -1.15625 1.515625 -1.703125q0.953125 -0.5625 2.015625 -0.5625zm-0.28125 0.609375q-0.5 0 -1.0 0.296875q-0.484375 0.28125 -0.796875 1.015625q-0.3125 0.734375 -0.3125 1.890625q0 1.84375 0.734375 3.1875q0.75 1.34375 1.953125 1.34375q0.90625 0 1.484375 -0.734375q0.578125 -0.75 0.578125 -2.546875q0 -2.265625 -0.96875 -3.5625q-0.65625 -0.890625 -1.671875 -0.890625zm12.671875 4.90625q-0.34375 1.6875 -1.34375 2.59375q-1.0 0.90625 -2.21875 0.90625q-1.453125 0 -2.53125 -1.21875q-1.0625 -1.21875 -1.0625 -3.28125q0 -2.015625 1.1875 -3.265625q1.1875 -1.25 2.859375 -1.25q1.25 0 2.0625 0.671875q0.8125 0.65625 0.8125 1.375q0 0.34375 -0.234375 0.5625q-0.234375 0.21875 -0.640625 0.21875q-0.546875 0 -0.828125 -0.34375q-0.15625 -0.203125 -0.203125 -0.75q-0.046875 -0.546875 -0.375 -0.828125q-0.328125 -0.28125 -0.90625 -0.28125q-0.921875 0 -1.484375 0.6875q-0.75 0.90625 -0.75 2.40625q0 1.515625 0.734375 2.6875q0.75 1.15625 2.03125 1.15625q0.90625 0 1.625 -0.625q0.515625 -0.421875 1.0 -1.546875l0.265625 0.125zm2.8430328 1.4375q0.4375 0 0.734375 0.296875q0.296875 0.296875 0.296875 0.734375q0 0.421875 -0.3125 0.734375q-0.296875 0.296875 -0.71875 0.296875q-0.421875 0 -0.734375 -0.296875q-0.296875 -0.3125 -0.296875 -0.734375q0 -0.4375 0.296875 -0.734375q0.3125 -0.296875 0.734375 -0.296875zm8.3828125 -6.953125l0 2.890625l-0.3125 0q-0.359375 -1.359375 -0.90625 -1.84375q-0.546875 -0.5 -1.40625 -0.5q-0.640625 0 -1.046875 0.34375q-0.40625 0.34375 -0.40625 0.765625q0 0.515625 0.296875 0.890625q0.296875 0.375 1.171875 0.796875l1.359375 0.671875q1.875 0.90625 1.875 2.421875q0 1.15625 -0.875 1.875q-0.875 0.703125 -1.953125 0.703125q-0.78125 0 -1.78125 -0.28125q-0.3125 -0.09375 -0.5 -0.09375q-0.21875 0 -0.34375 0.234375l-0.296875 0l0 -3.03125l0.296875 0q0.265625 1.296875 1.0 1.96875q0.734375 0.65625 1.640625 0.65625q0.640625 0 1.046875 -0.375q0.40625 -0.390625 0.40625 -0.90625q0 -0.640625 -0.453125 -1.078125q-0.453125 -0.4375 -1.796875 -1.109375q-1.34375 -0.671875 -1.765625 -1.203125q-0.421875 -0.53125 -0.421875 -1.34375q0 -1.046875 0.71875 -1.75q0.71875 -0.703125 1.859375 -0.703125q0.515625 0 1.21875 0.21875q0.484375 0.140625 0.640625 0.140625q0.140625 0 0.21875 -0.0625q0.09375 -0.078125 0.203125 -0.296875l0.3125 0zm4.229019 -2.546875l0 2.796875l1.984375 0l0 0.65625l-1.984375 0l0 5.5q0 0.828125 0.234375 1.125q0.234375 0.28125 0.609375 0.28125q0.3125 0 0.59375 -0.1875q0.28125 -0.1875 0.4375 -0.5625l0.375 0q-0.328125 0.90625 -0.921875 1.375q-0.59375 0.453125 -1.234375 0.453125q-0.421875 0 -0.828125 -0.234375q-0.40625 -0.234375 -0.609375 -0.671875q-0.1875 -0.453125 -0.1875 -1.375l0 -5.703125l-1.34375 0l0 -0.3125q0.515625 -0.203125 1.046875 -0.6875q0.53125 -0.484375 0.953125 -1.15625q0.203125 -0.359375 0.59375 -1.296875l0.28125 0zm8.714554 10.34375q-0.625 0.640625 -1.21875 0.9375q-0.59375 0.28125 -1.28125 0.28125q-1.390625 0 -2.4375 -1.15625q-1.03125 -1.171875 -1.03125 -3.0q0 -1.828125 1.15625 -3.34375q1.15625 -1.53125 2.953125 -1.53125q1.125 0 1.859375 0.71875l0 -1.5625q0 -1.453125 -0.078125 -1.78125q-0.0625 -0.34375 -0.21875 -0.46875q-0.140625 -0.125 -0.359375 -0.125q-0.234375 0 -0.640625 0.15625l-0.125 -0.328125l2.53125 -1.03125l0.421875 0l0 9.8125q0 1.5 0.0625 1.828125q0.078125 0.328125 0.234375 0.46875q0.15625 0.125 0.359375 0.125q0.25 0 0.65625 -0.15625l0.109375 0.328125l-2.53125 1.046875l-0.421875 0l0 -1.21875zm0 -0.65625l0 -4.375q-0.046875 -0.625 -0.328125 -1.140625q-0.28125 -0.53125 -0.75 -0.796875q-0.453125 -0.265625 -0.890625 -0.265625q-0.8125 0 -1.453125 0.734375q-0.84375 0.96875 -0.84375 2.828125q0 1.875 0.8125 2.875q0.828125 0.984375 1.828125 0.984375q0.84375 0 1.625 -0.84375zm4.75 -3.6875q0 1.890625 0.921875 2.96875q0.9375 1.078125 2.1875 1.078125q0.828125 0 1.4375 -0.453125q0.625 -0.46875 1.046875 -1.578125l0.28125 0.1875q-0.1875 1.265625 -1.125 2.3125q-0.9375 1.046875 -2.34375 1.046875q-1.53125 0 -2.625 -1.1875q-1.09375 -1.203125 -1.09375 -3.21875q0 -2.171875 1.109375 -3.390625q1.125 -1.234375 2.8125 -1.234375q1.4375 0 2.34375 0.953125q0.921875 0.9375 0.921875 2.515625l-5.875 0zm0 -0.53125l3.9375 0q-0.046875 -0.828125 -0.1875 -1.15625q-0.234375 -0.515625 -0.703125 -0.8125q-0.453125 -0.296875 -0.953125 -0.296875q-0.765625 0 -1.375 0.59375q-0.609375 0.59375 -0.71875 1.671875zm9.343033 -2.921875l0 1.90625q1.0625 -1.90625 2.1875 -1.90625q0.515625 0 0.84375 0.3125q0.34375 0.3125 0.34375 0.71875q0 0.359375 -0.25 0.609375q-0.234375 0.25 -0.578125 0.25q-0.3125 0 -0.71875 -0.3125q-0.40625 -0.328125 -0.59375 -0.328125q-0.171875 0 -0.375 0.1875q-0.40625 0.375 -0.859375 1.25l0 4.078125q0 0.703125 0.171875 1.0625q0.125 0.25 0.421875 0.421875q0.3125 0.171875 0.890625 0.171875l0 0.328125l-4.34375 0l0 -0.328125q0.640625 0 0.953125 -0.203125q0.234375 -0.15625 0.328125 -0.484375q0.046875 -0.15625 0.046875 -0.890625l0 -3.296875q0 -1.484375 -0.0625 -1.765625q-0.0625 -0.28125 -0.21875 -0.40625q-0.15625 -0.140625 -0.40625 -0.140625q-0.28125 0 -0.640625 0.140625l-0.09375 -0.328125l2.5625 -1.046875l0.390625 0zm6.212677 0l0 1.90625q1.0625 -1.90625 2.1875 -1.90625q0.515625 0 0.84375 0.3125q0.34375 0.3125 0.34375 0.71875q0 0.359375 -0.25 0.609375q-0.234375 0.25 -0.578125 0.25q-0.3125 0 -0.71875 -0.3125q-0.40625 -0.328125 -0.59375 -0.328125q-0.171875 0 -0.375 0.1875q-0.40625 0.375 -0.859375 1.25l0 4.078125q0 0.703125 0.171875 1.0625q0.125 0.25 0.421875 0.421875q0.3125 0.171875 0.890625 0.171875l0 0.328125l-4.34375 0l0 -0.328125q0.640625 0 0.953125 -0.203125q0.234375 -0.15625 0.328125 -0.484375q0.046875 -0.15625 0.046875 -0.890625l0 -3.296875q0 -1.484375 -0.0625 -1.765625q-0.0625 -0.28125 -0.21875 -0.40625q-0.15625 -0.140625 -0.40625 -0.140625q-0.28125 0 -0.640625 0.140625l-0.09375 -0.328125l2.5625 -1.046875l0.390625 0z" fill-rule="nonzero"></path><path fill="#f3f3f3" d="m272.0 288.0l32.0 0l0 32.0l-32.0 0z" fill-rule="nonzero"></path><path stroke="#000000" stroke-width="1.0" stroke-linejoin="round" stroke-linecap="butt" d="m272.0 288.0l32.0 0l0 32.0l-32.0 0z" fill-rule="nonzero"></path><path fill="#000000" d="m285.71094 309.1231q0.4375 0 0.734375 0.296875q0.296875 0.296875 0.296875 0.734375q0 0.421875 -0.3125 0.734375q-0.296875 0.296875 -0.71875 0.296875q-0.421875 0 -0.734375 -0.296875q-0.296875 -0.3125 -0.296875 -0.734375q0 -0.4375 0.296875 -0.734375q0.3125 -0.296875 0.734375 -0.296875zm4.6640625 0q0.4375 0 0.734375 0.296875q0.296875 0.296875 0.296875 0.734375q0 0.421875 -0.3125 0.734375q-0.296875 0.296875 -0.71875 0.296875q-0.421875 0 -0.734375 -0.296875q-0.296875 -0.3125 -0.296875 -0.734375q0 -0.4375 0.296875 -0.734375q0.3125 -0.296875 0.734375 -0.296875z" fill-rule="nonzero"></path><path fill="#f3f3f3" d="m528.0 288.0l32.0 0l0 32.0l-32.0 0z" fill-rule="nonzero"></path><path stroke="#000000" stroke-width="1.0" stroke-linejoin="round" stroke-linecap="butt" d="m528.0 288.0l32.0 0l0 32.0l-32.0 0z" fill-rule="nonzero"></path><path fill="#000000" d="m541.71094 309.1231q0.4375 0 0.734375 0.296875q0.296875 0.296875 0.296875 0.734375q0 0.421875 -0.3125 0.734375q-0.296875 0.296875 -0.71875 0.296875q-0.421875 0 -0.734375 -0.296875q-0.296875 -0.3125 -0.296875 -0.734375q0 -0.4375 0.296875 -0.734375q0.3125 -0.296875 0.734375 -0.296875zm4.6640625 0q0.4375 0 0.734375 0.296875q0.296875 0.296875 0.296875 0.734375q0 0.421875 -0.3125 0.734375q-0.296875 0.296875 -0.71875 0.296875q-0.421875 0 -0.734375 -0.296875q-0.296875 -0.3125 -0.296875 -0.734375q0 -0.4375 0.296875 -0.734375q0.3125 -0.296875 0.734375 -0.296875z" fill-rule="nonzero"></path><path fill="#d9ead3" d="m16.0 416.0l128.0 0l0 32.0l-128.0 0z" fill-rule="nonzero"></path><path stroke="#000000" stroke-width="1.0" stroke-linejoin="round" stroke-linecap="butt" d="m16.0 416.0l128.0 0l0 32.0l-128.0 0z" fill-rule="nonzero"></path><path fill="#000000" d="m75.37891 437.1231q0.4375 0 0.734375 0.296875q0.296875 0.296875 0.296875 0.734375q0 0.421875 -0.3125 0.734375q-0.296875 0.296875 -0.71875 0.296875q-0.421875 0 -0.734375 -0.296875q-0.296875 -0.3125 -0.296875 -0.734375q0 -0.4375 0.296875 -0.734375q0.3125 -0.296875 0.734375 -0.296875zm4.6640625 0q0.4375 0 0.734375 0.296875q0.296875 0.296875 0.296875 0.734375q0 0.421875 -0.3125 0.734375q-0.296875 0.296875 -0.71875 0.296875q-0.421875 0 -0.734375 -0.296875q-0.296875 -0.3125 -0.296875 -0.734375q0 -0.4375 0.296875 -0.734375q0.3125 -0.296875 0.734375 -0.296875zm4.6640625 0q0.4375 0 0.734375 0.296875q0.296875 0.296875 0.296875 0.734375q0 0.421875 -0.3125 0.734375q-0.296875 0.296875 -0.71875 0.296875q-0.421875 0 -0.734375 -0.296875q-0.296875 -0.3125 -0.296875 -0.734375q0 -0.4375 0.296875 -0.734375q0.3125 -0.296875 0.734375 -0.296875z" fill-rule="nonzero"></path><path fill="#d9ead3" d="m16.0 288.0l128.0 0l0 32.0l-128.0 0z" fill-rule="nonzero"></path><path stroke="#000000" stroke-width="1.0" stroke-linejoin="round" stroke-linecap="butt" d="m16.0 288.0l128.0 0l0 32.0l-128.0 0z" fill-rule="nonzero"></path><path fill="#000000" d="m75.37891 309.1231q0.4375 0 0.734375 0.296875q0.296875 0.296875 0.296875 0.734375q0 0.421875 -0.3125 0.734375q-0.296875 0.296875 -0.71875 0.296875q-0.421875 0 -0.734375 -0.296875q-0.296875 -0.3125 -0.296875 -0.734375q0 -0.4375 0.296875 -0.734375q0.3125 -0.296875 0.734375 -0.296875zm4.6640625 0q0.4375 0 0.734375 0.296875q0.296875 0.296875 0.296875 0.734375q0 0.421875 -0.3125 0.734375q-0.296875 0.296875 -0.71875 0.296875q-0.421875 0 -0.734375 -0.296875q-0.296875 -0.3125 -0.296875 -0.734375q0 -0.4375 0.296875 -0.734375q0.3125 -0.296875 0.734375 -0.296875zm4.6640625 0q0.4375 0 0.734375 0.296875q0.296875 0.296875 0.296875 0.734375q0 0.421875 -0.3125 0.734375q-0.296875 0.296875 -0.71875 0.296875q-0.421875 0 -0.734375 -0.296875q-0.296875 -0.3125 -0.296875 -0.734375q0 -0.4375 0.296875 -0.734375q0.3125 -0.296875 0.734375 -0.296875z" fill-rule="nonzero"></path><path fill="#000000" fill-opacity="0.0" d="m224.0 80.0c0 35.999603 -36.0 45.9992 -72.0 71.99921c-36.0 26.0 -72.0 68.0004 -72.0 136.0008" fill-rule="nonzero"></path><path stroke="#000000" stroke-width="1.0" stroke-linejoin="round" stroke-linecap="butt" d="m224.0 80.0c0 35.999603 -36.0 45.9992 -72.0 71.99921c-18.0 13.0 -36.0 30.000092 -49.5 52.250244c-6.75 11.125076 -12.375 23.562653 -16.3125 37.468994c-1.96875 6.953186 -3.515625 14.273544 -4.5703125 21.980621c-0.52734375 3.8535461 -0.9316406 7.803772 -1.2041016 11.853088c-0.13623047 2.0246887 -0.23950195 4.074127 -0.30871582 6.1486816l-0.008743286 0.29992676" fill-rule="evenodd"></path><path fill="#000000" stroke="#000000" stroke-width="1.0" stroke-linecap="butt" d="m78.4441 281.97443l1.5792007 4.563843l1.7238464 -4.5111694z" fill-rule="evenodd"></path><path fill="#f3f3f3" d="m272.0 320.0l32.0 0l0 32.0l-32.0 0z" fill-rule="nonzero"></path><path stroke="#000000" stroke-width="1.0" stroke-linejoin="round" stroke-linecap="butt" d="m272.0 320.0l32.0 0l0 32.0l-32.0 0z" fill-rule="nonzero"></path><path fill="#000000" d="m289.65836 330.84186q0.390625 0 0.65625 0.265625q0.265625 0.265625 0.265625 0.65625q0 0.390625 -0.28125 0.671875q-0.265625 0.265625 -0.640625 0.265625q-0.375 0 -0.65625 -0.265625q-0.265625 -0.28125 -0.265625 -0.671875q0 -0.390625 0.265625 -0.65625q0.265625 -0.265625 0.65625 -0.265625zm0.125 3.6875l-1.84375 6.5q-0.1875 0.65625 -0.1875 0.78125q0 0.15625 0.09375 0.25q0.09375 0.09375 0.203125 0.09375q0.140625 0 0.34375 -0.15625q0.515625 -0.421875 1.0625 -1.1875l0.328125 0.21875q-0.640625 0.96875 -1.484375 1.625q-0.640625 0.484375 -1.21875 0.484375q-0.375 0 -0.625 -0.21875q-0.234375 -0.234375 -0.234375 -0.578125q0 -0.34375 0.234375 -1.140625l1.203125 -4.15625q0.296875 -1.015625 0.296875 -1.28125q0 -0.203125 -0.140625 -0.328125q-0.140625 -0.125 -0.390625 -0.125q-0.203125 0 -0.84375 0.09375l0 -0.359375l3.203125 -0.515625z" fill-rule="nonzero"></path><path fill="#f3f3f3" d="m272.0 352.0l32.0 0l0 32.0l-32.0 0z" fill-rule="nonzero"></path><path stroke="#000000" stroke-width="1.0" stroke-linejoin="round" stroke-linecap="butt" d="m272.0 352.0l32.0 0l0 32.0l-32.0 0z" fill-rule="nonzero"></path><path fill="#000000" d="m292.1172 369.41998q0 1.40625 -0.734375 2.765625q-0.734375 1.359375 -2.0625 2.15625q-1.3125 0.796875 -2.546875 0.796875q-1.28125 0 -2.078125 -0.8125q-0.796875 -0.8125 -0.796875 -2.09375q0 -1.359375 0.78125 -2.734375q0.78125 -1.375 2.09375 -2.171875q1.3125 -0.796875 2.53125 -0.796875q1.234375 0 2.015625 0.8125q0.796875 0.796875 0.796875 2.078125zm-1.53125 -0.625q0 -0.875 -0.421875 -1.328125q-0.421875 -0.453125 -1.09375 -0.453125q-1.359375 0 -2.515625 1.953125q-1.140625 1.9375 -1.140625 3.875q0 0.875 0.4375 1.359375q0.453125 0.484375 1.125 0.484375q1.3125 0 2.453125 -1.9375q1.15625 -1.953125 1.15625 -3.953125z" fill-rule="nonzero"></path><path fill="#f3f3f3" d="m272.0 384.0l32.0 0l0 32.0l-32.0 0z" fill-rule="nonzero"></path><path stroke="#000000" stroke-width="1.0" stroke-linejoin="round" stroke-linecap="butt" d="m272.0 384.0l32.0 0l0 32.0l-32.0 0z" fill-rule="nonzero"></path><path fill="#000000" d="m286.12537 403.41998q-0.0625 0.46875 -0.0625 0.765625q0 0.828125 0.578125 1.40625q0.59375 0.578125 1.421875 0.578125q0.671875 0 1.28125 -0.265625q0.625 -0.28125 1.828125 -1.21875l0.203125 0.28125q-2.203125 2.171875 -4.1875 2.171875q-1.359375 0 -2.046875 -0.84375q-0.6875 -0.859375 -0.6875 -1.890625q0 -1.375 0.84375 -2.828125q0.859375 -1.453125 2.140625 -2.25q1.296875 -0.796875 2.671875 -0.796875q0.984375 0 1.453125 0.40625q0.46875 0.390625 0.46875 0.9375q0 0.765625 -0.609375 1.46875q-0.8125 0.921875 -2.375 1.484375q-1.046875 0.375 -2.921875 0.59375zm0.0625 -0.453125q1.375 -0.15625 2.234375 -0.53125q1.140625 -0.515625 1.703125 -1.21875q0.578125 -0.71875 0.578125 -1.359375q0 -0.390625 -0.25 -0.625q-0.234375 -0.25 -0.6875 -0.25q-0.953125 0 -2.015625 1.015625q-1.0625 1.0 -1.5625 2.96875z" fill-rule="nonzero"></path><path fill="#000000" fill-opacity="0.0" d="m144.0 336.0c32.0 0 48.0 0.01574707 64.0 0.03149414c16.0 0.01574707 32.0 0.03149414 64.0 0.03149414" fill-rule="nonzero"></path><path stroke="#000000" stroke-width="1.0" stroke-linejoin="round" stroke-linecap="butt" d="m144.0 336.0c32.0 0 48.0 0.01574707 64.0 0.03149414c8.0 0.007873535 16.0 0.01574707 26.0 0.02166748c5.0 0.0029296875 10.5 0.0054016113 16.75 0.0071105957l15.25 0.001953125" fill-rule="evenodd"></path><path fill="#000000" stroke="#000000" stroke-width="1.0" stroke-linecap="butt" d="m265.9998 337.71396l4.5382996 -1.6511536l-4.5378723 -1.6523132z" fill-rule="evenodd"></path><path fill="#000000" fill-opacity="0.0" d="m144.0 368.0c32.0 0 48.0 0.01574707 64.0 0.03149414c16.0 0.01574707 32.0 0.03149414 64.0 0.03149414" fill-rule="nonzero"></path><path stroke="#000000" stroke-width="1.0" stroke-linejoin="round" stroke-linecap="butt" d="m144.0 368.0c32.0 0 48.0 0.01574707 64.0 0.03149414c8.0 0.007873535 16.0 0.01574707 26.0 0.02166748c5.0 0.0029296875 10.5 0.0054016113 16.75 0.0071105957l15.25 0.001953125" fill-rule="evenodd"></path><path fill="#000000" stroke="#000000" stroke-width="1.0" stroke-linecap="butt" d="m265.9998 369.71396l4.5382996 -1.6511536l-4.5378723 -1.6523132z" fill-rule="evenodd"></path><path fill="#000000" fill-opacity="0.0" d="m144.0 400.0c32.0 0 48.0 0.01574707 64.0 0.03149414c16.0 0.01574707 32.0 0.03149414 64.0 0.03149414" fill-rule="nonzero"></path><path stroke="#000000" stroke-width="1.0" stroke-linejoin="round" stroke-linecap="butt" d="m144.0 400.0c32.0 0 48.0 0.01574707 64.0 0.03149414c8.0 0.007873535 16.0 0.01574707 26.0 0.02166748c5.0 0.0029296875 10.5 0.0054016113 16.75 0.0071105957l15.25 0.001953125" fill-rule="evenodd"></path><path fill="#000000" stroke="#000000" stroke-width="1.0" stroke-linecap="butt" d="m265.9998 401.71396l4.5382996 -1.6511536l-4.5378723 -1.6523132z" fill-rule="evenodd"></path><path fill="#000000" fill-opacity="0.0" d="m304.0 336.0c28.0 0 40.0 -36.0 56.0 -72.0c16.0 -36.0 36.0 -72.0 72.0 -72.0" fill-rule="nonzero"></path><path stroke="#000000" stroke-width="1.0" stroke-linejoin="round" stroke-linecap="butt" d="m304.0 336.0c28.0 0 40.0 -36.0 56.0 -72.0c8.0 -18.0 17.0 -36.0 28.5 -49.5c5.75 -6.75 12.125 -12.375 19.3125 -16.3125c3.59375 -1.96875 7.390625 -3.515625 11.414032 -4.5703125c2.0117493 -0.5273285 4.0801086 -0.9316406 6.208069 -1.2041168l0.57528687 -0.06892395" fill-rule="evenodd"></path><path fill="#000000" stroke="#000000" stroke-width="1.0" stroke-linecap="butt" d="m426.1046 193.99315l4.4358826 -1.9093018l-4.625366 -1.3887329z" fill-rule="evenodd"></path><path fill="#000000" fill-opacity="0.0" d="m304.0 368.0c28.0 0 42.0 -32.0 56.0 -64.0c14.0 -32.0 28.0 -64.0 56.0 -64.0" fill-rule="nonzero"></path><path stroke="#000000" stroke-width="1.0" stroke-linejoin="round" stroke-linecap="butt" d="m304.0 368.0c28.0 0 42.0 -32.0 56.0 -64.0c7.0 -16.0 14.0 -32.0 22.75 -44.0c4.375 -6.0 9.1875 -11.0 14.65625 -14.5c2.734375 -1.75 5.632782 -3.125 8.722656 -4.0625c0.77246094 -0.234375 1.5568848 -0.441391 2.3536987 -0.6201172c0.3984375 -0.08937073 0.79992676 -0.17163086 1.2045593 -0.2467041l0.33468628 -0.05886841" fill-rule="evenodd"></path><path fill="#000000" stroke="#000000" stroke-width="1.0" stroke-linecap="butt" d="m410.16275 242.15752l4.3806763 -2.0328217l-4.662445 -1.258606z" fill-rule="evenodd"></path><path fill="#000000" fill-opacity="0.0" d="m304.0 400.0c28.0 0 42.0 -28.0 56.0 -56.0c14.0 -28.0 28.0 -56.0 56.0 -56.0" fill-rule="nonzero"></path><path stroke="#000000" stroke-width="1.0" stroke-linejoin="round" stroke-linecap="butt" d="m304.0 400.0c28.0 0 42.0 -28.0 56.0 -56.0c7.0 -14.0 14.0 -28.0 22.75 -38.5c4.375 -5.25 9.1875 -9.625 14.65625 -12.6875c2.734375 -1.53125 5.632782 -2.734375 8.722656 -3.5546875c0.77246094 -0.20507812 1.5568848 -0.38623047 2.3536987 -0.54260254c0.3984375 -0.078186035 0.79992676 -0.150177 1.2045593 -0.21588135l0.32965088 -0.050720215" fill-rule="evenodd"></path><path fill="#000000" stroke="#000000" stroke-width="1.0" stroke-linecap="butt" d="m410.1403 290.0957l4.401886 -1.9863892l-4.6488647 -1.3078308z" fill-rule="evenodd"></path><path fill="#ead1dc" d="m384.0 48.0l64.0 0l0 32.0l-64.0 0z" fill-rule="nonzero"></path><path stroke="#000000" stroke-width="1.0" stroke-linejoin="round" stroke-linecap="butt" d="m384.0 48.0l64.0 0l0 32.0l-64.0 0z" fill-rule="nonzero"></path><path fill="#000000" d="m411.3789 69.12312q0.4375 0 0.734375 0.296875q0.296875 0.296875 0.296875 0.734375q0 0.421875 -0.3125 0.734375q-0.296875 0.296875 -0.71875 0.296875q-0.421875 0 -0.734375 -0.296875q-0.296875 -0.3125 -0.296875 -0.734375q0 -0.4375 0.296875 -0.734375q0.3125 -0.296875 0.734375 -0.296875zm4.6640625 0q0.4375 0 0.734375 0.296875q0.296875 0.296875 0.296875 0.734375q0 0.421875 -0.3125 0.734375q-0.296875 0.296875 -0.71875 0.296875q-0.421875 0 -0.734375 -0.296875q-0.296875 -0.3125 -0.296875 -0.734375q0 -0.4375 0.296875 -0.734375q0.3125 -0.296875 0.734375 -0.296875zm4.6640625 0q0.4375 0 0.734375 0.296875q0.296875 0.296875 0.296875 0.734375q0 0.421875 -0.3125 0.734375q-0.296875 0.296875 -0.71875 0.296875q-0.421875 0 -0.734375 -0.296875q-0.296875 -0.3125 -0.296875 -0.734375q0 -0.4375 0.296875 -0.734375q0.3125 -0.296875 0.734375 -0.296875z" fill-rule="nonzero"></path><path fill="#ead1dc" d="m320.0 16.0l128.0 0l0 32.0l-128.0 0z" fill-rule="nonzero"></path><path stroke="#000000" stroke-width="1.0" stroke-linejoin="round" stroke-linecap="butt" d="m320.0 16.0l128.0 0l0 32.0l-128.0 0z" fill-rule="nonzero"></path><path fill="#000000" d="m379.3789 37.123123q0.4375 0 0.734375 0.296875q0.296875 0.296875 0.296875 0.734375q0 0.421875 -0.3125 0.734375q-0.296875 0.296875 -0.71875 0.296875q-0.421875 0 -0.734375 -0.296875q-0.296875 -0.3125 -0.296875 -0.734375q0 -0.4375 0.296875 -0.734375q0.3125 -0.296875 0.734375 -0.296875zm4.6640625 0q0.4375 0 0.734375 0.296875q0.296875 0.296875 0.296875 0.734375q0 0.421875 -0.3125 0.734375q-0.296875 0.296875 -0.71875 0.296875q-0.421875 0 -0.734375 -0.296875q-0.296875 -0.3125 -0.296875 -0.734375q0 -0.4375 0.296875 -0.734375q0.3125 -0.296875 0.734375 -0.296875zm4.6640625 0q0.4375 0 0.734375 0.296875q0.296875 0.296875 0.296875 0.734375q0 0.421875 -0.3125 0.734375q-0.296875 0.296875 -0.71875 0.296875q-0.421875 0 -0.734375 -0.296875q-0.296875 -0.3125 -0.296875 -0.734375q0 -0.4375 0.296875 -0.734375q0.3125 -0.296875 0.734375 -0.296875z" fill-rule="nonzero"></path><path fill="#ead1dc" d="m320.0 48.0l64.0 0l0 32.0l-64.0 0z" fill-rule="nonzero"></path><path stroke="#000000" stroke-width="1.0" stroke-linejoin="round" stroke-linecap="butt" d="m320.0 48.0l64.0 0l0 32.0l-64.0 0z" fill-rule="nonzero"></path><path fill="#000000" d="m347.3789 69.12312q0.4375 0 0.734375 0.296875q0.296875 0.296875 0.296875 0.734375q0 0.421875 -0.3125 0.734375q-0.296875 0.296875 -0.71875 0.296875q-0.421875 0 -0.734375 -0.296875q-0.296875 -0.3125 -0.296875 -0.734375q0 -0.4375 0.296875 -0.734375q0.3125 -0.296875 0.734375 -0.296875zm4.6640625 0q0.4375 0 0.734375 0.296875q0.296875 0.296875 0.296875 0.734375q0 0.421875 -0.3125 0.734375q-0.296875 0.296875 -0.71875 0.296875q-0.421875 0 -0.734375 -0.296875q-0.296875 -0.3125 -0.296875 -0.734375q0 -0.4375 0.296875 -0.734375q0.3125 -0.296875 0.734375 -0.296875zm4.6640625 0q0.4375 0 0.734375 0.296875q0.296875 0.296875 0.296875 0.734375q0 0.421875 -0.3125 0.734375q-0.296875 0.296875 -0.71875 0.296875q-0.421875 0 -0.734375 -0.296875q-0.296875 -0.3125 -0.296875 -0.734375q0 -0.4375 0.296875 -0.734375q0.3125 -0.296875 0.734375 -0.296875z" fill-rule="nonzero"></path><path fill="#ead1dc" d="m640.0 48.0l64.0 0l0 32.0l-64.0 0z" fill-rule="nonzero"></path><path stroke="#000000" stroke-width="1.0" stroke-linejoin="round" stroke-linecap="butt" d="m640.0 48.0l64.0 0l0 32.0l-64.0 0z" fill-rule="nonzero"></path><path fill="#000000" d="m667.3789 69.12312q0.4375 0 0.734375 0.296875q0.296875 0.296875 0.296875 0.734375q0 0.421875 -0.3125 0.734375q-0.296875 0.296875 -0.71875 0.296875q-0.421875 0 -0.734375 -0.296875q-0.296875 -0.3125 -0.296875 -0.734375q0 -0.4375 0.296875 -0.734375q0.3125 -0.296875 0.734375 -0.296875zm4.6640625 0q0.4375 0 0.734375 0.296875q0.296875 0.296875 0.296875 0.734375q0 0.421875 -0.3125 0.734375q-0.296875 0.296875 -0.71875 0.296875q-0.421875 0 -0.734375 -0.296875q-0.296875 -0.3125 -0.296875 -0.734375q0 -0.4375 0.296875 -0.734375q0.3125 -0.296875 0.734375 -0.296875zm4.6640625 0q0.4375 0 0.734375 0.296875q0.296875 0.296875 0.296875 0.734375q0 0.421875 -0.3125 0.734375q-0.296875 0.296875 -0.71875 0.296875q-0.421875 0 -0.734375 -0.296875q-0.296875 -0.3125 -0.296875 -0.734375q0 -0.4375 0.296875 -0.734375q0.3125 -0.296875 0.734375 -0.296875z" fill-rule="nonzero"></path><path fill="#ead1dc" d="m576.0 16.0l128.0 0l0 32.0l-128.0 0z" fill-rule="nonzero"></path><path stroke="#000000" stroke-width="1.0" stroke-linejoin="round" stroke-linecap="butt" d="m576.0 16.0l128.0 0l0 32.0l-128.0 0z" fill-rule="nonzero"></path><path fill="#000000" d="m635.3789 37.123123q0.4375 0 0.734375 0.296875q0.296875 0.296875 0.296875 0.734375q0 0.421875 -0.3125 0.734375q-0.296875 0.296875 -0.71875 0.296875q-0.421875 0 -0.734375 -0.296875q-0.296875 -0.3125 -0.296875 -0.734375q0 -0.4375 0.296875 -0.734375q0.3125 -0.296875 0.734375 -0.296875zm4.6640625 0q0.4375 0 0.734375 0.296875q0.296875 0.296875 0.296875 0.734375q0 0.421875 -0.3125 0.734375q-0.296875 0.296875 -0.71875 0.296875q-0.421875 0 -0.734375 -0.296875q-0.296875 -0.3125 -0.296875 -0.734375q0 -0.4375 0.296875 -0.734375q0.3125 -0.296875 0.734375 -0.296875zm4.6640625 0q0.4375 0 0.734375 0.296875q0.296875 0.296875 0.296875 0.734375q0 0.421875 -0.3125 0.734375q-0.296875 0.296875 -0.71875 0.296875q-0.421875 0 -0.734375 -0.296875q-0.296875 -0.3125 -0.296875 -0.734375q0 -0.4375 0.296875 -0.734375q0.3125 -0.296875 0.734375 -0.296875z" fill-rule="nonzero"></path><path fill="#ead1dc" d="m576.0 48.0l64.0 0l0 32.0l-64.0 0z" fill-rule="nonzero"></path><path stroke="#000000" stroke-width="1.0" stroke-linejoin="round" stroke-linecap="butt" d="m576.0 48.0l64.0 0l0 32.0l-64.0 0z" fill-rule="nonzero"></path><path fill="#000000" d="m603.3789 69.12312q0.4375 0 0.734375 0.296875q0.296875 0.296875 0.296875 0.734375q0 0.421875 -0.3125 0.734375q-0.296875 0.296875 -0.71875 0.296875q-0.421875 0 -0.734375 -0.296875q-0.296875 -0.3125 -0.296875 -0.734375q0 -0.4375 0.296875 -0.734375q0.3125 -0.296875 0.734375 -0.296875zm4.6640625 0q0.4375 0 0.734375 0.296875q0.296875 0.296875 0.296875 0.734375q0 0.421875 -0.3125 0.734375q-0.296875 0.296875 -0.71875 0.296875q-0.421875 0 -0.734375 -0.296875q-0.296875 -0.3125 -0.296875 -0.734375q0 -0.4375 0.296875 -0.734375q0.3125 -0.296875 0.734375 -0.296875zm4.6640625 0q0.4375 0 0.734375 0.296875q0.296875 0.296875 0.296875 0.734375q0 0.421875 -0.3125 0.734375q-0.296875 0.296875 -0.71875 0.296875q-0.421875 0 -0.734375 -0.296875q-0.296875 -0.3125 -0.296875 -0.734375q0 -0.4375 0.296875 -0.734375q0.3125 -0.296875 0.734375 -0.296875z" fill-rule="nonzero"></path><path fill="#ead1dc" d="m128.0 48.0l64.0 0l0 32.0l-64.0 0z" fill-rule="nonzero"></path><path stroke="#000000" stroke-width="1.0" stroke-linejoin="round" stroke-linecap="butt" d="m128.0 48.0l64.0 0l0 32.0l-64.0 0z" fill-rule="nonzero"></path><path fill="#000000" d="m155.3789 69.12312q0.4375 0 0.734375 0.296875q0.296875 0.296875 0.296875 0.734375q0 0.421875 -0.3125 0.734375q-0.296875 0.296875 -0.71875 0.296875q-0.421875 0 -0.734375 -0.296875q-0.296875 -0.3125 -0.296875 -0.734375q0 -0.4375 0.296875 -0.734375q0.3125 -0.296875 0.734375 -0.296875zm4.6640625 0q0.4375 0 0.734375 0.296875q0.296875 0.296875 0.296875 0.734375q0 0.421875 -0.3125 0.734375q-0.296875 0.296875 -0.71875 0.296875q-0.421875 0 -0.734375 -0.296875q-0.296875 -0.3125 -0.296875 -0.734375q0 -0.4375 0.296875 -0.734375q0.3125 -0.296875 0.734375 -0.296875zm4.6640625 0q0.4375 0 0.734375 0.296875q0.296875 0.296875 0.296875 0.734375q0 0.421875 -0.3125 0.734375q-0.296875 0.296875 -0.71875 0.296875q-0.421875 0 -0.734375 -0.296875q-0.296875 -0.3125 -0.296875 -0.734375q0 -0.4375 0.296875 -0.734375q0.3125 -0.296875 0.734375 -0.296875z" fill-rule="nonzero"></path><path fill="#ead1dc" d="m64.0 16.0l128.0 0l0 32.0l-128.0 0z" fill-rule="nonzero"></path><path stroke="#000000" stroke-width="1.0" stroke-linejoin="round" stroke-linecap="butt" d="m64.0 16.0l128.0 0l0 32.0l-128.0 0z" fill-rule="nonzero"></path><path fill="#000000" d="m123.37891 37.123123q0.4375 0 0.734375 0.296875q0.296875 0.296875 0.296875 0.734375q0 0.421875 -0.3125 0.734375q-0.296875 0.296875 -0.71875 0.296875q-0.421875 0 -0.734375 -0.296875q-0.296875 -0.3125 -0.296875 -0.734375q0 -0.4375 0.296875 -0.734375q0.3125 -0.296875 0.734375 -0.296875zm4.6640625 0q0.4375 0 0.734375 0.296875q0.296875 0.296875 0.296875 0.734375q0 0.421875 -0.3125 0.734375q-0.296875 0.296875 -0.71875 0.296875q-0.421875 0 -0.734375 -0.296875q-0.296875 -0.3125 -0.296875 -0.734375q0 -0.4375 0.296875 -0.734375q0.3125 -0.296875 0.734375 -0.296875zm4.6640625 0q0.4375 0 0.734375 0.296875q0.296875 0.296875 0.296875 0.734375q0 0.421875 -0.3125 0.734375q-0.296875 0.296875 -0.71875 0.296875q-0.421875 0 -0.734375 -0.296875q-0.296875 -0.3125 -0.296875 -0.734375q0 -0.4375 0.296875 -0.734375q0.3125 -0.296875 0.734375 -0.296875z" fill-rule="nonzero"></path><path fill="#ead1dc" d="m64.0 48.0l64.0 0l0 32.0l-64.0 0z" fill-rule="nonzero"></path><path stroke="#000000" stroke-width="1.0" stroke-linejoin="round" stroke-linecap="butt" d="m64.0 48.0l64.0 0l0 32.0l-64.0 0z" fill-rule="nonzero"></path><path fill="#000000" d="m91.37891 69.12312q0.4375 0 0.734375 0.296875q0.296875 0.296875 0.296875 0.734375q0 0.421875 -0.3125 0.734375q-0.296875 0.296875 -0.71875 0.296875q-0.421875 0 -0.734375 -0.296875q-0.296875 -0.3125 -0.296875 -0.734375q0 -0.4375 0.296875 -0.734375q0.3125 -0.296875 0.734375 -0.296875zm4.6640625 0q0.4375 0 0.734375 0.296875q0.296875 0.296875 0.296875 0.734375q0 0.421875 -0.3125 0.734375q-0.296875 0.296875 -0.71875 0.296875q-0.421875 0 -0.734375 -0.296875q-0.296875 -0.3125 -0.296875 -0.734375q0 -0.4375 0.296875 -0.734375q0.3125 -0.296875 0.734375 -0.296875zm4.6640625 0q0.4375 0 0.734375 0.296875q0.296875 0.296875 0.296875 0.734375q0 0.421875 -0.3125 0.734375q-0.296875 0.296875 -0.71875 0.296875q-0.421875 0 -0.734375 -0.296875q-0.296875 -0.3125 -0.296875 -0.734375q0 -0.4375 0.296875 -0.734375q0.3125 -0.296875 0.734375 -0.296875z" fill-rule="nonzero"></path><path fill="#000000" fill-opacity="0.0" d="m480.0 80.0c0 24.0 -32.0 48.0 -64.0 48.0" fill-rule="nonzero"></path><path stroke="#000000" stroke-width="1.0" stroke-linejoin="round" stroke-linecap="butt" d="m480.0 80.0c0 24.0 -32.0 48.0 -64.0 48.0" fill-rule="nonzero"></path></g></svg>

