<svg version="1.1" viewBox="0.0 0.0 506.1443569553806 306.68766404199476" fill="none" stroke="none" stroke-linecap="square" stroke-miterlimit="10" xmlns:xlink="http://www.w3.org/1999/xlink" xmlns="http://www.w3.org/2000/svg"><clipPath id="p.0"><path d="m0 0l506.14435 0l0 306.68765l-506.14435 0l0 -306.68765z" clip-rule="nonzero"/></clipPath><g clip-path="url(#p.0)"><path fill="#000000" fill-opacity="0.0" d="m0 0l506.14435 0l0 306.68765l-506.14435 0z" fill-rule="evenodd"/><path fill="#000000" fill-opacity="0.0" d="m208.0 128.0l56.0 0l0 24.0l-56.0 0z" fill-rule="evenodd"/><path fill="#000000" d="m237.26251 144.8l-1.171875 0l0 -7.46875q-0.421875 0.40625 -1.109375 0.8125q-0.6875 0.40625 -1.234375 0.609375l0 -1.140625q0.984375 -0.453125 1.71875 -1.109375q0.734375 -0.671875 1.03125 -1.28125l0.765625 0l0 9.578125z" fill-rule="nonzero"/><path fill="#c9daf8" d="m8.0 40.0l120.0 0l0 40.0l-120.0 0z" fill-rule="evenodd"/><path fill="#000000" d="m20.618073 62.623123l1.65625 -0.140625q0.125 1.0 0.546875 1.640625q0.4375 0.640625 1.34375 1.046875q0.921875 0.390625 2.0625 0.390625q1.0 0 1.78125 -0.296875q0.78125 -0.296875 1.15625 -0.8125q0.375 -0.53125 0.375 -1.15625q0 -0.625 -0.375 -1.09375q-0.359375 -0.46875 -1.1875 -0.796875q-0.546875 -0.203125 -2.390625 -0.640625q-1.828125 -0.453125 -2.5625 -0.84375q-0.96875 -0.5 -1.4375 -1.234375q-0.46875 -0.75 -0.46875 -1.671875q0 -1.0 0.578125 -1.875q0.578125 -0.890625 1.671875 -1.34375q1.109375 -0.453125 2.453125 -0.453125q1.484375 0 2.609375 0.484375q1.140625 0.46875 1.75 1.40625q0.609375 0.921875 0.65625 2.09375l-1.6875 0.125q-0.140625 -1.265625 -0.9375 -1.90625q-0.78125 -0.65625 -2.3125 -0.65625q-1.609375 0 -2.34375 0.59375q-0.734375 0.59375 -0.734375 1.421875q0 0.71875 0.53125 1.171875q0.5 0.46875 2.65625 0.96875q2.15625 0.484375 2.953125 0.84375q1.171875 0.53125 1.71875 1.359375q0.5625 0.828125 0.5625 1.90625q0 1.0625 -0.609375 2.015625q-0.609375 0.9375 -1.75 1.46875q-1.140625 0.515625 -2.578125 0.515625q-1.8125 0 -3.046875 -0.53125q-1.21875 -0.53125 -1.921875 -1.59375q-0.6875 -1.0625 -0.71875 -2.40625zm19.162323 4.296875l0 -1.421875q-1.125 1.640625 -3.0625 1.640625q-0.859375 0 -1.609375 -0.328125q-0.734375 -0.328125 -1.09375 -0.828125q-0.359375 -0.5 -0.5 -1.21875q-0.109375 -0.46875 -0.109375 -1.53125l0 -5.984375l1.640625 0l0 5.359375q0 1.28125 0.109375 1.734375q0.15625 0.640625 0.65625 1.015625q0.5 0.375 1.234375 0.375q0.734375 0 1.375 -0.375q0.65625 -0.390625 0.921875 -1.03125q0.265625 -0.65625 0.265625 -1.890625l0 -5.1875l1.640625 0l0 9.671875l-1.46875 0zm3.3913422 -2.890625l1.625 -0.25q0.125 0.96875 0.75 1.5q0.625 0.515625 1.75 0.515625q1.125 0 1.671875 -0.453125q0.546875 -0.46875 0.546875 -1.09375q0 -0.546875 -0.484375 -0.875q-0.328125 -0.21875 -1.671875 -0.546875q-1.8125 -0.46875 -2.515625 -0.796875q-0.6875 -0.328125 -1.046875 -0.90625q-0.359375 -0.59375 -0.359375 -1.3125q0 -0.640625 0.296875 -1.1875q0.296875 -0.5625 0.8125 -0.921875q0.375 -0.28125 1.03125 -0.46875q0.671875 -0.203125 1.421875 -0.203125q1.140625 0 2.0 0.328125q0.859375 0.328125 1.265625 0.890625q0.421875 0.5625 0.578125 1.5l-1.609375 0.21875q-0.109375 -0.75 -0.640625 -1.171875q-0.515625 -0.421875 -1.46875 -0.421875q-1.140625 0 -1.625 0.375q-0.46875 0.375 -0.46875 0.875q0 0.3125 0.1875 0.578125q0.203125 0.265625 0.640625 0.4375q0.234375 0.09375 1.4375 0.421875q1.75 0.453125 2.4375 0.75q0.6875 0.296875 1.078125 0.859375q0.390625 0.5625 0.390625 1.40625q0 0.828125 -0.484375 1.546875q-0.46875 0.71875 -1.375 1.125q-0.90625 0.390625 -2.046875 0.390625q-1.875 0 -2.875 -0.78125q-0.984375 -0.78125 -1.25 -2.328125zm16.296875 -0.65625l1.609375 0.21875q-0.265625 1.65625 -1.359375 2.609375q-1.078125 0.9375 -2.671875 0.9375q-1.984375 0 -3.1875 -1.296875q-1.203125 -1.296875 -1.203125 -3.71875q0 -1.578125 0.515625 -2.75q0.515625 -1.171875 1.578125 -1.75q1.0625 -0.59375 2.3125 -0.59375q1.578125 0 2.578125 0.796875q1.0 0.796875 1.28125 2.265625l-1.59375 0.234375q-0.234375 -0.96875 -0.8125 -1.453125q-0.578125 -0.5 -1.390625 -0.5q-1.234375 0 -2.015625 0.890625q-0.78125 0.890625 -0.78125 2.8125q0 1.953125 0.75 2.84375q0.75 0.875 1.953125 0.875q0.96875 0 1.609375 -0.59375q0.65625 -0.59375 0.828125 -1.828125zm9.640625 0.4375l1.6875 0.203125q-0.40625 1.484375 -1.484375 2.3125q-1.078125 0.8125 -2.765625 0.8125q-2.125 0 -3.375 -1.296875q-1.234375 -1.3125 -1.234375 -3.671875q0 -2.453125 1.25 -3.796875q1.265625 -1.34375 3.265625 -1.34375q1.9375 0 3.15625 1.328125q1.234375 1.3125 1.234375 3.703125q0 0.15625 0 0.4375l-7.21875 0q0.09375 1.59375 0.90625 2.453125q0.8125 0.84375 2.015625 0.84375q0.90625 0 1.546875 -0.46875q0.640625 -0.484375 1.015625 -1.515625zm-5.390625 -2.65625l5.40625 0q-0.109375 -1.21875 -0.625 -1.828125q-0.78125 -0.953125 -2.03125 -0.953125q-1.125 0 -1.90625 0.765625q-0.765625 0.75 -0.84375 2.015625zm9.141342 9.46875l0 -13.375l1.484375 0l0 1.25q0.53125 -0.734375 1.1875 -1.09375q0.671875 -0.375 1.625 -0.375q1.234375 0 2.171875 0.640625q0.953125 0.625 1.4375 1.796875q0.484375 1.15625 0.484375 2.546875q0 1.484375 -0.53125 2.671875q-0.53125 1.1875 -1.546875 1.828125q-1.015625 0.625 -2.140625 0.625q-0.8125 0 -1.46875 -0.34375q-0.65625 -0.34375 -1.0625 -0.875l0 4.703125l-1.640625 0zm1.484375 -8.484375q0 1.859375 0.75 2.765625q0.765625 0.890625 1.828125 0.890625q1.09375 0 1.875 -0.921875q0.78125 -0.9375 0.78125 -2.875q0 -1.84375 -0.765625 -2.765625q-0.75 -0.921875 -1.8125 -0.921875q-1.046875 0 -1.859375 0.984375q-0.796875 0.96875 -0.796875 2.84375zm12.469467 3.3125l0.234375 1.453125q-0.6875 0.140625 -1.234375 0.140625q-0.890625 0 -1.390625 -0.28125q-0.484375 -0.28125 -0.6875 -0.734375q-0.203125 -0.46875 -0.203125 -1.9375l0 -5.578125l-1.203125 0l0 -1.265625l1.203125 0l0 -2.390625l1.625 -0.984375l0 3.375l1.65625 0l0 1.265625l-1.65625 0l0 5.671875q0 0.6875 0.078125 0.890625q0.09375 0.203125 0.28125 0.328125q0.203125 0.109375 0.578125 0.109375q0.265625 0 0.71875 -0.0625zm1.6051788 -10.0l0 -1.890625l1.640625 0l0 1.890625l-1.640625 0zm0 11.46875l0 -9.671875l1.640625 0l0 9.671875l-1.640625 0zm5.644821 0l-1.515625 0l0 -13.359375l1.640625 0l0 4.765625q1.046875 -1.296875 2.65625 -1.296875q0.890625 0 1.6875 0.359375q0.796875 0.359375 1.3125 1.015625q0.515625 0.640625 0.796875 1.5625q0.296875 0.921875 0.296875 1.96875q0 2.484375 -1.234375 3.84375q-1.21875 1.359375 -2.953125 1.359375q-1.703125 0 -2.6875 -1.4375l0 1.21875zm-0.015625 -4.90625q0 1.734375 0.484375 2.515625q0.765625 1.265625 2.09375 1.265625q1.078125 0 1.859375 -0.9375q0.78125 -0.9375 0.78125 -2.78125q0 -1.890625 -0.75 -2.796875q-0.75 -0.90625 -1.828125 -0.90625q-1.0625 0 -1.859375 0.9375q-0.78125 0.9375 -0.78125 2.703125zm8.844467 4.90625l0 -13.359375l1.640625 0l0 13.359375l-1.640625 0zm10.816696 -3.109375l1.6875 0.203125q-0.40625 1.484375 -1.484375 2.3125q-1.078125 0.8125 -2.765625 0.8125q-2.125 0 -3.375 -1.296875q-1.234375 -1.3125 -1.234375 -3.671875q0 -2.453125 1.25 -3.796875q1.265625 -1.34375 3.265625 -1.34375q1.9375 0 3.15625 1.328125q1.234375 1.3125 1.234375 3.703125q0 0.15625 0 0.4375l-7.21875 0q0.09375 1.59375 0.90625 2.453125q0.8125 0.84375 2.015625 0.84375q0.90625 0 1.546875 -0.46875q0.640625 -0.484375 1.015625 -1.515625zm-5.390625 -2.65625l5.40625 0q-0.109375 -1.21875 -0.625 -1.828125q-0.78125 -0.953125 -2.03125 -0.953125q-1.125 0 -1.90625 0.765625q-0.765625 0.75 -0.84375 2.015625z" fill-rule="nonzero"/><path fill="#f4cccc" d="m8.0 112.0l120.0 0l0 40.0l-120.0 0z" fill-rule="evenodd"/><path fill="#000000" d="m36.543922 138.92l0 -13.359375l1.765625 0l0 13.359375l-1.765625 0zm4.683304 0l0 -9.671875l1.46875 0l0 1.375q1.0625 -1.59375 3.078125 -1.59375q0.875 0 1.609375 0.3125q0.734375 0.3125 1.09375 0.828125q0.375 0.5 0.515625 1.203125q0.09375 0.453125 0.09375 1.59375l0 5.953125l-1.640625 0l0 -5.890625q0 -1.0 -0.203125 -1.484375q-0.1875 -0.5 -0.671875 -0.796875q-0.484375 -0.296875 -1.140625 -0.296875q-1.046875 0 -1.8125 0.671875q-0.75 0.65625 -0.75 2.515625l0 5.28125l-1.640625 0zm10.766342 0l0 -8.40625l-1.453125 0l0 -1.265625l1.453125 0l0 -1.03125q0 -0.96875 0.171875 -1.453125q0.234375 -0.640625 0.828125 -1.03125q0.59375 -0.390625 1.671875 -0.390625q0.6875 0 1.53125 0.15625l-0.25 1.4375q-0.5 -0.09375 -0.953125 -0.09375q-0.75 0 -1.0625 0.328125q-0.3125 0.3125 -0.3125 1.1875l0 0.890625l1.890625 0l0 1.265625l-1.890625 0l0 8.40625l-1.625 0zm11.417679 -3.109375l1.6875 0.203125q-0.40625 1.484375 -1.484375 2.3125q-1.078125 0.8125 -2.765625 0.8125q-2.125 0 -3.375 -1.296875q-1.234375 -1.3125 -1.234375 -3.671875q0 -2.453125 1.25 -3.796875q1.265625 -1.34375 3.265625 -1.34375q1.9375 0 3.15625 1.328125q1.234375 1.3125 1.234375 3.703125q0 0.15625 0 0.4375l-7.21875 0q0.09375 1.59375 0.90625 2.453125q0.8125 0.84375 2.015625 0.84375q0.90625 0 1.546875 -0.46875q0.640625 -0.484375 1.015625 -1.515625zm-5.390625 -2.65625l5.40625 0q-0.109375 -1.21875 -0.625 -1.828125q-0.78125 -0.953125 -2.03125 -0.953125q-1.125 0 -1.90625 0.765625q-0.765625 0.75 -0.84375 2.015625zm15.453842 2.21875l1.609375 0.21875q-0.265625 1.65625 -1.359375 2.609375q-1.078125 0.9375 -2.671875 0.9375q-1.984375 0 -3.1875 -1.296875q-1.203125 -1.296875 -1.203125 -3.71875q0 -1.578125 0.515625 -2.75q0.515625 -1.171875 1.578125 -1.75q1.0625 -0.59375 2.3125 -0.59375q1.578125 0 2.578125 0.796875q1.0 0.796875 1.28125 2.265625l-1.59375 0.234375q-0.234375 -0.96875 -0.8125 -1.453125q-0.578125 -0.5 -1.390625 -0.5q-1.234375 0 -2.015625 0.890625q-0.78125 0.890625 -0.78125 2.8125q0 1.953125 0.75 2.84375q0.75 0.875 1.953125 0.875q0.96875 0 1.609375 -0.59375q0.65625 -0.59375 0.828125 -1.828125zm6.59375 2.078125l0.234375 1.453125q-0.6875 0.140625 -1.234375 0.140625q-0.890625 0 -1.390625 -0.28125q-0.484375 -0.28125 -0.6875 -0.734375q-0.203125 -0.46875 -0.203125 -1.9375l0 -5.578125l-1.203125 0l0 -1.265625l1.203125 0l0 -2.390625l1.625 -0.984375l0 3.375l1.65625 0l0 1.265625l-1.65625 0l0 5.671875q0 0.6875 0.078125 0.890625q0.09375 0.203125 0.28125 0.328125q0.203125 0.109375 0.578125 0.109375q0.265625 0 0.71875 -0.0625zm8.230179 -1.640625l1.6875 0.203125q-0.40625 1.484375 -1.484375 2.3125q-1.078125 0.8125 -2.765625 0.8125q-2.125 0 -3.375 -1.296875q-1.234375 -1.3125 -1.234375 -3.671875q0 -2.453125 1.25 -3.796875q1.265625 -1.34375 3.265625 -1.34375q1.9375 0 3.15625 1.328125q1.234375 1.3125 1.234375 3.703125q0 0.15625 0 0.4375l-7.21875 0q0.09375 1.59375 0.90625 2.453125q0.8125 0.84375 2.015625 0.84375q0.90625 0 1.546875 -0.46875q0.640625 -0.484375 1.015625 -1.515625zm-5.390625 -2.65625l5.40625 0q-0.109375 -1.21875 -0.625 -1.828125q-0.78125 -0.953125 -2.03125 -0.953125q-1.125 0 -1.90625 0.765625q-0.765625 0.75 -0.84375 2.015625zm15.406967 5.765625l0 -1.21875q-0.90625 1.4375 -2.703125 1.4375q-1.15625 0 -2.125 -0.640625q-0.96875 -0.640625 -1.5 -1.78125q-0.53125 -1.140625 -0.53125 -2.625q0 -1.453125 0.484375 -2.625q0.484375 -1.1875 1.4375 -1.8125q0.96875 -0.625 2.171875 -0.625q0.875 0 1.546875 0.375q0.6875 0.359375 1.109375 0.953125l0 -4.796875l1.640625 0l0 13.359375l-1.53125 0zm-5.171875 -4.828125q0 1.859375 0.78125 2.78125q0.78125 0.921875 1.84375 0.921875q1.078125 0 1.828125 -0.875q0.75 -0.890625 0.75 -2.6875q0 -1.984375 -0.765625 -2.90625q-0.765625 -0.9375 -1.890625 -0.9375q-1.078125 0 -1.8125 0.890625q-0.734375 0.890625 -0.734375 2.8125z" fill-rule="nonzero"/><path fill="#ffffff" fill-opacity="0.6704" d="m28.782541 184.0l88.0 0l0 40.0l-88.0 0z" fill-rule="evenodd"/><path fill="#000000" d="m39.03254 200.8l0 -9.546875l1.25 0l0 9.546875l-1.25 0zm3.3279877 0l0 -6.90625l1.0625 0l0 0.984375q0.75 -1.140625 2.1875 -1.140625q0.625 0 1.15625 0.21875q0.53125 0.21875 0.78125 0.59375q0.265625 0.359375 0.375 0.859375q0.0625 0.328125 0.0625 1.140625l0 4.25l-1.171875 0l0 -4.203125q0 -0.71875 -0.140625 -1.0625q-0.140625 -0.359375 -0.484375 -0.5625q-0.34375 -0.21875 -0.8125 -0.21875q-0.75 0 -1.296875 0.46875q-0.546875 0.46875 -0.546875 1.796875l0 3.78125l-1.171875 0zm7.6937256 0l0 -6.0l-1.03125 0l0 -0.90625l1.03125 0l0 -0.734375q0 -0.703125 0.125 -1.046875q0.171875 -0.453125 0.59375 -0.734375q0.421875 -0.28125 1.203125 -0.28125q0.484375 0 1.09375 0.109375l-0.1875 1.03125q-0.359375 -0.0625 -0.6875 -0.0625q-0.53125 0 -0.75 0.234375q-0.21875 0.21875 -0.21875 0.84375l0 0.640625l1.34375 0l0 0.90625l-1.34375 0l0 6.0l-1.171875 0zm8.156113 -2.21875l1.203125 0.140625q-0.28125 1.0625 -1.0625 1.65625q-0.765625 0.578125 -1.96875 0.578125q-1.515625 0 -2.40625 -0.9375q-0.890625 -0.9375 -0.890625 -2.609375q0 -1.75 0.890625 -2.703125q0.90625 -0.96875 2.34375 -0.96875q1.390625 0 2.265625 0.9375q0.875 0.9375 0.875 2.65625q0 0.109375 0 0.3125l-5.15625 0q0.0625 1.140625 0.640625 1.75q0.578125 0.59375 1.4375 0.59375q0.65625 0 1.109375 -0.328125q0.453125 -0.34375 0.71875 -1.078125zm-3.84375 -1.90625l3.859375 0q-0.078125 -0.859375 -0.4375 -1.296875q-0.5625 -0.6875 -1.453125 -0.6875q-0.8125 0 -1.359375 0.546875q-0.546875 0.53125 -0.609375 1.4375zm11.037476 1.59375l1.15625 0.15625q-0.1875 1.1875 -0.96875 1.859375q-0.78125 0.671875 -1.921875 0.671875q-1.40625 0 -2.28125 -0.921875q-0.859375 -0.9375 -0.859375 -2.65625q0 -1.125 0.375 -1.96875q0.375 -0.84375 1.125 -1.25q0.765625 -0.421875 1.65625 -0.421875q1.125 0 1.84375 0.578125q0.71875 0.5625 0.921875 1.609375l-1.140625 0.171875q-0.171875 -0.703125 -0.59375 -1.046875q-0.40625 -0.359375 -0.984375 -0.359375q-0.890625 0 -1.453125 0.640625q-0.546875 0.640625 -0.546875 2.0q0 1.40625 0.53125 2.03125q0.546875 0.625 1.40625 0.625q0.6875 0 1.140625 -0.421875q0.46875 -0.421875 0.59375 -1.296875zm4.7109375 1.484375l0.171875 1.03125q-0.5 0.109375 -0.890625 0.109375q-0.640625 0 -1.0 -0.203125q-0.34375 -0.203125 -0.484375 -0.53125q-0.140625 -0.328125 -0.140625 -1.390625l0 -3.96875l-0.859375 0l0 -0.90625l0.859375 0l0 -1.71875l1.171875 -0.703125l0 2.421875l1.171875 0l0 0.90625l-1.171875 0l0 4.046875q0 0.5 0.046875 0.640625q0.0625 0.140625 0.203125 0.234375q0.140625 0.078125 0.40625 0.078125q0.203125 0 0.515625 -0.046875zm1.4529877 1.046875l0 -1.328125l1.328125 0l0 1.328125q0 0.734375 -0.265625 1.1875q-0.25 0.453125 -0.8125 0.703125l-0.328125 -0.5q0.375 -0.171875 0.546875 -0.484375q0.171875 -0.3125 0.1875 -0.90625l-0.65625 0zm8.1716 0l-1.078125 0l0 -9.546875l1.171875 0l0 3.40625q0.734375 -0.921875 1.890625 -0.921875q0.640625 0 1.203125 0.265625q0.578125 0.25 0.9375 0.71875q0.375 0.453125 0.578125 1.109375q0.203125 0.65625 0.203125 1.40625q0 1.78125 -0.875 2.75q-0.875 0.96875 -2.109375 0.96875q-1.21875 0 -1.921875 -1.015625l0 0.859375zm0 -3.5q0 1.234375 0.328125 1.78125q0.5625 0.90625 1.5 0.90625q0.765625 0 1.328125 -0.65625q0.5625 -0.671875 0.5625 -2.0q0 -1.34375 -0.546875 -1.984375q-0.53125 -0.65625 -1.296875 -0.65625q-0.765625 0 -1.328125 0.671875q-0.546875 0.671875 -0.546875 1.9375zm11.068726 1.28125l1.203125 0.140625q-0.28125 1.0625 -1.0625 1.65625q-0.765625 0.578125 -1.96875 0.578125q-1.515625 0 -2.40625 -0.9375q-0.890625 -0.9375 -0.890625 -2.609375q0 -1.75 0.890625 -2.703125q0.90625 -0.96875 2.34375 -0.96875q1.390625 0 2.265625 0.9375q0.875 0.9375 0.875 2.65625q0 0.109375 0 0.3125l-5.15625 0q0.0625 1.140625 0.640625 1.75q0.578125 0.59375 1.4375 0.59375q0.65625 0 1.109375 -0.328125q0.453125 -0.34375 0.71875 -1.078125zm-3.84375 -1.90625l3.859375 0q-0.078125 -0.859375 -0.4375 -1.296875q-0.5625 -0.6875 -1.453125 -0.6875q-0.8125 0 -1.359375 0.546875q-0.546875 0.53125 -0.609375 1.4375zm11.006226 4.125l0 -0.875q-0.65625 1.03125 -1.9375 1.03125q-0.8125 0 -1.515625 -0.453125q-0.6875 -0.453125 -1.078125 -1.265625q-0.375 -0.828125 -0.375 -1.890625q0 -1.03125 0.34375 -1.875q0.34375 -0.84375 1.03125 -1.28125q0.703125 -0.453125 1.546875 -0.453125q0.625 0 1.109375 0.265625q0.5 0.25 0.796875 0.671875l0 -3.421875l1.171875 0l0 9.546875l-1.09375 0zm-3.703125 -3.453125q0 1.328125 0.5625 1.984375q0.5625 0.65625 1.328125 0.65625q0.765625 0 1.296875 -0.625q0.53125 -0.625 0.53125 -1.90625q0 -1.421875 -0.546875 -2.078125q-0.546875 -0.671875 -1.34375 -0.671875q-0.78125 0 -1.3125 0.640625q-0.515625 0.625 -0.515625 2.0z" fill-rule="nonzero"/><path fill="#000000" d="m43.173164 215.94063q-0.65625 0.5625 -1.265625 0.796875q-0.59375 0.21875 -1.28125 0.21875q-1.140625 0 -1.75 -0.546875q-0.609375 -0.5625 -0.609375 -1.4375q0 -0.5 0.21875 -0.921875q0.234375 -0.421875 0.609375 -0.671875q0.375 -0.25 0.84375 -0.390625q0.34375 -0.078125 1.046875 -0.171875q1.421875 -0.171875 2.09375 -0.40625q0 -0.234375 0 -0.296875q0 -0.71875 -0.328125 -1.015625q-0.453125 -0.390625 -1.34375 -0.390625q-0.8125 0 -1.21875 0.296875q-0.390625 0.28125 -0.578125 1.015625l-1.140625 -0.15625q0.15625 -0.734375 0.515625 -1.1875q0.359375 -0.453125 1.03125 -0.6875q0.671875 -0.25 1.5625 -0.25q0.890625 0 1.4375 0.203125q0.5625 0.203125 0.8125 0.53125q0.265625 0.3125 0.375 0.796875q0.046875 0.296875 0.046875 1.078125l0 1.5625q0 1.625 0.078125 2.0625q0.078125 0.4375 0.296875 0.828125l-1.21875 0q-0.1875 -0.359375 -0.234375 -0.859375zm-0.09375 -2.609375q-0.640625 0.265625 -1.921875 0.4375q-0.71875 0.109375 -1.015625 0.25q-0.296875 0.125 -0.46875 0.375q-0.15625 0.25 -0.15625 0.546875q0 0.46875 0.34375 0.78125q0.359375 0.3125 1.046875 0.3125q0.671875 0 1.203125 -0.296875q0.53125 -0.296875 0.78125 -0.8125q0.1875 -0.390625 0.1875 -1.171875l0 -0.421875zm4.9124756 3.46875l-2.625 -6.90625l1.234375 0l1.484375 4.140625q0.234375 0.65625 0.4375 1.390625q0.15625 -0.546875 0.4375 -1.3125l1.53125 -4.21875l1.21875 0l-2.625 6.90625l-1.09375 0zm9.2578125 -0.859375q-0.65625 0.5625 -1.265625 0.796875q-0.59375 0.21875 -1.28125 0.21875q-1.140625 0 -1.75 -0.546875q-0.609375 -0.5625 -0.609375 -1.4375q0 -0.5 0.21875 -0.921875q0.234375 -0.421875 0.609375 -0.671875q0.375 -0.25 0.84375 -0.390625q0.34375 -0.078125 1.046875 -0.171875q1.421875 -0.171875 2.09375 -0.40625q0 -0.234375 0 -0.296875q0 -0.71875 -0.328125 -1.015625q-0.453125 -0.390625 -1.34375 -0.390625q-0.8125 0 -1.21875 0.296875q-0.390625 0.28125 -0.578125 1.015625l-1.140625 -0.15625q0.15625 -0.734375 0.515625 -1.1875q0.359375 -0.453125 1.03125 -0.6875q0.671875 -0.25 1.5625 -0.25q0.890625 0 1.4375 0.203125q0.5625 0.203125 0.8125 0.53125q0.265625 0.3125 0.375 0.796875q0.046875 0.296875 0.046875 1.078125l0 1.5625q0 1.625 0.078125 2.0625q0.078125 0.4375 0.296875 0.828125l-1.21875 0q-0.1875 -0.359375 -0.234375 -0.859375zm-0.09375 -2.609375q-0.640625 0.265625 -1.921875 0.4375q-0.71875 0.109375 -1.015625 0.25q-0.296875 0.125 -0.46875 0.375q-0.15625 0.25 -0.15625 0.546875q0 0.46875 0.34375 0.78125q0.359375 0.3125 1.046875 0.3125q0.671875 0 1.203125 -0.296875q0.53125 -0.296875 0.78125 -0.8125q0.1875 -0.390625 0.1875 -1.171875l0 -0.421875zm3.0062256 -4.71875l0 -1.359375l1.171875 0l0 1.359375l-1.171875 0zm0 8.1875l0 -6.90625l1.171875 0l0 6.90625l-1.171875 0zm2.92984 0l0 -9.546875l1.171875 0l0 9.546875l-1.171875 0zm7.49234 -0.859375q-0.65625 0.5625 -1.265625 0.796875q-0.59375 0.21875 -1.28125 0.21875q-1.140625 0 -1.75 -0.546875q-0.609375 -0.5625 -0.609375 -1.4375q0 -0.5 0.21875 -0.921875q0.234375 -0.421875 0.609375 -0.671875q0.375 -0.25 0.84375 -0.390625q0.34375 -0.078125 1.046875 -0.171875q1.421875 -0.171875 2.09375 -0.40625q0 -0.234375 0 -0.296875q0 -0.71875 -0.328125 -1.015625q-0.453125 -0.390625 -1.34375 -0.390625q-0.8125 0 -1.21875 0.296875q-0.390625 0.28125 -0.578125 1.015625l-1.140625 -0.15625q0.15625 -0.734375 0.515625 -1.1875q0.359375 -0.453125 1.03125 -0.6875q0.671875 -0.25 1.5625 -0.25q0.890625 0 1.4375 0.203125q0.5625 0.203125 0.8125 0.53125q0.265625 0.3125 0.375 0.796875q0.046875 0.296875 0.046875 1.078125l0 1.5625q0 1.625 0.078125 2.0625q0.078125 0.4375 0.296875 0.828125l-1.21875 0q-0.1875 -0.359375 -0.234375 -0.859375zm-0.09375 -2.609375q-0.640625 0.265625 -1.921875 0.4375q-0.71875 0.109375 -1.015625 0.25q-0.296875 0.125 -0.46875 0.375q-0.15625 0.25 -0.15625 0.546875q0 0.46875 0.34375 0.78125q0.359375 0.3125 1.046875 0.3125q0.671875 0 1.203125 -0.296875q0.53125 -0.296875 0.78125 -0.8125q0.1875 -0.390625 0.1875 -1.171875l0 -0.421875zm4.0687256 3.46875l-1.078125 0l0 -9.546875l1.171875 0l0 3.40625q0.734375 -0.921875 1.890625 -0.921875q0.640625 0 1.203125 0.265625q0.578125 0.25 0.9375 0.71875q0.375 0.453125 0.578125 1.109375q0.203125 0.65625 0.203125 1.40625q0 1.78125 -0.875 2.75q-0.875 0.96875 -2.109375 0.96875q-1.21875 0 -1.921875 -1.015625l0 0.859375zm0 -3.5q0 1.234375 0.328125 1.78125q0.5625 0.90625 1.5 0.90625q0.765625 0 1.328125 -0.65625q0.5625 -0.671875 0.5625 -2.0q0 -1.34375 -0.546875 -1.984375q-0.53125 -0.65625 -1.296875 -0.65625q-0.765625 0 -1.328125 0.671875q-0.546875 0.671875 -0.546875 1.9375zm6.3187256 3.5l0 -9.546875l1.171875 0l0 9.546875l-1.171875 0zm7.71109 -2.21875l1.203125 0.140625q-0.28125 1.0625 -1.0625 1.65625q-0.765625 0.578125 -1.96875 0.578125q-1.515625 0 -2.40625 -0.9375q-0.890625 -0.9375 -0.890625 -2.609375q0 -1.75 0.890625 -2.703125q0.90625 -0.96875 2.34375 -0.96875q1.390625 0 2.265625 0.9375q0.875 0.9375 0.875 2.65625q0 0.109375 0 0.3125l-5.15625 0q0.0625 1.140625 0.640625 1.75q0.578125 0.59375 1.4375 0.59375q0.65625 0 1.109375 -0.328125q0.453125 -0.34375 0.71875 -1.078125zm-3.84375 -1.90625l3.859375 0q-0.078125 -0.859375 -0.4375 -1.296875q-0.5625 -0.6875 -1.453125 -0.6875q-0.8125 0 -1.359375 0.546875q-0.546875 0.53125 -0.609375 1.4375z" fill-rule="nonzero"/><path fill="#666666" d="m8.0 256.0l120.0 0l0 40.0l-120.0 0z" fill-rule="evenodd"/><path fill="#ffffff" d="m47.13745 282.91998l0 -13.359375l4.609375 0q1.546875 0 2.375 0.203125q1.140625 0.25 1.953125 0.953125q1.0625 0.890625 1.578125 2.28125q0.53125 1.390625 0.53125 3.171875q0 1.515625 -0.359375 2.703125q-0.359375 1.171875 -0.921875 1.9375q-0.546875 0.765625 -1.203125 1.21875q-0.65625 0.4375 -1.59375 0.671875q-0.9375 0.21875 -2.140625 0.21875l-4.828125 0zm1.765625 -1.578125l2.859375 0q1.3125 0 2.0625 -0.234375q0.75 -0.25 1.203125 -0.703125q0.625 -0.625 0.96875 -1.6875q0.359375 -1.0625 0.359375 -2.578125q0 -2.09375 -0.6875 -3.21875q-0.6875 -1.125 -1.671875 -1.5q-0.703125 -0.28125 -2.28125 -0.28125l-2.8125 0l0 10.203125zm18.129196 -1.53125l1.6875 0.203125q-0.40625 1.484375 -1.484375 2.3125q-1.078125 0.8125 -2.765625 0.8125q-2.125 0 -3.375 -1.296875q-1.234375 -1.3125 -1.234375 -3.671875q0 -2.453125 1.25 -3.796875q1.265625 -1.34375 3.265625 -1.34375q1.9375 0 3.15625 1.328125q1.234375 1.3125 1.234375 3.703125q0 0.15625 0 0.4375l-7.21875 0q0.09375 1.59375 0.90625 2.453125q0.8125 0.84375 2.015625 0.84375q0.90625 0 1.546875 -0.46875q0.640625 -0.484375 1.015625 -1.515625zm-5.390625 -2.65625l5.40625 0q-0.109375 -1.21875 -0.625 -1.828125q-0.78125 -0.953125 -2.03125 -0.953125q-1.125 0 -1.90625 0.765625q-0.765625 0.75 -0.84375 2.015625zm15.453842 4.578125q-0.921875 0.765625 -1.765625 1.09375q-0.828125 0.3125 -1.796875 0.3125q-1.59375 0 -2.453125 -0.78125q-0.859375 -0.78125 -0.859375 -1.984375q0 -0.71875 0.328125 -1.296875q0.328125 -0.59375 0.84375 -0.9375q0.53125 -0.359375 1.1875 -0.546875q0.46875 -0.125 1.453125 -0.25q1.984375 -0.234375 2.921875 -0.5625q0.015625 -0.34375 0.015625 -0.421875q0 -1.0 -0.46875 -1.421875q-0.625 -0.546875 -1.875 -0.546875q-1.15625 0 -1.703125 0.40625q-0.546875 0.40625 -0.8125 1.421875l-1.609375 -0.21875q0.21875 -1.015625 0.71875 -1.640625q0.5 -0.640625 1.453125 -0.984375q0.953125 -0.34375 2.1875 -0.34375q1.25 0 2.015625 0.296875q0.78125 0.28125 1.140625 0.734375q0.375 0.4375 0.515625 1.109375q0.078125 0.421875 0.078125 1.515625l0 2.1875q0 2.28125 0.109375 2.890625q0.109375 0.59375 0.40625 1.15625l-1.703125 0q-0.265625 -0.515625 -0.328125 -1.1875zm-0.140625 -3.671875q-0.890625 0.375 -2.671875 0.625q-1.015625 0.140625 -1.4375 0.328125q-0.421875 0.1875 -0.65625 0.53125q-0.21875 0.34375 -0.21875 0.78125q0 0.65625 0.5 1.09375q0.5 0.4375 1.453125 0.4375q0.9375 0 1.671875 -0.40625q0.75 -0.421875 1.09375 -1.140625q0.265625 -0.5625 0.265625 -1.640625l0 -0.609375zm10.469467 4.859375l0 -1.21875q-0.90625 1.4375 -2.703125 1.4375q-1.15625 0 -2.125 -0.640625q-0.96875 -0.640625 -1.5 -1.78125q-0.53125 -1.140625 -0.53125 -2.625q0 -1.453125 0.484375 -2.625q0.484375 -1.1875 1.4375 -1.8125q0.96875 -0.625 2.171875 -0.625q0.875 0 1.546875 0.375q0.6875 0.359375 1.109375 0.953125l0 -4.796875l1.640625 0l0 13.359375l-1.53125 0zm-5.171875 -4.828125q0 1.859375 0.78125 2.78125q0.78125 0.921875 1.84375 0.921875q1.078125 0 1.828125 -0.875q0.75 -0.890625 0.75 -2.6875q0 -1.984375 -0.765625 -2.90625q-0.765625 -0.9375 -1.890625 -0.9375q-1.078125 0 -1.8125 0.890625q-0.734375 0.890625 -0.734375 2.8125z" fill-rule="nonzero"/><path fill="#d9ead3" d="m8.0 184.0l120.0 0l0 40.0l-120.0 0z" fill-rule="evenodd"/><path fill="#000000" d="m24.35852 210.92l0 -13.359375l5.921875 0q1.78125 0 2.703125 0.359375q0.9375 0.359375 1.484375 1.28125q0.5625 0.90625 0.5625 2.015625q0 1.40625 -0.921875 2.390625q-0.921875 0.96875 -2.84375 1.234375q0.703125 0.34375 1.078125 0.671875q0.765625 0.703125 1.453125 1.765625l2.328125 3.640625l-2.21875 0l-1.765625 -2.78125q-0.78125 -1.203125 -1.28125 -1.828125q-0.5 -0.640625 -0.90625 -0.890625q-0.390625 -0.265625 -0.796875 -0.359375q-0.296875 -0.078125 -0.984375 -0.078125l-2.046875 0l0 5.9375l-1.765625 0zm1.765625 -7.453125l3.796875 0q1.21875 0 1.890625 -0.25q0.6875 -0.265625 1.046875 -0.8125q0.359375 -0.546875 0.359375 -1.1875q0 -0.953125 -0.6875 -1.5625q-0.6875 -0.609375 -2.1875 -0.609375l-4.21875 0l0 4.421875zm18.097946 4.34375l1.6875 0.203125q-0.40625 1.484375 -1.484375 2.3125q-1.078125 0.8125 -2.765625 0.8125q-2.125 0 -3.375 -1.296875q-1.234375 -1.3125 -1.234375 -3.671875q0 -2.453125 1.25 -3.796875q1.265625 -1.34375 3.265625 -1.34375q1.9375 0 3.15625 1.328125q1.234375 1.3125 1.234375 3.703125q0 0.15625 0 0.4375l-7.21875 0q0.09375 1.59375 0.90625 2.453125q0.8125 0.84375 2.015625 0.84375q0.90625 0 1.546875 -0.46875q0.640625 -0.484375 1.015625 -1.515625zm-5.390625 -2.65625l5.40625 0q-0.109375 -1.21875 -0.625 -1.828125q-0.78125 -0.953125 -2.03125 -0.953125q-1.125 0 -1.90625 0.765625q-0.765625 0.75 -0.84375 2.015625zm15.453842 2.21875l1.609375 0.21875q-0.265625 1.65625 -1.359375 2.609375q-1.078125 0.9375 -2.671875 0.9375q-1.984375 0 -3.1875 -1.296875q-1.203125 -1.296875 -1.203125 -3.71875q0 -1.578125 0.515625 -2.75q0.515625 -1.171875 1.578125 -1.75q1.0625 -0.59375 2.3125 -0.59375q1.578125 0 2.578125 0.796875q1.0 0.796875 1.28125 2.265625l-1.59375 0.234375q-0.234375 -0.96875 -0.8125 -1.453125q-0.578125 -0.5 -1.390625 -0.5q-1.234375 0 -2.015625 0.890625q-0.78125 0.890625 -0.78125 2.8125q0 1.953125 0.75 2.84375q0.75 0.875 1.953125 0.875q0.96875 0 1.609375 -0.59375q0.65625 -0.59375 0.828125 -1.828125zm2.40625 -1.296875q0 -2.6875 1.484375 -3.96875q1.25 -1.078125 3.046875 -1.078125q2.0 0 3.265625 1.3125q1.265625 1.296875 1.265625 3.609375q0 1.859375 -0.5625 2.9375q-0.5625 1.0625 -1.640625 1.65625q-1.0625 0.59375 -2.328125 0.59375q-2.03125 0 -3.28125 -1.296875q-1.25 -1.3125 -1.25 -3.765625zm1.6875 0q0 1.859375 0.796875 2.796875q0.8125 0.921875 2.046875 0.921875q1.21875 0 2.03125 -0.921875q0.8125 -0.9375 0.8125 -2.84375q0 -1.796875 -0.8125 -2.71875q-0.8125 -0.921875 -2.03125 -0.921875q-1.234375 0 -2.046875 0.921875q-0.796875 0.90625 -0.796875 2.765625zm11.985092 4.84375l-3.6875 -9.671875l1.734375 0l2.078125 5.796875q0.328125 0.9375 0.625 1.9375q0.203125 -0.765625 0.609375 -1.828125l2.140625 -5.90625l1.6875 0l-3.65625 9.671875l-1.53125 0zm13.265625 -3.109375l1.6875 0.203125q-0.40625 1.484375 -1.484375 2.3125q-1.078125 0.8125 -2.765625 0.8125q-2.125 0 -3.375 -1.296875q-1.234375 -1.3125 -1.234375 -3.671875q0 -2.453125 1.25 -3.796875q1.265625 -1.34375 3.265625 -1.34375q1.9375 0 3.15625 1.328125q1.234375 1.3125 1.234375 3.703125q0 0.15625 0 0.4375l-7.21875 0q0.09375 1.59375 0.90625 2.453125q0.8125 0.84375 2.015625 0.84375q0.90625 0 1.546875 -0.46875q0.640625 -0.484375 1.015625 -1.515625zm-5.390625 -2.65625l5.40625 0q-0.109375 -1.21875 -0.625 -1.828125q-0.78125 -0.953125 -2.03125 -0.953125q-1.125 0 -1.90625 0.765625q-0.765625 0.75 -0.84375 2.015625zm9.125717 5.765625l0 -9.671875l1.46875 0l0 1.46875q0.5625 -1.03125 1.03125 -1.359375q0.484375 -0.328125 1.0625 -0.328125q0.828125 0 1.6875 0.53125l-0.5625 1.515625q-0.609375 -0.359375 -1.203125 -0.359375q-0.546875 0 -0.96875 0.328125q-0.421875 0.328125 -0.609375 0.890625q-0.28125 0.875 -0.28125 1.921875l0 5.0625l-1.625 0zm12.853302 -3.109375l1.6875 0.203125q-0.40625 1.484375 -1.484375 2.3125q-1.078125 0.8125 -2.765625 0.8125q-2.125 0 -3.375 -1.296875q-1.234375 -1.3125 -1.234375 -3.671875q0 -2.453125 1.25 -3.796875q1.265625 -1.34375 3.265625 -1.34375q1.9375 0 3.15625 1.328125q1.234375 1.3125 1.234375 3.703125q0 0.15625 0 0.4375l-7.21875 0q0.09375 1.59375 0.90625 2.453125q0.8125 0.84375 2.015625 0.84375q0.90625 0 1.546875 -0.46875q0.640625 -0.484375 1.015625 -1.515625zm-5.390625 -2.65625l5.40625 0q-0.109375 -1.21875 -0.625 -1.828125q-0.78125 -0.953125 -2.03125 -0.953125q-1.125 0 -1.90625 0.765625q-0.765625 0.75 -0.84375 2.015625zm15.406967 5.765625l0 -1.21875q-0.90625 1.4375 -2.703125 1.4375q-1.15625 0 -2.125 -0.640625q-0.96875 -0.640625 -1.5 -1.78125q-0.53125 -1.140625 -0.53125 -2.625q0 -1.453125 0.484375 -2.625q0.484375 -1.1875 1.4375 -1.8125q0.96875 -0.625 2.171875 -0.625q0.875 0 1.546875 0.375q0.6875 0.359375 1.109375 0.953125l0 -4.796875l1.640625 0l0 13.359375l-1.53125 0zm-5.171875 -4.828125q0 1.859375 0.78125 2.78125q0.78125 0.921875 1.84375 0.921875q1.078125 0 1.828125 -0.875q0.75 -0.890625 0.75 -2.6875q0 -1.984375 -0.765625 -2.90625q-0.765625 -0.9375 -1.890625 -0.9375q-1.078125 0 -1.8125 0.890625q-0.734375 0.890625 -0.734375 2.8125z" fill-rule="nonzero"/><path fill="#000000" fill-opacity="0.0" d="m208.0 40.0l56.0 0l0 24.0l-56.0 0z" fill-rule="evenodd"/><path fill="#000000" d="m229.3219 54.596874l1.125 -0.109375q0.140625 0.796875 0.546875 1.15625q0.40625 0.359375 1.03125 0.359375q0.53125 0 0.9375 -0.25q0.421875 -0.25 0.671875 -0.65625q0.265625 -0.421875 0.4375 -1.125q0.171875 -0.703125 0.171875 -1.421875q0 -0.078125 0 -0.234375q-0.359375 0.546875 -0.96875 0.90625q-0.59375 0.34375 -1.3125 0.34375q-1.1875 0 -2.015625 -0.859375q-0.8125 -0.859375 -0.8125 -2.265625q0 -1.453125 0.859375 -2.328125q0.859375 -0.890625 2.140625 -0.890625q0.9375 0 1.703125 0.5q0.78125 0.5 1.171875 1.4375q0.40625 0.921875 0.40625 2.671875q0 1.828125 -0.40625 2.921875q-0.390625 1.078125 -1.171875 1.640625q-0.78125 0.5625 -1.84375 0.5625q-1.109375 0 -1.828125 -0.609375q-0.703125 -0.625 -0.84375 -1.75zm4.796875 -4.21875q0 -1.0 -0.546875 -1.59375q-0.53125 -0.59375 -1.28125 -0.59375q-0.78125 0 -1.375 0.640625q-0.578125 0.640625 -0.578125 1.65625q0 0.90625 0.546875 1.484375q0.5625 0.5625 1.359375 0.5625q0.828125 0 1.34375 -0.5625q0.53125 -0.578125 0.53125 -1.59375zm8.506226 -0.78125l-1.15625 0.09375q-0.15625 -0.6875 -0.4375 -1.0q-0.484375 -0.5 -1.171875 -0.5q-0.5625 0 -0.984375 0.3125q-0.5625 0.390625 -0.890625 1.171875q-0.3125 0.765625 -0.3125 2.203125q0.421875 -0.640625 1.03125 -0.953125q0.609375 -0.3125 1.28125 -0.3125q1.171875 0 1.984375 0.859375q0.828125 0.859375 0.828125 2.234375q0 0.890625 -0.390625 1.671875q-0.375 0.765625 -1.0625 1.171875q-0.671875 0.40625 -1.53125 0.40625q-1.46875 0 -2.390625 -1.0625q-0.921875 -1.078125 -0.921875 -3.5625q0 -2.765625 1.015625 -4.015625q0.90625 -1.09375 2.40625 -1.09375q1.125 0 1.84375 0.640625q0.71875 0.625 0.859375 1.734375zm-4.78125 4.109375q0 0.609375 0.25 1.171875q0.265625 0.546875 0.71875 0.84375q0.46875 0.28125 0.984375 0.28125q0.734375 0 1.265625 -0.59375q0.546875 -0.609375 0.546875 -1.640625q0 -0.984375 -0.53125 -1.546875q-0.53125 -0.578125 -1.328125 -0.578125q-0.796875 0 -1.359375 0.578125q-0.546875 0.5625 -0.546875 1.484375z" fill-rule="nonzero"/><path fill="#c9daf8" d="m168.0 40.0l40.0 0l0 40.0l-40.0 0z" fill-rule="evenodd"/><path stroke="#000000" stroke-width="2.0" stroke-linejoin="round" stroke-linecap="butt" d="m168.0 40.0l40.0 0l0 40.0l-40.0 0z" fill-rule="evenodd"/><path fill="#000000" d="m182.98914 54.3l1.234375 -0.109375q0.140625 0.90625 0.640625 1.359375q0.5 0.453125 1.203125 0.453125q0.84375 0 1.421875 -0.640625q0.59375 -0.640625 0.59375 -1.6875q0 -1.0 -0.5625 -1.578125q-0.5625 -0.59375 -1.484375 -0.59375q-0.5625 0 -1.015625 0.265625q-0.453125 0.25 -0.71875 0.671875l-1.09375 -0.15625l0.921875 -4.890625l4.75 0l0 1.109375l-3.8125 0l-0.515625 2.5625q0.859375 -0.59375 1.796875 -0.59375q1.25 0 2.109375 0.875q0.859375 0.859375 0.859375 2.21875q0 1.296875 -0.75 2.234375q-0.921875 1.15625 -2.5 1.15625q-1.3125 0 -2.140625 -0.71875q-0.8125 -0.734375 -0.9375 -1.9375zm6.8656006 2.65625l2.765625 -9.859375l0.9375 0l-2.765625 9.859375l-0.9375 0z" fill-rule="nonzero"/><path fill="#000000" d="m177.42816 70.3l1.234375 -0.109375q0.140625 0.90625 0.640625 1.359375q0.5 0.453125 1.203125 0.453125q0.84375 0 1.421875 -0.640625q0.59375 -0.640625 0.59375 -1.6875q0 -1.0 -0.5625 -1.578125q-0.5625 -0.59375 -1.484375 -0.59375q-0.5625 0 -1.015625 0.265625q-0.453125 0.25 -0.71875 0.671875l-1.09375 -0.15625l0.921875 -4.890629l4.75 0l0 1.1093788l-3.8125 0l-0.515625 2.5625q0.859375 -0.59375 1.796875 -0.59375q1.25 0 2.109375 0.875q0.859375 0.859375 0.859375 2.21875q0 1.296875 -0.75 2.234375q-0.921875 1.15625 -2.5 1.15625q-1.3125 0 -2.140625 -0.71875q-0.8125 -0.734375 -0.9375 -1.9375zm13.568726 1.375l0 1.125l-6.296875 0q-0.015625 -0.421875 0.140625 -0.8125q0.234375 -0.640625 0.765625 -1.265625q0.53125 -0.625 1.53125 -1.453125q1.5625 -1.265625 2.109375 -2.015625q0.546875 -0.75 0.546875 -1.40625q0 -0.703125 -0.5 -1.171875q-0.5 -0.484375 -1.296875 -0.484375q-0.859375 0 -1.375 0.515625q-0.5 0.5 -0.5 1.390625l-1.203125 -0.109375q0.125 -1.359375 0.921875 -2.0625038q0.8125 -0.703125 2.171875 -0.703125q1.375 0 2.171875 0.765625q0.8125 0.7500038 0.8125 1.8750038q0 0.578125 -0.234375 1.140625q-0.234375 0.546875 -0.78125 1.15625q-0.546875 0.609375 -1.8125 1.671875q-1.046875 0.890625 -1.359375 1.21875q-0.296875 0.3125 -0.484375 0.625l4.671875 0zm3.0687256 -4.046875q-0.734375 -0.265625 -1.09375 -0.765625q-0.34375 -0.5 -0.34375 -1.1875q0 -1.03125 0.75 -1.7343788q0.75 -0.71875 1.984375 -0.71875q1.25 0 2.015625 0.734375q0.765625 0.7187538 0.765625 1.7500038q0 0.671875 -0.359375 1.171875q-0.34375 0.484375 -1.046875 0.75q0.875 0.28125 1.328125 0.921875q0.46875 0.640625 0.46875 1.515625q0 1.234375 -0.875 2.0625q-0.859375 0.828125 -2.265625 0.828125q-1.421875 0 -2.28125 -0.828125q-0.859375 -0.84375 -0.859375 -2.09375q0 -0.921875 0.46875 -1.546875q0.46875 -0.640625 1.34375 -0.859375zm-0.234375 -1.984375q0 0.671875 0.4375 1.109375q0.4375 0.421875 1.125 0.421875q0.671875 0 1.109375 -0.421875q0.4375 -0.421875 0.4375 -1.046875q0 -0.640625 -0.453125 -1.078125q-0.4375 -0.4375 -1.109375 -0.4375q-0.671875 0 -1.109375 0.4375q-0.4375 0.421875 -0.4375 1.015625zm-0.375 4.40625q0 0.5 0.234375 0.96875q0.234375 0.46875 0.703125 0.734375q0.46875 0.25 1.015625 0.25q0.828125 0 1.375 -0.53125q0.546875 -0.546875 0.546875 -1.390625q0 -0.84375 -0.5625 -1.390625q-0.5625 -0.5625 -1.40625 -0.5625q-0.828125 0 -1.375 0.546875q-0.53125 0.546875 -0.53125 1.375z" fill-rule="nonzero"/><path fill="#f4cccc" d="m168.0 112.0l40.0 0l0 40.0l-40.0 0z" fill-rule="evenodd"/><path stroke="#000000" stroke-width="2.0" stroke-linejoin="round" stroke-linecap="butt" d="m168.0 112.0l40.0 0l0 40.0l-40.0 0z" fill-rule="evenodd"/><path fill="#000000" d="m175.59229 134.28438l1.171875 -0.15625q0.203125 1.0 0.6875 1.4375q0.484375 0.4375 1.171875 0.4375q0.828125 0 1.390625 -0.578125q0.578125 -0.578125 0.578125 -1.421875q0 -0.796875 -0.53125 -1.3125q-0.515625 -0.53125 -1.328125 -0.53125q-0.34375 0 -0.828125 0.125l0.125 -1.03125q0.125 0.015625 0.1875 0.015625q0.75 0 1.34375 -0.390625q0.609375 -0.390625 0.609375 -1.203125q0 -0.640625 -0.4375 -1.0625q-0.4375 -0.421875 -1.125 -0.421875q-0.6875 0 -1.140625 0.4375q-0.453125 0.421875 -0.59375 1.28125l-1.171875 -0.21875q0.21875 -1.171875 0.984375 -1.8125q0.765625 -0.65625 1.890625 -0.65625q0.78125 0 1.4375 0.34375q0.65625 0.328125 1.0 0.90625q0.359375 0.578125 0.359375 1.234375q0 0.609375 -0.34375 1.125q-0.328125 0.5 -0.96875 0.796875q0.84375 0.203125 1.3125 0.828125q0.46875 0.609375 0.46875 1.53125q0 1.25 -0.921875 2.125q-0.90625 0.859375 -2.296875 0.859375q-1.25 0 -2.09375 -0.75q-0.828125 -0.75 -0.9375 -1.9375zm6.8499756 2.671875l2.765625 -9.859375l0.9375 0l-2.765625 9.859375l-0.9375 0zm8.015503 -0.15625l0 -2.28125l-4.140625 0l0 -1.078125l4.34375 -6.1875l0.96875 0l0 6.1875l1.28125 0l0 1.078125l-1.28125 0l0 2.28125l-1.171875 0zm0 -3.359375l0 -4.296875l-2.984375 4.296875l2.984375 0zm5.4593506 -1.8125q-0.734375 -0.265625 -1.09375 -0.765625q-0.34375 -0.5 -0.34375 -1.1875q0 -1.03125 0.75 -1.734375q0.75 -0.71875 1.984375 -0.71875q1.25 0 2.015625 0.734375q0.765625 0.71875 0.765625 1.75q0 0.671875 -0.359375 1.171875q-0.34375 0.484375 -1.046875 0.75q0.875 0.28125 1.328125 0.921875q0.46875 0.640625 0.46875 1.515625q0 1.234375 -0.875 2.0625q-0.859375 0.828125 -2.265625 0.828125q-1.421875 0 -2.28125 -0.828125q-0.859375 -0.84375 -0.859375 -2.09375q0 -0.921875 0.46875 -1.546875q0.46875 -0.640625 1.34375 -0.859375zm-0.234375 -1.984375q0 0.671875 0.4375 1.109375q0.4375 0.421875 1.125 0.421875q0.671875 0 1.109375 -0.421875q0.4375 -0.421875 0.4375 -1.046875q0 -0.640625 -0.453125 -1.078125q-0.4375 -0.4375 -1.109375 -0.4375q-0.671875 0 -1.109375 0.4375q-0.4375 0.421875 -0.4375 1.015625zm-0.375 4.40625q0 0.5 0.234375 0.96875q0.234375 0.46875 0.703125 0.734375q0.46875 0.25 1.015625 0.25q0.828125 0 1.375 -0.53125q0.546875 -0.546875 0.546875 -1.390625q0 -0.84375 -0.5625 -1.390625q-0.5625 -0.5625 -1.40625 -0.5625q-0.828125 0 -1.375 0.546875q-0.53125 0.546875 -0.53125 1.375z" fill-rule="nonzero"/><path fill="#666666" d="m168.0 256.0l40.0 0l0 40.0l-40.0 0z" fill-rule="evenodd"/><path stroke="#000000" stroke-width="2.0" stroke-linejoin="round" stroke-linecap="butt" d="m168.0 256.0l40.0 0l0 40.0l-40.0 0z" fill-rule="evenodd"/><path fill="#ffffff" d="m189.26251 280.8l-1.171875 0l0 -7.46875q-0.421875 0.40625 -1.109375 0.8125q-0.6875 0.40625 -1.234375 0.609375l0 -1.140625q0.984375 -0.453125 1.71875 -1.109375q0.734375 -0.671875 1.03125 -1.28125l0.765625 0l0 9.578125z" fill-rule="nonzero"/><path fill="#d9ead3" d="m168.0 184.0l40.0 0l0 40.0l-40.0 0z" fill-rule="evenodd"/><path stroke="#000000" stroke-width="2.0" stroke-linejoin="round" stroke-linecap="butt" d="m168.0 184.0l40.0 0l0 40.0l-40.0 0z" fill-rule="evenodd"/><path fill="#000000" d="m184.84064 204.09688q0 -1.6875 0.34375 -2.71875q0.359375 -1.03125 1.046875 -1.59375q0.6875 -0.5625 1.71875 -0.5625q0.78125 0 1.359375 0.3125q0.578125 0.296875 0.953125 0.890625q0.375 0.578125 0.59375 1.421875q0.21875 0.828125 0.21875 2.25q0 1.671875 -0.359375 2.703125q-0.34375 1.03125 -1.03125 1.59375q-0.671875 0.5625 -1.734375 0.5625q-1.375 0 -2.15625 -0.984375q-0.953125 -1.1875 -0.953125 -3.875zm1.203125 0q0 2.34375 0.546875 3.125q0.5625 0.78125 1.359375 0.78125q0.8125 0 1.359375 -0.78125q0.5625 -0.78125 0.5625 -3.125q0 -2.359375 -0.5625 -3.125q-0.546875 -0.78125 -1.359375 -0.78125q-0.8125 0 -1.296875 0.6875q-0.609375 0.875 -0.609375 3.21875z" fill-rule="nonzero"/><path fill="#c9daf8" d="m264.0 40.0l40.0 0l0 40.0l-40.0 0z" fill-rule="evenodd"/><path stroke="#000000" stroke-width="2.0" stroke-linejoin="round" stroke-linecap="butt" d="m264.0 40.0l40.0 0l0 40.0l-40.0 0z" fill-rule="evenodd"/><path fill="#000000" d="m283.411 56.8l-1.171875 0l0 -7.46875q-0.421875 0.40625 -1.109375 0.8125q-0.6875 0.40625 -1.234375 0.609375l0 -1.140625q0.984375 -0.453125 1.71875 -1.109375q0.734375 -0.671875 1.03125 -1.28125l0.765625 0l0 9.578125zm2.4437256 0.15625l2.765625 -9.859375l0.9375 0l-2.765625 9.859375l-0.9375 0z" fill-rule="nonzero"/><path fill="#000000" d="m277.85004 72.8l-1.171875 0l0 -7.46875q-0.421875 0.40625 -1.109375 0.8125q-0.6875 0.40625 -1.234375 0.609375l0 -1.140625q0.984375 -0.453125 1.71875 -1.109375q0.734375 -0.6718788 1.03125 -1.2812538l0.765625 0l0 9.578129zm9.146851 -1.125l0 1.125l-6.296875 0q-0.015625 -0.421875 0.140625 -0.8125q0.234375 -0.640625 0.765625 -1.265625q0.53125 -0.625 1.53125 -1.453125q1.5625 -1.265625 2.109375 -2.015625q0.546875 -0.75 0.546875 -1.40625q0 -0.703125 -0.5 -1.171875q-0.5 -0.484375 -1.296875 -0.484375q-0.859375 0 -1.375 0.515625q-0.5 0.5 -0.5 1.390625l-1.203125 -0.109375q0.125 -1.359375 0.921875 -2.0625038q0.8125 -0.703125 2.171875 -0.703125q1.375 0 2.171875 0.765625q0.8125 0.7500038 0.8125 1.8750038q0 0.578125 -0.234375 1.140625q-0.234375 0.546875 -0.78125 1.15625q-0.546875 0.609375 -1.8125 1.671875q-1.046875 0.890625 -1.359375 1.21875q-0.296875 0.3125 -0.484375 0.625l4.671875 0zm3.0687256 -4.046875q-0.734375 -0.265625 -1.09375 -0.765625q-0.34375 -0.5 -0.34375 -1.1875q0 -1.03125 0.75 -1.7343788q0.75 -0.71875 1.984375 -0.71875q1.25 0 2.015625 0.734375q0.765625 0.7187538 0.765625 1.7500038q0 0.671875 -0.359375 1.171875q-0.34375 0.484375 -1.046875 0.75q0.875 0.28125 1.328125 0.921875q0.46875 0.640625 0.46875 1.515625q0 1.234375 -0.875 2.0625q-0.859375 0.828125 -2.265625 0.828125q-1.421875 0 -2.28125 -0.828125q-0.859375 -0.84375 -0.859375 -2.09375q0 -0.921875 0.46875 -1.546875q0.46875 -0.640625 1.34375 -0.859375zm-0.234375 -1.984375q0 0.671875 0.4375 1.109375q0.4375 0.421875 1.125 0.421875q0.671875 0 1.109375 -0.421875q0.4375 -0.421875 0.4375 -1.046875q0 -0.640625 -0.453125 -1.078125q-0.4375 -0.4375 -1.109375 -0.4375q-0.671875 0 -1.109375 0.4375q-0.4375 0.421875 -0.4375 1.015625zm-0.375 4.40625q0 0.5 0.234375 0.96875q0.234375 0.46875 0.703125 0.734375q0.46875 0.25 1.015625 0.25q0.828125 0 1.375 -0.53125q0.546875 -0.546875 0.546875 -1.390625q0 -0.84375 -0.5625 -1.390625q-0.5625 -0.5625 -1.40625 -0.5625q-0.828125 0 -1.375 0.546875q-0.53125 0.546875 -0.53125 1.375z" fill-rule="nonzero"/><path fill="#f4cccc" d="m264.0 112.0l40.0 0l0 40.0l-40.0 0z" fill-rule="evenodd"/><path stroke="#000000" stroke-width="2.0" stroke-linejoin="round" stroke-linecap="butt" d="m264.0 112.0l40.0 0l0 40.0l-40.0 0z" fill-rule="evenodd"/><path fill="#000000" d="m271.5923 134.28438l1.171875 -0.15625q0.203125 1.0 0.6875 1.4375q0.484375 0.4375 1.171875 0.4375q0.828125 0 1.390625 -0.578125q0.578125 -0.578125 0.578125 -1.421875q0 -0.796875 -0.53125 -1.3125q-0.515625 -0.53125 -1.328125 -0.53125q-0.34375 0 -0.828125 0.125l0.125 -1.03125q0.125 0.015625 0.1875 0.015625q0.75 0 1.34375 -0.390625q0.609375 -0.390625 0.609375 -1.203125q0 -0.640625 -0.4375 -1.0625q-0.4375 -0.421875 -1.125 -0.421875q-0.6875 0 -1.140625 0.4375q-0.453125 0.421875 -0.59375 1.28125l-1.171875 -0.21875q0.21875 -1.171875 0.984375 -1.8125q0.765625 -0.65625 1.890625 -0.65625q0.78125 0 1.4375 0.34375q0.65625 0.328125 1.0 0.90625q0.359375 0.578125 0.359375 1.234375q0 0.609375 -0.34375 1.125q-0.328125 0.5 -0.96875 0.796875q0.84375 0.203125 1.3125 0.828125q0.46875 0.609375 0.46875 1.53125q0 1.25 -0.921875 2.125q-0.90625 0.859375 -2.296875 0.859375q-1.25 0 -2.09375 -0.75q-0.828125 -0.75 -0.9375 -1.9375zm6.8499756 2.671875l2.765625 -9.859375l0.9375 0l-2.765625 9.859375l-0.9375 0zm8.015503 -0.15625l0 -2.28125l-4.140625 0l0 -1.078125l4.34375 -6.1875l0.96875 0l0 6.1875l1.28125 0l0 1.078125l-1.28125 0l0 2.28125l-1.171875 0zm0 -3.359375l0 -4.296875l-2.984375 4.296875l2.984375 0zm5.4593506 -1.8125q-0.734375 -0.265625 -1.09375 -0.765625q-0.34375 -0.5 -0.34375 -1.1875q0 -1.03125 0.75 -1.734375q0.75 -0.71875 1.984375 -0.71875q1.25 0 2.015625 0.734375q0.765625 0.71875 0.765625 1.75q0 0.671875 -0.359375 1.171875q-0.34375 0.484375 -1.046875 0.75q0.875 0.28125 1.328125 0.921875q0.46875 0.640625 0.46875 1.515625q0 1.234375 -0.875 2.0625q-0.859375 0.828125 -2.265625 0.828125q-1.421875 0 -2.28125 -0.828125q-0.859375 -0.84375 -0.859375 -2.09375q0 -0.921875 0.46875 -1.546875q0.46875 -0.640625 1.34375 -0.859375zm-0.234375 -1.984375q0 0.671875 0.4375 1.109375q0.4375 0.421875 1.125 0.421875q0.671875 0 1.109375 -0.421875q0.4375 -0.421875 0.4375 -1.046875q0 -0.640625 -0.453125 -1.078125q-0.4375 -0.4375 -1.109375 -0.4375q-0.671875 0 -1.109375 0.4375q-0.4375 0.421875 -0.4375 1.015625zm-0.375 4.40625q0 0.5 0.234375 0.96875q0.234375 0.46875 0.703125 0.734375q0.46875 0.25 1.015625 0.25q0.828125 0 1.375 -0.53125q0.546875 -0.546875 0.546875 -1.390625q0 -0.84375 -0.5625 -1.390625q-0.5625 -0.5625 -1.40625 -0.5625q-0.828125 0 -1.375 0.546875q-0.53125 0.546875 -0.53125 1.375z" fill-rule="nonzero"/><path fill="#666666" d="m264.0 256.0l40.0 0l0 40.0l-40.0 0z" fill-rule="evenodd"/><path stroke="#000000" stroke-width="2.0" stroke-linejoin="round" stroke-linecap="butt" d="m264.0 256.0l40.0 0l0 40.0l-40.0 0z" fill-rule="evenodd"/><path fill="#ffffff" d="m285.2625 280.8l-1.171875 0l0 -7.46875q-0.421875 0.40625 -1.109375 0.8125q-0.6875 0.40625 -1.234375 0.609375l0 -1.140625q0.984375 -0.453125 1.71875 -1.109375q0.734375 -0.671875 1.03125 -1.28125l0.765625 0l0 9.578125z" fill-rule="nonzero"/><path fill="#d9ead3" d="m264.0 184.0l40.0 0l0 40.0l-40.0 0z" fill-rule="evenodd"/><path stroke="#000000" stroke-width="2.0" stroke-linejoin="round" stroke-linecap="butt" d="m264.0 184.0l40.0 0l0 40.0l-40.0 0z" fill-rule="evenodd"/><path fill="#000000" d="m280.84064 204.09688q0 -1.6875 0.34375 -2.71875q0.359375 -1.03125 1.046875 -1.59375q0.6875 -0.5625 1.71875 -0.5625q0.78125 0 1.359375 0.3125q0.578125 0.296875 0.953125 0.890625q0.375 0.578125 0.59375 1.421875q0.21875 0.828125 0.21875 2.25q0 1.671875 -0.359375 2.703125q-0.34375 1.03125 -1.03125 1.59375q-0.671875 0.5625 -1.734375 0.5625q-1.375 0 -2.15625 -0.984375q-0.953125 -1.1875 -0.953125 -3.875zm1.203125 0q0 2.34375 0.546875 3.125q0.5625 0.78125 1.359375 0.78125q0.8125 0 1.359375 -0.78125q0.5625 -0.78125 0.5625 -3.125q0 -2.359375 -0.5625 -3.125q-0.546875 -0.78125 -1.359375 -0.78125q-0.8125 0 -1.296875 0.6875q-0.609375 0.875 -0.609375 3.21875z" fill-rule="nonzero"/><path fill="#000000" fill-opacity="0.0" d="m208.0 60.0c14.0 0 21.0 0.01574707 28.0 0.031497955c7.0 0.01574707 14.0 0.03149414 28.0 0.03149414" fill-rule="evenodd"/><path stroke="#000000" stroke-width="2.0" stroke-linejoin="round" stroke-linecap="butt" d="m220.0 60.005337l4.625 0.0045051575c4.375 0.0059051514 7.875 0.0137786865 11.375 0.021656036c7.0 0.01574707 14.0 0.03149414 28.0 0.03149414" fill-rule="evenodd"/><path fill="#000000" stroke="#000000" stroke-width="2.0" stroke-linecap="butt" d="m220.00146 56.701874l-9.077667 3.299427l9.074738 3.3075027z" fill-rule="evenodd"/><path fill="#000000" fill-opacity="0.0" d="m208.0 60.0c14.0 0 21.0 18.0 28.0 36.0c7.0 18.0 14.0 36.0 28.0 36.0" fill-rule="evenodd"/><path stroke="#000000" stroke-width="2.0" stroke-linejoin="round" stroke-linecap="butt" d="m219.1018 64.5552l0.1860199 0.16892242c0.64430237 0.5932617 1.2697906 1.2348633 1.8781891 1.9204102c1.2167969 1.3710938 2.3652344 2.9179688 3.4589844 4.6054688c4.375 6.75 7.875 15.75 11.375 24.75c7.0 18.0 14.0 36.0 28.0 36.0" fill-rule="evenodd"/><path fill="#000000" stroke="#000000" stroke-width="2.0" stroke-linecap="butt" d="m220.3558 61.49899l-9.650848 -0.38911438l7.142868 6.501522z" fill-rule="evenodd"/><path fill="#c9daf8" d="m360.0 40.0l40.0 0l0 40.0l-40.0 0z" fill-rule="evenodd"/><path stroke="#000000" stroke-width="2.0" stroke-linejoin="round" stroke-linecap="butt" d="m360.0 40.0l40.0 0l0 40.0l-40.0 0z" fill-rule="evenodd"/><path fill="#000000" d="m376.84064 60.096874q0 -1.6875 0.34375 -2.71875q0.359375 -1.03125 1.046875 -1.59375q0.6875 -0.5625 1.71875 -0.5625q0.78125 0 1.359375 0.3125q0.578125 0.296875 0.953125 0.890625q0.375 0.578125 0.59375 1.421875q0.21875 0.828125 0.21875 2.25q0 1.671875 -0.359375 2.703125q-0.34375 1.03125 -1.03125 1.5937538q-0.671875 0.5625 -1.734375 0.5625q-1.375 0 -2.15625 -0.9843788q-0.953125 -1.1875 -0.953125 -3.875zm1.203125 0q0 2.34375 0.546875 3.125q0.5625 0.7812538 1.359375 0.7812538q0.8125 0 1.359375 -0.7812538q0.5625 -0.78125 0.5625 -3.125q0 -2.359375 -0.5625 -3.125q-0.546875 -0.78125 -1.359375 -0.78125q-0.8125 0 -1.296875 0.6875q-0.609375 0.875 -0.609375 3.21875z" fill-rule="nonzero"/><path fill="#f4cccc" d="m360.0 112.0l40.0 0l0 40.0l-40.0 0z" fill-rule="evenodd"/><path stroke="#000000" stroke-width="2.0" stroke-linejoin="round" stroke-linecap="butt" d="m360.0 112.0l40.0 0l0 40.0l-40.0 0z" fill-rule="evenodd"/><path fill="#000000" d="m371.99854 136.8l-1.171875 0l0 -7.46875q-0.421875 0.40625 -1.109375 0.8125q-0.6875 0.40625 -1.234375 0.609375l0 -1.140625q0.984375 -0.453125 1.71875 -1.109375q0.734375 -0.671875 1.03125 -1.28125l0.765625 0l0 9.578125zm2.4437256 0.15625l2.765625 -9.859375l0.9375 0l-2.765625 9.859375l-0.9375 0zm8.671753 -0.15625l-1.171875 0l0 -7.46875q-0.421875 0.40625 -1.109375 0.8125q-0.6875 0.40625 -1.234375 0.609375l0 -1.140625q0.984375 -0.453125 1.71875 -1.109375q0.734375 -0.671875 1.03125 -1.28125l0.765625 0l0 9.578125zm9.146851 -1.125l0 1.125l-6.296875 0q-0.015625 -0.421875 0.140625 -0.8125q0.234375 -0.640625 0.765625 -1.265625q0.53125 -0.625 1.53125 -1.453125q1.5625 -1.265625 2.109375 -2.015625q0.546875 -0.75 0.546875 -1.40625q0 -0.703125 -0.5 -1.171875q-0.5 -0.484375 -1.296875 -0.484375q-0.859375 0 -1.375 0.515625q-0.5 0.5 -0.5 1.390625l-1.203125 -0.109375q0.125 -1.359375 0.921875 -2.0625q0.8125 -0.703125 2.171875 -0.703125q1.375 0 2.171875 0.765625q0.8125 0.75 0.8125 1.875q0 0.578125 -0.234375 1.140625q-0.234375 0.546875 -0.78125 1.15625q-0.546875 0.609375 -1.8125 1.671875q-1.046875 0.890625 -1.359375 1.21875q-0.296875 0.3125 -0.484375 0.625l4.671875 0z" fill-rule="nonzero"/><path fill="#666666" d="m360.0 256.0l40.0 0l0 40.0l-40.0 0z" fill-rule="evenodd"/><path stroke="#000000" stroke-width="2.0" stroke-linejoin="round" stroke-linecap="butt" d="m360.0 256.0l40.0 0l0 40.0l-40.0 0z" fill-rule="evenodd"/><path fill="#ffffff" d="m381.2625 280.8l-1.171875 0l0 -7.46875q-0.421875 0.40625 -1.109375 0.8125q-0.6875 0.40625 -1.234375 0.609375l0 -1.140625q0.984375 -0.453125 1.71875 -1.109375q0.734375 -0.671875 1.03125 -1.28125l0.765625 0l0 9.578125z" fill-rule="nonzero"/><path fill="#d9ead3" d="m360.0 184.0l40.0 0l0 40.0l-40.0 0z" fill-rule="evenodd"/><path stroke="#000000" stroke-width="2.0" stroke-linejoin="round" stroke-linecap="butt" d="m360.0 184.0l40.0 0l0 40.0l-40.0 0z" fill-rule="evenodd"/><path fill="#000000" d="m376.84064 204.09688q0 -1.6875 0.34375 -2.71875q0.359375 -1.03125 1.046875 -1.59375q0.6875 -0.5625 1.71875 -0.5625q0.78125 0 1.359375 0.3125q0.578125 0.296875 0.953125 0.890625q0.375 0.578125 0.59375 1.421875q0.21875 0.828125 0.21875 2.25q0 1.671875 -0.359375 2.703125q-0.34375 1.03125 -1.03125 1.59375q-0.671875 0.5625 -1.734375 0.5625q-1.375 0 -2.15625 -0.984375q-0.953125 -1.1875 -0.953125 -3.875zm1.203125 0q0 2.34375 0.546875 3.125q0.5625 0.78125 1.359375 0.78125q0.8125 0 1.359375 -0.78125q0.5625 -0.78125 0.5625 -3.125q0 -2.359375 -0.5625 -3.125q-0.546875 -0.78125 -1.359375 -0.78125q-0.8125 0 -1.296875 0.6875q-0.609375 0.875 -0.609375 3.21875z" fill-rule="nonzero"/><path fill="#000000" fill-opacity="0.0" d="m304.0 60.0c14.0 0 21.0 0.01574707 28.0 0.031497955c7.0 0.01574707 14.0 0.03149414 28.0 0.03149414" fill-rule="evenodd"/><path stroke="#000000" stroke-width="2.0" stroke-linejoin="round" stroke-linecap="butt" d="m316.0 60.005337l4.625 0.0045051575c4.375 0.0059051514 7.875 0.0137786865 11.375 0.021656036c7.0 0.01574707 14.0 0.03149414 28.0 0.03149414" fill-rule="evenodd"/><path fill="#000000" stroke="#000000" stroke-width="2.0" stroke-linecap="butt" d="m316.00146 56.701874l-9.077667 3.299427l9.074738 3.3075027z" fill-rule="evenodd"/><path fill="#000000" fill-opacity="0.0" d="m304.0 132.0c14.0 0 21.0 18.0 28.0 36.0c7.0 18.0 14.0 36.0 28.0 36.0" fill-rule="evenodd"/><path stroke="#000000" stroke-width="2.0" stroke-linejoin="round" stroke-linecap="butt" d="m315.1018 136.55519l0.18603516 0.16893005c0.6442871 0.5932617 1.2697754 1.2348633 1.8781738 1.9204102c1.2167969 1.3710938 2.3652344 2.9179688 3.4589844 4.6054688c4.375 6.75 7.875 15.75 11.375 24.75c7.0 18.0 14.0 36.0 28.0 36.0" fill-rule="evenodd"/><path fill="#000000" stroke="#000000" stroke-width="2.0" stroke-linecap="butt" d="m316.3558 133.499l-9.650848 -0.38911438l7.142853 6.5015106z" fill-rule="evenodd"/><path fill="#000000" fill-opacity="0.0" d="m304.0 132.0c14.0 0 21.0 0.01574707 28.0 0.03149414c7.0 0.01574707 14.0 0.03149414 28.0 0.03149414" fill-rule="evenodd"/><path stroke="#000000" stroke-width="2.0" stroke-linejoin="round" stroke-linecap="butt" d="m316.0 132.00534l4.625 0.004501343c4.375 0.0059051514 7.875 0.0137786865 11.375 0.021652222c7.0 0.01574707 14.0 0.03149414 28.0 0.03149414" fill-rule="evenodd"/><path fill="#000000" stroke="#000000" stroke-width="2.0" stroke-linecap="butt" d="m316.00146 128.70187l-9.077667 3.2994232l9.074738 3.3075104z" fill-rule="evenodd"/><path fill="#c9daf8" d="m456.0 40.0l40.0 0l0 40.0l-40.0 0z" fill-rule="evenodd"/><path stroke="#000000" stroke-width="2.0" stroke-linejoin="round" stroke-linecap="butt" d="m456.0 40.0l40.0 0l0 40.0l-40.0 0z" fill-rule="evenodd"/><path fill="#000000" d="m472.84064 60.096874q0 -1.6875 0.34375 -2.71875q0.359375 -1.03125 1.046875 -1.59375q0.6875 -0.5625 1.71875 -0.5625q0.78125 0 1.359375 0.3125q0.578125 0.296875 0.953125 0.890625q0.375 0.578125 0.59375 1.421875q0.21875 0.828125 0.21875 2.25q0 1.671875 -0.359375 2.703125q-0.34375 1.03125 -1.03125 1.5937538q-0.671875 0.5625 -1.734375 0.5625q-1.375 0 -2.15625 -0.9843788q-0.953125 -1.1875 -0.953125 -3.875zm1.203125 0q0 2.34375 0.546875 3.125q0.5625 0.7812538 1.359375 0.7812538q0.8125 0 1.359375 -0.7812538q0.5625 -0.78125 0.5625 -3.125q0 -2.359375 -0.5625 -3.125q-0.546875 -0.78125 -1.359375 -0.78125q-0.8125 0 -1.296875 0.6875q-0.609375 0.875 -0.609375 3.21875z" fill-rule="nonzero"/><path fill="#f4cccc" d="m456.0 112.0l40.0 0l0 40.0l-40.0 0z" fill-rule="evenodd"/><path stroke="#000000" stroke-width="2.0" stroke-linejoin="round" stroke-linecap="butt" d="m456.0 112.0l40.0 0l0 40.0l-40.0 0z" fill-rule="evenodd"/><path fill="#000000" d="m472.84064 132.09688q0 -1.6875 0.34375 -2.71875q0.359375 -1.03125 1.046875 -1.59375q0.6875 -0.5625 1.71875 -0.5625q0.78125 0 1.359375 0.3125q0.578125 0.296875 0.953125 0.890625q0.375 0.578125 0.59375 1.421875q0.21875 0.828125 0.21875 2.25q0 1.671875 -0.359375 2.703125q-0.34375 1.03125 -1.03125 1.59375q-0.671875 0.5625 -1.734375 0.5625q-1.375 0 -2.15625 -0.984375q-0.953125 -1.1875 -0.953125 -3.875zm1.203125 0q0 2.34375 0.546875 3.125q0.5625 0.78125 1.359375 0.78125q0.8125 0 1.359375 -0.78125q0.5625 -0.78125 0.5625 -3.125q0 -2.359375 -0.5625 -3.125q-0.546875 -0.78125 -1.359375 -0.78125q-0.8125 0 -1.296875 0.6875q-0.609375 0.875 -0.609375 3.21875z" fill-rule="nonzero"/><path fill="#666666" d="m456.0 256.0l40.0 0l0 40.0l-40.0 0z" fill-rule="evenodd"/><path stroke="#000000" stroke-width="2.0" stroke-linejoin="round" stroke-linecap="butt" d="m456.0 256.0l40.0 0l0 40.0l-40.0 0z" fill-rule="evenodd"/><path fill="#ffffff" d="m477.2625 280.8l-1.171875 0l0 -7.46875q-0.421875 0.40625 -1.109375 0.8125q-0.6875 0.40625 -1.234375 0.609375l0 -1.140625q0.984375 -0.453125 1.71875 -1.109375q0.734375 -0.671875 1.03125 -1.28125l0.765625 0l0 9.578125z" fill-rule="nonzero"/><path fill="#d9ead3" d="m456.0 184.0l40.0 0l0 40.0l-40.0 0z" fill-rule="evenodd"/><path stroke="#000000" stroke-width="2.0" stroke-linejoin="round" stroke-linecap="butt" d="m456.0 184.0l40.0 0l0 40.0l-40.0 0z" fill-rule="evenodd"/><path fill="#000000" d="m472.84064 204.09688q0 -1.6875 0.34375 -2.71875q0.359375 -1.03125 1.046875 -1.59375q0.6875 -0.5625 1.71875 -0.5625q0.78125 0 1.359375 0.3125q0.578125 0.296875 0.953125 0.890625q0.375 0.578125 0.59375 1.421875q0.21875 0.828125 0.21875 2.25q0 1.671875 -0.359375 2.703125q-0.34375 1.03125 -1.03125 1.59375q-0.671875 0.5625 -1.734375 0.5625q-1.375 0 -2.15625 -0.984375q-0.953125 -1.1875 -0.953125 -3.875zm1.203125 0q0 2.34375 0.546875 3.125q0.5625 0.78125 1.359375 0.78125q0.8125 0 1.359375 -0.78125q0.5625 -0.78125 0.5625 -3.125q0 -2.359375 -0.5625 -3.125q-0.546875 -0.78125 -1.359375 -0.78125q-0.8125 0 -1.296875 0.6875q-0.609375 0.875 -0.609375 3.21875z" fill-rule="nonzero"/><path fill="#000000" fill-opacity="0.0" d="m400.0 60.0c14.0 0 21.0 0.01574707 28.0 0.031497955c7.0 0.01574707 14.0 0.03149414 28.0 0.03149414" fill-rule="evenodd"/><path stroke="#000000" stroke-width="2.0" stroke-linejoin="round" stroke-linecap="butt" d="m412.0 60.005337l4.625 0.0045051575c4.375 0.0059051514 7.875 0.0137786865 11.375 0.021656036c7.0 0.01574707 14.0 0.03149414 28.0 0.03149414" fill-rule="evenodd"/><path fill="#000000" stroke="#000000" stroke-width="2.0" stroke-linecap="butt" d="m412.00146 56.701874l-9.077667 3.299427l9.074738 3.3075027z" fill-rule="evenodd"/><path fill="#000000" fill-opacity="0.0" d="m304.0 60.0c14.0 0 21.0 18.0 28.0 36.0c7.0 18.0 14.0 36.0 28.0 36.0" fill-rule="evenodd"/><path stroke="#000000" stroke-width="2.0" stroke-linejoin="round" stroke-linecap="butt" d="m315.1018 64.5552l0.18603516 0.16892242c0.6442871 0.5932617 1.2697754 1.2348633 1.8781738 1.9204102c1.2167969 1.3710938 2.3652344 2.9179688 3.4589844 4.6054688c4.375 6.75 7.875 15.75 11.375 24.75c7.0 18.0 14.0 36.0 28.0 36.0" fill-rule="evenodd"/><path fill="#000000" stroke="#000000" stroke-width="2.0" stroke-linecap="butt" d="m316.3558 61.49899l-9.650848 -0.38911438l7.142853 6.501522z" fill-rule="evenodd"/><path fill="#000000" fill-opacity="0.0" d="m328.0 80.0l24.0 0l0 24.0l-24.0 0z" fill-rule="evenodd"/><path fill="#000000" d="m337.73438 94.59688l1.125 -0.109375q0.140625 0.796875 0.546875 1.15625q0.40625 0.359375 1.03125 0.359375q0.53125 0 0.9375 -0.25q0.421875 -0.25 0.671875 -0.65625q0.265625 -0.421875 0.4375 -1.125q0.171875 -0.703125 0.171875 -1.421875q0 -0.078125 0 -0.234375q-0.359375 0.546875 -0.96875 0.90625q-0.59375 0.34375 -1.3125 0.34375q-1.1875 0 -2.015625 -0.859375q-0.8125 -0.859375 -0.8125 -2.265625q0 -1.453125 0.859375 -2.328125q0.859375 -0.890625 2.140625 -0.890625q0.9375 0 1.703125 0.5q0.78125 0.5 1.171875 1.4375q0.40625 0.921875 0.40625 2.671875q0 1.828125 -0.40625 2.921875q-0.390625 1.078125 -1.171875 1.640625q-0.78125 0.5625 -1.84375 0.5625q-1.109375 0 -1.828125 -0.609375q-0.703125 -0.625 -0.84375 -1.75zm4.796875 -4.21875q0 -1.0 -0.546875 -1.59375q-0.53125 -0.59375 -1.28125 -0.59375q-0.78125 0 -1.375 0.640625q-0.578125 0.640625 -0.578125 1.65625q0 0.90625 0.546875 1.484375q0.5625 0.5625 1.359375 0.5625q0.828125 0 1.34375 -0.5625q0.53125 -0.578125 0.53125 -1.59375z" fill-rule="nonzero"/><path fill="#000000" fill-opacity="0.0" d="m200.0 88.0l56.0 0l0 24.0l-56.0 0z" fill-rule="evenodd"/><path fill="#000000" d="m224.85626 102.28438l1.171875 -0.15625q0.203125 1.0 0.6875 1.4375q0.484375 0.4375 1.171875 0.4375q0.828125 0 1.390625 -0.578125q0.578125 -0.578125 0.578125 -1.421875q0 -0.796875 -0.53125 -1.3125q-0.515625 -0.53125 -1.328125 -0.53125q-0.34375 0 -0.828125 0.125l0.125 -1.03125q0.125 0.015625 0.1875 0.015625q0.75 0 1.34375 -0.390625q0.609375 -0.390625 0.609375 -1.203125q0 -0.640625 -0.4375 -1.0625q-0.4375 -0.421875 -1.125 -0.421875q-0.6875 0 -1.140625 0.4375q-0.453125 0.421875 -0.59375 1.28125l-1.171875 -0.21875q0.21875 -1.171875 0.984375 -1.8125q0.765625 -0.65625 1.890625 -0.65625q0.78125 0 1.4375 0.34375q0.65625 0.328125 1.0 0.90625q0.359375 0.578125 0.359375 1.234375q0 0.609375 -0.34375 1.125q-0.328125 0.5 -0.96875 0.796875q0.84375 0.203125 1.3125 0.828125q0.46875 0.609375 0.46875 1.53125q0 1.25 -0.921875 2.125q-0.90625 0.859375 -2.296875 0.859375q-1.25 0 -2.09375 -0.75q-0.828125 -0.75 -0.9375 -1.9375z" fill-rule="nonzero"/><path fill="#000000" fill-opacity="0.0" d="m208.0 132.0c14.0 0 21.0 0.01574707 28.0 0.03149414c7.0 0.01574707 14.0 0.03149414 28.0 0.03149414" fill-rule="evenodd"/><path stroke="#000000" stroke-width="2.0" stroke-linejoin="round" stroke-linecap="butt" d="m220.0 132.00534l4.625 0.004501343c4.375 0.0059051514 7.875 0.0137786865 11.375 0.021652222c7.0 0.01574707 14.0 0.03149414 28.0 0.03149414" fill-rule="evenodd"/><path fill="#000000" stroke="#000000" stroke-width="2.0" stroke-linecap="butt" d="m220.00146 128.70187l-9.077667 3.2994232l9.074738 3.3075104z" fill-rule="evenodd"/><path fill="#000000" fill-opacity="0.0" d="m312.0 40.0l40.0 0l0 24.0l-40.0 0z" fill-rule="evenodd"/><path fill="#000000" d="m326.9469 51.628124q-0.734375 -0.265625 -1.09375 -0.765625q-0.34375 -0.5 -0.34375 -1.1875q0 -1.03125 0.75 -1.734375q0.75 -0.71875 1.984375 -0.71875q1.25 0 2.015625 0.734375q0.765625 0.71875 0.765625 1.75q0 0.671875 -0.359375 1.171875q-0.34375 0.484375 -1.046875 0.75q0.875 0.28125 1.328125 0.921875q0.46875 0.640625 0.46875 1.515625q0 1.234375 -0.875 2.0625q-0.859375 0.828125 -2.265625 0.828125q-1.421875 0 -2.28125 -0.828125q-0.859375 -0.84375 -0.859375 -2.09375q0 -0.921875 0.46875 -1.546875q0.46875 -0.640625 1.34375 -0.859375zm-0.234375 -1.984375q0 0.671875 0.4375 1.109375q0.4375 0.421875 1.125 0.421875q0.671875 0 1.109375 -0.421875q0.4375 -0.421875 0.4375 -1.046875q0 -0.640625 -0.453125 -1.078125q-0.4375 -0.4375 -1.109375 -0.4375q-0.671875 0 -1.109375 0.4375q-0.4375 0.421875 -0.4375 1.015625zm-0.375 4.40625q0 0.5 0.234375 0.96875q0.234375 0.46875 0.703125 0.734375q0.46875 0.25 1.015625 0.25q0.828125 0 1.375 -0.53125q0.546875 -0.546875 0.546875 -1.390625q0 -0.84375 -0.5625 -1.390625q-0.5625 -0.5625 -1.40625 -0.5625q-0.828125 0 -1.375 0.546875q-0.53125 0.546875 -0.53125 1.375zm6.2874756 -5.546875l0 -1.125l6.1875 0l0 0.921875q-0.921875 0.96875 -1.8125 2.578125q-0.890625 1.59375 -1.375 3.296875q-0.359375 1.203125 -0.453125 2.625l-1.203125 0q0.015625 -1.125 0.4375 -2.71875q0.421875 -1.59375 1.203125 -3.078125q0.796875 -1.484375 1.6875 -2.5l-4.671875 0z" fill-rule="nonzero"/><path fill="#000000" fill-opacity="0.0" d="m312.0 112.0l24.0 0l0 24.0l-24.0 0z" fill-rule="evenodd"/><path fill="#000000" d="m321.5625 126.28438l1.171875 -0.15625q0.203125 1.0 0.6875 1.4375q0.484375 0.4375 1.171875 0.4375q0.828125 0 1.390625 -0.578125q0.578125 -0.578125 0.578125 -1.421875q0 -0.796875 -0.53125 -1.3125q-0.515625 -0.53125 -1.328125 -0.53125q-0.34375 0 -0.828125 0.125l0.125 -1.03125q0.125 0.015625 0.1875 0.015625q0.75 0 1.34375 -0.390625q0.609375 -0.390625 0.609375 -1.203125q0 -0.640625 -0.4375 -1.0625q-0.4375 -0.421875 -1.125 -0.421875q-0.6875 0 -1.140625 0.4375q-0.453125 0.421875 -0.59375 1.28125l-1.171875 -0.21875q0.21875 -1.171875 0.984375 -1.8125q0.765625 -0.65625 1.890625 -0.65625q0.78125 0 1.4375 0.34375q0.65625 0.328125 1.0 0.90625q0.359375 0.578125 0.359375 1.234375q0 0.609375 -0.34375 1.125q-0.328125 0.5 -0.96875 0.796875q0.84375 0.203125 1.3125 0.828125q0.46875 0.609375 0.46875 1.53125q0 1.25 -0.921875 2.125q-0.90625 0.859375 -2.296875 0.859375q-1.25 0 -2.09375 -0.75q-0.828125 -0.75 -0.9375 -1.9375z" fill-rule="nonzero"/><path fill="#000000" fill-opacity="0.0" d="m328.0 152.0l24.0 0l0 24.0l-24.0 0z" fill-rule="evenodd"/><path fill="#000000" d="m341.96875 168.8l-1.171875 0l0 -7.46875q-0.421875 0.40625 -1.109375 0.8125q-0.6875 0.40625 -1.234375 0.609375l0 -1.140625q0.984375 -0.453125 1.71875 -1.109375q0.734375 -0.671875 1.03125 -1.28125l0.765625 0l0 9.578125z" fill-rule="nonzero"/><path fill="#000000" fill-opacity="0.0" d="m400.0 132.0c14.0 0 21.0 0.01574707 28.0 0.03149414c7.0 0.01574707 14.0 0.03149414 28.0 0.03149414" fill-rule="evenodd"/><path stroke="#000000" stroke-width="2.0" stroke-linejoin="round" stroke-linecap="butt" d="m412.0 132.00534l4.625 0.004501343c4.375 0.0059051514 7.875 0.0137786865 11.375 0.021652222c7.0 0.01574707 14.0 0.03149414 28.0 0.03149414" fill-rule="evenodd"/><path fill="#000000" stroke="#000000" stroke-width="2.0" stroke-linecap="butt" d="m412.00146 128.70187l-9.077667 3.2994232l9.074738 3.3075104z" fill-rule="evenodd"/><path fill="#000000" fill-opacity="0.0" d="m408.0 112.0l24.0 0l0 24.0l-24.0 0z" fill-rule="evenodd"/><path fill="#000000" d="m417.73438 126.59688l1.125 -0.109375q0.140625 0.796875 0.546875 1.15625q0.40625 0.359375 1.03125 0.359375q0.53125 0 0.9375 -0.25q0.421875 -0.25 0.671875 -0.65625q0.265625 -0.421875 0.4375 -1.125q0.171875 -0.703125 0.171875 -1.421875q0 -0.078125 0 -0.234375q-0.359375 0.546875 -0.96875 0.90625q-0.59375 0.34375 -1.3125 0.34375q-1.1875 0 -2.015625 -0.859375q-0.8125 -0.859375 -0.8125 -2.265625q0 -1.453125 0.859375 -2.328125q0.859375 -0.890625 2.140625 -0.890625q0.9375 0 1.703125 0.5q0.78125 0.5 1.171875 1.4375q0.40625 0.921875 0.40625 2.671875q0 1.828125 -0.40625 2.921875q-0.390625 1.078125 -1.171875 1.640625q-0.78125 0.5625 -1.84375 0.5625q-1.109375 0 -1.828125 -0.609375q-0.703125 -0.625 -0.84375 -1.75zm4.796875 -4.21875q0 -1.0 -0.546875 -1.59375q-0.53125 -0.59375 -1.28125 -0.59375q-0.78125 0 -1.375 0.640625q-0.578125 0.640625 -0.578125 1.65625q0 0.90625 0.546875 1.484375q0.5625 0.5625 1.359375 0.5625q0.828125 0 1.34375 -0.5625q0.53125 -0.578125 0.53125 -1.59375z" fill-rule="nonzero"/><path fill="#000000" fill-opacity="0.0" d="m400.0 132.0c14.0 0 21.0 18.0 28.0 36.0c7.0 18.0 14.0 36.0 28.0 36.0" fill-rule="evenodd"/><path stroke="#000000" stroke-width="2.0" stroke-linejoin="round" stroke-linecap="butt" d="m411.10184 136.55519l0.18600464 0.16893005c0.6442871 0.5932617 1.2697754 1.2348633 1.8781738 1.9204102c1.2167664 1.3710938 2.3652344 2.9179688 3.4589844 4.6054688c4.375 6.75 7.875 15.75 11.375 24.75c7.0 18.0 14.0 36.0 28.0 36.0" fill-rule="evenodd"/><path fill="#000000" stroke="#000000" stroke-width="2.0" stroke-linecap="butt" d="m412.3558 133.499l-9.650848 -0.38911438l7.142853 6.5015106z" fill-rule="evenodd"/><path fill="#000000" fill-opacity="0.0" d="m424.0 152.0l24.0 0l0 24.0l-24.0 0z" fill-rule="evenodd"/><path fill="#000000" d="m439.70312 167.675l0 1.125l-6.296875 0q-0.015625 -0.421875 0.140625 -0.8125q0.234375 -0.640625 0.765625 -1.265625q0.53125 -0.625 1.53125 -1.453125q1.5625 -1.265625 2.109375 -2.015625q0.546875 -0.75 0.546875 -1.40625q0 -0.703125 -0.5 -1.171875q-0.5 -0.484375 -1.296875 -0.484375q-0.859375 0 -1.375 0.515625q-0.5 0.5 -0.5 1.390625l-1.203125 -0.109375q0.125 -1.359375 0.921875 -2.0625q0.8125 -0.703125 2.171875 -0.703125q1.375 0 2.171875 0.765625q0.8125 0.75 0.8125 1.875q0 0.578125 -0.234375 1.140625q-0.234375 0.546875 -0.78125 1.15625q-0.546875 0.609375 -1.8125 1.671875q-1.046875 0.890625 -1.359375 1.21875q-0.296875 0.3125 -0.484375 0.625l4.671875 0z" fill-rule="nonzero"/><path fill="#000000" fill-opacity="0.0" d="m400.0 132.0c14.0 0 21.0 36.0 28.0 72.0c7.0 36.0 14.0 72.0 28.0 72.0" fill-rule="evenodd"/><path stroke="#000000" stroke-width="2.0" stroke-linejoin="round" stroke-linecap="butt" d="m409.79608 138.93082l0.009643555 0.014602661c0.168396 0.25914 0.33551025 0.5247345 0.5013733 0.7966461c0.3317566 0.54382324 0.6586304 1.112915 0.9807434 1.7061768c0.6442871 1.1865234 1.2697754 2.4697266 1.8781738 3.8408203c1.2167664 2.7421875 2.3652344 5.8359375 3.4589844 9.2109375c4.375 13.5 7.875 31.5 11.375 49.5c7.0 36.0 14.0 72.0 28.0 72.0" fill-rule="evenodd"/><path fill="#000000" stroke="#000000" stroke-width="2.0" stroke-linecap="butt" d="m411.70407 136.23405l-9.31723 -2.5453644l5.5012817 7.9388885z" fill-rule="evenodd"/><path fill="#000000" fill-opacity="0.0" d="m408.0 200.0l24.0 0l0 24.0l-24.0 0z" fill-rule="evenodd"/><path fill="#000000" d="m421.96875 216.8l-1.171875 0l0 -7.46875q-0.421875 0.40625 -1.109375 0.8125q-0.6875 0.40625 -1.234375 0.609375l0 -1.140625q0.984375 -0.453125 1.71875 -1.109375q0.734375 -0.671875 1.03125 -1.28125l0.765625 0l0 9.578125z" fill-rule="nonzero"/><path fill="#000000" fill-opacity="0.0" d="m400.0 204.0c14.0 0 21.0 0.01574707 28.0 0.03149414c7.0 0.01574707 14.0 0.03149414 28.0 0.03149414" fill-rule="evenodd"/><path stroke="#000000" stroke-width="2.0" stroke-linejoin="round" stroke-linecap="butt" d="m412.0 204.00533l4.625 0.0045166016c4.375 0.0059051514 7.875 0.0137786865 11.375 0.021652222c7.0 0.01574707 14.0 0.03149414 28.0 0.03149414" fill-rule="evenodd"/><path fill="#000000" stroke="#000000" stroke-width="2.0" stroke-linecap="butt" d="m412.00146 200.70187l-9.077667 3.2994232l9.074738 3.3075104z" fill-rule="evenodd"/><path fill="#000000" fill-opacity="0.0" d="m416.0 232.0l24.0 0l0 24.0l-24.0 0z" fill-rule="evenodd"/><path fill="#000000" d="m429.96875 248.8l-1.171875 0l0 -7.46875q-0.421875 0.40625 -1.109375 0.8125q-0.6875 0.40625 -1.234375 0.609375l0 -1.140625q0.984375 -0.453125 1.71875 -1.109375q0.734375 -0.671875 1.03125 -1.28125l0.765625 0l0 9.578125z" fill-rule="nonzero"/><path fill="#000000" fill-opacity="0.0" d="m400.0 60.0c14.0 0 21.0 18.0 28.0 36.0c7.0 18.0 14.0 36.0 28.0 36.0" fill-rule="evenodd"/><path stroke="#000000" stroke-width="2.0" stroke-linejoin="round" stroke-linecap="butt" d="m411.10184 64.5552l0.18600464 0.16892242c0.6442871 0.5932617 1.2697754 1.2348633 1.8781738 1.9204102c1.2167664 1.3710938 2.3652344 2.9179688 3.4589844 4.6054688c4.375 6.75 7.875 15.75 11.375 24.75c7.0 18.0 14.0 36.0 28.0 36.0" fill-rule="evenodd"/><path fill="#000000" stroke="#000000" stroke-width="2.0" stroke-linecap="butt" d="m412.3558 61.49899l-9.650848 -0.38911438l7.142853 6.501522z" fill-rule="evenodd"/><path fill="#000000" fill-opacity="0.0" d="m416.0 72.0l40.0 0l0 24.0l-40.0 0z" fill-rule="evenodd"/><path fill="#000000" d="m429.15002 86.28438l1.171875 -0.15625q0.203125 1.0 0.6875 1.4375q0.484375 0.4375 1.171875 0.4375q0.828125 0 1.390625 -0.578125q0.578125 -0.578125 0.578125 -1.421875q0 -0.796875 -0.53125 -1.3125q-0.515625 -0.53125 -1.328125 -0.53125q-0.34375 0 -0.828125 0.125l0.125 -1.03125q0.125 0.015625 0.1875 0.015625q0.75 0 1.34375 -0.390625q0.609375 -0.390625 0.609375 -1.203125q0 -0.640625 -0.4375 -1.0625q-0.4375 -0.421875 -1.125 -0.421875q-0.6875 0 -1.140625 0.4375q-0.453125 0.421875 -0.59375 1.28125l-1.171875 -0.21875q0.21875 -1.171875 0.984375 -1.8125q0.765625 -0.65625 1.890625 -0.65625q0.78125 0 1.4375 0.34375q0.65625 0.328125 1.0 0.90625q0.359375 0.578125 0.359375 1.234375q0 0.609375 -0.34375 1.125q-0.328125 0.5 -0.96875 0.796875q0.84375 0.203125 1.3125 0.828125q0.46875 0.609375 0.46875 1.53125q0 1.25 -0.921875 2.125q-0.90625 0.859375 -2.296875 0.859375q-1.25 0 -2.09375 -0.75q-0.828125 -0.75 -0.9375 -1.9375zm7.3968506 -2.1875q0 -1.6875 0.34375 -2.71875q0.359375 -1.03125 1.046875 -1.59375q0.6875 -0.5625 1.71875 -0.5625q0.78125 0 1.359375 0.3125q0.578125 0.296875 0.953125 0.890625q0.375 0.578125 0.59375 1.421875q0.21875 0.828125 0.21875 2.25q0 1.671875 -0.359375 2.703125q-0.34375 1.03125 -1.03125 1.59375q-0.671875 0.5625 -1.734375 0.5625q-1.375 0 -2.15625 -0.984375q-0.953125 -1.1875 -0.953125 -3.875zm1.203125 0q0 2.34375 0.546875 3.125q0.5625 0.78125 1.359375 0.78125q0.8125 0 1.359375 -0.78125q0.5625 -0.78125 0.5625 -3.125q0 -2.359375 -0.5625 -3.125q-0.546875 -0.78125 -1.359375 -0.78125q-0.8125 0 -1.296875 0.6875q-0.609375 0.875 -0.609375 3.21875z" fill-rule="nonzero"/><path fill="#000000" fill-opacity="0.0" d="m408.0 40.0l40.0 0l0 24.0l-40.0 0z" fill-rule="evenodd"/><path fill="#000000" d="m421.1344 54.3l1.234375 -0.109375q0.140625 0.90625 0.640625 1.359375q0.5 0.453125 1.203125 0.453125q0.84375 0 1.421875 -0.640625q0.59375 -0.640625 0.59375 -1.6875q0 -1.0 -0.5625 -1.578125q-0.5625 -0.59375 -1.484375 -0.59375q-0.5625 0 -1.015625 0.265625q-0.453125 0.25 -0.71875 0.671875l-1.09375 -0.15625l0.921875 -4.890625l4.75 0l0 1.109375l-3.8125 0l-0.515625 2.5625q0.859375 -0.59375 1.796875 -0.59375q1.25 0 2.109375 0.875q0.859375 0.859375 0.859375 2.21875q0 1.296875 -0.75 2.234375q-0.921875 1.15625 -2.5 1.15625q-1.3125 0 -2.140625 -0.71875q-0.8125 -0.734375 -0.9375 -1.9375zm7.4906006 -5.796875l0 -1.125l6.1875 0l0 0.921875q-0.921875 0.96875 -1.8125 2.578125q-0.890625 1.59375 -1.375 3.296875q-0.359375 1.203125 -0.453125 2.625l-1.203125 0q0.015625 -1.125 0.4375 -2.71875q0.421875 -1.59375 1.203125 -3.078125q0.796875 -1.484375 1.6875 -2.5l-4.671875 0z" fill-rule="nonzero"/><path fill="#000000" fill-opacity="0.0" d="m320.0 232.0l24.0 0l0 24.0l-24.0 0z" fill-rule="evenodd"/><path fill="#000000" d="m329.54688 244.09688q0 -1.6875 0.34375 -2.71875q0.359375 -1.03125 1.046875 -1.59375q0.6875 -0.5625 1.71875 -0.5625q0.78125 0 1.359375 0.3125q0.578125 0.296875 0.953125 0.890625q0.375 0.578125 0.59375 1.421875q0.21875 0.828125 0.21875 2.25q0 1.671875 -0.359375 2.703125q-0.34375 1.03125 -1.03125 1.59375q-0.671875 0.5625 -1.734375 0.5625q-1.375 0 -2.15625 -0.984375q-0.953125 -1.1875 -0.953125 -3.875zm1.203125 0q0 2.34375 0.546875 3.125q0.5625 0.78125 1.359375 0.78125q0.8125 0 1.359375 -0.78125q0.5625 -0.78125 0.5625 -3.125q0 -2.359375 -0.5625 -3.125q-0.546875 -0.78125 -1.359375 -0.78125q-0.8125 0 -1.296875 0.6875q-0.609375 0.875 -0.609375 3.21875z" fill-rule="nonzero"/><path fill="#000000" fill-opacity="0.0" d="m304.0 132.0c14.0 0 21.0 36.0 28.0 72.0c7.0 36.0 14.0 72.0 28.0 72.0" fill-rule="evenodd"/><path stroke="#000000" stroke-width="2.0" stroke-linejoin="round" stroke-linecap="butt" d="m313.7961 138.93082l0.009643555 0.014602661c0.16836548 0.25914 0.33544922 0.5247345 0.5013428 0.7966461c0.3317566 0.54382324 0.65859985 1.112915 0.9807434 1.7061768c0.6442871 1.1865234 1.2697754 2.4697266 1.8781738 3.8408203c1.2167969 2.7421875 2.3652344 5.8359375 3.4589844 9.2109375c4.375 13.5 7.875 31.5 11.375 49.5c7.0 36.0 14.0 72.0 28.0 72.0" fill-rule="evenodd"/><path fill="#000000" stroke="#000000" stroke-width="2.0" stroke-linecap="butt" d="m315.70407 136.23405l-9.31723 -2.5453644l5.5012817 7.9388885z" fill-rule="evenodd"/><path fill="#000000" fill-opacity="0.0" d="m312.0 200.0l24.0 0l0 24.0l-24.0 0z" fill-rule="evenodd"/><path fill="#000000" d="m321.54688 212.09688q0 -1.6875 0.34375 -2.71875q0.359375 -1.03125 1.046875 -1.59375q0.6875 -0.5625 1.71875 -0.5625q0.78125 0 1.359375 0.3125q0.578125 0.296875 0.953125 0.890625q0.375 0.578125 0.59375 1.421875q0.21875 0.828125 0.21875 2.25q0 1.671875 -0.359375 2.703125q-0.34375 1.03125 -1.03125 1.59375q-0.671875 0.5625 -1.734375 0.5625q-1.375 0 -2.15625 -0.984375q-0.953125 -1.1875 -0.953125 -3.875zm1.203125 0q0 2.34375 0.546875 3.125q0.5625 0.78125 1.359375 0.78125q0.8125 0 1.359375 -0.78125q0.5625 -0.78125 0.5625 -3.125q0 -2.359375 -0.5625 -3.125q-0.546875 -0.78125 -1.359375 -0.78125q-0.8125 0 -1.296875 0.6875q-0.609375 0.875 -0.609375 3.21875z" fill-rule="nonzero"/><path fill="#000000" fill-opacity="0.0" d="m304.0 204.0c14.0 0 21.0 0.01574707 28.0 0.03149414c7.0 0.01574707 14.0 0.03149414 28.0 0.03149414" fill-rule="evenodd"/><path stroke="#000000" stroke-width="2.0" stroke-linejoin="round" stroke-linecap="butt" d="m316.0 204.00533l4.625 0.0045166016c4.375 0.0059051514 7.875 0.0137786865 11.375 0.021652222c7.0 0.01574707 14.0 0.03149414 28.0 0.03149414" fill-rule="evenodd"/><path fill="#000000" stroke="#000000" stroke-width="2.0" stroke-linecap="butt" d="m316.00146 200.70187l-9.077667 3.2994232l9.074738 3.3075104z" fill-rule="evenodd"/><path fill="#000000" fill-opacity="0.0" d="m312.0 272.0l24.0 0l0 24.0l-24.0 0z" fill-rule="evenodd"/><path fill="#000000" d="m321.54688 284.09686q0 -1.6875 0.34375 -2.71875q0.359375 -1.03125 1.046875 -1.59375q0.6875 -0.5625 1.71875 -0.5625q0.78125 0 1.359375 0.3125q0.578125 0.296875 0.953125 0.890625q0.375 0.578125 0.59375 1.421875q0.21875 0.828125 0.21875 2.25q0 1.671875 -0.359375 2.703125q-0.34375 1.03125 -1.03125 1.59375q-0.671875 0.5625 -1.734375 0.5625q-1.375 0 -2.15625 -0.984375q-0.953125 -1.1875 -0.953125 -3.875zm1.203125 0q0 2.34375 0.546875 3.125q0.5625 0.78125 1.359375 0.78125q0.8125 0 1.359375 -0.78125q0.5625 -0.78125 0.5625 -3.125q0 -2.359375 -0.5625 -3.125q-0.546875 -0.78125 -1.359375 -0.78125q-0.8125 0 -1.296875 0.6875q-0.609375 0.875 -0.609375 3.21875z" fill-rule="nonzero"/><path fill="#000000" fill-opacity="0.0" d="m304.0 276.0c14.0 0 21.0 0.01574707 28.0 0.03149414c7.0 0.01574707 14.0 0.03149414 28.0 0.03149414" fill-rule="evenodd"/><path stroke="#000000" stroke-width="2.0" stroke-linejoin="round" stroke-linecap="butt" d="m316.0 276.00534l4.625 0.0045166016c4.375 0.0058898926 7.875 0.013763428 11.375 0.021636963c7.0 0.01574707 14.0 0.03149414 28.0 0.03149414" fill-rule="evenodd"/><path fill="#000000" stroke="#000000" stroke-width="2.0" stroke-linecap="butt" d="m316.00146 272.70187l-9.077667 3.2994385l9.074738 3.307495z" fill-rule="evenodd"/><path fill="#000000" fill-opacity="0.0" d="m408.0 272.0l24.0 0l0 24.0l-24.0 0z" fill-rule="evenodd"/><path fill="#000000" d="m417.54688 284.09686q0 -1.6875 0.34375 -2.71875q0.359375 -1.03125 1.046875 -1.59375q0.6875 -0.5625 1.71875 -0.5625q0.78125 0 1.359375 0.3125q0.578125 0.296875 0.953125 0.890625q0.375 0.578125 0.59375 1.421875q0.21875 0.828125 0.21875 2.25q0 1.671875 -0.359375 2.703125q-0.34375 1.03125 -1.03125 1.59375q-0.671875 0.5625 -1.734375 0.5625q-1.375 0 -2.15625 -0.984375q-0.953125 -1.1875 -0.953125 -3.875zm1.203125 0q0 2.34375 0.546875 3.125q0.5625 0.78125 1.359375 0.78125q0.8125 0 1.359375 -0.78125q0.5625 -0.78125 0.5625 -3.125q0 -2.359375 -0.5625 -3.125q-0.546875 -0.78125 -1.359375 -0.78125q-0.8125 0 -1.296875 0.6875q-0.609375 0.875 -0.609375 3.21875z" fill-rule="nonzero"/><path fill="#000000" fill-opacity="0.0" d="m400.0 276.0c14.0 0 21.0 0.01574707 28.0 0.03149414c7.0 0.01574707 14.0 0.03149414 28.0 0.03149414" fill-rule="evenodd"/><path stroke="#000000" stroke-width="2.0" stroke-linejoin="round" stroke-linecap="butt" d="m412.0 276.00534l4.625 0.0045166016c4.375 0.0058898926 7.875 0.013763428 11.375 0.021636963c7.0 0.01574707 14.0 0.03149414 28.0 0.03149414" fill-rule="evenodd"/><path fill="#000000" stroke="#000000" stroke-width="2.0" stroke-linecap="butt" d="m412.00146 272.70187l-9.077667 3.2994385l9.074738 3.307495z" fill-rule="evenodd"/><path fill="#000000" fill-opacity="0.0" d="m216.0 272.0l24.0 0l0 24.0l-24.0 0z" fill-rule="evenodd"/><path fill="#000000" d="m225.54688 284.09686q0 -1.6875 0.34375 -2.71875q0.359375 -1.03125 1.046875 -1.59375q0.6875 -0.5625 1.71875 -0.5625q0.78125 0 1.359375 0.3125q0.578125 0.296875 0.953125 0.890625q0.375 0.578125 0.59375 1.421875q0.21875 0.828125 0.21875 2.25q0 1.671875 -0.359375 2.703125q-0.34375 1.03125 -1.03125 1.59375q-0.671875 0.5625 -1.734375 0.5625q-1.375 0 -2.15625 -0.984375q-0.953125 -1.1875 -0.953125 -3.875zm1.203125 0q0 2.34375 0.546875 3.125q0.5625 0.78125 1.359375 0.78125q0.8125 0 1.359375 -0.78125q0.5625 -0.78125 0.5625 -3.125q0 -2.359375 -0.5625 -3.125q-0.546875 -0.78125 -1.359375 -0.78125q-0.8125 0 -1.296875 0.6875q-0.609375 0.875 -0.609375 3.21875z" fill-rule="nonzero"/><path fill="#000000" fill-opacity="0.0" d="m208.0 276.0c14.0 0 21.0 0.01574707 28.0 0.03149414c7.0 0.01574707 14.0 0.03149414 28.0 0.03149414" fill-rule="evenodd"/><path stroke="#000000" stroke-width="2.0" stroke-linejoin="round" stroke-linecap="butt" d="m220.0 276.00534l4.625 0.0045166016c4.375 0.0058898926 7.875 0.013763428 11.375 0.021636963c7.0 0.01574707 14.0 0.03149414 28.0 0.03149414" fill-rule="evenodd"/><path fill="#000000" stroke="#000000" stroke-width="2.0" stroke-linecap="butt" d="m220.00146 272.70187l-9.077667 3.2994385l9.074738 3.307495z" fill-rule="evenodd"/><path fill="#000000" fill-opacity="0.0" d="m216.0 200.0l24.0 0l0 24.0l-24.0 0z" fill-rule="evenodd"/><path fill="#000000" d="m225.54688 212.09688q0 -1.6875 0.34375 -2.71875q0.359375 -1.03125 1.046875 -1.59375q0.6875 -0.5625 1.71875 -0.5625q0.78125 0 1.359375 0.3125q0.578125 0.296875 0.953125 0.890625q0.375 0.578125 0.59375 1.421875q0.21875 0.828125 0.21875 2.25q0 1.671875 -0.359375 2.703125q-0.34375 1.03125 -1.03125 1.59375q-0.671875 0.5625 -1.734375 0.5625q-1.375 0 -2.15625 -0.984375q-0.953125 -1.1875 -0.953125 -3.875zm1.203125 0q0 2.34375 0.546875 3.125q0.5625 0.78125 1.359375 0.78125q0.8125 0 1.359375 -0.78125q0.5625 -0.78125 0.5625 -3.125q0 -2.359375 -0.5625 -3.125q-0.546875 -0.78125 -1.359375 -0.78125q-0.8125 0 -1.296875 0.6875q-0.609375 0.875 -0.609375 3.21875z" fill-rule="nonzero"/><path fill="#000000" fill-opacity="0.0" d="m208.0 204.0c14.0 0 21.0 0.01574707 28.0 0.03149414c7.0 0.01574707 14.0 0.03149414 28.0 0.03149414" fill-rule="evenodd"/><path stroke="#000000" stroke-width="2.0" stroke-linejoin="round" stroke-linecap="butt" d="m220.0 204.00533l4.625 0.0045166016c4.375 0.0059051514 7.875 0.0137786865 11.375 0.021652222c7.0 0.01574707 14.0 0.03149414 28.0 0.03149414" fill-rule="evenodd"/><path fill="#000000" stroke="#000000" stroke-width="2.0" stroke-linecap="butt" d="m220.00146 200.70187l-9.077667 3.2994232l9.074738 3.3075104z" fill-rule="evenodd"/><path fill="#000000" fill-opacity="0.0" d="m208.0 132.0c14.0 0 21.0 18.0 28.0 36.0c7.0 18.0 14.0 36.0 28.0 36.0" fill-rule="evenodd"/><path stroke="#000000" stroke-width="2.0" stroke-linejoin="round" stroke-linecap="butt" d="m219.1018 136.55519l0.1860199 0.16893005c0.64430237 0.5932617 1.2697906 1.2348633 1.8781891 1.9204102c1.2167969 1.3710938 2.3652344 2.9179688 3.4589844 4.6054688c4.375 6.75 7.875 15.75 11.375 24.75c7.0 18.0 14.0 36.0 28.0 36.0" fill-rule="evenodd"/><path fill="#000000" stroke="#000000" stroke-width="2.0" stroke-linecap="butt" d="m220.3558 133.499l-9.650848 -0.38911438l7.142868 6.5015106z" fill-rule="evenodd"/><path fill="#000000" fill-opacity="0.0" d="m232.0 156.0l24.0 0l0 24.0l-24.0 0z" fill-rule="evenodd"/><path fill="#000000" d="m241.54688 168.09688q0 -1.6875 0.34375 -2.71875q0.359375 -1.03125 1.046875 -1.59375q0.6875 -0.5625 1.71875 -0.5625q0.78125 0 1.359375 0.3125q0.578125 0.296875 0.953125 0.890625q0.375 0.578125 0.59375 1.421875q0.21875 0.828125 0.21875 2.25q0 1.671875 -0.359375 2.703125q-0.34375 1.03125 -1.03125 1.59375q-0.671875 0.5625 -1.734375 0.5625q-1.375 0 -2.15625 -0.984375q-0.953125 -1.1875 -0.953125 -3.875zm1.203125 0q0 2.34375 0.546875 3.125q0.5625 0.78125 1.359375 0.78125q0.8125 0 1.359375 -0.78125q0.5625 -0.78125 0.5625 -3.125q0 -2.359375 -0.5625 -3.125q-0.546875 -0.78125 -1.359375 -0.78125q-0.8125 0 -1.296875 0.6875q-0.609375 0.875 -0.609375 3.21875z" fill-rule="nonzero"/><path fill="#000000" fill-opacity="0.0" d="m224.0 236.0l24.0 0l0 24.0l-24.0 0z" fill-rule="evenodd"/><path fill="#000000" d="m233.54688 248.09688q0 -1.6875 0.34375 -2.71875q0.359375 -1.03125 1.046875 -1.59375q0.6875 -0.5625 1.71875 -0.5625q0.78125 0 1.359375 0.3125q0.578125 0.296875 0.953125 0.890625q0.375 0.578125 0.59375 1.421875q0.21875 0.828125 0.21875 2.25q0 1.671875 -0.359375 2.703125q-0.34375 1.03125 -1.03125 1.59375q-0.671875 0.5625 -1.734375 0.5625q-1.375 0 -2.15625 -0.984375q-0.953125 -1.1875 -0.953125 -3.875zm1.203125 0q0 2.34375 0.546875 3.125q0.5625 0.78125 1.359375 0.78125q0.8125 0 1.359375 -0.78125q0.5625 -0.78125 0.5625 -3.125q0 -2.359375 -0.5625 -3.125q-0.546875 -0.78125 -1.359375 -0.78125q-0.8125 0 -1.296875 0.6875q-0.609375 0.875 -0.609375 3.21875z" fill-rule="nonzero"/><path fill="#000000" fill-opacity="0.0" d="m208.0 132.0c14.0 0 21.0 36.0 28.0 72.0c7.0 36.0 14.0 72.0 28.0 72.0" fill-rule="evenodd"/><path stroke="#000000" stroke-width="2.0" stroke-linejoin="round" stroke-linecap="butt" d="m217.79611 138.93082l0.009643555 0.014602661c0.16836548 0.25914 0.33546448 0.5247345 0.50135803 0.7966461c0.33174133 0.54382324 0.6585846 1.112915 0.9807129 1.7061768c0.64430237 1.1865234 1.2697906 2.4697266 1.8781891 3.8408203c1.2167969 2.7421875 2.3652344 5.8359375 3.4589844 9.2109375c4.375 13.5 7.875 31.5 11.375 49.5c7.0 36.0 14.0 72.0 28.0 72.0" fill-rule="evenodd"/><path fill="#000000" stroke="#000000" stroke-width="2.0" stroke-linecap="butt" d="m219.70409 136.23405l-9.317261 -2.5453644l5.5013123 7.9388885z" fill-rule="evenodd"/><path fill="#000000" fill-opacity="0.0" d="m152.0 -8.0l72.0 0l0 40.0l-72.0 0z" fill-rule="evenodd"/><path fill="#000000" d="m165.0696 18.919998l0 -13.359375l4.609375 0q1.546875 0 2.375 0.203125q1.140625 0.25 1.953125 0.953125q1.0625 0.890625 1.578125 2.28125q0.53125 1.390625 0.53125 3.171875q0 1.515625 -0.359375 2.703125q-0.359375 1.171875 -0.921875 1.9375q-0.546875 0.765625 -1.203125 1.21875q-0.65625 0.4375 -1.59375 0.671875q-0.9375 0.21875 -2.140625 0.21875l-4.828125 0zm1.765625 -1.578125l2.859375 0q1.3125 0 2.0625 -0.234375q0.75 -0.25 1.203125 -0.703125q0.625 -0.625 0.96875 -1.6875q0.359375 -1.0625 0.359375 -2.578125q0 -2.09375 -0.6875 -3.21875q-0.6875 -1.125 -1.671875 -1.5q-0.703125 -0.28125 -2.28125 -0.28125l-2.8125 0l0 10.203125zm17.816696 0.390625q-0.921875 0.765625 -1.765625 1.09375q-0.828125 0.3125 -1.796875 0.3125q-1.59375 0 -2.453125 -0.78125q-0.859375 -0.78125 -0.859375 -1.984375q0 -0.71875 0.328125 -1.296875q0.328125 -0.59375 0.84375 -0.9375q0.53125 -0.359375 1.1875 -0.546875q0.46875 -0.125 1.453125 -0.25q1.984375 -0.234375 2.921875 -0.5625q0.015625 -0.34375 0.015625 -0.421875q0 -1.0 -0.46875 -1.421875q-0.625 -0.546875 -1.875 -0.546875q-1.15625 0 -1.703125 0.40625q-0.546875 0.40625 -0.8125 1.421875l-1.609375 -0.21875q0.21875 -1.015625 0.71875 -1.640625q0.5 -0.640625 1.453125 -0.984375q0.953125 -0.34375 2.1875 -0.34375q1.25 0 2.015625 0.296875q0.78125 0.28125 1.140625 0.734375q0.375 0.4375 0.515625 1.109375q0.078125 0.421875 0.078125 1.515625l0 2.1875q0 2.28125 0.109375 2.890625q0.109375 0.59375 0.40625 1.15625l-1.703125 0q-0.265625 -0.515625 -0.328125 -1.1875zm-0.140625 -3.671875q-0.890625 0.375 -2.671875 0.625q-1.015625 0.140625 -1.4375 0.328125q-0.421875 0.1875 -0.65625 0.53125q-0.21875 0.34375 -0.21875 0.78125q0 0.65625 0.5 1.09375q0.5 0.4375 1.453125 0.4375q0.9375 0 1.671875 -0.40625q0.75 -0.421875 1.09375 -1.140625q0.265625 -0.5625 0.265625 -1.640625l0 -0.609375zm4.125717 8.578125l-0.1875 -1.53125q0.546875 0.140625 0.9375 0.140625q0.546875 0 0.875 -0.1875q0.328125 -0.171875 0.546875 -0.5q0.15625 -0.25 0.5 -1.21875q0.046875 -0.140625 0.140625 -0.40625l-3.671875 -9.6875l1.765625 0l2.015625 5.59375q0.390625 1.078125 0.703125 2.25q0.28125 -1.125 0.671875 -2.203125l2.078125 -5.640625l1.640625 0l-3.6875 9.828125q-0.59375 1.609375 -0.921875 2.203125q-0.4375 0.8125 -1.0 1.1875q-0.5625 0.375 -1.34375 0.375q-0.484375 0 -1.0625 -0.203125zm20.308304 -3.71875l-1.640625 0l0 -10.453125q-0.59375 0.5625 -1.5625 1.140625q-0.953125 0.5625 -1.71875 0.84375l0 -1.59375q1.375 -0.640625 2.40625 -1.5625q1.03125 -0.921875 1.453125 -1.78125l1.0625 0l0 13.40625z" fill-rule="nonzero"/><path fill="#000000" fill-opacity="0.0" d="m248.0 -8.0l72.0 0l0 40.0l-72.0 0z" fill-rule="evenodd"/><path fill="#000000" d="m261.06958 18.919998l0 -13.359375l4.609375 0q1.546875 0 2.375 0.203125q1.140625 0.25 1.953125 0.953125q1.0625 0.890625 1.578125 2.28125q0.53125 1.390625 0.53125 3.171875q0 1.515625 -0.359375 2.703125q-0.359375 1.171875 -0.921875 1.9375q-0.546875 0.765625 -1.203125 1.21875q-0.65625 0.4375 -1.59375 0.671875q-0.9375 0.21875 -2.140625 0.21875l-4.828125 0zm1.765625 -1.578125l2.859375 0q1.3125 0 2.0625 -0.234375q0.75 -0.25 1.203125 -0.703125q0.625 -0.625 0.96875 -1.6875q0.359375 -1.0625 0.359375 -2.578125q0 -2.09375 -0.6875 -3.21875q-0.6875 -1.125 -1.671875 -1.5q-0.703125 -0.28125 -2.28125 -0.28125l-2.8125 0l0 10.203125zm17.816711 0.390625q-0.921875 0.765625 -1.765625 1.09375q-0.828125 0.3125 -1.796875 0.3125q-1.59375 0 -2.453125 -0.78125q-0.859375 -0.78125 -0.859375 -1.984375q0 -0.71875 0.328125 -1.296875q0.328125 -0.59375 0.84375 -0.9375q0.53125 -0.359375 1.1875 -0.546875q0.46875 -0.125 1.453125 -0.25q1.984375 -0.234375 2.921875 -0.5625q0.015625 -0.34375 0.015625 -0.421875q0 -1.0 -0.46875 -1.421875q-0.625 -0.546875 -1.875 -0.546875q-1.15625 0 -1.703125 0.40625q-0.546875 0.40625 -0.8125 1.421875l-1.609375 -0.21875q0.21875 -1.015625 0.71875 -1.640625q0.5 -0.640625 1.453125 -0.984375q0.953125 -0.34375 2.1875 -0.34375q1.25 0 2.015625 0.296875q0.78125 0.28125 1.140625 0.734375q0.375 0.4375 0.515625 1.109375q0.078125 0.421875 0.078125 1.515625l0 2.1875q0 2.28125 0.109375 2.890625q0.109375 0.59375 0.40625 1.15625l-1.703125 0q-0.265625 -0.515625 -0.328125 -1.1875zm-0.140625 -3.671875q-0.890625 0.375 -2.671875 0.625q-1.015625 0.140625 -1.4375 0.328125q-0.421875 0.1875 -0.65625 0.53125q-0.21875 0.34375 -0.21875 0.78125q0 0.65625 0.5 1.09375q0.5 0.4375 1.453125 0.4375q0.9375 0 1.671875 -0.40625q0.75 -0.421875 1.09375 -1.140625q0.265625 -0.5625 0.265625 -1.640625l0 -0.609375zm4.1257324 8.578125l-0.1875 -1.53125q0.546875 0.140625 0.9375 0.140625q0.546875 0 0.875 -0.1875q0.328125 -0.171875 0.546875 -0.5q0.15625 -0.25 0.5 -1.21875q0.046875 -0.140625 0.140625 -0.40625l-3.671875 -9.6875l1.765625 0l2.015625 5.59375q0.390625 1.078125 0.703125 2.25q0.28125 -1.125 0.671875 -2.203125l2.078125 -5.640625l1.640625 0l-3.6875 9.828125q-0.59375 1.609375 -0.921875 2.203125q-0.4375 0.8125 -1.0 1.1875q-0.5625 0.375 -1.34375 0.375q-0.484375 0 -1.0625 -0.203125zm22.745789 -5.296875l0 1.578125l-8.828125 0q-0.015625 -0.59375 0.1875 -1.140625q0.34375 -0.90625 1.078125 -1.78125q0.75 -0.875 2.15625 -2.015625q2.171875 -1.78125 2.9375 -2.828125q0.765625 -1.046875 0.765625 -1.96875q0 -0.984375 -0.703125 -1.640625q-0.6875 -0.671875 -1.8125 -0.671875q-1.1875 0 -1.90625 0.71875q-0.703125 0.703125 -0.703125 1.953125l-1.6875 -0.171875q0.171875 -1.890625 1.296875 -2.875q1.140625 -0.984375 3.03125 -0.984375q1.921875 0 3.046875 1.0625q1.125 1.0625 1.125 2.640625q0 0.796875 -0.328125 1.578125q-0.328125 0.78125 -1.09375 1.640625q-0.75 0.84375 -2.53125 2.34375q-1.46875 1.234375 -1.890625 1.6875q-0.421875 0.4375 -0.6875 0.875l6.546875 0z" fill-rule="nonzero"/><path fill="#000000" fill-opacity="0.0" d="m344.0 -8.0l72.0 0l0 40.0l-72.0 0z" fill-rule="evenodd"/><path fill="#000000" d="m357.06958 18.919998l0 -13.359375l4.609375 0q1.546875 0 2.375 0.203125q1.140625 0.25 1.953125 0.953125q1.0625 0.890625 1.578125 2.28125q0.53125 1.390625 0.53125 3.171875q0 1.515625 -0.359375 2.703125q-0.359375 1.171875 -0.921875 1.9375q-0.546875 0.765625 -1.203125 1.21875q-0.65625 0.4375 -1.59375 0.671875q-0.9375 0.21875 -2.140625 0.21875l-4.828125 0zm1.765625 -1.578125l2.859375 0q1.3125 0 2.0625 -0.234375q0.75 -0.25 1.203125 -0.703125q0.625 -0.625 0.96875 -1.6875q0.359375 -1.0625 0.359375 -2.578125q0 -2.09375 -0.6875 -3.21875q-0.6875 -1.125 -1.671875 -1.5q-0.703125 -0.28125 -2.28125 -0.28125l-2.8125 0l0 10.203125zm17.816711 0.390625q-0.921875 0.765625 -1.765625 1.09375q-0.828125 0.3125 -1.796875 0.3125q-1.59375 0 -2.453125 -0.78125q-0.859375 -0.78125 -0.859375 -1.984375q0 -0.71875 0.328125 -1.296875q0.328125 -0.59375 0.84375 -0.9375q0.53125 -0.359375 1.1875 -0.546875q0.46875 -0.125 1.453125 -0.25q1.984375 -0.234375 2.921875 -0.5625q0.015625 -0.34375 0.015625 -0.421875q0 -1.0 -0.46875 -1.421875q-0.625 -0.546875 -1.875 -0.546875q-1.15625 0 -1.703125 0.40625q-0.546875 0.40625 -0.8125 1.421875l-1.609375 -0.21875q0.21875 -1.015625 0.71875 -1.640625q0.5 -0.640625 1.453125 -0.984375q0.953125 -0.34375 2.1875 -0.34375q1.25 0 2.015625 0.296875q0.78125 0.28125 1.140625 0.734375q0.375 0.4375 0.515625 1.109375q0.078125 0.421875 0.078125 1.515625l0 2.1875q0 2.28125 0.109375 2.890625q0.109375 0.59375 0.40625 1.15625l-1.703125 0q-0.265625 -0.515625 -0.328125 -1.1875zm-0.140625 -3.671875q-0.890625 0.375 -2.671875 0.625q-1.015625 0.140625 -1.4375 0.328125q-0.421875 0.1875 -0.65625 0.53125q-0.21875 0.34375 -0.21875 0.78125q0 0.65625 0.5 1.09375q0.5 0.4375 1.453125 0.4375q0.9375 0 1.671875 -0.40625q0.75 -0.421875 1.09375 -1.140625q0.265625 -0.5625 0.265625 -1.640625l0 -0.609375zm4.1257324 8.578125l-0.1875 -1.53125q0.546875 0.140625 0.9375 0.140625q0.546875 0 0.875 -0.1875q0.328125 -0.171875 0.546875 -0.5q0.15625 -0.25 0.5 -1.21875q0.046875 -0.140625 0.140625 -0.40625l-3.671875 -9.6875l1.765625 0l2.015625 5.59375q0.390625 1.078125 0.703125 2.25q0.28125 -1.125 0.671875 -2.203125l2.078125 -5.640625l1.640625 0l-3.6875 9.828125q-0.59375 1.609375 -0.921875 2.203125q-0.4375 0.8125 -1.0 1.1875q-0.5625 0.375 -1.34375 0.375q-0.484375 0 -1.0625 -0.203125zm14.136414 -7.25l1.640625 -0.21875q0.28125 1.40625 0.953125 2.015625q0.6875 0.609375 1.65625 0.609375q1.15625 0 1.953125 -0.796875q0.796875 -0.796875 0.796875 -1.984375q0 -1.125 -0.734375 -1.859375q-0.734375 -0.734375 -1.875 -0.734375q-0.46875 0 -1.15625 0.171875l0.1875 -1.4375q0.15625 0.015625 0.265625 0.015625q1.046875 0 1.875 -0.546875q0.84375 -0.546875 0.84375 -1.671875q0 -0.90625 -0.609375 -1.5q-0.609375 -0.59375 -1.578125 -0.59375q-0.953125 0 -1.59375 0.609375q-0.640625 0.59375 -0.8125 1.796875l-1.640625 -0.296875q0.296875 -1.640625 1.359375 -2.546875q1.0625 -0.90625 2.65625 -0.90625q1.09375 0 2.0 0.46875q0.921875 0.46875 1.40625 1.28125q0.5 0.8125 0.5 1.71875q0 0.859375 -0.46875 1.578125q-0.46875 0.703125 -1.375 1.125q1.1875 0.28125 1.84375 1.140625q0.65625 0.859375 0.65625 2.15625q0 1.734375 -1.28125 2.953125q-1.265625 1.21875 -3.21875 1.21875q-1.765625 0 -2.921875 -1.046875q-1.15625 -1.046875 -1.328125 -2.71875z" fill-rule="nonzero"/><path fill="#000000" fill-opacity="0.0" d="m440.0 -8.0l72.0 0l0 40.0l-72.0 0z" fill-rule="evenodd"/><path fill="#000000" d="m453.06958 18.919998l0 -13.359375l4.609375 0q1.546875 0 2.375 0.203125q1.140625 0.25 1.953125 0.953125q1.0625 0.890625 1.578125 2.28125q0.53125 1.390625 0.53125 3.171875q0 1.515625 -0.359375 2.703125q-0.359375 1.171875 -0.921875 1.9375q-0.546875 0.765625 -1.203125 1.21875q-0.65625 0.4375 -1.59375 0.671875q-0.9375 0.21875 -2.140625 0.21875l-4.828125 0zm1.765625 -1.578125l2.859375 0q1.3125 0 2.0625 -0.234375q0.75 -0.25 1.203125 -0.703125q0.625 -0.625 0.96875 -1.6875q0.359375 -1.0625 0.359375 -2.578125q0 -2.09375 -0.6875 -3.21875q-0.6875 -1.125 -1.671875 -1.5q-0.703125 -0.28125 -2.28125 -0.28125l-2.8125 0l0 10.203125zm17.816711 0.390625q-0.921875 0.765625 -1.765625 1.09375q-0.828125 0.3125 -1.796875 0.3125q-1.59375 0 -2.453125 -0.78125q-0.859375 -0.78125 -0.859375 -1.984375q0 -0.71875 0.328125 -1.296875q0.328125 -0.59375 0.84375 -0.9375q0.53125 -0.359375 1.1875 -0.546875q0.46875 -0.125 1.453125 -0.25q1.984375 -0.234375 2.921875 -0.5625q0.015625 -0.34375 0.015625 -0.421875q0 -1.0 -0.46875 -1.421875q-0.625 -0.546875 -1.875 -0.546875q-1.15625 0 -1.703125 0.40625q-0.546875 0.40625 -0.8125 1.421875l-1.609375 -0.21875q0.21875 -1.015625 0.71875 -1.640625q0.5 -0.640625 1.453125 -0.984375q0.953125 -0.34375 2.1875 -0.34375q1.25 0 2.015625 0.296875q0.78125 0.28125 1.140625 0.734375q0.375 0.4375 0.515625 1.109375q0.078125 0.421875 0.078125 1.515625l0 2.1875q0 2.28125 0.109375 2.890625q0.109375 0.59375 0.40625 1.15625l-1.703125 0q-0.265625 -0.515625 -0.328125 -1.1875zm-0.140625 -3.671875q-0.890625 0.375 -2.671875 0.625q-1.015625 0.140625 -1.4375 0.328125q-0.421875 0.1875 -0.65625 0.53125q-0.21875 0.34375 -0.21875 0.78125q0 0.65625 0.5 1.09375q0.5 0.4375 1.453125 0.4375q0.9375 0 1.671875 -0.40625q0.75 -0.421875 1.09375 -1.140625q0.265625 -0.5625 0.265625 -1.640625l0 -0.609375zm4.1257324 8.578125l-0.1875 -1.53125q0.546875 0.140625 0.9375 0.140625q0.546875 0 0.875 -0.1875q0.328125 -0.171875 0.546875 -0.5q0.15625 -0.25 0.5 -1.21875q0.046875 -0.140625 0.140625 -0.40625l-3.671875 -9.6875l1.765625 0l2.015625 5.59375q0.390625 1.078125 0.703125 2.25q0.28125 -1.125 0.671875 -2.203125l2.078125 -5.640625l1.640625 0l-3.6875 9.828125q-0.59375 1.609375 -0.921875 2.203125q-0.4375 0.8125 -1.0 1.1875q-0.5625 0.375 -1.34375 0.375q-0.484375 0 -1.0625 -0.203125zm19.386414 -3.71875l0 -3.203125l-5.796875 0l0 -1.5l6.09375 -8.65625l1.34375 0l0 8.65625l1.796875 0l0 1.5l-1.796875 0l0 3.203125l-1.640625 0zm0 -4.703125l0 -6.015625l-4.1875 6.015625l4.1875 0z" fill-rule="nonzero"/></g></svg>